<?xml version="1.0" encoding="utf-8"?>
<!-- Generator: Adobe Illustrator 25.2.1, SVG Export Plug-In . SVG Version: 6.00 Build 0)  -->
<svg version="1.1" xmlns="http://www.w3.org/2000/svg" xmlns:xlink="http://www.w3.org/1999/xlink" x="0px" y="0px"
	 viewBox="0 0 100 100" style="enable-background:new 0 0 100 100;" xml:space="preserve">
<style type="text/css">
	.st0{display:none;}
	.st1{display:inline;fill:#FFFFFF;}
	.st2{fill:#FFFFFF;}
</style>
<g id="Layer_2">
</g>
<g id="Layer_1">
	<g>
		<g class="st0">
			<circle class="st1" cx="50.6" cy="58" r="36.5"/>
		</g>
		<g>
			<g>
				<path class="st2" d="M84.1,43.5C79,32.2,68.6,24.3,56.3,22.3l-0.3,0l1.6,3.8l0.1,0c7.2,1.1,13.1,4.3,17.6,9.5
					c-0.1,0-0.2,0-0.2,0l0,0c-1.4,0.1-2.6,0.6-3.5,1.5c-0.1-0.1-0.1-0.2-0.2-0.2c-1.2-1.1-2.6-1.3-3.4-1.3v0c0,0,0,0,0,0
					c-0.3,0-0.6,0-0.6,0l0,0c-1.5,0.1-2.7,0.6-3.6,1.6c-1.5,1.6-1.3,3.6-1.3,3.9l2.9,0c0,0-0.1-1.2,0.6-1.9c0.4-0.4,1.1-0.6,2-0.7
					c0.4,0,1,0.1,1.5,0.5c0.4,0.4,0.7,1.1,0.7,2h0c0,0,0,0,0,0l1.1,0h1.8c0,0,0,0,0,0h0c0,0,0-1.2,0.6-1.9c0.4-0.4,1.1-0.7,2-0.7
					c0.5,0,1.4,0.1,1.9,0.6c0.4,0.4,0.9,0.9,1.5,1.6c0.8,1.3,1.5,2.6,2.1,4.1c2.5,5.7,3.5,11.8,2.7,17.8h-8.1v3h7.6
					c-0.2,0.8-0.4,1.6-0.6,2.4h-12v3h10.9c-2.2,5.5-5.6,10.2-10.1,13.8l0-6.7l-5.3,0V48.1h-8.1v-5.9l-10.5-0.1V31.3l-3.2-0.8V19.8
					l-3.3-1.3V7.8l-1.5-1.8l-1.5,1.8v9.5l-2-0.8l-2.2,0.8V8.1l-1.5-1.8l-1.5,1.8v10.4l-3.5,1.3v10.6l-3.3,0.9v15.4l-3,0.6v27.4
					c-0.4-0.8-0.8-1.6-1.2-2.4c-5.1-11.2-4.3-22.5,2.2-31.6l0-0.1l-1.5-3.5l-0.2,0.2c-7.5,10.6-8.8,24.5-3.5,36.3
					c5.9,13.1,19.1,21.6,33.5,21.6c5.2,0,10.2-1.1,15-3.2C84.2,83.7,92.4,61.9,84.1,43.5z M37.7,47.7c0.9,0.2,1.9,0.5,2.9,0.8v42
					c-1-0.3-2-0.7-2.9-1.1V47.7z M68.7,86.8c-1.4,0.9-2.8,1.6-4.3,2.3c-2,0.9-4.1,1.6-6.2,2.1V80.9l10.4,0.1L68.7,86.8z M63.4,51.1
					v26.8l-5.1,0V51.1H63.4z M55.3,80.9v10.9c-1.5,0.2-3,0.3-4.6,0.3c-2.4,0-4.8-0.3-7.1-0.8V45l11.7,0.2L55.3,80.9L55.3,80.9
					L55.3,80.9z M44.8,42L40.6,42v3.5c-1.1-0.3-2.1-0.6-2.9-0.8V31.7l7.1,1.9V42z M41.6,29.7l-3.9-1v-8.4l3.9,1.6
					C41.6,21.8,41.6,29.7,41.6,29.7z M30.7,21.9l4.1-1.6v8.3l-4.1,1.1V21.9z M27.4,33.6l7.4-2v12.9l-7.4,1.5
					C27.4,46.1,27.4,33.6,27.4,33.6z M24.3,49.7l10.4-2.2V88c-4-2.2-7.6-5.2-10.4-8.8V49.7z"/>
				<rect x="45.6" y="48.1" class="st2" width="3" height="3.7"/>
				<rect x="50.3" y="48.1" class="st2" width="3" height="3.7"/>
				<rect x="45.6" y="54.1" class="st2" width="3" height="3.7"/>
				<rect x="50.3" y="54.1" class="st2" width="3" height="3.7"/>
				<rect x="45.6" y="60" class="st2" width="3" height="3.7"/>
				<rect x="50.3" y="60" class="st2" width="3" height="3.7"/>
				<rect x="45.6" y="65.9" class="st2" width="3" height="3.7"/>
				<rect x="50.3" y="65.9" class="st2" width="3" height="3.7"/>
				<rect x="45.6" y="71.8" class="st2" width="3" height="3.7"/>
				<rect x="50.3" y="71.8" class="st2" width="3" height="3.7"/>
				<rect x="45.6" y="77.7" class="st2" width="3" height="3.7"/>
				<rect x="50.3" y="77.7" class="st2" width="3" height="3.7"/>
				<rect x="45.6" y="83.6" class="st2" width="3" height="3.7"/>
				<rect x="50.3" y="83.6" class="st2" width="3" height="3.7"/>
				<rect x="59.4" y="54.1" class="st2" width="3" height="3.7"/>
				<rect x="59.4" y="60" class="st2" width="3" height="3.7"/>
				<rect x="59.4" y="65.9" class="st2" width="3" height="3.7"/>
				<rect x="59.4" y="71.8" class="st2" width="3" height="3.7"/>
				<rect x="59.7" y="82.4" class="st2" width="3" height="3.7"/>
				<rect x="64.4" y="82.4" class="st2" width="3" height="3.7"/>
			</g>
		</g>
	</g>
</g>
</svg>
