<?xml version="1.0" encoding="utf-8"?>
<!-- Generator: Adobe Illustrator 25.2.1, SVG Export Plug-In . SVG Version: 6.00 Build 0)  -->
<svg version="1.1" id="Layer_1" xmlns="http://www.w3.org/2000/svg" xmlns:xlink="http://www.w3.org/1999/xlink" x="0px" y="0px"
	 viewBox="0 0 100 100" style="enable-background:new 0 0 100 100;" xml:space="preserve">
<style type="text/css">
	.st0{fill:#FFFFFF;}
</style>
<path class="st0" d="M20.3,46.9c-0.9,0-1.6,0.7-1.6,1.6V50c0,0.9,0.7,1.6,1.6,1.6s1.6-0.7,1.6-1.6v-1.6
	C21.9,47.6,21.2,46.9,20.3,46.9z"/>
<path class="st0" d="M26.6,46.9c-0.9,0-1.6,0.7-1.6,1.6V50c0,0.9,0.7,1.6,1.6,1.6s1.6-0.7,1.6-1.6v-1.6
	C28.1,47.6,27.4,46.9,26.6,46.9z"/>
<path class="st0" d="M100,21.2c0.1-0.9-0.6-1.6-1.4-1.7s-1.6,0.6-1.7,1.4l0,0c0,0.1-0.7,7.2-4.6,7.2H78.9l6.9-15
	c0.1-0.2,0.1-0.3,0.1-0.5c3.7-3,5.3-9.8,5.5-10.8C91.5,1,91,0.2,90.1,0s-1.7,0.4-1.9,1.2l0,0c-0.3,1.2-0.6,2.4-1,3.5
	c-0.2-0.1-0.3-0.1-0.5-0.1H15c-0.4-1.1-0.7-2.3-1-3.4c-0.2-0.9-1-1.4-1.9-1.2c-0.9,0.2-1.4,1-1.2,1.9c0.2,1,2,9,6.4,11.4l6.8,14.8
	H7.7c-3.9,0-4.6-7.1-4.6-7.2c-0.1-0.9-0.8-1.5-1.7-1.4s-1.5,0.8-1.4,1.7c0.2,3,1.6,7.7,5,9.4l6.7,11.5c0,0,0,0.1,0,0.1v54.7H7.8
	c-0.9,0-1.6,0.7-1.6,1.6s0.7,1.6,1.6,1.6h31.2c0.9,0,1.6-0.7,1.6-1.6s-0.7-1.6-1.6-1.6h-3.9V65.6h29.7v31.2h-3.9
	c-0.9,0-1.6,0.7-1.6,1.6s0.7,1.6,1.6,1.6h31.2c0.9,0,1.6-0.7,1.6-1.6s-0.7-1.6-1.6-1.6h-3.9V42.2c0,0,0-0.1,0-0.1L95,30.6
	C98.4,29,99.8,24.2,100,21.2z M21.2,14.1h60.8l-1.6,3.4l-6.7,2.9H29.4l-6.7-2.9L21.2,14.1z M37.5,23.4h3.1v4.7h-3.1V23.4z
	 M43.8,23.4h3.1v4.7h-3.1V23.4z M50,23.4h3.1v4.7H50V23.4z M56.2,23.4h3.1v4.7h-3.1V23.4z M62.5,23.4h3.1v4.7h-3.1V23.4z M31.2,23.4
	h3.1v4.7h-3.1V23.4z M85.2,54.7H68V43.8h17.2V54.7z M14.8,54.7V43.8H32v10.9H14.8z M64.8,56.2H35.2V37.5h29.7V56.2z M32,40.6H14.5
	l-1.8-3.1H32V40.6z M14.8,57.8H18v26.6h-3.1V57.8z M21.1,85.9V57.8h4.7v39.1h-4.7V85.9z M28.9,57.8H32v26.6h-3.1V57.8z M35.2,59.4
	h29.7v3.1H35.2V59.4z M68,57.8h3.1v26.6H68V57.8z M74.2,85.9V57.8h4.7v39.1h-4.7V85.9z M82,57.8h3.1v26.6H82V57.8z M85.5,40.6H68
	v-3.1h19.4L85.5,40.6z M64.8,34.4H35.2v-3.1h29.7V34.4z M68.8,23.4h3.1v4.7h-3.1V23.4z M75,23.2l3.5-1.5l-3,6.5H75V23.2z M85.9,7.8
	c-1,1.8-2.3,3.1-3.8,3.1H20.2c-1.5,0-2.8-1.4-3.8-3.1H85.9z M24.7,21.7l3.5,1.5v5h-0.5L24.7,21.7z M32,31.2v3.1H10.8L9,31.2H32z
	 M14.8,87.5H18v9.4h-3.1V87.5z M28.9,96.9v-9.4H32v9.4H28.9z M68,87.5h3.1v9.4H68V87.5z M82,96.9v-9.4h3.1v9.4H82z M89.2,34.4H68
	v-3.1H91L89.2,34.4z"/>
<path class="st0" d="M79.7,51.6c0.9,0,1.6-0.7,1.6-1.6v-1.6c0-0.9-0.7-1.6-1.6-1.6s-1.6,0.7-1.6,1.6V50
	C78.1,50.9,78.8,51.6,79.7,51.6z"/>
<path class="st0" d="M73.4,51.6c0.9,0,1.6-0.7,1.6-1.6v-1.6c0-0.9-0.7-1.6-1.6-1.6s-1.6,0.7-1.6,1.6V50
	C71.9,50.9,72.6,51.6,73.4,51.6z"/>
<path class="st0" d="M39.8,53.1h20.3c0.9,0,1.6-0.7,1.6-1.6v-9.4c0-0.9-0.7-1.6-1.6-1.6H39.8c-0.9,0-1.6,0.7-1.6,1.6v9.4
	C38.3,52.4,39,53.1,39.8,53.1z M41.4,43.8h17.2V50H41.4V43.8z"/>
<circle class="st0" cx="46.9" cy="46.9" r="1.6"/>
<circle class="st0" cx="53.1" cy="46.9" r="1.6"/>
<circle class="st0" cx="34.4" cy="17.2" r="1.6"/>
<circle class="st0" cx="40.6" cy="17.2" r="1.6"/>
<circle class="st0" cx="46.9" cy="17.2" r="1.6"/>
<circle class="st0" cx="53.1" cy="17.2" r="1.6"/>
<circle class="st0" cx="59.4" cy="17.2" r="1.6"/>
<circle class="st0" cx="65.6" cy="17.2" r="1.6"/>
</svg>
