<?xml version="1.0" encoding="utf-8"?>
<!-- Generator: Adobe Illustrator 25.2.1, SVG Export Plug-In . SVG Version: 6.00 Build 0)  -->
<svg version="1.1" id="Layer_1" xmlns="http://www.w3.org/2000/svg" xmlns:xlink="http://www.w3.org/1999/xlink" x="0px" y="0px"
	 viewBox="0 0 100 100" style="enable-background:new 0 0 100 100;" xml:space="preserve">
<style type="text/css">
	.st0{fill:#FFFFFF;}
</style>
<path class="st0" d="M37.4,43.3c0-0.6-0.1-1.1-0.1-1.7c-0.2-0.2,0-0.3-0.2-0.5c0.2-0.5-0.1,0.3-0.1,0.4c0,0.3-0.3,0.5-0.3,0.8
	c0,0.1,0,0.3,0,0.4v0.1V43c0,0.2,0,0.4,0,0.5C37,43.5,37.2,43.4,37.4,43.3z"/>
<path class="st0" d="M35.8,44.6l0.3-1.2c0-0.1,0-0.2,0-0.3v-0.3v-0.5c0-0.3,0.1-0.6,0.3-0.8l0.1-0.1c0,0,0,0,0-0.1l0,0l0.1-0.4
	c0.2-0.6,0.6-0.6,0.8-0.6c0.3,0.1,0.5,0.3,0.4,0.6c0,0.1,0,0.1,0.1,0.2l0.1,0.1v0.3c0,0.6,0,1.1,0.1,1.7v0.5l-0.4,0.2l-0.6,0.2
	L35.8,44.6z"/>
<path class="st0" d="M79.7,59.2c1.8-1.7,2.8-4,2.9-6.4c0-8.6-14.5-15.5-32.5-15.5c-2.5,0-4.9,0.1-7.4,0.4c0,0.1,0,0.1,0,0.2v0
	c0.3,0.5,0.5,1,0.7,1.6c0.2,0.6,0.3,1.3,0.3,1.9c0,0.3,0.1,0.6,0.1,0.8h0.3c1.3,0,6.6-1,7.4-0.8s5,1.1,6.5,1.2s6,0.5,6.4,1.3
	s3.5,1.5,4.4,1.8s3.8,1.3,3.9,2.2s1.4,1.9,2.4,2.5c1.1,0.6,2.2,1.3,3.2,2.2c0.2,0.4,3.3,2.9,3.1,3.5C81,57.3,80.4,58.3,79.7,59.2z"
	/>
<path class="st0" d="M80.1,59.7l-0.9-0.8c0.7-0.8,1.2-1.8,1.6-2.8c-0.6-0.7-1.2-1.4-1.9-2c-0.8-0.7-1-1-1.1-1.2
	c-0.9-0.7-1.9-1.3-2.9-1.9c-0.6-0.4-2.6-1.6-2.7-3c-0.1-0.4-1.8-1.2-3.4-1.7l-0.6-0.2c-2-0.5-3.6-1-4.1-1.9c-0.3-0.3-2.6-0.8-6-1
	c-2.2-0.3-4.5-0.7-6.7-1.2c-1.3,0.1-2.5,0.2-3.7,0.4c-1.2,0.2-2.3,0.4-3.5,0.4h-0.3h-0.6l-0.1-0.7c0-0.2,0-0.5-0.1-0.7
	c0-0.6-0.2-1.2-0.3-1.8c-0.1-0.4-0.3-0.8-0.5-1.2L42.1,38L42,37.3l0.6-0.2c2.5-0.3,4.9-0.4,7.4-0.4c18.3,0,33.1,7.2,33.1,16.1
	C83.1,55.4,82,57.9,80.1,59.7z M51.3,40.8c0.1,0,0.3,0,0.4,0c2.1,0.5,4.3,0.9,6.4,1.2c4.1,0.3,6.5,0.8,6.9,1.6
	c0.2,0.3,1.3,0.8,3.4,1.3l0.6,0.2c0.7,0.2,4.2,1.3,4.3,2.8c0,0.5,0.9,1.4,2.1,2c2.7,1.6,3.3,2.1,3.4,2.5l0.8,0.8
	c0.7,0.6,1.3,1.2,1.8,1.8c0.2-0.7,0.4-1.5,0.4-2.2c0-8.2-14.3-14.8-31.9-14.8c-2.2,0-4.3,0.1-6.5,0.3c0.2,0.4,0.3,0.7,0.4,1.1
	c0.2,0.7,0.3,1.3,0.4,2c0,0.1,0,0.2,0,0.3c0.7,0,1.9-0.2,3.1-0.4C48.7,41.1,50,40.9,51.3,40.8z"/>
<path class="st0" d="M19.2,57.8c2.3,3.3,6.9,6.1,12.9,8C24.5,63.3,20.6,59.6,19.2,57.8z"/>
<path class="st0" d="M32,66.4c-6.1-1.9-10.9-4.9-13.2-8.2l1-0.7c0.6,0.8,4,4.9,12.6,7.8L32,66.4z"/>
<path class="st0" d="M19.1,57.5L19,57.4L19.1,57.5z"/>
<polygon class="st0" points="18.5,57.9 18.5,57.8 18.5,57.8 18.5,57.7 19.5,57.1 19.5,57.1 19.5,57.1 19.6,57.2 "/>
<path class="st0" d="M50,71.3c-19.1,0-34.6-7.2-34.6-16.1c0-1.8,0.6-3.5,1.6-5c0.2-0.3,0.6-0.4,0.9-0.2c0.3,0.2,0.4,0.6,0.2,0.9
	c0,0,0,0,0,0c-0.9,1.2-1.4,2.7-1.4,4.2c0,8.2,15,14.9,33.3,14.9s33.3-6.7,33.3-14.9c0-1.6-0.6-3.2-1.6-4.5c-0.3-0.2-0.3-0.6,0-0.9
	c0.2-0.3,0.6-0.3,0.9,0c0.1,0.1,0.1,0.1,0.1,0.2c1.1,1.5,1.8,3.3,1.8,5.2C84.6,64.1,69.1,71.3,50,71.3z"/>
<path class="st0" d="M83.7,69.3c-2.2,7.6-16.5,13.4-33.7,13.4s-31.3-5.8-33.6-13.3L16,55.2c0,0,0.8,15.5,34,15.5s34-15.5,34-15.5
	L83.7,69.3z"/>
<path class="st0" d="M50.1,83.3c-17.4,0-31.8-5.8-34.2-13.8v-0.2l-0.4-14.2h1.3c0,0.2,1.2,14.9,33.2,14.9H50c16.8,0,25-4.1,28.9-7.5
	c4.2-3.7,4.4-7.3,4.4-7.4h1.3l-0.3,14.3C81.9,77.5,67.5,83.3,50.1,83.3z M17,69.3c2.3,7.3,16.5,12.8,33,12.8s30.8-5.5,33-12.9
	l0.2-10C80.7,64,72.9,71.3,50,71.3h-0.1c-22.7,0-30.5-7.2-33.1-12L17,69.3z"/>
<path class="st0" d="M78.5,60.4c-0.1-0.1-8.6-13.2-28-13.2h-0.4c-3.5,0-7,0.4-10.5,1.3l-0.2-0.8c3.5-0.8,7.1-1.3,10.7-1.3h0.4
	c19.9,0,28.6,13.5,28.7,13.6L78.5,60.4z"/>
<path class="st0" d="M20.8,59.4l-0.6-0.5c0.1-0.1,5.6-7.2,17-10.7l0.2,0.8C26.3,52.4,20.9,59.4,20.8,59.4z"/>
<path class="st0" d="M38.2,55.4c-0.1,0.2-0.1,0.2,0,0.2L28,52.9l-1.3-5.2c-0.6,0.2-1.3,0.4-1.5,0.7c-0.3,0.7-2,1.4-2.6,1.5
	s-0.9,1.5-1.1,1.5s-1.3,0.7-1.3,1.1s-1.8,1.9-1.8,1.9s-0.9,0.3,0.3,2.5c-0.8-1.2-1.2-2.7-1.2-4.1c0-5.8,6.8-10.9,16.8-13.6
	c0.1,0.1,0,0.3,0.1,0.3c0,1.3,0.2,2.6,0.4,3.9c0.1,0.3,0.3,0.5,0.6,0.7l-0.1,0.1l2.2-0.8c-0.2,1.3-0.1,2.7,0.1,4
	c0.1,0.3,0.2,0.6,0.3,0.9c0,0.2,0,0.4,0,0.7c-0.2,0.8-0.1,1.6,0.2,2.3c0.1,0.1-0.1,0.2,0,0.3c0,0.6,0,1.2,0.1,1.8
	C38.2,54,38.3,54.7,38.2,55.4z"/>
<path class="st0" d="M18.8,57.6c-0.2,0-0.4-0.1-0.5-0.3C17.4,56,17,54.4,17,52.9c0-5.9,6.6-11.3,17.3-14.2c0.2,0,0.3,0,0.5,0.1
	c0.3,0.1,0.4,0.4,0.4,0.7c0,0.1,0,0.1,0,0.2c0,1.3,0.1,2.6,0.4,3.8c0,0,0,0.1,0,0.1l1.7-0.7c0.3-0.1,0.7,0,0.8,0.3
	c0,0.1,0.1,0.2,0,0.3c0,0.3,0,0.5,0,0.8c-0.1,1-0.1,2,0.2,3c0,0.1,0.1,0.2,0.1,0.3c0.1,0.2,0.2,0.5,0.2,0.8c0,0.3,0,0.5,0,0.8
	c-0.2,0.7-0.1,1.4,0.2,2c0.1,0.1,0.1,0.3,0,0.5c0,0,0,0,0,0.1c0,0.6,0,1.2,0.1,1.7c0,0.2,0,0.5,0.1,0.8c0.1,0.5,0.1,1.1,0,1.6v0.2
	c-0.1,0.3-0.4,0.5-0.7,0.4c0,0,0,0,0,0l-10.2-2.8c-0.2-0.1-0.4-0.2-0.4-0.4l-1.2-4.6c-0.2,0-0.3,0.1-0.5,0.2c-0.4,1-2.5,1.8-3,1.9
	c0,0-0.2,0.4-0.3,0.6c-0.2,0.5-0.4,0.9-0.9,0.9c-0.3,0.1-0.5,0.3-0.7,0.6c0,0.1,0,0.7-2,2.3l-0.1,0c0,0.1-0.1,0.5,0.5,1.7
	c0.2,0.3,0.1,0.7-0.2,0.8C19,57.6,18.9,57.6,18.8,57.6z M38.4,55.5l0.3,0.3l0,0L38.4,55.5L38.4,55.5z M38.4,55.5l0.3,0.3L38.4,55.5z
	 M28.5,52.4l9.1,2.5c0-0.2,0-0.4,0-0.6s-0.1-0.6-0.1-0.8c0-0.5-0.1-1.1-0.1-1.6c0-0.1,0-0.3,0-0.4c-0.3-0.8-0.4-1.6-0.2-2.5
	c0-0.2,0-0.3,0-0.5c0-0.2-0.1-0.3-0.2-0.5c0-0.1-0.1-0.2-0.1-0.3c-0.3-1.1-0.4-2.1-0.2-3.2l-1.2,0.5c-0.3,0.1-0.6,0-0.8-0.3l0,0
	c-0.3-0.2-0.4-0.5-0.5-0.8c-0.2-1.2-0.4-2.4-0.4-3.6c-9.7,2.7-15.6,7.6-15.6,12.8c0,0.3,0,0.7,0.1,1c0.5-0.4,1-0.9,1.3-1.4
	c0.1-0.7,1-1.4,1.6-1.6c0-0.1,0.1-0.2,0.1-0.3c0.3-0.5,0.6-1.2,1.2-1.3c0.8-0.2,1.5-0.6,2.1-1.1c0.3-0.7,1.2-0.9,1.9-1.1
	c0.2,0,0.3,0,0.5,0.1c0.1,0.1,0.2,0.2,0.3,0.4L28.5,52.4z M38.4,51.1L38.4,51.1z M21.5,50.8L21.5,50.8z M34.8,39.1L34.8,39.1z"/>
<path class="st0" d="M47.7,58.2c-0.2-0.1-8.2-2.4-8.2-2.5l0.3-3.7L47.7,58.2z"/>
<path class="st0" d="M47.7,58.8c-0.1,0-0.1,0-0.2,0c-8.7-2.4-8.7-2.7-8.7-3.1l0.2-3.8c0-0.2,0.2-0.4,0.4-0.5
	c0.2-0.1,0.4-0.1,0.6,0.1l8,6.3c0.2,0.2,0.3,0.5,0.2,0.8C48.1,58.7,47.9,58.8,47.7,58.8z M40.1,55.3c0.8,0.3,2.9,0.9,4.7,1.4
	l-4.5-3.5L40.1,55.3z"/>
<path class="st0" d="M43.5,42.2c-0.1,0-0.2,0-0.3-0.1l-3.9-2.8c-0.2-0.2-0.3-0.5-0.1-0.7c0.2-0.2,0.5-0.3,0.7-0.1c0,0,0,0,0,0
	l2.7,1.9l-4.4-18.3c-1-0.3-5.5-1.1-14.1,5.2l8.1,5.8c0.2,0.2,0.3,0.5,0.1,0.7c-0.2,0.2-0.5,0.3-0.7,0.1c0,0,0,0,0,0L23,27.8
	c-0.1-0.1-0.2-0.3-0.2-0.4c0-0.2,0.1-0.3,0.2-0.4c10.8-8.1,15.7-5.7,16-5.6c0.1,0.1,0.2,0.2,0.3,0.4L44,41.6c0.1,0.2,0,0.4-0.2,0.5
	C43.7,42.2,43.6,42.3,43.5,42.2z"/>
<path class="st0" d="M32.2,38.7c-0.1,0-0.1,0-0.2-0.1l-9-5.2c-0.2-0.1-0.3-0.3-0.2-0.5v-5.5c0-0.3,0.2-0.5,0.5-0.5
	c0.1,0,0.2,0,0.3,0.1l8.4,6c0.2,0.2,0.3,0.5,0.1,0.7c0,0,0,0,0,0C32,34,31.6,34,31.4,33.9c0,0,0,0,0,0l-7.6-5.5v4.2l8.7,5.1
	c0.2,0.1,0.3,0.5,0.2,0.7c0,0,0,0,0,0C32.6,38.6,32.4,38.7,32.2,38.7z"/>
<path class="st0" d="M43.7,45.4c-0.1,0-0.2,0-0.3-0.1l-4.2-2.4c-0.2-0.1-0.3-0.5-0.2-0.7s0.5-0.3,0.7-0.2l3.3,2L43,42l-3.7-2.6
	c-0.2-0.2-0.3-0.5-0.1-0.7c0.2-0.2,0.5-0.3,0.7-0.1c0,0,0,0,0,0l3.9,2.8c0.1,0.1,0.2,0.2,0.2,0.4l0.2,3.2c0,0.2-0.1,0.4-0.2,0.5
	C43.9,45.4,43.8,45.4,43.7,45.4z"/>
<path class="st0" d="M23.3,27.9c-0.1,0-0.2,0-0.3-0.1c-4.2-3.4-4.2-3.6-4-4c0.1-0.2,0.3-0.4,0.5-0.4l1.1-0.6c0.9-0.7,2-1.2,3.1-1.5
	c0.7-0.2,1.3-0.5,1.8-0.8c0.7-0.5,1.4-0.8,2.2-0.9c0.2,0,0.6-0.5,0.9-0.8c0.6-0.9,1.6-1.5,2.8-1.6c0.8,0,1.7-0.2,2.4-0.5
	c0.5-0.2,1-0.3,1.5-0.4c1.2-0.1,2.5,0.1,3.6,0.5c0.2,0.1,0.3,0.3,0.3,0.5v4.6c0,0.2-0.1,0.3-0.2,0.4c-0.1,0.1-0.3,0.1-0.5,0.1
	c-5.7-1.4-14.9,5.4-15,5.5C23.5,27.9,23.4,27.9,23.3,27.9z M20.3,24.1c0.6,0.6,1.8,1.6,3,2.6c1.7-1.2,9.3-6.4,14.9-5.5v-3.5
	c-0.9-0.3-1.8-0.4-2.8-0.4c-0.5,0.1-0.9,0.2-1.3,0.4c-0.9,0.4-1.8,0.6-2.8,0.6c-0.8,0-1.4,0.7-2,1.3s-1,1.1-1.6,1.1
	c-0.6,0.2-1.2,0.4-1.7,0.8c-0.7,0.5-1.5,0.8-2.3,1c-0.9,0.3-1.8,0.8-2.6,1.3L20.3,24.1z"/>
<path class="st0" d="M23.3,33.4c-0.1,0-0.1,0-0.2,0l-1.4-0.6c-0.1-0.1-0.2-0.2-0.3-0.3L19,24.1c-0.1-0.2,0-0.5,0.2-0.6
	c0.2-0.1,0.4-0.1,0.6,0l3.8,3.5c0.1,0.1,0.2,0.2,0.2,0.4v5.5c0,0.2-0.1,0.3-0.2,0.4C23.5,33.4,23.4,33.4,23.3,33.4z M22.3,31.9
	l0.5,0.2v-4.5l-2.3-2.1L22.3,31.9z"/>
<path class="st0" d="M39.5,56.4L39.5,56.4l-1.2-0.2c-0.2,0-0.3-0.2-0.3-0.4l-0.7-15c-0.4,1.2-0.6,2.4-0.7,3.6c0,1.5-0.7,1.7-1.1,1.7
	c-0.9,0-1.9-1.4-1.9-2.3c0.1-0.8,0.2-1.6,0.4-2.4c0.3-1.2,0.4-2.5,0.5-3.7c-0.1,0.1-0.2,0.3-0.3,0.5c-0.4,0.6-0.8,1.2-1.5,1
	c-0.2-0.1-1-0.3-1-5.7c0-0.2,0.2-0.4,0.4-0.4l0,0c0.2,0,0.4,0.2,0.4,0.4c-0.1,1.6,0.1,3.3,0.4,4.9c0.2-0.2,0.4-0.4,0.5-0.7
	c0.3-0.5,0.6-0.9,1-1c0.2,0,0.4,0,0.6,0.2c0.5,0.5,0.3,1.8-0.2,4.6c-0.2,0.7-0.3,1.5-0.3,2.2c0,0.5,0.7,1.5,1.1,1.5l0,0
	c0.1,0,0.2-0.2,0.2-0.9c0.1-2,0.6-3.9,1.5-5.8c0.1-0.2,0.3-0.3,0.5-0.2c0.2,0,0.3,0.2,0.3,0.4l0.8,16.7l0.3,0.1V38.8
	c0-0.2,0.2-0.4,0.4-0.4l0,0c0.2,0,0.4,0.2,0.4,0.4V56c0,0.1-0.1,0.2-0.2,0.3C39.7,56.4,39.6,56.4,39.5,56.4z"/>
<path class="st0" d="M39.5,48c0,0,10.1,9.3,8.2,10.2"/>
<path class="st0" d="M47.7,58.7c-0.3,0.1-0.6-0.1-0.6-0.4c-0.1-0.3,0.1-0.5,0.3-0.6c0-1.1-4.2-5.6-8.2-9.3c-0.2-0.2-0.2-0.5,0-0.7
	c0,0,0,0,0,0c0.2-0.2,0.5-0.2,0.7,0C42,49.6,48.7,56,48.4,58c0,0.3-0.2,0.6-0.5,0.7C47.8,58.7,47.7,58.7,47.7,58.7z"/>
<polygon class="st0" points="18.8,58.1 18.3,57.5 19.4,56.9 19.8,57.4 "/>
<path class="st0" d="M51.1,68.7h-1.5c-5.9-0.1-11.8-0.9-17.6-2.3l0.3-1.2c0.3,0.1,30.6,7.9,47-6.4l0.8,0.9
	C71.7,67,60,68.7,51.1,68.7z"/>
</svg>
