<?xml version="1.0" encoding="utf-8"?>
<!-- Generator: Adobe Illustrator 25.2.1, SVG Export Plug-In . SVG Version: 6.00 Build 0)  -->
<svg version="1.1" id="Layer_1" xmlns="http://www.w3.org/2000/svg" xmlns:xlink="http://www.w3.org/1999/xlink" x="0px" y="0px"
	 viewBox="0 0 100 100" style="enable-background:new 0 0 100 100;" xml:space="preserve">
<style type="text/css">
	.st0{fill:#FFFFFF;}
</style>
<path class="st0" d="M50.4,25.4H50h-0.2l-0.4-0.1l-0.1,0l-0.2-0.1h-0.1L49,25l0,0h0l-0.1-0.1l-0.1-0.1l-0.1-0.1l-0.1-0.1l0,0
	l-0.1-0.1l-0.1-0.1l-0.1-0.1l-0.1-0.1l0-0.1L48,24v-0.1l-0.1-0.1l-0.1-0.1v-0.1l0-0.1l-0.1-0.2v-0.1V23v-0.1v-0.1v-0.1v-0.1v-0.6
	v-0.2v-0.1v-0.2l0.1-0.3l0.1-0.2v-0.1l0-0.1l0.1-0.1v-0.1l0,0l0.1-0.1l0.1-0.1l0.1-0.2l0.1-0.1l0.1-0.1l0.2-0.1l0.2-0.1l0.2-0.1
	l0.2-0.1l0.1-0.1h0.1h0.1h0.1l0.2-0.1H50h0.2h0.2h0.2h0.2h0.1h0.2l0.2,0l0.2,0.1l0.2,0.1l0,0l0.1,0.1l0.2,0.1l0.2,0.1l0.1,0.1
	l0.1,0.1l0.1,0.1l0.1,0.1l0.1,0.1v0.1v0.1l-0.1,0.1l-0.1,0.1l-0.1,0.1l-0.1,0.1h-0.1L52,21h-0.1l-0.1-0.1l-0.1-0.1l-0.1-0.1
	l-0.1-0.1l-0.1-0.1l-0.1-0.1l-0.1-0.1H51h-0.2h-0.1h-0.2h-0.2h-0.2H50h-0.1l-0.2,0l-0.2,0.1l-0.2,0.1l-0.1,0.1l-0.1,0.1L49,20.8
	l-0.1,0.1L48.9,21l-0.1,0.2l-0.1,0.3l-0.1,0.3v0.1V22v0.2v0.2v0.2v0.2V23v0.1v0.1l0,0.1v0.1v0.1l0,0l0.1,0.1l0.1,0.1l0.1,0.1
	l0.1,0.1L49,24l0.1,0.1l0.1,0.1l0.2,0.1l0.2,0.1h0.1h0.1H50h0.1h0.3h0.2h0.2l0.2-0.1l0.1-0.1l0.1-0.1l0.3-0.2l0.1-0.1l0.2-0.2
	l0.1-0.1l0.1-0.1h0.2l0.2,0.1l0.2,0.2l0,0.1V24v0.1l-0.1,0.1l-0.1,0.1l-0.1,0.2L52,24.9l-0.1,0.1l-0.1,0l-0.4,0.2h-0.1h-0.1h-0.1H51
	h-0.2h-0.2L50.4,25.4z"/>
<path class="st0" d="M50.5,25.5h-0.2H50l-0.5-0.1L49,25.2L48.7,25l-0.2-0.2l-0.4-0.5L47.8,24l-0.2-0.4l-0.1-0.3l0-0.3l-0.1-0.8v-0.3
	l0.2-0.8l0.2-0.5l0.2-0.3l0.3-0.5l0.1-0.1l0.2-0.1l0.3-0.3l0.2-0.1l0.4-0.1L50,19h0.5l0.4,0.1l0.4,0.1l0.3,0.1l0.3,0.2l0.4,0.4
	l0.1,0.1l0.1,0.2l0.1,0.2l0.1,0.2v0.2l-0.1,0.1L52.6,21l-0.2,0.2l-0.2,0.1h-0.2l-0.2-0.1l-0.1-0.1l-0.4-0.4l-0.2-0.1l-0.2-0.1
	l-0.4-0.1h-0.1h-0.2l-0.3,0l-0.3,0.1l-0.4,0.2l-0.3,0.3l-0.2,0.3l-0.2,0.5v0.4v0.2l0.1,0.7v0.1l0,0l0.1,0.2l0,0.1l0.2,0.2l0.3,0.3
	l0.4,0.2l0.2,0.1h0.2h0.4l0.4-0.1l0.3-0.1l0.2-0.2l0.1-0.1l0.3-0.4l0.2-0.1h0.2l0.3,0.1l0.2,0.3v0.2V24v0.2l-0.1,0.2l-0.2,0.3L52,25
	l-0.2,0.1l-0.5,0.2l-0.4,0.1L50.5,25.5z M50.4,25.2h0.2h0.2h0.2l0.4-0.1l0.6-0.3l0.3-0.3l0.2-0.2l0.1-0.1V24v-0.1l-0.2-0.2l-0.2-0.1
	h-0.1H52L51.7,24l-0.3,0.3l-0.1,0.1L51,24.4l-0.2,0h-0.2h-0.3h-0.2l-0.5-0.1l-0.4-0.2l-0.3-0.3l-0.1-0.1l-0.2-0.3l-0.1-0.2v-0.1V23
	l-0.1-0.7v-0.1l0-0.5l0.1-0.3l0.1-0.3l0.2-0.3l0.3-0.3l0.3-0.2l0.2-0.1L50,20l0.3,0h0.2h0.2h0.2l0.4,0.1l0.3,0.1l0.2,0.2l0.1,0.1
	l0.3,0.3h0.1h0.1l0.2-0.2v-0.1v-0.1v-0.1l-0.2-0.3L52.1,20l-0.3-0.3l-0.3-0.2l-0.6-0.2l-0.4-0.1H50l-0.5,0.1l-0.2,0.1L49,19.6
	L48.5,20l-0.2,0.2L48,20.6v0.1l-0.1,0.2l-0.1,0.3l-0.2,0.7v0.5v0.1V23V23v0.1l0.3,0.8l0.6,0.7l0.5,0.4l0.3,0.1l0.5,0.1h0.3
	L50.4,25.2z"/>
<path class="st0" d="M48.1,35.3l-0.2-0.1l-0.1-0.1V35v-1.4v-0.3v-3.7l0.1-0.1l0,0l0.1-0.1h0.2h0.1h0.1h0.1l0.1,0v0.1v0.1v0.1v0.1
	v1.7v0.1v0h0.1H51h0.1h0.1v-0.1v-0.1v-1.7v-0.2v-0.1v-0.1l0.1-0.1h0.1h0.3h0.1l0.1,0.1v0.2v0.1v2V32v1.8v0.2v0.8V35v0.2l-0.1,0.1
	l-0.1,0h-0.2h-0.2h-0.1l-0.1-0.1v-0.1V35v-2.1l-0.1-0.1H51h-0.6h-0.3h-0.6h-0.2h-0.7h-0.1l-0.1,0.1v0.2v1v0.2V35v0.2l0,0.1l-0.1,0.1
	l-0.2,0.1L48.1,35.3l0.1,0L48.1,35.3z"/>
<path class="st0" d="M48.2,35.5H48l-0.2-0.1l-0.1-0.2v-0.1v-0.3v-0.5v-0.5v-0.3v-1.3v-0.6v-2l0.1-0.1l0.1-0.1l0.2-0.1h0.4l0.3,0.1
	l0.1,0.1v0.1v0.1v0.3v0.9v0.8v0.1h0.7h1.6h0.1v-0.1v-1.8l0-0.3l0.1-0.1l0.1-0.1h0.2h0.3l0.2,0.1l0.1,0.1l0.1,0.4V30v0.2V31v0.7v0.2
	V32v0.4V33v0.2v0.3v0.3v0.4v0.2v0.2v0.2l-0.1,0.5l-0.1,0.2L52,35.5h-0.2h-0.3h-0.1l-0.1-0.1l-0.1-0.2v-0.2v-0.3V33h-0.1h-0.4h-0.2
	h-0.3h-0.4h-0.5h-0.3l-0.1,0.1v0.2v1.1v0.5v0.4l-0.1,0.1l-0.1,0.1l-0.2,0.1h-0.2L48.2,35.5z M48.1,35.2h0.1h0.1h0.1l0.1-0.1l0,0
	v-0.3v-0.7v-0.3v-0.8v-0.3l0.2-0.2h0.1H49h0.8h0.6h0.3h0.2h0.6l0.1,0.2v2.2v0.1l0.1,0.1h0.2H52H52l0-0.1v-0.3v-0.6v-0.4v-0.6V33
	v-0.5v-0.9V31v-0.8v-0.2L52,29.7v-0.1H52h-0.3h-0.1l-0.1,0v0v0.2v1.6v0.2L51.4,32h-0.1h-0.2h-0.8h-1.6l-0.1-0.1v-0.1v-0.1v-0.1v-0.8
	v-0.2v-0.9l-0.1-0.1h-0.2h-0.2L48,29.7l0,0v0.2v0.6v1.9v1v0.3v0.5v0.5V35L48.1,35.2L48.1,35.2z"/>
<path class="st0" d="M49.9,45.5h-0.1l-0.1-0.1v-0.1v-0.7v-0.1v-0.2V44v-0.2v-0.1v-0.3v-0.2V43v-0.2v-0.2v-0.2v-0.2V42v-0.1v-0.3
	v-1.7v-0.1v-0.1l0,0l0.1-0.1h0.2h0.3h0.1l0.1,0.1l0.1,0.1v0.6v0.1V41v0.1v1.8v0.2V45v0.2v0.1v0h-0.1l-0.1,0.1L49.9,45.5L49.9,45.5z"
	/>
<path class="st0" d="M50,45.7h-0.2l-0.2,0l-0.2-0.2v-0.2v-1.5v-0.1v-0.3v-0.2V43v-0.2v-0.2v-0.1v-0.3v-0.4v-0.3v-1.6v-0.2l0.1-0.1v0
	l0.2-0.1h0.2h0.4l0.2,0.1l0.1,0.1l0.1,0.2v0.5v2.6v0.2v1.7v0.2v0.2l-0.1,0.2l-0.1,0.1l-0.2,0.1H50z M49.9,45.4h0.3l0.1-0.1v-0.1V45
	v-0.6v-0.1v-4.1v-0.5l-0.1-0.1h-0.1H50h-0.2l-0.1,0.1v0.1v0.1v1.6v0.3v0.5v0.1v0.1v0.3V43v0.6v0.1v0.6v0.1v0.7v0.1l0.1,0.1
	L49.9,45.4z"/>
<path class="st0" d="M50.4,55.9H50h-0.2l-0.4-0.1h-0.1l-0.2-0.1h-0.1H49H49l0,0l-0.1-0.1l-0.1-0.1l-0.1-0.1l-0.1-0.1l0,0L48.4,55
	l-0.1-0.1l-0.1-0.1l-0.1-0.1l0-0.1l-0.1,0v-0.1l-0.1-0.2l-0.1-0.2V54l0-0.1l-0.1-0.2v-0.1v-0.1v-0.1v-0.1v-0.1V53v-0.6v-0.2v-0.1V52
	l0.1-0.3l0.1-0.2v-0.1l0-0.1l0.1-0.1v-0.1l0,0l0-0.1l0.1-0.2l0.1-0.2l0.1-0.1l0.1-0.1l0.2-0.1l0.2-0.2l0.2-0.1l0.2-0.1l0.1-0.1h0.1
	h0.1h0.1l0.2-0.1H50h0.2h0.2h0.2h0.2h0.1h0.2l0.2,0l0.2,0.1l0.2,0.1l0,0l0.1,0.1l0.2,0.1l0.2,0.1l0.1,0.1l0.1,0.1l0.1,0.1l0.1,0.1
	l0.1,0.2v0.1v0.1l-0.1,0.1l-0.1,0.1l-0.1,0.1l-0.1,0.1H52h-0.1l-0.1-0.1l-0.1-0.1l-0.1-0.1l-0.1-0.1l-0.1-0.1L51.3,51L51.2,51
	L51,50.9h-0.1l-0.2-0.1h-0.1h-0.2h-0.2H50h-0.1h-0.1h-0.2l-0.2,0.1L49.2,51l-0.1,0.1L49,51.2l-0.1,0.1l-0.1,0.1l-0.1,0.1l-0.1,0.2
	l-0.1,0.3l-0.1,0.3v0.1v0.1v0.2v0.2V53v0.2v0.2v0.1v0.2l0,0.1v0.1V54l0,0l0.1,0.1l0.1,0.2l0.1,0.1l0.1,0.1l0.1,0.1l0.1,0.1l0.1,0.1
	l0.2,0.1l0.2,0.1h0.1h0.1h0.2H50h0.3h0.2h0.2l0.2-0.1l0.1,0l0.1-0.1l0.2-0.1l0.1-0.1l0.2-0.2l0.1-0.1l0.1-0.1h0.2l0.2,0.1l0.2,0.2
	l0,0.1v0.1v0.1l-0.1,0.2l-0.1,0.1l-0.1,0.2l-0.4,0.3l-0.1,0.1h-0.1l-0.4,0.2H51h-0.1h-0.1h-0.1h-0.2h-0.2L50.4,55.9z"/>
<path class="st0" d="M50.5,56h-0.2H50l-0.5-0.1L49,55.7l-0.3-0.2l-0.2-0.2l-0.4-0.5l-0.3-0.4l-0.2-0.4l-0.1-0.3l-0.1-0.2l-0.1-0.8
	v-0.3l0.2-0.7l0.2-0.5l0.2-0.3l0.3-0.5l0.1-0.1l0.2-0.2l0.3-0.3l0.2-0.2l0.4-0.2l0.5-0.1h0.5l0.4,0.1l0.4,0.1l0.3,0.1l0.3,0.2
	l0.4,0.4l0.1,0.1l0.1,0.2l0.1,0.2l0.1,0.2v0.2l-0.1,0.1l-0.1,0.1l-0.2,0.2l-0.2,0.1h-0.2l-0.2-0.1l-0.1-0.1l-0.4-0.4L51.3,51
	l-0.2-0.1l-0.4-0.1h-0.1h-0.2L50,50.8l-0.3,0.1l-0.4,0.2L49,51.4l-0.2,0.3l-0.2,0.5v0.4v0.2l0.1,0.7v0.1l0,0l0.1,0.2l0,0.1l0.2,0.2
	l0.3,0.3l0.4,0.2l0.2,0.1h0.3h0.2l0.4-0.1l0.3-0.1l0.2-0.2l0.1-0.1l0.3-0.4l0.2-0.1h0.2l0.3,0.1l0.2,0.3v0.2v0.1v0.2l-0.1,0.2
	l-0.2,0.3L52,55.4l-0.2,0.1l-0.5,0.2L51,56H50.5z M50.4,55.7h0.2h0.2h0.2l0.4-0.1l0.6-0.3l0.3-0.3l0.2-0.2l0.1-0.1v-0.2v-0.1
	l-0.2-0.2l-0.2-0.1h-0.1H52l-0.3,0.3l-0.3,0.3l-0.1,0.1L51,55h-0.2h-0.2h-0.4l-0.5-0.1l-0.4-0.2l-0.3-0.3l-0.1-0.1L48.6,54l-0.1-0.2
	v-0.1v-0.2l-0.1-0.7v-0.2l0-0.5l0.1-0.3l0.1-0.3l0.2-0.3l0.3-0.3l0.3-0.2l0.2-0.1l0.3-0.1l0.4-0.1h0.2h0.2h0.2l0.4,0.1l0.3,0.2
	l0.2,0.2l0.1,0.1l0.3,0.3h0.1h0.1l0.2-0.2V51v0v-0.1l-0.2-0.3l-0.2-0.2l-0.3-0.3L51.5,50l-0.6-0.2l-0.4-0.1h-0.5l-0.5,0.1L49.3,50
	l-0.2,0.1l-0.5,0.4l-0.2,0.2l-0.3,0.4v0.1L48,51.4l-0.1,0.3l-0.2,0.7V53v0.1v0.4v0.1v0.1l0.3,0.8l0.6,0.7l0.5,0.3l0.3,0.1l0.5,0.1
	L50.4,55.7L50.4,55.7z"/>
<path class="st0" d="M48,66L48,66l-0.2-0.1l-0.1-0.1l-0.1-0.1v-0.1v-0.2l0.1-0.2l0-0.1V65v-0.1l0.1-0.2v-0.1l0.1-0.3l0.1-0.2
	l0.1-0.2l0.1-0.3l0.1-0.2v-0.1l0.1-0.1l0.1-0.2l0.1-0.3l0.1-0.2l0.1-0.2l0.1-0.2l0.1-0.3l0.1-0.2l0.1-0.3l0.1-0.2V61l0.1-0.1
	l0.1-0.1v-0.1v-0.1v-0.1l0.1-0.1v-0.1v-0.1v-0.1V60l0.1-0.1h0.2h0.2h0.1L50,60l0,0.1v0.1l0.1,0.2l0.1,0.2l0.2,0.3v0.1l0.1,0.1v0.2
	l0.1,0.2v0.1l0.1,0.1l0.1,0.2l0.1,0.2l0.1,0.2v0.1v0.1l0.1,0.1l0.1,0.1v0.1V63v0.1v0.1l0.1,0.2l0.1,0.2l0.1,0.3l0.1,0.3l0.1,0.2
	l0,0.1v0.1v0.1l0.1,0.2l0.1,0.2V65l0.1,0.2l0,0.2v0.1v0.2l-0.1,0.1l-0.2,0.1L51.2,66H51l-0.1-0.1l-0.1-0.1v-0.1l-0.1-0.2l-0.1-0.2
	v-0.1l0.8-0.3l-0.1-0.2v-0.1v-0.1l-0.1-0.1l0-0.1l-0.1-0.1H51h-1.4h-0.2h-0.1h-0.1H49L49,64.4v0.1l-0.2,0.3l-0.1,0.2V65v0.1v0.1
	l-0.1,0.1v0.1l-0.1,0.1l-0.1,0.2l-0.1,0.1h-0.1L48,66z M50.7,63.4L50.7,63.4L50.7,63.4v-0.2v-0.1l-0.2-0.3l-0.1-0.2l-0.1-0.3
	l-0.1-0.2l0-0.2l-0.1-0.2l-0.1-0.1L50,61.8L50,62l-0.1,0.3l-0.1,0.2l-0.1,0.2l-0.1,0.2l-0.1,0.2v0.1v0.1v0.1v0.1h0.3H50L50.7,63.4
	L50.7,63.4z"/>
<path class="st0" d="M48.1,66.1h-0.3L47.7,66l-0.1-0.1l-0.1-0.2v-0.1v-0.2l0.5-1.3l0.1-0.2l0.4-0.8l0.1-0.3l0.1-0.2v-0.2l0.3-0.8
	l0.2-0.6l0.5-1l0.1-0.1h0.2h0.2h0.2l0.1,0.1l0.4,0.9l0.4,1l1,2.5v0.1l0.3,0.6l0.1,0.4l-0.1,0.3L52.5,66l-0.2,0.1L52,66.2L51.8,66
	l-0.2-0.2v-0.2l-0.6-1.2h-1.8h-0.2h0l0,0l-0.5,1.2l-0.1,0.2l-0.1,0.1L48.1,66.1z M48,65.8L48,65.8h0.2h0l0.2-0.3v-0.1l0.5-1.1
	l0.2-0.1h0.2h0.1h0.2H51h0.2l0.2,0.1l0.6,1.2v0.1l0.1,0.1h0.1l0.2-0.1l0.1-0.1v-0.1v-0.1l-0.1-0.3l-1.6-3.8v-0.2l0-0.1V61l-0.4-0.9
	l0,0h-0.1H50h-0.1h0l-0.2,0.4l-0.1,0.2l-0.2,0.6l-0.5,1.2l-0.1,0.2l-0.3,0.9L48.2,64l-0.1,0.4l-0.5,1.1v0.1v0.1l0.1,0.1l0.1,0.1h0.1
	L48,65.8z M50.5,63.5h-0.8h-0.3l-0.1-0.1v-0.2V63l0.1-0.3l0.1-0.2l0.2-0.6l0-0.2l0.2-0.3l0.3,0.3l0.4,1l0.2,0.3l0,0.1v0.2l-0.1,0.2
	h-0.1H50.5z M49.8,63.2H50h0.5h0.1v-0.1V63l-0.2-0.5l-0.2-0.7V62l-0.5,1.2L49.8,63.2L49.8,63.2z"/>
<path class="st0" d="M49.9,76.2h-0.1h-0.2h-0.2h-0.1h-0.1L49,76l-0.2-0.1l-0.3-0.2l-0.2-0.1l-0.1-0.1l-0.1-0.1l-0.1-0.1L48,75.1
	L47.9,75l-0.1-0.2l-0.1-0.2l-0.1-0.2l-0.1-0.2v-0.1V74v-0.2v-0.1v-0.1v-0.1v-0.2v-0.1v-0.6v-0.1v-0.1v-0.1v-0.1V72v-0.1v-0.1v-0.1
	l0.1-0.1l0.1-0.1l0-0.1l0.1-0.2l0.1-0.2L48,71l0.2-0.2l0.2-0.2l0.1-0.1l0.1-0.1l0.2-0.1h0.1l0.1-0.1H49h0.1h0.1l0.2-0.1l0.2-0.1h0.2
	h0.1h0.3h0.2h0.2l0,0h0.1h0.2L51,70h0.1l0.2,0.1l0.1,0.1h0.1l0.1,0.1l0.2,0.1l0.2,0.1l0.1,0.1l0.1,0.1h0l0.1,0.1l0.1,0.2V71v0.1
	l0,0.2l-0.1,0.1l-0.1,0.1L52,71.6h-0.2h-0.1l-0.1-0.1l-0.2-0.2l-0.2-0.2l-0.2-0.1L50.9,71l-0.1,0h-0.1l-0.4-0.1h-0.1l0,0h-0.2h-0.3
	h-0.2L49.4,71l-0.2,0.1l-0.2,0.1L49,71.3l-0.1,0.1l-0.1,0.1l-0.2,0.3v0.1v0.1L48.5,72l-0.1,0.2v0.1v0.2v0.2v0.3v0.2v0.2v0.2v0.1
	l0,0.1v0.1l0.1,0.1v0.1l0.1,0.1l0.1,0.1l0.1,0.1l0.1,0.1l0.1,0.1l0.2,0.2l0.2,0.2l0.2,0.1l0.2,0.1H50h0.2h0.3h0.2l0.2-0.1H51
	l0.3-0.1l0.2-0.1l0.1-0.1l0.2-0.2l0.1-0.1l0.1-0.1l0.1-0.2l0.1-0.2v-0.1v-0.2l-0.1-0.1h-1.4h-0.1h-0.3H50l-0.1-0.1v-0.1V73v-0.2
	v-0.1l0.1-0.1l0.1-0.1h0.1h0.3h0.3H52h0.3h0.3h0.1l0.1,0.1l0.1,0.1l0.1,0.3v0.4v0.3v0.2V74v0.1l-0.1,0.2v0.2v0.1v0.1l-0.1,0.1v0.1
	L52.7,75l-0.1,0.1l-0.1,0.1l-0.1,0.2l-0.2,0.2l-0.1,0.1l-0.1,0.1H52l0,0l-0.1,0.1h-0.1l-0.2,0.1l-0.2,0.1L51,76h-0.1h-0.1h-0.1h-0.1
	h-0.1h-0.1h-0.5V76.2z"/>
<path class="st0" d="M50.1,76.3h-0.3l-0.2-0.1h-0.2L48.8,76l-0.3-0.2L48,75.4l-0.1-0.2l-0.3-0.5L47.3,74l-0.1-0.6v-0.2v-0.1v-0.2
	v-0.2v-0.2l0.1-0.6l0.3-0.7l0.2-0.3l0.2-0.2l0.3-0.2l0.6-0.4l0.6-0.2h0.3h0.3l0.6,0.1l0.4,0.1l0.2,0.1l0.5,0.3l0.4,0.4l0.2,0.3
	l0.1,0.1v0.2l-0.1,0.2l-0.1,0.2l-0.1,0.1L52,72h-0.2l-0.2-0.1l-0.5-0.4l-0.3-0.2l-0.2-0.1L50.1,71l0,0h-0.2l-0.4,0.1l-0.2,0.1
	L49,71.4l-0.1,0.1L48.6,72l-0.2,0.5v0.2v0.2v0.3v0.1v0.3l0.1,0.2l0.1,0.2l0.1,0.2l0.1,0.2l0.3,0.3l0.2,0.2l0.2,0.1l0.3,0.1h0.2h0.4
	l0.3-0.1l0.2-0.1l0.1-0.1l0.2-0.3l0.2-0.4l0.1-0.2v-0.2h-1.5h-0.2l-0.2-0.1l-0.1-0.2v-0.1v-0.2v-0.2v-0.1l0.1-0.2l0.1-0.1h0.1h0.3
	h0.3h0.5h1h0.3h0.1l0.1,0.1l0.1,0.2l0.1,0.3v0.4L52.9,74l-0.2,0.6l-0.3,0.6l-0.3,0.4l-0.3,0.3l-0.1,0.1L51.6,76l-0.4,0.2l-0.5,0.1
	L50.1,76.3z M49.9,76.1h0.2h0.1h0.3h0.1h0.1l0.6-0.2l0.2-0.1l0.4-0.3l0.2-0.2l0.3-0.4l0.3-0.5l0.2-0.7v-0.3v-0.3l-0.1-0.2l-0.1-0.1
	l-0.1-0.1h-0.5h-1.2h-0.3h-0.3l0,0v0.1V73v0.3l0,0h0.1h0.1h0.1h0.1h0.4h0.9l0.2,0.1v0.1l0,0.4l-0.2,0.3l-0.2,0.2l-0.3,0.3L51.2,75
	l-0.3,0.2l-0.4,0.1h-0.2h-0.3h-0.2l-0.4-0.1l-0.2-0.1L49,75l-0.4-0.3l-0.1-0.1l-0.1-0.2l-0.1-0.1l-0.2-0.4v-0.2l-0.1-0.5v-0.3v-0.3
	l0.2-0.5l0.1-0.2l0.1-0.2l0.4-0.4l0.1-0.1l0.2-0.2l0.3-0.2h0.2l0.5-0.1h0.2l0.4,0.1L51,71l0.4,0.3l0.2,0.2l0.2,0.3h0.1H52l0.1-0.1
	l0.1-0.1l0.1-0.1v-0.1v-0.1v-0.1L52,70.8l-0.1-0.1l-0.3-0.2l-0.5-0.3l-0.3-0.1l-0.3-0.1h-0.3l-0.5,0.1L49,70.4l-0.5,0.4l-0.2,0.2
	l-0.2,0.2L48,71.2l-0.1,0.2l-0.3,0.8l-0.1,0.6v0.1v0.2v0.2v0.2l0.1,0.5l0.1,0.3v0.1l0.2,0.4l0.1,0.2l0.3,0.4l0.5,0.4l0.4,0.2
	l0.7,0.2L49.9,76.1z"/>
<path class="st0" d="M50.1,86.3h-0.2h-0.2h-0.2h-0.1h-0.1h-0.1l-0.1-0.1l-0.2-0.1l-0.2-0.1h-0.1L48.6,86L48.5,86l-0.1-0.1h-0.1
	l-0.1-0.1l-0.1-0.1L48,85.6L47.7,85l-0.1-0.2l-0.1-0.2l-0.1-0.2v-0.2v-0.1v-0.2v-0.2v-0.1v-0.2V83v-0.2v-0.2l0.1-0.2v-0.1l0.1-0.2
	l0.1-0.2l0.1-0.1l0.1-0.2l0.1-0.2l0.1-0.2l0.1-0.1l0-0.1l0.1-0.1l0.1-0.1h0.1l0.1-0.1l0.2-0.1l0.2-0.1l0.2-0.1h0.2h0.1l0.2-0.1h0.2
	h0.1h0.5h0.2h0.1h0.1l0.2,0.1H51h0.1h0.1h0.1l0.1,0.1l0.1,0.1l0.2,0.1l0.2,0.2l0.2,0.2l0.2,0.2l0.2,0.3l0.1,0.2l0,0.1v0.1v0.1
	l0.1,0.2l0.1,0.2v0.2v0.1v0.1v0.1v0.2v0.5v0.2v0.3V84v0.1v0.1l-0.1,0.2l-0.1,0.2l-0.1,0.2l0,0.1V85l-0.1,0.1l-0.1,0.1v0.1v0.1h0
	l-0.1,0.1l-0.1,0.1l-0.1,0.1H52l-0.1,0.1l-0.1,0.1l-0.1,0.1h-0.1l-0.1,0.1l-0.2,0.1L51.3,86l-0.1,0.1h-0.1l-0.2,0.1l-0.2,0.1h-0.2
	h-0.3L50.1,86.3z M50.4,85.3h0.2l0,0l0,0h0.1h0.1h0.1l0.1-0.1l0.2-0.1l0.2-0.2l0.1-0.1l0,0l0.1-0.1l0.1-0.2l0.2-0.2l0-0.2v-0.2v-0.2
	v-0.2V83l-0.1-0.3v-0.2l-0.1-0.2v-0.1v-0.1l0-0.1l-0.1-0.1l0-0.1l-0.1-0.1l-0.3-0.2l-0.2-0.2l-0.2-0.1h-0.2h-0.1h-0.1h-0.1h-0.4
	h-0.1h-0.1l-0.2,0.1l-0.2,0.1l-0.4,0.3l-0.1,0.1l-0.1,0.1l0,0L48.6,82l-0.1,0.2v0.1v0.1v0.1v0.1v0.1v0.1V83v0.2v0.5v0.1V84v0.1
	l0.1,0.2l0.2,0.3l0.1,0.2l0.1,0.1l0.1,0.1L49,85h0.1l0,0l0.1,0.1l0.2,0.1h0.1h0.2h0.2h0.2L50.4,85.3z"/>
<path class="st0" d="M50.3,86.4h-0.6h-0.2l-0.3-0.1l-0.3-0.1L48.4,86L48,85.5l-0.1-0.1l-0.3-0.4l-0.3-0.6l-0.2-0.7v-0.4V83v-0.3
	l0.2-0.8l0.1-0.1l0.1-0.2l0.3-0.5l0.5-0.5l0.4-0.2l0.2-0.1l0.2-0.1h0.1l0.2-0.1l0.3-0.1h0.7l0.4,0.1l0.4,0.2l0.5,0.3l0.2,0.2
	l0.2,0.2l0.4,0.5l0.3,0.6l0.1,0.5l0.1,0.4v0.3l-0.1,1v0.1l-0.2,0.6l-0.1,0.2l-0.3,0.5l-0.6,0.5l-0.3,0.2l-0.4,0.2l-0.2,0.1h-0.2
	L50.3,86.4z M50.1,86.2h0.4h0.1l0.5-0.2l0.7-0.5l0.1-0.1l0.2-0.2l0.1-0.1l0.2-0.3l0.1-0.2l0.2-0.6l0.1-0.8v-0.4l-0.2-0.7l-0.3-0.6
	L52,81.1l-0.3-0.3l-0.6-0.4l-0.5-0.2h-0.1h-0.7h-0.3L49,80.4l-0.6,0.3L48,81.2l-0.3,0.4l-0.1,0.2l-0.1,0.1l-0.1,0.4v0.1l-0.1,0.2
	v0.3v0.4v0.3l0.2,0.6l0.3,0.6l0.3,0.4l0.4,0.3l0.4,0.2l0.5,0.2h0.1h0.2L50.1,86.2L50.1,86.2z M50.2,85.5H50l-0.5-0.1h-0.2L49,85.1
	L48.8,85l-0.2-0.2l-0.2-0.2l-0.2-0.3L48.2,84l-0.1-0.4v-0.5v-0.2l0.1-0.5l0.1-0.3l0.2-0.4h0l0.2-0.2l0.4-0.3l0.3-0.1l0.2,0h0.3h0.5
	l0.5,0.1l0.2,0.1l0.3,0.2l0.4,0.3l0.2,0.2l0.1,0.2v0.2l0.1,0.2l0.1,0.2l0.1,0.3v0.2L52,84l-0.1,0.2l-0.4,0.6L51.4,85L51,85.3
	l-0.2,0.1l-0.5,0.2L50.2,85.5z M48.4,84l0.1,0.2l0.2,0.3l0.2,0.2l0.1,0.1l0.3,0.2l0.2,0.1h0.1l0.4,0.1h0.2l0.5-0.1L51,85l0.3-0.3
	l0.3-0.4l0.1-0.2l0.1-0.3v-0.5V83l0-0.3v-0.2l-0.1-0.2v-0.2L51.6,82l-0.2-0.3l-0.2-0.2L51,81.4l-0.1-0.1l-0.4-0.1h-0.5h-0.1h-0.2
	l-0.2,0.1l-0.2,0.1l-0.4,0.2l-0.2,0.2L48.6,82l-0.2,0.5l-0.1,0.4v0.2l0.1,0.6L48.4,84z"/>
<path class="st0" d="M55.9,19.2c0.6,0,0.7-0.9,0.7-0.9s0.2,0.8-0.2,1.1c-0.1,0.1-0.3,0.1-0.4,0C55.9,19.3,55.9,19.2,55.9,19.2z"/>
<path class="st0" d="M56.2,19.5L56.2,19.5c-0.3,0-0.3-0.3-0.3-0.3c0,0,0-0.1,0.1-0.1c0,0,0,0,0,0c0.5,0,0.6-0.9,0.6-0.9
	c0,0,0-0.1,0.1-0.1c0,0,0.1,0,0.1,0.1c0,0,0.2,0.9-0.2,1.1C56.4,19.4,56.3,19.5,56.2,19.5z M56,19.2c0,0,0.1,0.1,0.1,0.1
	c0.1,0,0.2,0,0.2-0.1c0.1-0.1,0.2-0.3,0.2-0.5C56.4,19,56.2,19.2,56,19.2z"/>
<path class="st0" d="M55.9,24.8c0.6,0,0.7-0.9,0.7-0.9s0.2,0.8-0.2,1.1c-0.1,0.1-0.3,0.1-0.4,0C55.9,24.9,55.9,24.8,55.9,24.8z"/>
<path class="st0" d="M56.2,25.1L56.2,25.1c-0.3-0.1-0.3-0.3-0.3-0.3c0,0,0-0.1,0.1-0.1c0,0,0,0,0,0c0.5,0,0.6-0.9,0.6-0.9
	c0,0,0-0.1,0.1-0.1c0,0,0.1,0,0.1,0.1c0,0,0.2,0.9-0.2,1.1C56.4,25,56.3,25.1,56.2,25.1z M56,24.8c0,0,0.1,0.1,0.1,0.1
	c0.1,0,0.2,0,0.2-0.1c0.1-0.1,0.2-0.3,0.2-0.5C56.4,24.6,56.2,24.8,56,24.8z"/>
<path class="st0" d="M55.9,30.4c0.6,0,0.7-0.9,0.7-0.9s0.2,0.8-0.2,1.1c-0.1,0.1-0.3,0.1-0.4,0C55.9,30.5,55.9,30.4,55.9,30.4z"/>
<path class="st0" d="M56.2,30.7L56.2,30.7c-0.3,0-0.3-0.3-0.3-0.3c0,0,0-0.1,0.1-0.1c0,0,0,0,0,0c0.5,0,0.6-0.9,0.6-0.9
	c0,0,0-0.1,0.1-0.1c0,0,0.1,0,0.1,0.1c0,0,0.2,0.9-0.2,1.1C56.4,30.6,56.3,30.7,56.2,30.7z M56,30.4c0,0,0.1,0.1,0.1,0.1
	c0.1,0,0.2,0,0.2-0.1c0.1-0.1,0.2-0.3,0.2-0.5C56.4,30.2,56.2,30.4,56,30.4z"/>
<path class="st0" d="M55.9,36c0.6,0,0.7-0.9,0.7-0.9s0.2,0.8-0.2,1.1c-0.1,0.1-0.3,0.1-0.4,0C55.9,36.1,55.9,36.1,55.9,36z"/>
<path class="st0" d="M56.2,36.3L56.2,36.3c-0.3,0-0.3-0.3-0.3-0.3c0,0,0-0.1,0.1-0.1c0,0,0,0,0,0c0.5,0,0.6-0.8,0.6-0.8
	c0,0,0-0.1,0.1-0.1c0,0,0.1,0,0.1,0.1c0,0,0.2,0.8-0.2,1.1C56.4,36.2,56.3,36.3,56.2,36.3z M56,36c0,0,0.1,0.1,0.1,0.1
	c0.1,0,0.2,0,0.2-0.1c0.1-0.1,0.2-0.3,0.2-0.5C56.4,35.7,56.2,35.9,56,36z"/>
<path class="st0" d="M55.9,41.6c0.6,0,0.7-0.9,0.7-0.9s0.2,0.8-0.2,1.1c-0.1,0.1-0.3,0.1-0.4,0C55.9,41.7,55.9,41.6,55.9,41.6z"/>
<path class="st0" d="M56.2,41.9L56.2,41.9c-0.3,0-0.3-0.3-0.3-0.3c0,0,0,0,0-0.1c0,0,0,0,0.1,0c0.5,0,0.6-0.8,0.6-0.8
	c0,0,0.1-0.1,0.1,0c0,0,0,0,0,0c0,0,0.2,0.8-0.2,1.1C56.3,41.9,56.3,41.9,56.2,41.9z M56,41.6c0,0,0.1,0.1,0.1,0.1
	c0.1,0,0.2,0,0.2-0.1c0.1-0.1,0.2-0.3,0.2-0.5C56.4,41.4,56.2,41.6,56,41.6z"/>
<path class="st0" d="M55.9,47.2c0.6,0,0.7-0.9,0.7-0.9s0.2,0.8-0.2,1.1c-0.1,0.1-0.3,0.1-0.4,0C55.9,47.3,55.9,47.2,55.9,47.2z"/>
<path class="st0" d="M56.2,47.5L56.2,47.5c-0.3,0-0.3-0.3-0.3-0.3c0,0,0-0.1,0.1-0.1c0,0,0,0,0,0c0.5,0,0.6-0.8,0.6-0.8
	c0,0,0-0.1,0.1-0.1c0,0,0.1,0,0.1,0.1c0,0,0.2,0.8-0.2,1.1C56.4,47.4,56.3,47.5,56.2,47.5z M56,47.2c0,0,0.1,0.1,0.1,0.1
	c0.1,0,0.2,0,0.2-0.1c0.1-0.1,0.2-0.3,0.2-0.5C56.4,47,56.2,47.2,56,47.2z"/>
<path class="st0" d="M55.9,52.8c0.6,0,0.7-0.9,0.7-0.9s0.2,0.8-0.2,1.1c-0.1,0.1-0.3,0.1-0.4,0C55.9,52.9,55.9,52.8,55.9,52.8z"/>
<path class="st0" d="M56.2,53.1L56.2,53.1c-0.3,0-0.3-0.3-0.3-0.3c0,0,0,0,0-0.1c0,0,0,0,0.1,0c0.5,0,0.6-0.8,0.6-0.8
	c0,0,0-0.1,0.1-0.1l0,0c0,0,0.1,0,0.1,0.1c0,0,0.2,0.8-0.2,1.1C56.3,53.1,56.3,53.1,56.2,53.1z M56,52.8c0,0,0.1,0.1,0.1,0.1
	c0.1,0,0.2,0,0.2-0.1c0.1-0.1,0.2-0.3,0.2-0.5C56.4,52.6,56.2,52.8,56,52.8z"/>
<path class="st0" d="M55.9,58.4c0.6,0,0.7-0.9,0.7-0.9s0.2,0.8-0.2,1.1c-0.1,0.1-0.3,0.1-0.4,0C55.9,58.5,55.9,58.4,55.9,58.4z"/>
<path class="st0" d="M56.2,58.7L56.2,58.7c-0.3,0-0.3-0.3-0.3-0.3c0,0,0,0,0-0.1c0,0,0,0,0.1,0c0.5,0,0.6-0.8,0.6-0.8
	c0,0,0.1-0.1,0.1,0c0,0,0,0,0,0c0,0,0.2,0.8-0.2,1.1C56.3,58.7,56.3,58.7,56.2,58.7z M56,58.4c0,0,0.1,0.1,0.1,0.1
	c0.1,0,0.2,0,0.2-0.1c0.1-0.1,0.2-0.3,0.2-0.5C56.4,58.2,56.2,58.4,56,58.4z"/>
<path class="st0" d="M55.9,64c0.6,0,0.7-0.9,0.7-0.9s0.2,0.8-0.2,1.1c-0.1,0.1-0.3,0.1-0.4,0C55.9,64.1,55.9,64.1,55.9,64z"/>
<path class="st0" d="M56.2,64.3L56.2,64.3c-0.3,0-0.3-0.3-0.3-0.3c0,0,0,0,0-0.1c0,0,0,0,0.1,0c0.5,0,0.6-0.8,0.6-0.8
	c0,0,0.1-0.1,0.1,0c0,0,0,0,0,0c0,0,0.2,0.8-0.2,1.1C56.3,64.3,56.3,64.3,56.2,64.3z M56,64c0,0,0.1,0.1,0.1,0.1
	c0.1,0,0.2,0,0.2-0.1c0.1-0.1,0.2-0.3,0.2-0.5C56.4,63.7,56.2,63.9,56,64z"/>
<path class="st0" d="M55.9,69.6c0.6,0,0.7-0.9,0.7-0.9s0.2,0.8-0.2,1.1c-0.1,0.1-0.3,0.1-0.4,0C55.9,69.7,55.9,69.6,55.9,69.6z"/>
<path class="st0" d="M56.2,69.9L56.2,69.9c-0.3-0.1-0.3-0.3-0.3-0.3c0,0,0,0,0-0.1c0,0,0,0,0.1,0c0.5,0,0.6-0.8,0.6-0.9
	c0,0,0-0.1,0.1-0.1c0,0,0.1,0,0.1,0.1c0,0,0.2,0.8-0.2,1.2C56.3,69.9,56.3,69.9,56.2,69.9z M56,69.6c0,0,0.1,0.1,0.1,0.1
	c0.1,0,0.2,0,0.2-0.1c0.1-0.1,0.2-0.3,0.2-0.5C56.4,69.4,56.2,69.6,56,69.6z"/>
<path class="st0" d="M55.9,75.2c0.6,0,0.7-0.9,0.7-0.9s0.2,0.8-0.2,1.1c-0.1,0.1-0.3,0.1-0.4,0C55.9,75.3,55.9,75.2,55.9,75.2z"/>
<path class="st0" d="M56.2,75.5L56.2,75.5c-0.3,0-0.3-0.3-0.3-0.3c0,0,0,0,0-0.1c0,0,0,0,0.1,0c0.5,0,0.6-0.8,0.6-0.8
	c0,0,0-0.1,0.1-0.1l0,0c0,0,0.1,0,0.1,0.1c0,0,0.2,0.8-0.2,1.2C56.3,75.5,56.3,75.5,56.2,75.5z M56,75.2c0,0,0.1,0.1,0.1,0.1
	c0.1,0,0.2,0,0.2-0.1c0.1-0.1,0.2-0.3,0.2-0.5C56.4,75,56.2,75.2,56,75.2z"/>
<path class="st0" d="M55.9,80.8c0.6,0,0.7-0.9,0.7-0.9s0.2,0.8-0.2,1.1c-0.1,0.1-0.3,0.1-0.4,0C55.9,80.9,55.9,80.8,55.9,80.8z"/>
<path class="st0" d="M56.2,81.1L56.2,81.1c-0.3,0-0.3-0.3-0.3-0.3c0,0,0,0,0-0.1c0,0,0,0,0.1,0c0.5,0,0.6-0.8,0.6-0.9
	c0,0,0-0.1,0.1-0.1c0,0,0.1,0,0.1,0.1s0.2,0.8-0.2,1.2C56.3,81.1,56.3,81.1,56.2,81.1z M56,80.8c0,0,0.1,0.1,0.1,0.1
	c0.1,0,0.2,0,0.2-0.1c0.1-0.1,0.2-0.3,0.2-0.5C56.4,80.6,56.2,80.8,56,80.8z"/>
<path class="st0" d="M55.9,86.4c0.6-0.1,0.7-0.9,0.7-0.9s0.2,0.8-0.2,1.1c-0.1,0.1-0.3,0.1-0.4,0C55.9,86.5,55.9,86.4,55.9,86.4z"/>
<path class="st0" d="M56.2,86.7L56.2,86.7c-0.3,0-0.3-0.3-0.3-0.3c0,0,0,0,0-0.1c0,0,0,0,0.1,0c0.5,0,0.6-0.8,0.6-0.9
	c0,0,0-0.1,0.1-0.1c0,0,0.1,0,0.1,0.1c0,0,0.2,0.8-0.2,1.2C56.3,86.7,56.3,86.7,56.2,86.7z M56,86.4c0,0,0.1,0.1,0.1,0.1
	c0,0,0.1,0,0.2-0.1c0.1-0.1,0.2-0.3,0.2-0.5C56.4,86.2,56.2,86.4,56,86.4z"/>
<path class="st0" d="M44,19.2c0.6-0.1,0.7-0.9,0.7-0.9s0.2,0.8-0.2,1.1c-0.1,0.1-0.3,0.1-0.4,0C44,19.3,44,19.3,44,19.2z"/>
<path class="st0" d="M44.3,19.5L44.3,19.5c-0.3,0-0.3-0.3-0.3-0.3c0,0,0,0,0-0.1c0,0,0,0,0.1,0c0.5,0,0.6-0.9,0.6-0.9
	c0,0,0-0.1,0.1-0.1c0,0,0.1,0,0.1,0.1c0,0,0.2,0.9-0.2,1.1C44.5,19.5,44.4,19.5,44.3,19.5z M44.2,19.3c0,0,0.1,0.1,0.1,0.1
	c0.1,0,0.2,0,0.2-0.1c0.1-0.1,0.2-0.3,0.2-0.5C44.6,19,44.4,19.2,44.2,19.3z"/>
<path class="st0" d="M44,24.8c0.6-0.1,0.7-0.9,0.7-0.9s0.2,0.8-0.2,1.1c-0.1,0.1-0.3,0.1-0.4,0C44,24.9,44,24.9,44,24.8z"/>
<path class="st0" d="M44.3,25.1L44.3,25.1c-0.3,0-0.3-0.3-0.3-0.3c0,0,0,0,0-0.1c0,0,0,0,0.1,0c0.5,0,0.6-0.9,0.6-0.9
	c0,0,0-0.1,0.1-0.1c0,0,0.1,0,0.1,0.1c0,0,0.2,0.9-0.2,1.1C44.5,25.1,44.4,25.1,44.3,25.1z M44.2,24.9c0,0,0.1,0.1,0.1,0.1
	c0.1,0,0.2,0,0.2-0.1c0.1-0.1,0.2-0.3,0.2-0.5C44.6,24.6,44.4,24.8,44.2,24.9z"/>
<path class="st0" d="M44,30.4c0.6-0.1,0.7-0.9,0.7-0.9s0.2,0.8-0.2,1.1c-0.1,0.1-0.3,0.1-0.4,0C44,30.5,44,30.5,44,30.4z"/>
<path class="st0" d="M44.3,30.7L44.3,30.7c-0.3,0-0.3-0.3-0.3-0.3c0,0,0,0,0-0.1c0,0,0,0,0.1,0c0.5,0,0.6-0.9,0.6-0.9
	c0,0,0-0.1,0.1-0.1c0,0,0.1,0,0.1,0.1c0,0,0.2,0.9-0.2,1.1C44.5,30.7,44.4,30.7,44.3,30.7z M44.2,30.5c0,0,0.1,0.1,0.1,0.1
	c0.1,0,0.2,0,0.2-0.1c0.1-0.1,0.2-0.3,0.2-0.5C44.6,30.2,44.4,30.4,44.2,30.5z"/>
<path class="st0" d="M44,36c0.6-0.1,0.7-0.9,0.7-0.9s0.2,0.8-0.2,1.1c-0.1,0.1-0.3,0.1-0.4,0C44,36.1,44,36.1,44,36z"/>
<path class="st0" d="M44.3,36.3L44.3,36.3c-0.2-0.1-0.3-0.2-0.3-0.3c0,0,0,0,0-0.1l0,0c0.5,0,0.6-0.8,0.6-0.9c0,0,0-0.1,0-0.1
	c0,0,0.1,0,0.1,0c0,0,0.1,0,0.1,0.1c0,0,0.2,0.8-0.2,1.2C44.5,36.3,44.4,36.3,44.3,36.3z M44.2,36.1c0,0,0.1,0.1,0.1,0.1
	c0.1,0,0.2,0,0.2-0.1c0.1-0.1,0.2-0.3,0.2-0.5C44.6,35.8,44.4,36,44.2,36.1z"/>
<path class="st0" d="M44,41.6c0.6-0.1,0.7-0.9,0.7-0.9s0.2,0.8-0.2,1.1c-0.1,0.1-0.3,0.1-0.4,0C44,41.7,44,41.7,44,41.6z"/>
<path class="st0" d="M44.3,41.9L44.3,41.9c-0.2-0.1-0.3-0.2-0.3-0.3c0,0,0,0,0-0.1c0,0,0,0,0.1,0c0.5,0,0.6-0.8,0.6-0.9
	c0,0,0-0.1,0.1-0.1c0,0,0.1,0,0.1,0.1c0,0,0.2,0.9-0.2,1.2C44.5,41.9,44.4,41.9,44.3,41.9z M44.2,41.7c0,0,0.1,0.1,0.1,0.1
	c0.1,0,0.2,0,0.2-0.1c0.1-0.1,0.2-0.3,0.2-0.5C44.6,41.4,44.4,41.6,44.2,41.7z"/>
<path class="st0" d="M44,47.2c0.6,0,0.7-0.9,0.7-0.9s0.2,0.8-0.2,1.1c-0.1,0.1-0.3,0.1-0.4,0C44,47.3,44,47.3,44,47.2z"/>
<path class="st0" d="M44.3,47.5L44.3,47.5c-0.2-0.1-0.3-0.2-0.3-0.3c0,0,0,0,0-0.1c0,0,0,0,0.1,0c0.5,0,0.6-0.8,0.6-0.9
	c0,0,0-0.1,0.1-0.1c0,0,0.1,0,0.1,0.1s0.2,0.8-0.2,1.2C44.5,47.5,44.4,47.5,44.3,47.5z M44.2,47.3c0,0,0.1,0.1,0.1,0.1
	c0.1,0,0.2,0,0.2-0.1c0.1-0.1,0.2-0.3,0.2-0.5C44.6,47,44.4,47.2,44.2,47.3z"/>
<path class="st0" d="M44,52.8c0.6,0,0.7-0.9,0.7-0.9s0.2,0.8-0.2,1.1c-0.1,0.1-0.3,0.1-0.4,0C44,52.9,44,52.9,44,52.8z"/>
<path class="st0" d="M44.3,53.1L44.3,53.1C44.1,53.1,44,53,44,52.9c0,0,0,0,0-0.1c0,0,0,0,0.1,0c0.5,0,0.6-0.8,0.6-0.9
	c0,0,0-0.1,0.1-0.1l0,0c0,0,0.1,0,0.1,0.1c0,0,0.2,0.9-0.2,1.2C44.5,53.1,44.4,53.1,44.3,53.1z M44.2,52.9c0,0,0.1,0.1,0.1,0.1
	c0.1,0,0.2,0,0.2-0.1c0.1-0.1,0.2-0.3,0.2-0.5C44.6,52.6,44.4,52.8,44.2,52.9z"/>
<path class="st0" d="M44,58.4c0.6,0,0.7-0.9,0.7-0.9s0.2,0.8-0.2,1.1c-0.1,0.1-0.3,0.1-0.4,0C44,58.5,44,58.5,44,58.4z"/>
<path class="st0" d="M44.3,58.7L44.3,58.7C44,58.7,44,58.5,44,58.5c0,0,0,0,0-0.1c0,0,0,0,0.1,0c0.5,0,0.6-0.8,0.6-0.9
	c0,0,0-0.1,0.1-0.1c0,0,0.1,0,0.1,0.1c0,0,0.2,0.9-0.2,1.2C44.5,58.7,44.4,58.7,44.3,58.7z M44.2,58.5c0,0,0.1,0.1,0.1,0.1
	c0.1,0,0.2,0,0.2-0.1c0.1-0.1,0.2-0.3,0.2-0.5C44.6,58.2,44.4,58.4,44.2,58.5z"/>
<path class="st0" d="M44,64c0.6,0,0.7-0.9,0.7-0.9s0.2,0.8-0.2,1.1c-0.1,0.1-0.3,0.1-0.4,0C44,64.1,44,64.1,44,64z"/>
<path class="st0" d="M44.3,64.3L44.3,64.3c-0.2-0.1-0.3-0.2-0.3-0.3c0,0,0,0,0-0.1l0,0c0.5,0,0.6-0.8,0.6-0.9c0,0,0-0.1,0-0.1
	c0,0,0.1,0,0.1,0c0,0,0.1,0,0.1,0.1c0,0,0.2,0.9-0.2,1.1C44.5,64.3,44.4,64.3,44.3,64.3z M44.2,64.1c0,0,0.1,0.1,0.1,0.1
	c0.1,0,0.2,0,0.2-0.1c0.1-0.1,0.2-0.3,0.2-0.5C44.6,63.8,44.4,64,44.2,64.1z"/>
<path class="st0" d="M44,69.6c0.6,0,0.7-0.9,0.7-0.9s0.2,0.8-0.2,1.1c-0.1,0.1-0.3,0.1-0.4,0C44,69.7,44,69.7,44,69.6z"/>
<path class="st0" d="M44.3,69.9L44.3,69.9C44,69.9,44,69.7,44,69.7c0,0,0,0,0-0.1c0,0,0,0,0.1,0c0.5,0,0.6-0.8,0.6-0.9
	c0,0,0-0.1,0.1-0.1l0,0c0,0,0.1,0,0.1,0.1c0,0,0.2,0.9-0.2,1.2C44.5,69.9,44.4,69.9,44.3,69.9z M44.2,69.7c0,0,0.1,0.1,0.1,0.1
	c0.1,0,0.2,0,0.2-0.1c0.1-0.1,0.2-0.3,0.2-0.5C44.6,69.4,44.4,69.6,44.2,69.7z"/>
<path class="st0" d="M44,75.2c0.6,0,0.7-0.9,0.7-0.9s0.2,0.8-0.2,1.1c-0.1,0.1-0.3,0.1-0.4,0C44,75.3,44,75.3,44,75.2z"/>
<path class="st0" d="M44.3,75.5L44.3,75.5c-0.3,0-0.3-0.3-0.3-0.3c0,0,0,0,0-0.1c0,0,0,0,0.1,0c0.5,0,0.6-0.8,0.6-0.9
	c0,0,0-0.1,0.1-0.1c0,0,0.1,0,0.1,0.1s0.2,0.9-0.2,1.2C44.5,75.5,44.4,75.5,44.3,75.5z M44.2,75.3c0,0,0.1,0.1,0.1,0.1
	c0.1,0,0.2,0,0.2-0.1c0.1-0.1,0.2-0.3,0.2-0.5C44.6,75,44.4,75.2,44.2,75.3z"/>
<path class="st0" d="M44,80.8c0.6,0,0.7-0.9,0.7-0.9s0.2,0.8-0.2,1.1c-0.1,0.1-0.3,0.1-0.4,0C44,80.9,44,80.9,44,80.8z"/>
<path class="st0" d="M44.3,81.1L44.3,81.1c-0.3,0-0.3-0.3-0.3-0.3c0,0,0,0,0-0.1c0,0,0,0,0.1,0c0.5,0,0.6-0.8,0.6-0.9
	c0,0,0-0.1,0.1-0.1c0,0,0.1,0,0.1,0.1c0,0,0.2,0.9-0.2,1.2C44.5,81.1,44.4,81.1,44.3,81.1z M44.2,80.9c0,0,0.1,0.1,0.1,0.1
	c0.1,0,0.2,0,0.2-0.1c0.1-0.1,0.2-0.3,0.2-0.5C44.6,80.6,44.4,80.8,44.2,80.9z"/>
<path class="st0" d="M44,86.4c0.6-0.1,0.7-0.9,0.7-0.9s0.2,0.8-0.2,1.1c-0.1,0.1-0.3,0.1-0.4,0C44,86.5,44,86.5,44,86.4z"/>
<path class="st0" d="M44.3,86.7L44.3,86.7c-0.3,0-0.3-0.3-0.3-0.3c0,0,0,0,0-0.1c0,0,0,0,0.1,0c0.5,0,0.6-0.8,0.6-0.9
	c0,0,0-0.1,0.1-0.1c0,0,0.1,0,0.1,0.1c0,0,0.2,0.9-0.2,1.2C44.5,86.7,44.4,86.7,44.3,86.7z M44.2,86.5c0,0,0.1,0.1,0.1,0.1
	c0.1,0,0.2,0,0.2-0.1c0.1-0.1,0.2-0.3,0.2-0.5C44.6,86.2,44.4,86.4,44.2,86.5z"/>
<path class="st0" d="M45.7,15c0.6,0,0.7-0.9,0.7-0.9s0.2,0.8-0.2,1.1c-0.1,0.1-0.3,0.1-0.4,0C45.7,15.1,45.7,15.1,45.7,15z"/>
<path class="st0" d="M45.9,15.3L45.9,15.3c-0.2-0.1-0.3-0.1-0.3-0.3c0,0,0,0,0-0.1c0,0,0,0,0.1,0c0.5,0,0.6-0.9,0.6-0.9
	c0,0,0-0.1,0.1-0.1c0,0,0.1,0,0.1,0.1c0,0,0.2,0.9-0.2,1.1C46.1,15.3,46,15.3,45.9,15.3z M45.8,15.1c0,0,0.1,0.1,0.1,0.1
	c0.1,0,0.2,0,0.2-0.1c0.1-0.1,0.2-0.3,0.2-0.5C46.2,14.8,46,15,45.8,15.1z"/>
<path class="st0" d="M50.1,13c0.6-0.1,0.7-0.9,0.7-0.9s0.2,0.8-0.2,1.1c-0.1,0.1-0.3,0.1-0.4,0C50.1,13.1,50.1,13.1,50.1,13z"/>
<path class="st0" d="M50.3,13.3L50.3,13.3C50.1,13.2,50,13.1,50,13c0,0,0,0,0-0.1c0,0,0,0,0.1,0c0.5-0.1,0.6-0.9,0.6-0.9
	c0,0,0-0.1,0.1-0.1c0,0,0.1,0,0.1,0.1s0.2,0.9-0.2,1.1C50.5,13.3,50.4,13.3,50.3,13.3z M50.2,13c0,0,0.1,0.1,0.1,0.1
	c0.1,0,0.2,0,0.2-0.1c0.1-0.1,0.2-0.3,0.2-0.5C50.6,12.7,50.4,12.9,50.2,13z"/>
<path class="st0" d="M54.9,15c0.6,0,0.7-0.9,0.7-0.9s0.2,0.8-0.2,1.1c-0.1,0.1-0.3,0.1-0.4,0C54.9,15.1,54.9,15.1,54.9,15z"/>
<path class="st0" d="M55.2,15.3L55.2,15.3c-0.2-0.1-0.3-0.2-0.3-0.3c0,0,0,0,0-0.1c0,0,0,0,0.1,0c0.5,0,0.6-0.9,0.6-0.9
	c0,0,0-0.1,0.1-0.1c0,0,0.1,0,0.1,0.1c0,0,0.2,0.9-0.2,1.1C55.3,15.3,55.3,15.3,55.2,15.3z M55,15.1c0,0,0.1,0.1,0.1,0.1
	c0.1,0,0.2,0,0.2-0.1c0.1-0.1,0.2-0.3,0.2-0.5C55.4,14.8,55.2,15,55,15.1z"/>
<path class="st0" d="M45.9,91.2c0.6-0.1,0.7-0.9,0.7-0.9s0.2,0.8-0.2,1.1c-0.1,0.1-0.3,0.1-0.4,0C45.9,91.3,45.9,91.3,45.9,91.2z"/>
<path class="st0" d="M46.1,91.5L46.1,91.5c-0.2-0.1-0.3-0.2-0.3-0.3c0,0,0,0,0-0.1l0,0c0.5-0.1,0.6-0.8,0.6-0.9c0,0,0-0.1,0.1-0.1
	c0,0,0.1,0,0.1,0.1c0,0,0.2,0.8-0.2,1.2C46.3,91.5,46.2,91.5,46.1,91.5z M46,91.3c0,0,0.1,0.1,0.1,0.1c0.1,0,0.2,0,0.2-0.1
	c0.1-0.1,0.2-0.3,0.2-0.5C46.4,91,46.2,91.2,46,91.3z"/>
<path class="st0" d="M50.1,92.9c0.6,0,0.7-0.9,0.7-0.9s0.2,0.8-0.2,1.1c-0.1,0.1-0.3,0.1-0.4,0C50.1,93,50.1,93,50.1,92.9z"/>
<path class="st0" d="M50.3,93.2L50.3,93.2c-0.2-0.1-0.3-0.2-0.3-0.3c0,0,0,0,0-0.1c0,0,0,0,0.1,0c0.5,0,0.6-0.8,0.6-0.9
	c0,0,0-0.1,0.1-0.1l0,0c0,0,0.1,0,0.1,0.1s0.2,0.9-0.2,1.2C50.5,93.2,50.4,93.2,50.3,93.2z M50.2,93c0,0,0.1,0.1,0.1,0.1
	c0.1,0,0.2,0,0.2-0.1c0.1-0.1,0.2-0.3,0.2-0.5C50.6,92.7,50.4,92.9,50.2,93z"/>
<path class="st0" d="M54.2,91c0.6-0.1,0.7-0.9,0.7-0.9s0.2,0.8-0.2,1.1c-0.1,0.1-0.3,0.1-0.4,0C54.3,91.1,54.3,91.1,54.2,91z"/>
<path class="st0" d="M54.5,91.3L54.5,91.3c-0.2-0.1-0.3-0.2-0.3-0.3c0,0,0,0,0-0.1c0,0,0,0,0.1,0c0.5-0.1,0.6-0.8,0.6-0.9
	c0,0,0-0.1,0.1-0.1l0,0c0,0,0.1,0,0.1,0c0,0,0.2,0.8-0.2,1.2C54.7,91.2,54.6,91.3,54.5,91.3z M54.4,91c0,0,0.1,0.1,0.1,0.1
	c0.1,0,0.2,0,0.2-0.1c0.1-0.1,0.2-0.3,0.2-0.5C54.8,90.7,54.6,90.9,54.4,91z"/>
<path class="st0" d="M42,35.2c-0.2,0-0.3-0.1-0.3-0.3c0,0,0,0,0,0v-6.2c0-0.2,0.1-0.3,0.3-0.3l0,0c0.2,0,0.3,0.1,0.3,0.3
	c0,0,0,0,0,0v6.2C42.3,35.1,42.2,35.2,42,35.2z M42,28.5c-0.1,0-0.2,0.1-0.2,0.2v0v6.2c0,0.1,0.1,0.2,0.2,0.2s0.2-0.1,0.2-0.2v-6.2
	C42.2,28.5,42.1,28.5,42,28.5L42,28.5z"/>
<polygon class="st0" points="42.3,28.7 42.3,28.7 42.3,34.9 43,34.9 43,28.7 "/>
<polygon class="st0" points="41.8,28.7 41.8,28.7 31.8,28.7 31.8,34.9 41.8,34.9 "/>
<path class="st0" d="M42,71.7c-0.2,0-0.3-0.1-0.3-0.3c0,0,0,0,0,0v-6.2c0-0.2,0.1-0.3,0.3-0.3c0.2,0,0.3,0.1,0.3,0.3c0,0,0,0,0,0
	v6.2C42.3,71.6,42.2,71.7,42,71.7z M42,65c-0.1,0-0.2,0.1-0.2,0.2v6.2c0,0.1,0.1,0.2,0.2,0.2s0.2-0.1,0.2-0.2v-6.3
	C42.2,65.1,42.1,65,42,65z"/>
<rect x="42.3" y="65.2" class="st0" width="0.7" height="6.2"/>
<rect x="31.8" y="65.2" class="st0" width="10" height="6.2"/>
<path class="st0" d="M57.6,80c0-0.2,0-0.2,0-0.2S57.6,79.8,57.6,80z"/>
<path class="st0" d="M57.6,80.3c-0.2,0-0.4-0.2-0.4-0.4v-0.3c0-0.2,0.2-0.4,0.4-0.4c0,0,0,0,0,0c0.2,0,0.4,0.2,0.4,0.4v0.2
	C58,80.1,57.8,80.3,57.6,80.3C57.6,80.3,57.6,80.3,57.6,80.3L57.6,80.3z"/>
<path class="st0" d="M57.9,82.2v-64l5.2-6.1c0,0-1.9-6.6-12.3-7.1S37,11.3,37,11.3l5.3,6.8v65.3c-0.4,1.3-1.1,2.5-2.2,2.8v3.3
	c0.9,0.3,1.9,0.1,2.6-0.6c1.3,4.1,5.7,6.3,9.8,5c2.5-0.8,4.4-2.8,5.1-5.3c0.7,0.8,1.8,1.1,2.8,0.7V86C58.9,85.6,58.2,83.8,57.9,82.2
	z M56,70.2c-0.6,0-1.2-0.5-1.2-1.1s0.5-1.2,1.1-1.2c0.6,0,1.2,0.5,1.2,1.1c0,0,0,0,0,0C57.1,69.6,56.6,70.1,56,70.2z M57.1,74.6
	c0,0.6-0.5,1.1-1.1,1.1c-0.6,0-1.1-0.5-1.1-1.1c0-0.6,0.5-1.1,1.1-1.1C56.6,73.5,57.1,74,57.1,74.6z M56,64.6
	c-0.6,0-1.1-0.5-1.1-1.1c0-0.6,0.5-1.1,1.1-1.1s1.1,0.5,1.1,1.1l0,0C57.1,64,56.6,64.5,56,64.6z M56,59c-0.6,0-1.1-0.5-1.1-1.1
	c0-0.6,0.5-1.1,1.1-1.1c0.6,0,1.1,0.5,1.1,1.1C57.1,58.5,56.6,59,56,59z M56,53.4c-0.6,0-1.1-0.5-1.1-1.1c0-0.6,0.5-1.1,1.1-1.1
	c0.6,0,1.1,0.5,1.1,1.1C57.1,52.9,56.6,53.4,56,53.4z M56,47.8c-0.6,0-1.1-0.5-1.1-1.1s0.5-1.1,1.1-1.1s1.1,0.5,1.1,1.1l0,0
	C57.1,47.3,56.6,47.7,56,47.8L56,47.8z M56,42.2c-0.6,0-1.2-0.5-1.2-1.1c0-0.6,0.5-1.2,1.1-1.2c0.6,0,1.2,0.5,1.2,1.1
	C57.1,41.6,56.6,42.1,56,42.2L56,42.2z M56,36.6c-0.6,0-1.1-0.5-1.1-1.1s0.5-1.1,1.1-1.1c0,0,0,0,0,0c0.6,0,1.1,0.5,1.1,1.1
	S56.6,36.6,56,36.6C56,36.6,56,36.6,56,36.6z M56,31c-0.6,0-1.1-0.5-1.1-1.1c0-0.6,0.5-1.1,1.1-1.1s1.1,0.5,1.1,1.1
	C57.1,30.5,56.6,31,56,31z M56,25.4c-0.6,0-1.1-0.5-1.1-1.1s0.5-1.1,1.1-1.1c0.6,0,1.1,0.5,1.1,1.1c0,0,0,0,0,0
	C57.1,24.9,56.6,25.3,56,25.4L56,25.4z M56,19.8c-0.6,0-1.1-0.5-1.1-1.1s0.5-1.1,1.1-1.1c0.6,0,1.1,0.5,1.1,1.1c0,0,0,0,0,0
	C57.1,19.3,56.6,19.7,56,19.8L56,19.8z M55.8,15.3c-0.2,0.2-0.5,0.3-0.8,0.3c-0.6,0-1.1-0.5-1.1-1.1s0.5-1.1,1.1-1.1
	c0.6,0,1.1,0.5,1.1,1.1l0,0C56.1,14.8,56,15.1,55.8,15.3L55.8,15.3z M55.2,79.5c0.2-0.2,0.5-0.3,0.8-0.3c0.6,0,1.1,0.5,1.1,1.1
	s-0.5,1.1-1.1,1.1s-1.1-0.5-1.1-1.1l0,0C54.8,79.9,54.9,79.6,55.2,79.5L55.2,79.5z M41.7,11.7c0,0-0.6,0.7-0.9,0.1
	c-0.3-0.4,0.3-1.1,0.3-1.1s2.5-3.8,8.4-3.9c3.6-0.1,7,1.2,9.7,3.6c0,0,0.8,0.6,0.5,1s-0.9-0.1-0.9-0.1C56.3,9,53,7.7,49.6,7.8
	C46.5,7.7,43.5,9.2,41.7,11.7z M51.2,12.4c0,0.6-0.5,1.1-1.1,1.1c-0.6,0-1.1-0.5-1.1-1.1c0,0,0,0,0,0c0-0.6,0.5-1.1,1.1-1.1
	C50.7,11.3,51.2,11.8,51.2,12.4z M44.9,75.5c-0.2,0.2-0.5,0.3-0.8,0.3c-0.6,0-1.1-0.5-1.1-1.1c0-0.6,0.5-1.1,1.1-1.1
	c0.6,0,1.1,0.5,1.1,1.1C45.2,75,45.1,75.3,44.9,75.5z M45.2,80.3c0,0.6-0.5,1.1-1.1,1.1S43,80.9,43,80.3c0-0.6,0.5-1.1,1.1-1.1l0,0
	C44.7,79.1,45.2,79.6,45.2,80.3z M44.1,70.2c-0.6,0-1.1-0.5-1.1-1.1c0-0.6,0.5-1.1,1.1-1.1c0,0,0,0,0,0c0.6,0,1.1,0.5,1.1,1.1
	C45.2,69.7,44.7,70.2,44.1,70.2C44.1,70.2,44.1,70.2,44.1,70.2z M44.1,64.6c-0.6,0-1.1-0.5-1.1-1.1c0-0.6,0.5-1.1,1.1-1.1
	c0.6,0,1.1,0.5,1.1,1.1c0,0,0,0,0,0C45.2,64.1,44.7,64.6,44.1,64.6z M44.1,59c-0.6,0-1.1-0.5-1.1-1.1s0.5-1.1,1.1-1.1
	s1.1,0.5,1.1,1.1l0,0C45.2,58.5,44.7,59,44.1,59z M44.9,53.1c-0.2,0.2-0.5,0.3-0.8,0.3c-0.6,0-1.1-0.5-1.1-1.1s0.5-1.1,1.1-1.1
	s1.1,0.5,1.1,1.1l0,0C45.2,52.6,45.1,52.9,44.9,53.1z M44.1,47.8c-0.6,0-1.1-0.5-1.1-1.1c0-0.6,0.5-1.1,1.1-1.1
	c0.6,0,1.1,0.5,1.1,1.1c0,0,0,0,0,0C45.2,47.3,44.7,47.8,44.1,47.8z M44.1,42.2c-0.6,0-1.1-0.5-1.1-1.1c0-0.6,0.5-1.1,1.1-1.1
	c0.6,0,1.1,0.5,1.1,1.1c0,0,0,0,0,0C45.2,41.7,44.7,42.2,44.1,42.2z M44.1,36.6c-0.6,0-1.1-0.5-1.1-1.1s0.5-1.1,1.1-1.1
	s1.1,0.5,1.1,1.1l0,0C45.2,36.1,44.7,36.6,44.1,36.6z M44.9,30.7c-0.4,0.4-1.2,0.4-1.6,0c-0.4-0.4-0.4-1.2,0-1.6
	c0.4-0.4,1.2-0.4,1.6,0c0.2,0.2,0.3,0.5,0.3,0.8C45.2,30.2,45.1,30.5,44.9,30.7z M44.1,25.4c-0.6,0-1.1-0.5-1.1-1.1s0.5-1.1,1.1-1.1
	c0.6,0,1.1,0.5,1.1,1.1c0,0,0,0,0,0C45.2,24.9,44.7,25.4,44.1,25.4z M44.1,19.8c-0.6,0-1.1-0.5-1.1-1.1s0.5-1.1,1.1-1.1
	c0.6,0,1.1,0.5,1.1,1.1c0,0,0,0,0,0C45.2,19.3,44.7,19.8,44.1,19.8z M44.6,14.5c0-0.6,0.5-1.1,1.1-1.1s1.1,0.5,1.1,1.1
	c0,0.6-0.5,1.1-1.1,1.1l0,0C45.1,15.6,44.6,15.1,44.6,14.5C44.6,14.4,44.6,14.4,44.6,14.5z M44.1,87c-0.6,0-1.1-0.5-1.1-1.1
	c0-0.6,0.5-1.1,1.1-1.1s1.1,0.5,1.1,1.1c0,0,0,0,0,0C45.2,86.5,44.7,87,44.1,87z M45.9,91.8c-0.6,0-1.1-0.5-1.1-1.1
	c0-0.3,0.1-0.6,0.3-0.8c0.4-0.4,1.2-0.5,1.6,0c0.4,0.4,0.5,1.2,0,1.6C46.5,91.6,46.2,91.8,45.9,91.8z M50.1,93.5
	c-0.6,0-1.1-0.5-1.1-1.1c0-0.6,0.5-1.1,1.1-1.1s1.1,0.5,1.1,1.1c0,0,0,0,0,0C51.2,93,50.7,93.5,50.1,93.5z M50.7,89.4h-1.1
	c-1.8,0-3.3-1.5-3.3-3.3l0,0V18.4c0-1.8,1.5-3.3,3.3-3.3h1.1c1.8,0,3.3,1.5,3.3,3.3v67.8C54,87.9,52.5,89.4,50.7,89.4z M54.3,91.5
	c-0.6,0-1.1-0.5-1.1-1.1c0-0.6,0.5-1.1,1.1-1.1s1.1,0.5,1.1,1.1c0,0,0,0,0,0C55.4,91,54.9,91.6,54.3,91.5z M54.8,85.8
	c0-0.6,0.6-1.1,1.2-1.1s1.1,0.6,1.1,1.2c0,0.6-0.5,1.1-1.1,1.1C55.4,87,54.8,86.5,54.8,85.8C54.8,85.9,54.8,85.8,54.8,85.8z"/>
<path class="st0" d="M50.1,94.4c-3.3,0-6.3-2.1-7.4-5.3c-0.7,0.6-1.7,0.8-2.6,0.5c0,0-0.1-0.1-0.1-0.1v-3.4c0,0,0-0.1,0.1-0.1
	c0.9-0.2,1.7-1.1,2.1-2.7V18.1l-5.3-6.8c0,0,0-0.1,0-0.1c0.7-1.3,1.8-2.5,3-3.4c2.8-2.1,6.2-3.1,9.7-3h1.1c3,0.2,7.2,0.9,10.1,3.8
	c1,0.9,1.8,2.1,2.2,3.4c0,0,0,0.1,0,0.1L58,18.2v64c0.3,1.5,1,3.4,2.4,3.7c0,0,0.1,0.1,0.1,0.1v3.3c0,0,0,0.1-0.1,0.1
	c-1,0.3-2,0.1-2.8-0.7C56.6,92.1,53.6,94.4,50.1,94.4z M42.7,88.8L42.7,88.8C42.7,88.8,42.8,88.9,42.7,88.8c1.4,4.1,5.7,6.3,9.7,5
	c2.4-0.8,4.3-2.8,5-5.2c0,0,0-0.1,0.1-0.1c0,0,0.1,0,0.1,0c0.7,0.7,1.7,1,2.6,0.8v-3.2c-1.5-0.4-2.2-2.3-2.5-3.9l0,0v-64
	c0,0,0,0,0-0.1L63,12c-0.2-0.6-2.4-6.5-12.2-7C45.4,4.8,42,6.5,40,8c-1.2,0.9-2.2,2-2.9,3.3l5.3,6.7c0,0,0,0,0,0.1v65.4l0,0
	c-0.5,1.6-1.2,2.5-2.2,2.8v3.2C41,89.7,42,89.5,42.7,88.8C42.7,88.8,42.7,88.8,42.7,88.8z M50.1,93.6c-0.7,0-1.2-0.6-1.2-1.2
	c0-0.7,0.6-1.2,1.2-1.2s1.2,0.6,1.2,1.2c0,0,0,0,0,0C51.4,93,50.8,93.6,50.1,93.6C50.1,93.6,50.1,93.6,50.1,93.6z M50.1,91.3
	c-0.6,0-1,0.4-1,1s0.4,1,1,1s1-0.4,1-1S50.7,91.3,50.1,91.3z M45.9,91.9c-0.7,0-1.2-0.6-1.2-1.2c0-0.3,0.1-0.6,0.4-0.9
	c0.2-0.2,0.5-0.4,0.9-0.4c0.7,0,1.2,0.6,1.2,1.2C47.2,91.3,46.6,91.9,45.9,91.9L45.9,91.9z M45.9,89.6c-0.6,0-1,0.4-1,1s0.4,1,1,1
	s1-0.4,1-1S46.5,89.6,45.9,89.6z M54.3,91.6c-0.7,0-1.2-0.6-1.2-1.2c0-0.7,0.6-1.2,1.2-1.2s1.2,0.6,1.2,1.2c0,0,0,0,0,0
	C55.6,91.1,55,91.7,54.3,91.6C54.3,91.7,54.3,91.7,54.3,91.6z M54.3,89.4c-0.6,0-1,0.4-1,1c0,0.6,0.5,1,1,1c0.6,0,1-0.5,1-1
	C55.4,89.8,54.9,89.4,54.3,89.4C54.4,89.4,54.3,89.4,54.3,89.4z M50.7,89.5h-1.1c-1.9,0-3.4-1.5-3.4-3.4V18.4c0-1.9,1.5-3.4,3.4-3.4
	h1.1c1.9,0,3.4,1.5,3.4,3.4v67.7C54.1,88,52.6,89.5,50.7,89.5z M49.6,15.1c-1.8,0-3.2,1.4-3.2,3.2l0,0v67.8c0,1.8,1.4,3.2,3.2,3.2
	h1.1c1.8,0,3.2-1.4,3.2-3.2V18.4c0-1.8-1.4-3.2-3.2-3.2l0,0L49.6,15.1z M44.1,87.1c-0.7,0-1.2-0.6-1.2-1.2c0-0.7,0.6-1.2,1.2-1.2
	s1.2,0.6,1.2,1.2c0,0,0,0,0,0C45.3,86.6,44.8,87.1,44.1,87.1z M44.1,84.8c-0.6,0-1,0.4-1,1s0.4,1,1,1s1-0.4,1-1S44.6,84.8,44.1,84.8
	z M56,87.1c-0.7,0-1.2-0.6-1.2-1.2c0-0.7,0.6-1.2,1.2-1.2c0.7,0,1.2,0.6,1.2,1.2l0,0C57.2,86.5,56.7,87,56,87.1z M56,84.8
	c-0.6,0-1,0.4-1,1s0.4,1,1,1s1-0.4,1-1C57,85.2,56.6,84.8,56,84.8C56,84.8,56,84.8,56,84.8z M44.1,81.5c-0.7,0-1.2-0.6-1.2-1.2
	c0-0.7,0.6-1.2,1.2-1.2s1.2,0.6,1.2,1.2c0,0,0,0,0,0C45.3,81,44.8,81.5,44.1,81.5z M44.1,79.2c-0.6,0-1,0.4-1,1s0.4,1,1,1s1-0.4,1-1
	S44.6,79.2,44.1,79.2z M56,81.4c-0.7,0-1.2-0.6-1.2-1.2c0-0.3,0.1-0.6,0.4-0.9l0,0c0.2-0.2,0.5-0.3,0.9-0.3c0.7,0,1.2,0.6,1.2,1.2
	C57.2,80.9,56.7,81.5,56,81.4L56,81.4z M56,79.2c-0.3,0-0.5,0.1-0.7,0.3l0,0c-0.2,0.2-0.3,0.5-0.3,0.7c0,0.6,0.4,1,1,1s1-0.4,1-1
	S56.5,79.2,56,79.2L56,79.2z M44.1,75.9c-0.7,0-1.2-0.6-1.2-1.2c0-0.7,0.6-1.2,1.2-1.2s1.2,0.6,1.2,1.2c0,0,0,0,0,0
	C45.3,75.3,44.8,75.9,44.1,75.9z M44.1,73.6c-0.6,0-1,0.5-1,1s0.5,1,1,1c0.3,0,0.5-0.1,0.7-0.3l0,0c0.2-0.2,0.3-0.5,0.3-0.7
	C45.2,74.1,44.7,73.6,44.1,73.6C44.2,73.6,44.1,73.6,44.1,73.6z M56,75.8c-0.7,0-1.2-0.6-1.2-1.2c0-0.7,0.6-1.2,1.2-1.2
	c0.7,0,1.2,0.6,1.2,1.2l0,0C57.2,75.3,56.7,75.8,56,75.8z M56,73.6c-0.6,0-1,0.4-1,1s0.4,1,1,1s1-0.4,1-1S56.6,73.6,56,73.6z
	 M44.1,70.3c-0.7,0-1.2-0.6-1.2-1.2c0-0.7,0.6-1.2,1.2-1.2s1.2,0.6,1.2,1.2c0,0,0,0,0,0C45.3,69.8,44.8,70.3,44.1,70.3z M44.1,68
	c-0.6,0-1,0.4-1,1s0.4,1,1,1s1-0.4,1-1C45.1,68.5,44.7,68,44.1,68C44.1,68,44.1,68,44.1,68L44.1,68z M56,70.2
	c-0.7,0-1.3-0.5-1.3-1.2s0.5-1.3,1.2-1.3c0.7,0,1.3,0.5,1.3,1.2c0,0,0,0,0,0C57.2,69.7,56.7,70.2,56,70.2z M56,68c-0.6,0-1,0.4-1,1
	s0.4,1,1,1s1-0.4,1-1S56.6,68,56,68z M44.1,64.7c-0.7,0-1.2-0.6-1.2-1.2c0-0.7,0.6-1.2,1.2-1.2s1.2,0.6,1.2,1.2c0,0,0,0,0,0
	C45.3,64.2,44.8,64.7,44.1,64.7z M44.1,62.4c-0.6,0-1,0.4-1,1s0.4,1,1,1s1-0.4,1-1C45.1,62.9,44.6,62.4,44.1,62.4z M56,64.7
	c-0.7,0-1.2-0.6-1.2-1.2s0.6-1.2,1.2-1.2c0.7,0,1.2,0.6,1.2,1.2C57.2,64.1,56.7,64.6,56,64.7z M56,62.4c-0.6,0-1,0.4-1,1s0.4,1,1,1
	s1-0.4,1-1C57,62.8,56.6,62.4,56,62.4C56,62.4,56,62.4,56,62.4z M44.1,59.1c-0.7,0-1.2-0.6-1.2-1.2s0.6-1.2,1.2-1.2
	c0.7,0,1.2,0.6,1.2,1.2S44.8,59.1,44.1,59.1L44.1,59.1z M44.1,56.8c-0.6,0-1,0.4-1,1c0,0.6,0.5,1,1,1c0.6,0,1-0.5,1-1
	C45.2,57.3,44.7,56.8,44.1,56.8C44.1,56.8,44.1,56.8,44.1,56.8z M56,59c-0.7,0-1.2-0.6-1.2-1.2s0.6-1.2,1.2-1.2
	c0.7,0,1.2,0.6,1.2,1.2C57.2,58.5,56.7,59,56,59z M56,56.8c-0.6,0-1,0.4-1,1s0.4,1,1,1s1-0.4,1-1S56.6,56.8,56,56.8z M44.1,53.5
	c-0.7,0-1.2-0.6-1.2-1.2s0.6-1.2,1.2-1.2c0.7,0,1.2,0.6,1.2,1.2c0,0.3-0.1,0.7-0.4,0.9C44.7,53.4,44.4,53.5,44.1,53.5z M44.1,51.2
	c-0.6,0-1,0.5-1,1c0,0.6,0.5,1,1,1c0.3,0,0.5-0.1,0.7-0.3l0,0c0.2-0.2,0.3-0.5,0.3-0.7C45.1,51.7,44.7,51.2,44.1,51.2
	C44.1,51.2,44.1,51.2,44.1,51.2z M56,53.5c-0.7,0-1.2-0.6-1.2-1.2S55.3,51,56,51c0.7,0,1.2,0.6,1.2,1.2C57.2,52.9,56.7,53.4,56,53.5
	z M56,51.2c-0.6,0-1,0.4-1,1s0.4,1,1,1s1-0.4,1-1C57,51.6,56.6,51.2,56,51.2C56,51.2,56,51.2,56,51.2z M44.1,47.9
	c-0.7,0-1.2-0.6-1.2-1.2c0-0.7,0.6-1.2,1.2-1.2s1.2,0.6,1.2,1.2c0,0,0,0,0,0C45.3,47.4,44.8,47.9,44.1,47.9z M44.1,45.6
	c-0.6,0-1,0.4-1,1s0.4,1,1,1c0.5,0,1-0.4,1-1C45.1,46.1,44.7,45.6,44.1,45.6C44.1,45.6,44.1,45.6,44.1,45.6z M56,47.8
	c-0.7,0-1.2-0.6-1.2-1.2c0-0.7,0.6-1.2,1.2-1.2s1.2,0.6,1.2,1.2c0,0,0,0,0,0C57.2,47.3,56.7,47.8,56,47.8z M56,45.6
	c-0.6,0-1,0.4-1,1s0.4,1,1,1s1-0.4,1-1S56.6,45.6,56,45.6z M44.1,42.3c-0.7,0-1.2-0.6-1.2-1.2c0-0.7,0.6-1.2,1.2-1.2
	s1.2,0.6,1.2,1.2c0,0,0,0,0,0C45.3,41.8,44.8,42.3,44.1,42.3z M44.1,40c-0.6,0-1,0.4-1,1s0.4,1,1,1s1-0.4,1-1S44.6,40,44.1,40z
	 M56,42.2c-0.7,0-1.3-0.5-1.3-1.2s0.5-1.3,1.2-1.3c0.7,0,1.3,0.5,1.3,1.2c0,0,0,0,0,0C57.2,41.7,56.7,42.2,56,42.2z M56,40
	c-0.6,0-1,0.4-1,1s0.4,1,1,1s1-0.4,1-1S56.6,40,56,40z M44.1,36.7c-0.7,0-1.2-0.6-1.2-1.2s0.6-1.2,1.2-1.2c0.7,0,1.2,0.6,1.2,1.2
	S44.8,36.7,44.1,36.7L44.1,36.7z M44.1,34.4c-0.6,0-1,0.5-1,1c0,0.6,0.5,1,1,1s1-0.5,1-1S44.7,34.4,44.1,34.4z M56,36.7
	c-0.7,0-1.2-0.6-1.2-1.2s0.6-1.2,1.2-1.2c0.7,0,1.2,0.6,1.2,1.2C57.2,36.1,56.7,36.6,56,36.7z M56,34.4c-0.6,0-1,0.4-1,1s0.4,1,1,1
	s1-0.4,1-1C57,34.8,56.6,34.4,56,34.4C56,34.4,56,34.4,56,34.4z M44.1,31.1c-0.7,0-1.2-0.6-1.2-1.2s0.6-1.2,1.2-1.2
	c0.7,0,1.2,0.6,1.2,1.2C45.3,30.5,44.8,31.1,44.1,31.1z M44.1,28.8c-0.6,0-1,0.5-1,1c0,0.6,0.5,1,1,1c0.3,0,0.5-0.1,0.7-0.3l0,0
	c0.2-0.2,0.3-0.5,0.3-0.7C45.1,29.3,44.7,28.8,44.1,28.8C44.1,28.8,44.1,28.8,44.1,28.8z M56,31c-0.7,0-1.2-0.6-1.2-1.2
	s0.6-1.2,1.2-1.2c0.7,0,1.2,0.6,1.2,1.2C57.2,30.5,56.7,31,56,31z M56,28.8c-0.6,0-1,0.4-1,1s0.4,1,1,1s1-0.4,1-1S56.6,28.8,56,28.8
	z M44.1,25.5c-0.7,0-1.2-0.6-1.2-1.2s0.6-1.2,1.2-1.2c0.7,0,1.2,0.6,1.2,1.2C45.3,24.9,44.8,25.5,44.1,25.5L44.1,25.5z M44.1,23.2
	c-0.6,0-1,0.5-1,1c0,0.6,0.5,1,1,1s1-0.5,1-1C45.1,23.7,44.7,23.2,44.1,23.2z M56,25.4c-0.7,0-1.2-0.6-1.2-1.2
	c0-0.7,0.6-1.2,1.2-1.2s1.2,0.6,1.2,1.2c0,0,0,0,0,0C57.2,24.9,56.7,25.4,56,25.4z M56,23.2c-0.6,0-1,0.4-1,1s0.4,1,1,1s1-0.4,1-1
	S56.6,23.2,56,23.2z M44.1,19.9c-0.7,0-1.2-0.6-1.2-1.2s0.6-1.2,1.2-1.2c0.7,0,1.2,0.6,1.2,1.2C45.3,19.3,44.8,19.9,44.1,19.9z
	 M44.1,17.6c-0.6,0-1,0.5-1,1c0,0.6,0.5,1,1,1s1-0.5,1-1C45.1,18.1,44.7,17.6,44.1,17.6z M56,19.8c-0.7,0-1.2-0.6-1.2-1.2
	c0-0.7,0.6-1.2,1.2-1.2s1.2,0.6,1.2,1.2c0,0,0,0,0,0C57.2,19.3,56.7,19.8,56,19.8z M56,17.6c-0.6,0-1,0.4-1,1s0.4,1,1,1s1-0.4,1-1
	S56.6,17.6,56,17.6z M55,15.7c-0.7,0-1.2-0.6-1.2-1.2c0-0.7,0.6-1.2,1.2-1.2c0.7,0,1.2,0.6,1.2,1.2c0,0.3-0.1,0.6-0.4,0.9l0,0
	C55.6,15.6,55.3,15.7,55,15.7z M55,13.4c-0.6,0-1,0.5-1,1s0.5,1,1,1l0,0c0.3,0,0.5-0.1,0.7-0.3l0,0c0.2-0.2,0.3-0.5,0.3-0.7
	C56.1,13.9,55.6,13.4,55,13.4C55.1,13.4,55,13.4,55,13.4z M45.8,15.7c-0.7,0-1.2-0.5-1.2-1.2s0.5-1.2,1.2-1.2c0.7,0,1.2,0.5,1.2,1.2
	c0,0,0,0,0,0C47,15.1,46.5,15.7,45.8,15.7C45.8,15.7,45.7,15.7,45.8,15.7L45.8,15.7z M45.8,13.4c-0.6,0-1,0.4-1,1s0.4,1,1,1
	s1-0.4,1-1C46.8,13.9,46.3,13.4,45.8,13.4C45.8,13.4,45.7,13.4,45.8,13.4L45.8,13.4z M50.2,13.7c-0.7,0-1.2-0.6-1.2-1.2
	s0.6-1.2,1.2-1.2c0.7,0,1.2,0.6,1.2,1.2C51.4,13.1,50.9,13.7,50.2,13.7C50.2,13.7,50.1,13.7,50.2,13.7L50.2,13.7z M50.2,11.4
	c-0.6,0-1,0.5-1,1s0.5,1,1,1s1-0.5,1-1S50.7,11.4,50.2,11.4z M41.2,12.1L41.2,12.1c-0.2,0-0.3-0.1-0.4-0.3c-0.3-0.5,0.3-1.1,0.3-1.2
	c0.5-0.8,1.2-1.4,2-1.9c1.9-1.3,4.2-2,6.5-2h0.3c3.4,0,6.8,1.3,9.3,3.6c0,0,0.8,0.6,0.5,1.1c-0.1,0.2-0.2,0.3-0.4,0.3l0,0
	c-0.2,0-0.5-0.2-0.6-0.4c-2.3-2.3-5.5-3.6-8.7-3.6h-0.3c-2.2,0-4.3,0.7-6,2c-0.7,0.5-1.3,1.2-1.8,1.9l0,0
	C41.6,12,41.4,12.1,41.2,12.1L41.2,12.1z M49.8,6.9h-0.3c-2.3,0-4.5,0.7-6.4,2c-0.8,0.5-1.4,1.2-2,1.9c0,0-0.5,0.6-0.3,0.9
	c0.1,0.1,0.2,0.2,0.3,0.2c0.2,0,0.4-0.2,0.5-0.3c0.5-0.8,1.1-1.4,1.9-1.9c1.8-1.3,3.9-2,6.1-2h0.3c3.3,0,6.5,1.4,8.9,3.7
	c0.1,0.2,0.3,0.3,0.5,0.3l0,0c0.1,0,0.2-0.1,0.2-0.2c0.2-0.4-0.5-0.9-0.5-0.9C56.5,8.3,53.2,7,49.8,6.9L49.8,6.9z"/>
</svg>
