<?xml version="1.0" encoding="utf-8"?>
<!-- Generator: Adobe Illustrator 25.2.1, SVG Export Plug-In . SVG Version: 6.00 Build 0)  -->
<svg version="1.1" id="Layer_1" xmlns="http://www.w3.org/2000/svg" xmlns:xlink="http://www.w3.org/1999/xlink" x="0px" y="0px"
	 viewBox="0 0 100 100" style="enable-background:new 0 0 100 100;" xml:space="preserve">
<style type="text/css">
	.st0{fill:#FFFFFF;}
</style>
<path class="st0" d="M78,44.1c-2,0-4,0.4-5.8,1l-4.4-10.3l-0.1-6.8c0,0,0,0,0,0c2-0.2,8-0.6,9.4,1.5c0.7,1.1,0.7,2.5,0.1,3.6
	c-0.6,1.2-1.9,1.8-3.5,1.8c-0.5,0-1,0.4-1,1c0,0.5,0.4,1,1,1c2.3,0,4.2-1,5.2-2.8c0.9-1.7,0.9-3.9-0.2-5.6c-2-3.2-8.2-2.7-11.2-2.4
	c-0.4,0-0.7,0.1-0.9,0.1c-0.5,0-1,0.4-0.9,1c0,0,0,0,0,0.1c0,0,0,0,0,0l0.1,6.7H40.7l-2-9h8.6c0.8,0,1.4-0.7,1.4-1.5
	S48.1,22,47.3,22H31.8c-0.8,0-1.4,0.7-1.4,1.5S31,25,31.8,25h4.9l2.2,10.2l-8,11.5c-2.6-1.6-5.6-2.5-8.9-2.5c-9.4,0-17,7.6-17,17
	s7.6,17,17,17c9.1,0,16.5-7.1,17-16.1h2.9c0.4,2,1.9,2.8,3.6,2.8c2,0,3.7-1.6,3.7-3.7c0-0.8-0.3-1.5-0.7-2.1l18.1-22.1l3.8,9
	c-5.6,2.8-9.5,8.6-9.5,15.2c0,9.4,7.6,17,17,17s17-7.6,17-17S87.4,44.1,78,44.1z M39.4,37.6l4.3,20.2c-0.9,0.5-1.6,1.2-1.9,2.2H39
	c-0.3-5-2.8-9.4-6.5-12.4L39.4,37.6z M25.6,60c-0.1,0-0.4-0.9-0.8-1.4l6-8.7c3,2.4,5,6.1,5.3,10.1H25.6z M21.2,61.5
	c0.2,0.3,0.5,0.5,0.8,0.5h1.5c-0.3,1-0.9,0.9-1.5,0.9c-1,0-1.8-0.8-1.8-1.8c0-1,0.8-1.8,1.8-1.8c0,0,0.1,0,0.1,0l-0.9,1.2
	C21,60.9,21,61.2,21.2,61.5z M22,75.2c-7.8,0-14.2-6.3-14.2-14.1S14.2,47,22,47c2.6,0,5.1,0.7,7.2,2l-6,8.6
	c-0.4-0.1-0.8-0.2-1.3-0.2c-2.1,0-3.7,1.7-3.7,3.7s1.7,3.7,3.7,3.7c1.7,0,3.2-0.8,3.6-2.8h10.5C35.6,69,29.5,75.2,22,75.2z M47,57.7
	c-0.4-0.2-0.9-0.3-1.3-0.3L41.1,36h23.7L47,57.7z M78,75.3c-7.8,0-14.2-6.3-14.2-14.2c0-5.5,3.1-10.2,7.7-12.6l4.1,9.6
	c-0.9,0.7-1.4,1.8-1.4,2.9c0,2.1,1.7,3.7,3.7,3.7s3.7-1.7,3.7-3.7c0-2.1-1.7-3.7-3.7-3.7c-0.2,0-0.4,0-0.5,0l-4.1-9.6
	c1.5-0.5,3-0.8,4.7-0.8c7.8,0,14.2,6.3,14.2,14.2S85.8,75.3,78,75.3z M76.2,61.1c0-1,0.8-1.8,1.8-1.8s1.8,0.8,1.8,1.8
	c0,1-0.8,1.8-1.8,1.8S76.2,62.2,76.2,61.1z"/>
</svg>
