<?xml version="1.0" encoding="utf-8"?>
<!-- Generator: Adobe Illustrator 25.2.1, SVG Export Plug-In . SVG Version: 6.00 Build 0)  -->
<svg version="1.1" id="Layer_1" xmlns="http://www.w3.org/2000/svg" xmlns:xlink="http://www.w3.org/1999/xlink" x="0px" y="0px"
	 viewBox="0 0 100 100" style="enable-background:new 0 0 100 100;" xml:space="preserve">
<style type="text/css">
	.st0{fill:#FFFFFF;}
</style>
<path class="st0" d="M50.5,30.3c0,0-0.7-3.3-1.1-3.3s0.1-2.2-0.3-3s0.9-0.4-1-3.5c-0.6-1-0.4-1.2-0.2-1.2c-0.6-0.6-1-1.2-1.6-1.9
	c-0.4-0.4-0.7-1-0.8-1.5c-0.2-0.3-0.3-0.6-0.4-0.9c-0.2,0-0.3,0-0.3,0s-0.5-0.8-0.7-0.9s0.1-0.5-0.2-0.9c-0.3-0.3-0.7-0.6-1.1-0.6
	c-0.4,0-0.7-0.2-1-0.4c-0.2-0.2-0.2-0.8-0.8-0.8s-0.5-0.3-1.1-0.3c-0.5-0.1-1,0-1.5,0.1c-0.6,0.2-0.4,0.5-0.7,0.5s-0.7,0.6-0.7,1
	s-0.5,0.7-0.5,0.7c-0.4-0.2-0.8-0.4-1.2-0.6c-0.1,0-1.2,0.5-1.2,0.9s0.2,0.7-0.2,0.7s-0.5,0.3-0.5,0.6v1c0-0.2-0.1-0.4-0.2-0.5
	c0,0.2,0,0.4,0,0.6c-0.1,0.3-0.2,0.5-0.5,0.7c-0.1,0.1-0.2,0.1-0.3,0.2l0,0c-0.2,0.3-0.4,0.5-0.6,0.8s-0.4,0.6-0.6,0.9
	c-0.2,0.2-0.3,0.4-0.5,0.5c0.1,0.1,0.1,0.2,0.2,0.2c0.2,0.1-1.1,2.1-1.4,2.4c-0.5,0.6-0.7,1.3-0.8,2.1c0,1.1,0.1,2.2,0.3,3.2
	c0.2,0.4-0.4,0.5-0.4,0.7s-1,2.7-0.7,3.2c0.3,0.5,0.3,1.1,0,1.6c-0.1,0.7-0.1,1.4,0,2.1c-0.1,1.3-0.1,2.5,0.2,3.8
	c0.4,1.2,1.2,0.8,1.2,1.8c0,0.8,0.1,1.7,0.4,2.5c0.2,0.5,1.1,1.6,1.1,2.4s0.9,0.2,0.9,1c0.2,0.7,0.4,1.4,0.8,2
	c0.2,0.4,0.7,2.3,1.1,2.3s1-0.2,1,0.2s1.9,1.2,2,1.8c0,0.5,0.4,0.8,0.9,0.8c0,0,0,0,0,0c0.4,0,0.8,0.2,1.2,0.5
	c0.3,0.3,1.5,0.3,1.5,0s1,0.8,1.7,0.6s0.9,0.4,1.6,0.1c0.4-0.2,0.8-0.4,1.3-0.5l0.4-0.7l0.1-0.2c0.2-2.1,0.1-4.2-0.1-6.2
	c0-0.2,0-0.3,0-0.5c0-0.1-0.1-0.2-0.1-0.3h0c0-0.1-0.1-0.1-0.1-0.2c-0.1-0.1-0.2-0.3-0.3-0.5c0.1,0,0.1,0,0.2,0c0,0,0.1,0,0.1,0
	c0-0.5,0-0.9,0.3-1.1c0.7-0.4,2.3-1.8,2.3-2.8c0-1.2,0.3-2.3,1-3.3c0.8-1.2,1.5-1.1,1.7-2.5s1-3.8,1-3.8
	C51,31.2,50.7,30.7,50.5,30.3z M46.2,19.4c0.8,1.2,2,2.3,1.7,3.8c-0.1,0.4-0.2,0.9-0.2,1.4c0,0.4,0,0.8,0.1,1.2
	c0.2,0.6,0,1.3-0.4,1.9c-0.3,0.3-0.8-0.2-0.5-0.5s0.2-1.2,0.1-1.8c-0.1-0.7,0-1.4,0.2-2.1c0.3-1.4-0.8-2.4-1.6-3.4
	C45.3,19.4,45.9,19.1,46.2,19.4z M45.7,34c0.3,0.4-0.4,0.8-0.7,0.4c-0.7-1.3-0.8-2.8-0.3-4.2c0.3-0.8,0.5-1.7,0.5-2.5
	c-0.1-0.8-0.7-1.5-0.9-2.3c-0.1-0.5,0.6-0.7,0.7-0.2c0.4,0.7,0.6,1.4,0.9,2.1c0.1,0.9,0,1.7-0.3,2.5C45.2,31.1,44.8,32.8,45.7,34z
	 M33.3,20.4c0-0.1,0.2-0.2,0.3-0.3c0-0.1,0-0.1,0-0.2c0-0.1,0.1-0.3,0.3-0.3c0-0.5,0.1-0.9,0.3-1.3l0,0c0.1-0.2,0.2-0.4,0.3-0.6
	c-0.1-0.1-0.1-0.2,0-0.3c0,0,0,0,0.1-0.1l0,0c0.2-0.3,0.5-0.5,0.7-0.7l0,0c0.2-0.3,0.5-0.5,0.8-0.6c0.3-0.1,0.5-0.1,0.8-0.1
	c0.6-0.2,1.2-0.3,1.8-0.4c0.3-0.1,0.6-0.1,0.8-0.1h0.2c0.2,0,0.5,0,0.7,0c0.2,0,0.4,0.1,0.6,0.2c0.1,0.1,0.1,0.1,0.2,0.2
	c0.1,0,0.3,0,0.4,0.1l0.3,0.1h0.3c0.3,0.1,0.5,0.2,0.7,0.4c0.2,0.1,0.4,0.2,0.6,0.4c0.4,0.1,0.7,0.4,0.9,0.7
	c0.3,0.4,0.5,0.8,0.6,1.2c0,0.2,0.1,0.3,0.1,0.5c0.1,0.3,0.1,0.6,0.2,0.9l0,0c0.1,0.5,0.1,1,0,1.4c-1.4,1.6-2.5,2.4-2.4,4.4
	c0.2,0.3,0.3,0.6,0.3,0.9c0,0.1,0,0.1-0.1,0.2c0,0.6-0.2,1.1-0.5,1.5l-0.1,0.1c0,0.1-0.1,0.1-0.2,0.2c-0.1,0.1-0.1,0.1-0.2,0.1
	C42,28.9,41.9,29,41.7,29c-0.6,0.3-1.3,0.4-1.9,0.2c-0.2,0-0.4-0.1-0.6-0.1l0,0c-0.5,0-1.1-0.1-1.5-0.3h-0.1c-0.1,0-0.1,0-0.2-0.1
	c-0.1,0-0.2,0-0.3-0.1c-0.3-0.3-0.5-0.7-0.5-1.1c0-0.3,0.1-0.6,0.2-0.9c-0.1-0.1-0.2-0.3-0.3-0.5c-0.2-0.3,0.4-0.9,0.2-1.2
	c-0.4-0.2-0.7-0.5-0.8-0.9c0-0.1-0.3-0.2-0.3-0.4c0.6-0.2-0.6,0.2-0.6,0.2c0.6-0.4,0.7-0.4,0.7-0.5s-0.7,0-0.7,0s-0.3,0-0.4-0.1
	c-0.3-0.4-0.5-0.8-0.6-1.3l0,0c-0.2-0.1-0.4-0.2-0.5-0.4C33.3,21.2,33.2,20.8,33.3,20.4z M37.7,44.2c-0.3-0.3-0.5-0.6-0.7-1
	c-0.7-1.3,0-2.7,0-4.1c0-0.2,0.2-0.4,0.4-0.4s0.4,0.2,0.4,0.4l0,0c0,1.3-0.8,2.8,0,4c0.3,0.3,0.5,0.6,0.7,1c0.1,0.2,0.1,0.3,0.1,0.5
	c1.1-1,2.5-1.9,2.6-3.4c0-0.5,0.8-0.5,0.7,0c-0.1,2.2-2.2,3.2-3.5,4.6c-0.2,0.3-0.7,0-0.6-0.3C38,45.1,38,44.6,37.7,44.2z M34.6,37
	c0.2,0.5,0.4,0.9,0.6,1.3v0.1l0.2-0.2c0.3-0.3,0.8-0.6,1.2-0.7c0.9-0.3,2-0.2,2.7-0.9c0.3-0.3,0.8,0.2,0.5,0.5
	c-0.8,0.6-1.7,0.9-2.6,1c-0.4,0.1-0.8,0.2-1.2,0.5c-0.4,0.3-0.6,0.8-0.6,1.2c0,0.2-0.2,0.3-0.4,0.3c-0.2,0-0.3-0.1-0.3-0.3
	c-0.1-1-0.5-2-0.9-2.9c-0.2-0.5-0.2-1.1-0.2-1.7c0-0.5,0.2-1.1,0.2-1.6c0-0.2,0.2-0.4,0.4-0.4s0.4,0.2,0.4,0.4
	c0,0.6-0.1,1.1-0.2,1.7C34.4,35.9,34.4,36.5,34.6,37z M42,36.1c-0.1,0.2-0.3,0.2-0.5,0.1c-0.1-0.1-0.2-0.2-0.2-0.3v-1.5
	c-0.7,0.4-1.4,0.8-2,1.3c-0.2,0.1-0.4,0.1-0.5,0c0,0-0.1-0.1-0.1-0.2c-0.1-0.4-0.5-0.6-0.8-0.8c-0.4-0.2-0.8-0.4-1.1-0.7
	c-0.8-0.9-1.2-2-1.2-3.2c0-0.2,0.2-0.3,0.4-0.3c0.2,0,0.3,0.2,0.3,0.3c-0.1,1.1,0.4,2.2,1.2,2.9c0.5,0.4,1.2,0.6,1.6,1.1
	c0.7-0.5,1.5-0.9,2.3-1.4c0.2-0.1,0.4,0,0.5,0.1c0,0.1,0.1,0.1,0.1,0.2v0.8c0.4-0.7,0.6-1.4,0.7-2.1c0-0.5,0.1-0.9,0.3-1.4
	c0.2-0.5,0.5-1,0.1-1.6c-0.3-0.4,0.4-0.8,0.7-0.4c0.3,0.5,0.4,1.2,0.1,1.7c-0.2,0.5-0.4,1.1-0.4,1.6C43.3,33.8,42.8,35.1,42,36.1z
	 M31.9,19.2c0.4-0.3,0.7,0.4,0.4,0.6c-0.6,0.4-1,0.9-1.3,1.6c-0.2,0.6,0,1.2,0.4,1.7c0.4,0.4,0.7,0.9,1,1.5c0.2,0.7,0.1,1.5-0.2,2.2
	c-0.2,0.4-0.8,0.2-0.7-0.2c0.2-0.4,0.3-0.9,0.3-1.3c0-0.4-0.1-0.7-0.4-1c-0.4-0.5-0.7-1-1-1.6C29.8,21.3,30.8,19.9,31.9,19.2z
	 M30.3,23.6c0,1.9,0.1,3.7,0.2,5.5c0.1,1.1,0,2.8,0.9,3.6c0.5,0.4,0.8,0.4,1.2-0.1c0.3-0.4,0.6-0.9,1-1.2c0.8-0.8,2.1-1.7,2-3
	c-0.1-0.5,0.7-0.5,0.7,0c0.2,1.3-1,2.3-1.8,3.2c-0.4,0.3-0.7,0.7-1,1.1c-0.2,0.4-0.5,0.7-0.9,0.9c-1,0.5-1.9-0.6-2.3-1.4
	c-0.4-1.2-0.5-2.4-0.5-3.6c-0.1-1.7-0.2-3.4-0.2-5.1c0.1-0.2,0.3-0.2,0.5-0.2C30.2,23.5,30.3,23.6,30.3,23.6z M35.5,44.3
	c-1.1-0.7-1.9-1.8-2.3-3C33,40.6,32.9,40,33,39.3c0.1-0.7-0.1-1.5-0.5-2c-0.5-0.4-1-0.7-1.5-1.1c-0.4-0.4-0.8-0.9-1.1-1.4
	c-0.7-1-1-2.2-1-3.5c0-0.5,0.8-0.5,0.7,0c0,1.2,0.4,2.4,1.1,3.4c0.3,0.5,0.7,0.9,1.2,1.3c0.5,0.3,0.9,0.6,1.3,1
	c0.9,1,0.4,2.4,0.6,3.6c0.3,1.3,1,2.3,2.1,3c0.2,0.1,0.2,0.4,0.1,0.6S35.7,44.4,35.5,44.3C35.5,44.3,35.5,44.3,35.5,44.3z
	 M39.7,52.4c-0.6,0-1.2-0.4-1.4-0.9c-0.2-0.5-0.2-1.1-0.5-1.5c-0.2-0.2-0.4-0.4-0.6-0.7c-0.3-0.3-0.5-0.6-0.7-1
	c-0.4-0.8-0.5-1.6-0.5-2.5c0-0.5,0.7-0.5,0.7,0c0,0.8,0.1,1.5,0.5,2.2c0.3,0.5,0.7,1,1.1,1.5c0.3,0.4,0.5,0.9,0.5,1.4
	c0,0.2,0.1,0.4,0.2,0.6c0.2,0.2,0.4,0.2,0.6,0.2C40.1,51.7,40.1,52.5,39.7,52.4z M44.7,45.8c-0.8,0-1.1,1-1.5,1.5
	c-0.2,0.2-0.4,0.5-0.7,0.7c-0.3,0.2-0.5,0.4-0.7,0.6c-0.2,0.4-0.3,0.9-0.4,1.4c-0.2,0.6-0.8,1-1.4,1.1c-0.2,0-0.4-0.1-0.4-0.3
	c0-0.2,0.1-0.3,0.2-0.4c0.5-0.1,0.8-0.2,1-0.7c0.1-0.4,0.2-0.8,0.3-1.2c0.3-0.4,0.6-0.8,1.1-1.1c0.4-0.4,0.7-0.8,0.9-1.3
	c0.3-0.4,0.7-0.7,1.1-0.9L44.7,45.8z M50,34c-0.1,0.5-0.3,1-0.5,1.5c-0.1,0.3-0.4,0.6-0.7,0.7l-0.5,0.3c-0.5,0.3-0.8,0.8-0.9,1.3
	c-0.2,1.3-1,2.4-2,3.2c-0.2,0.2-0.4,0.3-0.7,0.4c-0.3,0.5-0.8,0.8-1.3,1.1c-0.2,0.1-0.4,0.2-0.6,0.3c-0.2,0-0.4-0.1-0.5-0.4
	c0-0.2,0.1-0.4,0.2-0.4c0.5-0.1,0.6-0.5,1-0.8s1-0.6,1.4-0.9c0.5-0.4,0.9-0.9,1.2-1.5c0.2-0.5,0.3-1,0.4-1.5
	c0.1-0.5,0.4-0.9,0.8-1.2c0.3-0.3,0.7-0.5,1-0.8c0.3-0.4,0.5-0.8,0.6-1.3c0.2-0.7,0.3-1.4,0.3-2.2c0-0.2,0.3-0.4,0.5-0.4
	c0.2,0,0.3,0.2,0.4,0.4C50.3,32.6,50.2,33.3,50,34z"/>
<path class="st0" d="M43,54.5c-0.2,0-0.4,0-0.5-0.1c-0.2-0.1-0.4-0.1-0.6-0.1c-0.5,0-1-0.2-1.5-0.5l-0.2-0.1c0,0-0.1,0.1-0.2,0.1
	c-0.5,0.2-1.1,0.1-1.6-0.2c-0.3-0.3-0.6-0.4-1-0.4c-0.6,0-1-0.4-1.1-0.9c0,0,0,0,0,0c0-0.2-0.6-0.6-1-0.9c-0.6-0.4-1-0.6-1-0.9
	c0-0.1-0.3,0-0.4,0c-0.1,0-0.2,0-0.4,0c-0.4,0-0.6-0.6-1.1-1.9c-0.1-0.2-0.1-0.4-0.2-0.5s-0.1-0.2-0.2-0.4c-0.3-0.5-0.6-1.1-0.7-1.8
	c0-0.2-0.1-0.2-0.3-0.3c-0.3,0-0.6-0.3-0.6-0.7c-0.1-0.6-0.4-1.1-0.7-1.6c-0.1-0.2-0.3-0.4-0.4-0.7c-0.3-0.8-0.4-1.7-0.4-2.5
	c0-0.4-0.1-0.5-0.4-0.6c-0.4-0.2-0.7-0.6-0.8-1c-0.3-1-0.3-2-0.2-3c0-0.3,0-0.6,0-0.9c0-0.4,0-0.7-0.1-1.1c-0.1-0.4-0.1-0.7,0-1.1
	c0.2-0.4,0.2-1,0-1.4c-0.3-0.4,0-1.5,0.5-2.7c0.1-0.2,0.1-0.4,0.2-0.6c0-0.2,0.2-0.3,0.3-0.4S29,27,29,27c-0.2-1.1-0.3-2.2-0.3-3.3
	c0-0.8,0.3-1.6,0.8-2.2c0.5-0.6,1-1.4,1.3-2.1c-0.1-0.1-0.2-0.1-0.2-0.2c-0.1-0.1,0-0.2,0-0.3c0.2-0.1,0.3-0.3,0.5-0.5
	c0.2-0.2,0.3-0.4,0.5-0.6l0.2-0.2c0.1-0.1,0.2-0.3,0.3-0.4c0.1-0.1,0.2-0.3,0.3-0.4c0,0,0.1-0.1,0.1-0.1c0.1,0,0.2-0.1,0.3-0.1
	c0.2-0.1,0.3-0.3,0.4-0.6c0-0.2,0-0.3,0-0.5c0-0.1,0-0.2,0.1-0.2l0,0v-0.3c-0.1-0.4,0.2-0.7,0.5-0.8c0.1,0,0.1,0,0.2,0
	c0,0,0-0.1,0-0.2c0-0.1,0-0.2,0-0.3c0-0.5,1.2-1.1,1.5-1.1c0,0,0.2,0,1.2,0.5c0.1-0.1,0.3-0.2,0.3-0.4c0-0.4,0.1-0.7,0.4-1
	c0.1-0.2,0.3-0.3,0.5-0.3l0,0c0.1-0.2,0.3-0.4,0.6-0.5c0.5-0.2,1-0.2,1.5-0.2H40c0.2,0,0.5,0.1,0.7,0.2c0.1,0.1,0.2,0.1,0.3,0.2
	c0.4,0,0.7,0.3,0.9,0.7c0,0.1,0.1,0.2,0.1,0.2c0.2,0.2,0.5,0.3,0.8,0.4c0.5,0.1,0.9,0.3,1.2,0.7c0.2,0.2,0.3,0.5,0.2,0.8
	c0,0,0,0.1,0,0.1c0.2,0.2,0.4,0.4,0.5,0.6c0.1,0.1,0.2,0.2,0.2,0.3h0.2c0.1,0,0.2,0.1,0.2,0.1c0.1,0.3,0.2,0.6,0.4,0.8
	c0,0,0,0.1,0,0.1c0.1,0.5,0.3,1,0.7,1.4c0.2,0.2,0.4,0.5,0.6,0.8c0.3,0.4,0.6,0.8,1,1.1c0,0.1,0,0.1,0,0.2c0,0.1-0.1,0.1-0.1,0.1
	c0,0-0.1,0.2,0.3,1c1.3,2.2,1.1,2.8,0.9,3.2c-0.1,0.1-0.1,0.2,0,0.4c0.2,0.6,0.3,1.3,0.2,1.9c0,0.3,0,0.6,0,0.9
	c0.2,0.1,0.5,0.5,1.2,3.5c0.2,0.5,0.4,0.9,0.7,1.4c0,0.1,0,0.1,0,0.2c0,0-0.8,2.4-1,3.7c-0.1,0.6-0.4,1.2-0.9,1.6
	c-0.3,0.3-0.6,0.6-0.8,1c-0.6,0.9-1,2-1,3.2c-0.1,1.2-1.7,2.6-2.4,3c-0.2,0.1-0.2,0.4-0.2,0.9c0,0.1,0,0.1-0.1,0.2c0,0-0.1,0-0.1,0
	l0.1,0.1v0.1c0.1,0,0.1,0.1,0.1,0.1L45,46c0.1,0.2,0.1,0.3,0.1,0.5c0.3,2.1,0.3,4.2,0.1,6.3l-0.1,0.3l0,0l-0.4,0.7
	c0,0.1-0.1,0.1-0.1,0.1c-0.4,0.1-0.8,0.3-1.2,0.5C43.2,54.4,43.1,54.4,43,54.5z M42,53.8c0.2,0,0.4,0.1,0.6,0.1
	c0.2,0.1,0.5,0.1,0.7,0c0.4-0.2,0.8-0.3,1.2-0.5l0.3-0.6l0.1-0.2c0.2-2,0.1-4.1-0.1-6.1c0-0.2-0.1-0.3-0.1-0.5V46h-0.1
	c-0.5,0-0.7,0.5-1,0.9c-0.1,0.2-0.2,0.3-0.3,0.5c-0.2,0.3-0.4,0.5-0.7,0.7l-0.2,0.1c-0.2,0.1-0.3,0.3-0.5,0.4
	c-0.1,0.2-0.2,0.5-0.3,0.8c0,0.2-0.1,0.4-0.2,0.6c-0.3,0.7-0.9,1.1-1.6,1.2c-0.3,0.1-0.6-0.1-0.7-0.4c0-0.2,0-0.3,0.1-0.5
	c0.1-0.1,0.2-0.2,0.3-0.2c0.5-0.1,0.7-0.2,0.8-0.6l0.1-0.4c0-0.3,0.1-0.6,0.3-0.8c0.2-0.4,0.5-0.7,0.9-0.9l0.3-0.2
	c0.3-0.2,0.5-0.5,0.6-0.8c0.1-0.1,0.2-0.3,0.3-0.4c0.3-0.5,0.7-0.8,1.3-1h0.1h0.1h0.2c0-0.4,0.1-0.8,0.4-1c0.8-0.5,2.2-1.8,2.2-2.7
	c0-1.2,0.4-2.4,1.1-3.4c0.3-0.4,0.6-0.7,0.9-1c0.5-0.3,0.8-0.9,0.8-1.4c0.2-1.2,0.9-3.2,1-3.7c-0.3-0.4-0.5-0.9-0.7-1.4l0,0
	c-0.2-1.1-0.6-2.2-1-3.2C49,27.1,49,26.6,49,25.8c0.1-0.6,0-1.2-0.1-1.7c-0.1-0.2-0.1-0.5,0-0.7c0.1-0.3,0.3-0.8-0.9-2.8
	c-0.4-0.6-0.5-1-0.4-1.3c0,0,0-0.1,0-0.1c-0.3-0.3-0.6-0.6-0.8-1s-0.4-0.5-0.6-0.7c-0.4-0.4-0.7-1-0.8-1.6c-0.1-0.2-0.2-0.5-0.3-0.7
	c-0.1,0-0.2,0-0.3-0.1c-0.1-0.1-0.2-0.3-0.3-0.4c-0.1-0.2-0.2-0.3-0.4-0.5c-0.1-0.1-0.2-0.3-0.2-0.5c0-0.2,0-0.3-0.1-0.5
	c-0.2-0.3-0.6-0.5-0.9-0.6c-0.4,0-0.8-0.2-1.1-0.5c-0.1-0.1-0.2-0.2-0.2-0.3c-0.1-0.3-0.2-0.4-0.5-0.4c-0.2,0-0.5-0.1-0.6-0.2
	c-0.1-0.1-0.3-0.1-0.5-0.1h-0.1c-0.4-0.1-0.9,0-1.3,0.1c-0.2,0-0.3,0.1-0.4,0.3c-0.1,0.2-0.2,0.3-0.4,0.2c0,0-0.1,0-0.2,0.2
	c-0.2,0.2-0.2,0.4-0.2,0.6c0,0.4-0.2,0.8-0.6,0.9c-0.1,0-0.1,0-0.2,0c-0.4-0.2-0.8-0.4-1.2-0.5c-0.2,0-1,0.5-1,0.7
	c0,0.1,0,0.2,0,0.2c0.1,0.2,0,0.4-0.1,0.5c-0.1,0.1-0.2,0.1-0.3,0.1c-0.2,0-0.3,0.2-0.3,0.4v1c0,0.1-0.1,0.2-0.2,0.2
	c-0.1,0.3-0.3,0.6-0.5,0.8c-0.1,0.1-0.2,0.1-0.3,0.2c-0.1,0.1-0.2,0.3-0.3,0.4s-0.2,0.3-0.3,0.4L31.9,18c-0.1,0.2-0.3,0.4-0.5,0.6
	c-0.1,0.1-0.2,0.3-0.4,0.4l0,0c0.1,0,0.1,0.1,0.1,0.2c0,0.1,0,0.2,0,0.2c0.2-0.2,0.4-0.3,0.6-0.5l0,0c0.2-0.1,0.4-0.1,0.5,0
	c0.2,0.1,0.3,0.3,0.3,0.5c0,0.2-0.1,0.4-0.2,0.5c-0.5,0.4-1,0.9-1.2,1.5c-0.1,0.5,0,1.1,0.4,1.5c0.1,0.1,0.2,0.2,0.2,0.3
	c0.3,0.4,0.6,0.8,0.7,1.2c0.2,0.8,0.1,1.6-0.2,2.3c-0.1,0.2-0.2,0.3-0.4,0.4c-0.2,0-0.4,0-0.6-0.2c-0.1-0.1-0.2-0.3-0.1-0.5l0-0.2
	c0.1-0.3,0.2-0.7,0.2-1.1c0-0.3-0.1-0.6-0.3-0.9c-0.1-0.2-0.2-0.3-0.4-0.5c-0.3-0.3-0.5-0.7-0.7-1.1c-0.2-0.4-0.2-0.9-0.1-1.4
	c-0.1,0.1-0.2,0.3-0.3,0.4c-0.4,0.5-0.7,1.2-0.7,1.9c0,1.1,0.1,2.1,0.3,3.1c0.1,0.3,0,0.6-0.3,0.7c0,0,0,0,0,0c0,0-0.1,0.1-0.1,0.1
	c0,0.2-0.1,0.5-0.2,0.7c-0.2,0.6-0.7,2.1-0.5,2.3c0.3,0.6,0.3,1.2,0.1,1.8c-0.1,0.3-0.1,0.6,0,0.9c0,0.3,0.1,0.7,0.1,1.1
	c0,0.3,0,0.6,0,0.9c-0.1,0.9,0,1.9,0.2,2.8c0.1,0.4,0.3,0.7,0.7,0.8c0.4,0.2,0.6,0.6,0.5,1c0,0.8,0.1,1.6,0.4,2.4
	c0,0.1,0.2,0.4,0.3,0.6c0.4,0.5,0.7,1.2,0.8,1.8c0,0.2,0.1,0.2,0.3,0.3c0.3,0,0.6,0.3,0.6,0.7c0.1,0.6,0.3,1.1,0.6,1.6
	c0.1,0.1,0.1,0.3,0.2,0.4c0,0.1,0.1,0.3,0.2,0.5c0.1,0.6,0.4,1.1,0.7,1.6H34c0.2-0.1,0.5,0,0.7,0.1c0.1,0.1,0.1,0.2,0.1,0.3
	c0,0.1,0.5,0.4,0.8,0.6c0.6,0.4,1.1,0.7,1.2,1.2c0,0.3,0.3,0.6,0.6,0.6c0,0,0,0,0,0c0.5,0,1,0.2,1.3,0.5c0.3,0.2,0.8,0.2,1.1,0.1
	c0-0.1,0.1-0.1,0.1-0.2c0.2-0.1,0.3,0,0.6,0.2s0.8,0.5,1.2,0.4L42,53.8z M44.1,45.4c-0.4,0.2-0.7,0.4-0.9,0.8
	c-0.1,0.1-0.2,0.3-0.2,0.4c-0.2,0.3-0.4,0.6-0.7,0.9L42,47.7c-0.3,0.2-0.6,0.5-0.8,0.8c-0.1,0.2-0.2,0.5-0.2,0.8
	c0,0.1-0.1,0.3-0.1,0.4c-0.1,0.5-0.6,0.9-1.2,0.9l0,0c0,0,0,0.1,0,0.1c0,0.1,0.2,0.1,0.2,0.1c0.6,0,1.1-0.4,1.2-0.9
	c0.1-0.2,0.1-0.3,0.1-0.5c0-0.3,0.2-0.6,0.3-0.9c0.2-0.2,0.3-0.4,0.6-0.5l0.2-0.1c0.2-0.2,0.4-0.4,0.6-0.6c0.1-0.1,0.2-0.3,0.3-0.5
	c0.2-0.5,0.5-0.9,1-1.1L44.1,45.4z M32,19.3c-1.1,0.7-1.9,2.1-1.5,3.3c0.2,0.4,0.4,0.7,0.6,1c0.1,0.2,0.3,0.3,0.4,0.5
	c0.3,0.3,0.4,0.7,0.4,1.1c0,0.4-0.1,0.8-0.3,1.2l-0.1,0.2c0,0,0,0.1,0,0.1c0,0.1,0.1,0.1,0.2,0c0.1,0,0.1,0,0.1-0.1
	c0.3-0.6,0.4-1.3,0.2-2c-0.2-0.4-0.4-0.8-0.7-1.1c-0.1-0.1-0.2-0.2-0.3-0.4c-0.4-0.5-0.6-1.2-0.4-1.9c0.2-0.7,0.7-1.3,1.3-1.7
	c0,0,0.1-0.1,0.1-0.1c0-0.1,0-0.1-0.1-0.2C32.2,19.4,32.2,19.4,32,19.3L32,19.3z M30.9,19.4L30.9,19.4z M39.7,52.6L39.7,52.6
	c-0.7,0-1.4-0.4-1.6-1.1c-0.1-0.2-0.1-0.4-0.2-0.6c0-0.3-0.1-0.6-0.3-0.8c-0.1-0.1-0.2-0.2-0.3-0.3c-0.1-0.1-0.2-0.2-0.3-0.3
	c-0.3-0.3-0.5-0.7-0.7-1.1c-0.4-0.8-0.5-1.7-0.5-2.5c0-0.3,0.3-0.6,0.6-0.5c0,0,0,0,0,0c0.3,0,0.5,0.2,0.5,0.5c0,0,0,0,0,0
	c-0.1,0.7,0.1,1.5,0.4,2.2c0.2,0.4,0.5,0.7,0.7,1l0.3,0.4c0.3,0.4,0.4,0.8,0.5,1.2l0.1,0.3c0,0.2,0.1,0.3,0.2,0.5
	c0.1,0.1,0.3,0.2,0.5,0.2c0.3,0,0.6,0.3,0.5,0.6C40.2,52.4,40,52.6,39.7,52.6L39.7,52.6z M39.7,52.2c0,0,0.1,0,0.1-0.1
	c0-0.1,0-0.2-0.1-0.2c0,0,0,0,0,0c-0.3,0-0.6-0.1-0.8-0.3c-0.1-0.2-0.2-0.4-0.3-0.6l-0.1-0.3c-0.1-0.4-0.2-0.7-0.4-1.1
	c-0.1-0.1-0.2-0.3-0.3-0.4c-0.3-0.3-0.6-0.7-0.8-1.1c-0.3-0.7-0.5-1.5-0.5-2.3c0-0.1-0.1-0.1-0.1-0.1s-0.2,0-0.2,0.2
	c0,0.8,0.1,1.6,0.5,2.4c0.2,0.4,0.4,0.7,0.6,1l0.3,0.3c0.1,0.1,0.2,0.2,0.3,0.4c0.2,0.3,0.3,0.6,0.4,1c0,0.2,0.1,0.4,0.2,0.6
	C38.7,51.9,39.2,52.2,39.7,52.2L39.7,52.2z M38.2,46.2c-0.1,0-0.2,0-0.3-0.1c-0.2-0.1-0.3-0.4-0.3-0.6c0.2-0.4,0.1-0.8-0.1-1.1l0,0
	L37.3,44c-0.2-0.2-0.3-0.4-0.5-0.7c-0.4-0.9-0.4-1.9-0.2-2.9c0.1-0.4,0.1-0.9,0.2-1.3c0-0.2,0.1-0.4,0.3-0.5c0.2-0.1,0.4-0.1,0.6,0
	c0.2,0.1,0.3,0.3,0.2,0.5c0,0.4-0.1,0.9-0.2,1.3c-0.3,0.9-0.2,1.8,0.2,2.6c0.1,0.1,0.2,0.2,0.3,0.3c0.2,0.2,0.3,0.4,0.5,0.7
	c0,0.1,0.1,0.1,0.1,0.2l0.2-0.2c1-0.8,2-1.7,2.1-2.9c0-0.2,0.1-0.4,0.3-0.5c0.2-0.1,0.4-0.1,0.6,0c0.2,0.1,0.2,0.3,0.2,0.5
	c-0.1,1.6-1.3,2.6-2.4,3.6c-0.4,0.4-0.8,0.8-1.2,1.2C38.5,46.1,38.4,46.2,38.2,46.2L38.2,46.2z M37.9,44.1c0.3,0.4,0.3,1,0.2,1.5
	c0,0.1,0,0.1,0.1,0.2c0,0,0.1,0,0.2,0c0,0,0,0,0,0c0.4-0.4,0.8-0.8,1.3-1.2c1.1-0.9,2.1-1.8,2.2-3.3c0,0,0-0.1,0-0.1
	c-0.1,0-0.1,0-0.2,0c-0.1,0-0.1,0.1-0.1,0.1c-0.1,1.4-1.2,2.3-2.2,3.2l-0.5,0.4c-0.1,0-0.1,0-0.2,0c-0.1,0-0.1-0.1-0.1-0.2
	c0-0.2-0.1-0.3-0.1-0.4c-0.1-0.2-0.2-0.4-0.4-0.6c-0.1-0.1-0.2-0.2-0.3-0.3c-0.5-0.9-0.6-2-0.2-2.9c0.1-0.4,0.1-0.8,0.2-1.3
	c0,0,0-0.1,0-0.1c-0.1,0-0.1,0-0.2,0c0,0-0.1,0.1-0.1,0.1c0,0.5-0.1,0.9-0.2,1.4c-0.2,0.9-0.2,1.8,0.1,2.6c0.1,0.2,0.2,0.4,0.4,0.6
	L37.9,44.1L37.9,44.1z M35.7,44.5c-0.1,0-0.2,0-0.3-0.1l0,0c-1.1-0.7-2-1.8-2.4-3.1c-0.2-0.6-0.2-1.2-0.2-1.8v-0.2
	c0-0.8,0-1.4-0.5-1.8c-0.2-0.2-0.5-0.4-0.7-0.5c-0.3-0.2-0.5-0.4-0.8-0.6C30.4,36,30,35.5,29.6,35c-0.7-1.1-1.1-2.3-1.1-3.6
	c0-0.2,0.1-0.4,0.3-0.5c0.2-0.1,0.4-0.1,0.6,0c0.2,0.1,0.2,0.3,0.2,0.5c0,1.2,0.4,2.3,1.1,3.3c0.3,0.5,0.7,0.9,1.1,1.2l0.4,0.3
	c0.4,0.2,0.7,0.5,1,0.8c0.5,0.7,0.8,1.7,0.6,2.5c0,0.4,0,0.7,0,1.1c0.2,1.2,1,2.2,2,2.9c0.2,0.2,0.3,0.6,0.1,0.8
	C35.9,44.4,35.8,44.4,35.7,44.5L35.7,44.5z M35.6,44.1c0.1,0,0.1,0,0.2,0c0,0,0,0,0,0c0.1-0.1,0.1-0.1,0-0.2c0,0,0,0,0,0
	c-1.2-0.7-2-1.8-2.2-3.2c0-0.4,0-0.8,0-1.2c0.1-0.8-0.1-1.6-0.5-2.3c-0.3-0.3-0.6-0.5-0.9-0.7l-0.4-0.3c-0.5-0.4-0.9-0.8-1.2-1.3
	c-0.8-1-1.2-2.3-1.1-3.5c0,0,0-0.1,0-0.1c-0.1,0-0.1,0-0.2,0c-0.1,0-0.1,0.1-0.1,0.1c0,1.2,0.3,2.4,1,3.4c0.3,0.5,0.7,1,1.1,1.4
	c0.2,0.2,0.5,0.4,0.7,0.5c0.3,0.2,0.5,0.4,0.8,0.6c0.5,0.6,0.7,1.3,0.6,2.1v0.2c0,0.6,0,1.1,0.1,1.7C33.8,42.4,34.6,43.4,35.6,44.1
	L35.6,44.1z M42.8,43.1c-0.1,0-0.3-0.1-0.4-0.2c-0.2-0.2-0.2-0.4-0.2-0.6c0.1-0.2,0.2-0.4,0.4-0.4c0.2-0.1,0.4-0.2,0.5-0.4
	c0.1-0.1,0.2-0.3,0.3-0.4c0.2-0.2,0.5-0.4,0.8-0.5c0.2-0.1,0.4-0.3,0.6-0.4c0.5-0.4,0.9-0.9,1.2-1.4c0.1-0.3,0.2-0.6,0.3-0.9
	c0-0.2,0.1-0.4,0.1-0.6c0.1-0.5,0.4-0.9,0.8-1.2c0.1-0.1,0.3-0.2,0.5-0.3c0.2-0.1,0.4-0.3,0.6-0.4c0.3-0.3,0.5-0.7,0.5-1.1V34
	c0.2-0.7,0.3-1.4,0.3-2.1c0-0.3,0.2-0.6,0.5-0.6c0,0,0,0,0,0l0,0c0.3,0,0.6,0.2,0.6,0.6c0,0,0,0,0,0c0,0.7-0.1,1.5-0.3,2.2
	c-0.1,0.5-0.3,1-0.5,1.5c-0.2,0.4-0.5,0.7-0.8,0.8c-0.1,0.1-0.2,0.2-0.4,0.3h0c-0.4,0.3-0.7,0.7-0.8,1.2c-0.2,1.3-1,2.5-2.1,3.3
	c-0.2,0.1-0.4,0.2-0.5,0.4l-0.1,0.1c-0.3,0.5-0.8,0.9-1.3,1.2c-0.2,0.1-0.4,0.2-0.6,0.3L42.8,43.1z M49.9,31.7L49.9,31.7
	c-0.1,0-0.2,0-0.2,0.2c0,0.8-0.1,1.5-0.3,2.2v0.1c-0.1,0.5-0.3,0.9-0.7,1.3c-0.2,0.2-0.4,0.4-0.7,0.5c-0.1,0.1-0.3,0.2-0.4,0.3
	c-0.3,0.3-0.6,0.7-0.7,1.1c-0.1,0.2-0.1,0.4-0.1,0.5c-0.2,1-0.7,1.9-1.6,2.5c-0.2,0.2-0.4,0.3-0.7,0.4c-0.3,0.1-0.5,0.3-0.7,0.5
	c-0.1,0.1-0.2,0.2-0.3,0.3c-0.2,0.3-0.5,0.5-0.8,0.6c-0.1,0-0.1,0.1-0.1,0.1c0,0.1,0,0.2,0.1,0.2c0.1,0,0.1,0,0.2,0
	c0.2,0,0.4-0.1,0.5-0.2c0.5-0.3,0.9-0.6,1.2-1.1l0,0l0.1-0.1c0.2-0.1,0.3-0.2,0.5-0.3c1-0.7,1.7-1.8,1.9-3c0.1-0.6,0.5-1.1,1-1.5
	h0.1c0.1-0.1,0.3-0.2,0.4-0.3c0.3-0.1,0.5-0.4,0.7-0.6c0.2-0.5,0.4-0.9,0.5-1.4l0,0c0.2-0.7,0.3-1.4,0.3-2.1c0.1-0.1,0-0.2,0-0.3
	C50,31.7,49.9,31.7,49.9,31.7L49.9,31.7z M35.2,40.4L35.2,40.4c-0.3,0-0.5-0.2-0.5-0.5l0,0c0-0.7-0.2-1.3-0.5-1.9
	c-0.1-0.3-0.3-0.6-0.4-0.9c-0.2-0.6-0.2-1.2-0.2-1.7c0-0.2,0-0.4,0.1-0.6c0.1-0.3,0.1-0.7,0.1-1c0-0.2,0.1-0.3,0.2-0.4
	c0.1-0.1,0.2-0.1,0.4-0.1c0.3,0,0.5,0.2,0.5,0.5c0,0,0,0,0,0c0,0.4,0,0.7-0.1,1.1c0,0.2,0,0.4-0.1,0.6c0,0.5,0,1,0.2,1.5l0,0
	c0.1,0.2,0.2,0.5,0.3,0.7s0.1,0.3,0.2,0.4c0.4-0.3,0.8-0.6,1.3-0.7c0.3-0.1,0.6-0.1,0.9-0.2c0.6,0,1.2-0.3,1.8-0.7
	c0.1-0.1,0.3-0.2,0.5-0.1c0.2,0.1,0.4,0.2,0.4,0.4c0,0.2,0,0.4-0.2,0.5c-0.7,0.5-1.4,0.8-2.3,0.9l-0.5,0.1c-0.4,0.1-0.8,0.2-1.1,0.4
	c-0.3,0.3-0.5,0.7-0.5,1.1C35.7,40.2,35.4,40.4,35.2,40.4z M34.2,33.6c0,0-0.1,0-0.1,0c0,0,0,0.1,0,0.1c0,0.4-0.1,0.7-0.1,1.1
	c0,0.2,0,0.4-0.1,0.5c-0.1,0.5,0,1.1,0.1,1.6c0.1,0.3,0.2,0.6,0.4,0.9c0.3,0.6,0.5,1.3,0.6,2c0,0.1,0.1,0.1,0.1,0.1c0,0,0,0,0,0
	c0.1,0,0.2-0.1,0.2-0.2c0-0.6,0.3-1.1,0.7-1.4c0.4-0.2,0.8-0.4,1.2-0.5l0.5-0.1c0.8-0.1,1.5-0.4,2.1-0.9c0,0,0-0.1,0-0.1
	c0-0.1-0.1-0.1-0.1-0.1c0,0-0.1,0-0.1,0c-0.6,0.4-1.3,0.7-2,0.8c-0.3,0.1-0.6,0.1-0.8,0.2c-0.4,0.1-0.8,0.3-1.2,0.6l-0.1,0.2
	c0,0.1-0.1,0.1-0.2,0.1c-0.1,0-0.1-0.1-0.2-0.1v0c-0.1-0.2-0.2-0.5-0.3-0.7s-0.2-0.5-0.3-0.7l0,0c-0.2-0.5-0.3-1.1-0.2-1.7
	c0-0.2,0-0.4,0.1-0.6C34.3,34.4,34.3,34,34.2,33.6C34.3,33.7,34.3,33.6,34.2,33.6C34.3,33.6,34.2,33.6,34.2,33.6L34.2,33.6z
	 M41.6,36.5c-0.1,0-0.1,0-0.2,0c-0.2-0.1-0.4-0.3-0.4-0.5v-1.1c-0.6,0.3-1.1,0.7-1.7,1.1C39.2,36,39,36.1,38.7,36
	c-0.2-0.1-0.3-0.2-0.3-0.4c-0.1-0.3-0.4-0.5-0.7-0.6h-0.1c-0.4-0.2-0.8-0.4-1.1-0.7c-0.7-0.8-1.1-1.9-1.2-3l-0.7,0.6L34.6,32
	c-0.4,0.3-0.7,0.7-1,1.1v0.1c-0.2,0.4-0.5,0.7-0.9,0.9c-0.3,0.2-0.7,0.2-1.1,0c-0.7-0.3-1.2-0.9-1.5-1.6c-0.3-1-0.5-2-0.5-3.1
	c0-0.2,0-0.4,0-0.6c-0.1-1.8-0.2-3.5-0.2-5.1c-0.1-0.3,0.1-0.6,0.4-0.6c0,0,0.1,0,0.1,0l0,0c0.3,0,0.5,0.2,0.6,0.5c0,0,0,0,0,0l0,0
	c0,1.7,0.1,3.5,0.2,5.5c0,0.2,0,0.3,0,0.5c0.1,1,0.1,2.3,0.9,3c0.1,0.1,0.3,0.2,0.5,0.3c0.1,0,0.2-0.1,0.4-0.3l0.3-0.4
	c0.2-0.3,0.5-0.6,0.7-0.9L34,31c0.7-0.7,1.6-1.4,1.5-2.4c0-0.2,0-0.4,0.2-0.5c0.2-0.1,0.4-0.1,0.6-0.1c0.2,0.1,0.3,0.3,0.3,0.5
	c0.1,0.6-0.1,1.3-0.5,1.8c0.3,0,0.5,0.3,0.5,0.5c0,0,0,0,0,0c-0.1,1,0.3,2,1.1,2.7c0.2,0.1,0.3,0.2,0.5,0.3c0.4,0.2,0.7,0.4,1,0.7
	c0.5-0.3,0.9-0.6,1.4-0.8l0.8-0.5c0.2-0.1,0.4-0.1,0.6,0c0.2,0.1,0.3,0.3,0.3,0.5c0.2-0.4,0.3-0.8,0.3-1.3c0-0.5,0.1-1,0.3-1.4
	l0.1-0.2c0.2-0.5,0.3-0.8,0.1-1.2c-0.2-0.2-0.1-0.6,0.1-0.7c0,0,0,0,0,0c0.3-0.2,0.6-0.1,0.8,0.1c0,0,0,0,0,0
	c0.4,0.6,0.4,1.3,0.1,1.9l0,0.1c-0.2,0.4-0.3,0.9-0.4,1.4c-0.1,1.4-0.7,2.6-1.5,3.7C42,36.4,41.8,36.5,41.6,36.5z M41.2,34.3
	c0.1,0,0.2,0.1,0.2,0.2v1.5c0,0.1,0,0.1,0.1,0.2c0.1,0,0.2,0,0.2-0.1l0,0c0.8-1,1.3-2.2,1.5-3.5c0.1-0.5,0.2-1,0.4-1.5v-0.1
	c0.2-0.5,0.2-1.1-0.1-1.5c-0.1-0.1-0.2-0.1-0.2,0c0,0,0,0,0,0c-0.1,0-0.1,0.1-0.1,0.2c0,0,0,0,0,0c0.3,0.5,0.3,1.1,0,1.6l-0.1,0.2
	c-0.2,0.4-0.2,0.9-0.3,1.3c-0.1,0.8-0.3,1.5-0.7,2.2c0,0.1-0.1,0.1-0.2,0.1c-0.1,0-0.2-0.1-0.2-0.2v-0.8c0-0.1,0-0.1-0.1-0.2
	c0,0-0.1,0-0.2,0l-0.8,0.5c-0.5,0.3-1,0.6-1.5,1c-0.1,0-0.1,0-0.2,0C39,35.1,39,35.1,39,35c-0.3-0.3-0.6-0.6-1-0.7
	c-0.2-0.1-0.4-0.2-0.6-0.3c-0.9-0.8-1.4-1.9-1.3-3.1c0-0.1-0.1-0.1-0.1-0.2c0,0,0,0,0,0c0,0-0.2,0-0.2,0.2c0,1.1,0.4,2.2,1.1,3
	c0.3,0.3,0.6,0.5,1,0.7l0,0c0.4,0.2,0.8,0.4,1,0.9c0,0,0,0.1,0.1,0.1c0.1,0,0.2,0,0.2,0c0.6-0.4,1.2-0.8,1.8-1.1L41.2,34.3
	C41.2,34.3,41.2,34.3,41.2,34.3z M30,23.5L30,23.5c0,0-0.2,0-0.2,0.1c0,1.6,0.1,3.3,0.2,5.1c0,0.2,0,0.4,0,0.6c0,1,0.2,2,0.5,3
	c0.2,0.6,0.7,1.1,1.2,1.3c0.2,0.1,0.5,0.1,0.8,0c0.3-0.2,0.6-0.5,0.8-0.8v-0.1c0.3-0.4,0.6-0.8,1-1.2l0.1-0.1
	c0.8-0.8,1.8-1.8,1.7-2.9c0-0.1,0-0.1-0.1-0.1c-0.1,0-0.1,0-0.2,0c0,0,0,0,0,0.1c0.1,1.1-0.8,2-1.6,2.7l-0.4,0.4
	c-0.2,0.3-0.5,0.5-0.7,0.8c-0.1,0.1-0.2,0.2-0.3,0.4c-0.2,0.2-0.4,0.4-0.7,0.5c-0.3,0-0.6-0.1-0.8-0.4c-0.8-0.8-0.9-2.1-1-3.2
	c0-0.2,0-0.4,0-0.5c-0.2-2-0.2-3.8-0.2-5.6l0,0C30.1,23.7,30.1,23.6,30,23.5C30,23.5,30,23.5,30,23.5z M45.3,34.7
	c-0.2,0-0.4-0.1-0.5-0.2c-0.7-1-0.8-2.5-0.3-4.3c0-0.2,0.1-0.4,0.2-0.6c0.2-0.6,0.3-1.2,0.3-1.9c-0.1-0.5-0.2-0.9-0.5-1.3
	c-0.2-0.3-0.3-0.6-0.4-0.9c-0.1-0.2,0-0.4,0.1-0.5c0.2-0.2,0.4-0.2,0.6-0.2c0.2,0,0.4,0.2,0.4,0.4c0.1,0.3,0.2,0.6,0.4,0.9
	c0.2,0.4,0.4,0.8,0.5,1.3c0.1,0.9,0,1.8-0.3,2.6c-0.4,1.2-0.7,2.8,0.1,3.9c0.1,0.2,0.1,0.4,0.1,0.5C45.8,34.6,45.6,34.7,45.3,34.7
	L45.3,34.7z M44.7,25.1c-0.1,0-0.1,0-0.2,0.1c0,0,0,0.1,0,0.1c0.1,0.3,0.2,0.6,0.4,0.9c0.3,0.4,0.4,0.9,0.5,1.4c0,0.7-0.1,1.4-0.3,2
	C45,29.9,45,30,44.9,30.3c-0.5,1.7-0.3,3.1,0.3,4c0,0.1,0.1,0.1,0.2,0.1c0.1,0,0.1,0,0.2-0.1c0,0,0,0,0-0.1l0,0
	c-0.9-1.2-0.5-3-0.1-4.3c0.3-0.8,0.4-1.6,0.3-2.4c-0.1-0.4-0.2-0.8-0.5-1.2c-0.2-0.3-0.3-0.6-0.4-0.9C44.9,25.2,44.8,25.2,44.7,25.1
	L44.7,25.1z M40.5,29.5c-0.3,0-0.5,0-0.8-0.1l-0.5-0.1l0,0c-0.6,0-1.1-0.1-1.6-0.3l0,0c-0.1,0-0.2,0-0.2-0.1c-0.1,0-0.2-0.1-0.3-0.1
	c-0.4-0.3-0.6-0.8-0.6-1.3c0-0.3,0.1-0.6,0.1-0.8l0,0c-0.1-0.1-0.2-0.2-0.2-0.4c-0.1-0.3-0.1-0.6,0.1-0.8c0.1-0.1,0.1-0.3,0.1-0.4
	c-0.4-0.2-0.7-0.6-0.8-1L35.7,24l-0.1-0.1L35.1,24c-0.1,0.1-0.2,0-0.3-0.1c-0.1-0.1,0-0.2,0.1-0.3l0.1-0.1c-0.1,0-0.1,0-0.2,0h-0.1
	c-0.1,0-0.3,0-0.3-0.1c-0.3-0.4-0.6-0.9-0.6-1.4c-0.2-0.1-0.3-0.3-0.5-0.4c-0.3-0.4-0.3-0.8-0.2-1.3c0-0.2,0.2-0.3,0.3-0.4
	c0,0,0-0.1,0-0.1c0-0.1,0.1-0.3,0.2-0.4c0-0.4,0.1-0.9,0.3-1.3c0.1-0.2,0.2-0.4,0.3-0.6c0-0.1,0-0.3,0.1-0.4c0,0,0,0,0,0l0,0v-0.1
	c0.2-0.3,0.5-0.5,0.7-0.7c0.2-0.3,0.5-0.5,0.9-0.6c0.3-0.1,0.5-0.1,0.8-0.1h0.1c0.3,0,0.5-0.1,0.7-0.2c0.3-0.1,0.7-0.2,1-0.2
	c0.3-0.1,0.6-0.1,0.8-0.1h0.2c0.2,0,0.5,0,0.7,0c0.3,0,0.5,0.1,0.7,0.3c0.1,0.1,0.1,0.1,0.2,0.2c0.1,0,0.2,0,0.3,0.1
	c0.1,0,0.2,0.1,0.3,0.1h0.3c0.3,0.1,0.6,0.2,0.8,0.4c0.2,0.1,0.4,0.2,0.6,0.4c0.4,0.1,0.7,0.4,1,0.7c0.3,0.4,0.5,0.8,0.6,1.3
	c0,0.2,0.1,0.3,0.1,0.5s0,0.1,0,0.2l0.1-0.1c0.3-0.2,0.6-0.1,0.8,0.1c0,0,0,0,0,0l0,0l0.5,0.6c0.7,1,1.5,2,1.2,3.4l-0.1,0.4
	c-0.1,0.3-0.1,0.6-0.2,0.9c0,0.3,0,0.6,0.1,0.9v0.3c0.2,0.7,0,1.4-0.4,2c-0.2,0.2-0.5,0.2-0.7,0c0,0,0,0,0,0c-0.2-0.2-0.2-0.6,0-0.8
	c0,0,0,0,0,0c0.3-0.3,0.2-0.8,0.1-1.3l-0.1-0.3c-0.1-0.7,0-1.3,0.2-2v-0.2c0.2-1-0.4-1.8-1-2.6l-0.3-0.4c0.1,0.5,0.1,1-0.1,1.4l0,0
	c-0.2,0.3-0.4,0.5-0.7,0.7c-1.1,1.1-1.8,1.9-1.7,3.5c0.2,0.3,0.3,0.6,0.3,1c0,0.1,0,0.1-0.1,0.2c0,0.6-0.2,1.1-0.6,1.6
	c0,0,0,0.1-0.1,0.1c-0.1,0.1-0.1,0.2-0.2,0.2c-0.1,0.1-0.2,0.1-0.3,0.1c-0.1,0.1-0.3,0.1-0.4,0.2C41.4,29.4,41,29.5,40.5,29.5z
	 M39.3,28.9L39.3,28.9c0.2,0.1,0.4,0.1,0.6,0.1c0.6,0.2,1.2,0.1,1.8-0.2c0.1,0,0.2-0.1,0.3-0.1h0.1c0,0,0.1,0,0.1,0l0.1-0.1
	c0,0,0.1,0,0.1-0.1v0l0,0c0.3-0.4,0.5-0.9,0.5-1.4c0,0,0-0.1,0-0.1c0,0,0-0.1,0-0.1c0-0.3-0.1-0.6-0.3-0.8c0,0,0-0.1,0-0.1
	c-0.1-1.8,0.7-2.7,1.8-3.9l0.6-0.7c0.1-0.4,0.1-0.9,0-1.3c0-0.3-0.1-0.6-0.2-0.9c0-0.2-0.1-0.3-0.1-0.5c-0.1-0.4-0.3-0.8-0.6-1.1
	c-0.2-0.3-0.5-0.5-0.8-0.6c-0.2-0.1-0.4-0.3-0.6-0.4c-0.2-0.2-0.4-0.3-0.7-0.4c-0.1,0-0.2,0-0.3,0h-0.1c-0.1,0-0.2-0.1-0.2-0.1
	c-0.1,0-0.2-0.1-0.4-0.1c-0.1,0-0.1,0-0.2-0.1c0-0.1-0.1-0.1-0.1-0.2c-0.1-0.1-0.3-0.2-0.5-0.2c-0.2,0-0.5,0-0.7,0h-0.2
	c-0.3,0-0.5,0-0.8,0.1c0,0,0,0-0.1,0l0,0c-0.3,0-0.6,0.1-0.9,0.2c-0.3,0.1-0.5,0.2-0.8,0.2h0.1c-0.2,0-0.5,0.1-0.7,0.1
	c-0.3,0.1-0.5,0.3-0.7,0.5l0,0c-0.3,0.2-0.5,0.4-0.7,0.6l0,0l0,0c0,0,0,0.1,0,0.1c0,0.1,0,0.1,0,0.2c-0.1,0.2-0.2,0.3-0.3,0.5
	c0,0,0,0,0,0.1c-0.2,0.4-0.3,0.8-0.3,1.2c0,0.1,0,0.1-0.1,0.2C34.1,19.8,34,19.9,34,20c0,0,0,0.1,0,0.1c0,0.1-0.1,0.2-0.2,0.2
	c0,0-0.1,0-0.1,0.1l0,0c-0.1,0.3,0,0.7,0.2,0.9c0.1,0.1,0.2,0.3,0.4,0.4c0.1,0,0.1,0.1,0.1,0.1c0.1,0.4,0.3,0.9,0.6,1.2
	c0.1,0,0.2,0,0.3,0h0.3c0.4,0,0.5,0,0.5,0.1c0,0.1,0,0.1,0,0.2c0.1,0,0.1,0.1,0.1,0.2c0,0,0,0.1,0,0.1c0.1,0.1,0.2,0.2,0.2,0.2
	c0.1,0.4,0.3,0.7,0.7,0.8c0,0,0.1,0,0.1,0.1c0.2,0.3,0,0.6-0.1,0.8s-0.2,0.4-0.1,0.4c0.1,0.1,0.2,0.3,0.3,0.4c0,0.1,0,0.1,0,0.2v0.1
	c-0.1,0.2-0.1,0.5-0.1,0.7c0,0.4,0.1,0.7,0.4,1c0,0,0.1,0.1,0.1,0.1c0,0,0.1,0,0.1,0h0.1l0,0h0.1C38.4,28.8,38.9,28.9,39.3,28.9
	L39.3,28.9z M37.6,28.8V29v-0.1V28.8z M45.9,19.5c0,0-0.1,0-0.1,0c-0.1,0.1-0.1,0.1,0,0.2c0.2,0.2,0.3,0.4,0.5,0.6
	c0.8,0.8,1.2,1.8,1.1,2.9v0.2c-0.2,0.6-0.2,1.2-0.2,1.8c0,0.1,0,0.2,0.1,0.3c0.2,0.5,0.1,1.2-0.2,1.6c-0.1,0.1-0.1,0.2,0,0.2
	c0.1,0,0.1,0,0.2,0c0.4-0.5,0.5-1.1,0.3-1.7v-0.2c-0.1-0.3-0.1-0.6-0.1-1c0-0.3,0.1-0.6,0.2-1l0.1-0.4c0.2-1.2-0.5-2.1-1.2-3
	L45.9,19.5C46,19.5,45.9,19.5,45.9,19.5z M34.8,23.1L34.8,23.1z M33.3,20.4L33.3,20.4z M34.6,17.3L34.6,17.3z"/>
<path class="st0" d="M42.8,54.7c-0.2,0-0.4-0.1-0.6-0.1c-0.2-0.1-0.4-0.1-0.6-0.1c-0.6,0-1.1-0.1-1.5-0.5H40l-0.1,0.1
	c-0.6,0.2-1.2,0.1-1.7-0.2c-0.2-0.2-0.6-0.4-0.9-0.4c-0.6,0-1.1-0.4-1.2-1c0-0.2-0.6-0.6-1-0.8c-0.5-0.4-1-0.6-1-1
	c-0.1,0-0.2,0-0.3,0c-0.1,0-0.3,0-0.4,0c-0.4,0-0.7-0.6-1.2-2c-0.1-0.2-0.1-0.4-0.2-0.5S32,48,31.9,47.8c-0.4-0.5-0.6-1.2-0.7-1.8
	c0-0.2,0-0.2-0.2-0.2c-0.4,0-0.7-0.4-0.7-0.8c-0.1-0.6-0.3-1.1-0.7-1.6c-0.1-0.2-0.3-0.5-0.4-0.7c-0.3-0.8-0.4-1.7-0.4-2.6
	c0-0.3-0.1-0.4-0.3-0.5c-0.4-0.2-0.7-0.6-0.9-1.1c-0.3-1-0.3-2-0.2-3c0-0.3,0-0.6,0-0.9c0-0.4,0-0.7-0.1-1.1c-0.1-0.4,0-0.8,0.1-1.2
	c0-0.1,0.3-0.9,0-1.3s-0.1-1.3,0.4-2.8c0.1-0.2,0.2-0.5,0.2-0.6c0-0.2,0.2-0.4,0.3-0.5c0,0,0.1-0.1,0.1-0.1
	c-0.2-1.1-0.3-2.2-0.3-3.4c0-0.8,0.3-1.7,0.9-2.3c0.5-0.6,0.9-1.3,1.3-2c-0.3-0.4-0.5-0.9-0.6-1.4c0-0.7,0.1-1.3,0.4-1.9l0.1-0.5
	c0.1-0.3,0.3-0.5,0.5-0.6c0.6-0.2,1.3-0.3,2-0.1l0,0l0,0c0-0.4,0.3-0.8,0.7-0.9c0,0,0-0.1,0-0.1c0-0.1,0-0.2,0-0.3
	c0-0.6,1.3-1.2,1.5-1.2s0.2,0,1.2,0.5c0.1-0.1,0.2-0.2,0.2-0.3c0-0.4,0.1-0.8,0.4-1.1c0.1-0.1,0.3-0.3,0.5-0.3
	c0.1-0.2,0.4-0.4,0.6-0.5c0.5-0.2,1-0.2,1.5-0.2h0.1c0.3,0,0.5,0.1,0.7,0.2c0.1,0.1,0.2,0.1,0.4,0.1c0.4,0,0.8,0.3,0.9,0.7
	c0,0.1,0.1,0.1,0.1,0.2c0.2,0.2,0.5,0.3,0.8,0.4c0.5,0.1,1,0.3,1.3,0.7c0.2,0.2,0.3,0.5,0.3,0.8v0.1c0.2,0.2,0.3,0.4,0.5,0.6
	c0.1,0.1,0.2,0.2,0.2,0.3c0,0,0.1,0,0.2,0c0.4,0,0.8,0,1.1,0c1.2,0,1.6,0.5,2.3,1.6c0.4,0.8,0.4,1.7,0,2.5c0,0.1-0.1,0.2-0.1,0.4
	c0,0.4-0.3,0.4-0.5,0.4h-0.1c0.1,0.3,0.2,0.5,0.4,0.8c1.2,2.1,1.1,2.7,1,3.2c0,0.1,0,0.2,0,0.3c0.2,0.6,0.3,1.3,0.2,2
	c0,0.3,0,0.6,0,0.9c0.2,0.1,0.6,0.7,1.2,3.5l0,0c0,0,0.3,0.6,0.6,1.2l-0.5,0.3c-0.2-0.4-0.5-0.9-0.7-1.4c-0.2-1.1-0.5-2.1-0.9-3.2
	c-0.3-0.1-0.3-0.6-0.3-1.4c0.1-0.6,0-1.1-0.1-1.7c-0.1-0.2-0.1-0.5,0-0.8c0.1-0.3,0.3-0.7-0.9-2.7c-0.4-0.7-0.5-1.1-0.4-1.4
	c0.1-0.2,0.3-0.3,0.5-0.3c0-0.1,0.1-0.3,0.1-0.4c0.3-0.6,0.3-1.3,0.1-2c-0.6-1-0.8-1.2-1.8-1.3c-0.4,0-0.7,0-1.1,0
	c-0.2,0.1-0.5,0-0.7-0.1c-0.1-0.1-0.3-0.3-0.3-0.5c-0.1-0.2-0.2-0.3-0.3-0.5c-0.2-0.1-0.3-0.4-0.2-0.6c0-0.1,0-0.3-0.1-0.4
	c-0.2-0.3-0.5-0.5-0.9-0.5c-0.4,0-0.8-0.2-1.1-0.5c-0.1-0.1-0.2-0.2-0.2-0.4c-0.1-0.3-0.2-0.4-0.4-0.4c-0.2,0-0.5-0.1-0.7-0.2
	c-0.1-0.1-0.3-0.1-0.4-0.1h-0.1c-0.4,0-0.9,0-1.3,0.1c-0.2,0.1-0.2,0.1-0.3,0.2c-0.1,0.2-0.3,0.3-0.5,0.3c-0.2,0.2-0.3,0.4-0.4,0.7
	c0,0.5-0.3,0.9-0.7,1h-0.1l-0.1-0.1c-0.5-0.2-1-0.5-1.1-0.5c-0.3,0.1-0.6,0.4-0.9,0.6c0,0,0,0.1,0,0.2c0.1,0.2,0,0.4-0.1,0.6
	c-0.1,0.1-0.3,0.2-0.4,0.2c-0.1,0-0.2,0.1-0.2,0.3v1L33,16c0-0.1,0-0.4-0.2-0.4c-0.5-0.1-1.1-0.1-1.6,0.1c-0.1,0.1-0.2,0.2-0.2,0.3
	l-0.1,0.5c-0.2,0.5-0.3,1-0.4,1.6c0,0.4,0.2,0.7,0.4,1c0.1,0,0.2,0.1,0.2,0.3c0.1,0.5-1.3,2.4-1.5,2.6c-0.4,0.5-0.6,1.2-0.6,1.8
	c0,1,0.1,2.1,0.3,3.1c0.1,0.3,0,0.7-0.3,0.9c0,0-0.1,0-0.1,0.1c0,0.2-0.1,0.5-0.2,0.7c-0.3,0.7-0.5,1.5-0.6,2.3
	c0.3,0.6,0.4,1.3,0.1,1.9c-0.1,0.3-0.1,0.6,0,0.9c0,0.3,0.1,0.7,0.1,1.2c0,0.3,0,0.6,0,0.9c-0.1,0.9-0.1,1.9,0.2,2.8
	c0.1,0.3,0.3,0.6,0.6,0.8c0.4,0.2,0.7,0.6,0.6,1.1c0,0.8,0.1,1.6,0.4,2.3c0.1,0.2,0.2,0.4,0.3,0.6c0.4,0.5,0.7,1.2,0.8,1.8
	c0,0.1,0,0.1,0.2,0.2c0.4,0,0.7,0.4,0.7,0.8c0.1,0.5,0.3,1.1,0.6,1.5l0.2,0.4c0,0.1,0.1,0.3,0.2,0.5c0.2,0.6,0.4,1.1,0.7,1.6h0.2
	c0.3-0.1,0.6,0,0.8,0.1c0.1,0.1,0.2,0.3,0.2,0.4c0.2,0.2,0.5,0.4,0.7,0.5c0.6,0.4,1.2,0.8,1.2,1.2c0,0.3,0.2,0.5,0.5,0.5
	c0,0,0,0,0,0c0.5,0,1,0.2,1.4,0.6c0.3,0.1,0.6,0.2,0.9,0.1l0,0l0.2-0.1c0.2-0.1,0.4,0,0.7,0.2s0.8,0.5,1.1,0.4
	c0.3-0.1,0.6,0,0.9,0.1c0.2,0.1,0.4,0,0.6-0.1c0.4-0.2,0.9-0.4,1.4-0.5l0.1,0.6c-0.4,0.1-0.8,0.2-1.2,0.4
	C43.1,54.6,43,54.7,42.8,54.7z"/>
<path class="st0" d="M47.1,71.5c-0.2,0-0.4-0.1-0.4-0.3c-0.3,0-0.7,0-1,0.1c-0.5,0.1-1.1,0.1-1.6,0c-0.4-0.1-0.8-0.1-1.1,0
	c-0.9,0.1-2,0.2-2.4-0.3c-0.2-0.3-0.3-0.7-0.2-1c0.2-0.9,0.8-1.6,1.7-1.8h0.2c0.3-0.7,0.7-1.3,1.2-1.9c-0.1-0.4-0.3-1.4-0.4-3
	s1.1-7.5,1.6-10c0.1-0.4,0.2-0.7,0.2-0.9c0.2-1.4,0.1-2.8-0.3-4.2L45,48c0.4,1.4,0.5,3,0.3,4.4c0,0.2-0.1,0.5-0.2,0.9
	c-0.5,2.2-1.8,8.1-1.6,9.8c0.2,1.9,0.4,3.1,0.4,3.1v0.1l-0.1,0.1c-0.4,0.6-0.8,1.2-1.2,1.8c0,0.3-0.3,0.4-0.5,0.5
	c-0.7,0.1-1.2,0.7-1.3,1.4c-0.1,0.3,0,0.4,0.1,0.4c0.3,0.3,1.2,0.2,1.9,0.2c0.5-0.1,1-0.1,1.4,0c0.4,0.1,0.9,0,1.3-0.1
	c0.6-0.1,1.3-0.2,1.6,0.1c0.3-0.5,0.5-1.1,0.5-1.7c0-0.4,0-0.9-0.1-1.3c-0.1-1-0.1-1.6,0.1-1.9c0.4-1.4,0.7-2.9,0.8-4.4
	c0.2-0.9,0.4-1.8,0.7-2.7c0.5-1.8,1-3.6,1.3-5.5c0.1-1.5,2-2.7,2.5-2.9c0.3-0.3,0.4-0.7,0.5-1.1c0-0.1,0-0.2,0-0.3
	c-0.1-0.4-0.1-0.9,0.1-1.2c0,0,0-0.1,0-0.2c0-0.2,0-0.4,0-0.6c-0.1-0.3-0.3-0.6-0.5-0.9c-0.3-0.4-0.6-0.8-0.7-1.3
	c-0.1-0.2-0.1-0.4-0.3-0.6c-0.2-0.5-0.3-1.1-0.2-1.6c0.1-0.7,0.3-1.3,0.6-1.9c0.2-0.5,0.4-1.1,0.5-1.7c0-1.3-0.2-2.7-0.6-3.9
	c-0.2-0.3-0.3-0.6-0.3-1c0-0.4,0-0.5-0.3-0.7c-0.5-0.4-0.9-0.8-1.1-1.4l0.5-0.3c0.2,0.4,0.5,0.8,0.9,1.1c0.4,0.2,0.7,0.7,0.6,1.2
	c0,0.2,0,0.5,0.2,0.7c0.5,0.7,0.7,3.8,0.7,4.3c-0.1,0.7-0.3,1.3-0.5,1.9c-0.2,0.6-0.4,1.2-0.6,1.8c0,0.5,0,0.9,0.2,1.3
	c0.1,0.2,0.2,0.5,0.2,0.8c0.1,0.4,0.3,0.7,0.6,1c0.4,0.5,0.7,1,0.6,1.3c0,0.1,0,0.3,0,0.4c0.1,0.3,0.1,0.6-0.1,0.8
	c-0.1,0.1,0,0.5,0,0.8c0,0.1,0,0.2,0,0.3c-0.1,0.6-0.3,1.1-0.7,1.6l-0.1,0.1c0,0-2.1,1.1-2.2,2.4c-0.3,1.9-0.7,3.8-1.3,5.6
	c-0.3,1.2-0.6,2.3-0.6,2.5c-0.1,1.6-0.5,3.2-1,4.8c-0.1,0.5-0.1,1,0,1.5c0,0.5,0.1,0.9,0.1,1.4C48.2,69.9,47.7,71.4,47.1,71.5
	L47.1,71.5z"/>
<path class="st0" d="M68.7,69.4c-0.3,0-0.6,0-0.8-0.1c-0.5-0.1-1-0.1-1.5,0c-0.6,0-0.9,0.1-1-0.1h-0.3c-0.2,0-0.5,0-0.7-0.2
	c-0.1-0.1-0.1-0.2-0.1-0.3c0-0.4,1-1.8,1.5-1.8c0.2-0.1,0.5-0.2,0.7-0.4l0.1-0.1c0.1-0.4,0.1-0.8,0-1.2c-0.1-0.8-0.1-1.8-0.1-2.7
	c0-0.7,0-1.4-0.1-2.2c0-0.1-3.5-7.2-3.8-8.2c-0.5-2.2-1.1-2.7-1.2-2.7c-0.1,0-0.1,0-0.2,0c-0.7,0.4-1.4,0.6-2.2,0.7
	c0,0-0.1,0.1-0.1,0.2c-0.1,0.2-0.3,0.3-0.5,0.3h-0.7c0,0,0,0.1,0,0.1c0.1,0.3,0.2,0.7-0.1,0.9c-0.1,0.1-0.3,0.2-0.5,0.1
	c-0.2,0-0.4-0.1-0.6-0.2l-0.2-0.1c0,0.7-0.5,1.3-1.2,1.4c-0.3,0-0.5-0.2-0.6-0.4c-0.1,0.2-0.2,0.4-0.3,0.6c-0.2,0.5-0.4,0.9-0.8,0.9
	c-0.1,0.1-0.1,0.1-0.2,0.2c-0.2,0.3-0.5,0.5-0.8,0.5c-0.6-0.1-1.1-0.2-1.7-0.4l0.2-0.6c0.5,0.2,1,0.3,1.5,0.3c0.1,0,0.2-0.1,0.3-0.3
	c0.1-0.2,0.4-0.4,0.7-0.4c0,0,0.2-0.3,0.2-0.5c0.2-0.5,0.4-0.9,0.8-0.9c0.3-0.1,0.6,0.1,0.6,0.4l0.1,0.1c0.3,0,0.6-0.4,0.6-0.8
	c0-0.2,0-0.4,0.2-0.6c0.2-0.2,0.5,0,0.8,0.1l0.3,0.1c0-0.1,0-0.2,0-0.2c-0.1-0.2-0.1-0.5,0-0.7l0.1-0.1h0.2h0.8l0,0
	c0.1-0.3,0.4-0.4,0.6-0.5c0.7-0.1,1.3-0.3,1.9-0.6c0.2-0.1,0.5-0.1,0.7,0c0.6,0.3,1.1,1.3,1.5,3.1c0.2,0.8,3.3,7.1,3.7,8.1
	c0.2,0.8,0.2,1.6,0.2,2.4c0,0.9,0,1.9,0.1,2.6c0.1,1.3-0.1,1.6-0.3,1.8c0,0-0.1,0.1-0.2,0.1c-0.3,0.2-0.6,0.4-1,0.4
	c-0.3,0.3-0.6,0.7-0.8,1.1h0.3c0.2,0,0.4,0,0.6,0.2c0.2,0,0.4,0,0.6,0c0.6-0.1,1.1-0.1,1.7,0c0.5,0.1,0.9,0.1,1.4,0
	c0.1,0,0.3,0,0.4,0c0-0.1-0.1-0.2-0.1-0.3c-0.2-0.4-0.3-0.8-0.3-1.2c0-0.8,0.1-1.7,0.2-2.5c0.1-0.8,0.2-1.7,0.2-2.3
	c-0.1-1.4-0.5-2.8-1.1-4c-0.3-0.7-0.4-1.4-0.4-2.1c0-0.3-0.1-0.7-0.2-1c-0.3-1.2-0.4-2.5-0.5-3.8c-0.1-0.6-0.1-1.1-0.1-1.3
	c0-0.6,0-1.2,0-1.7c0.1-0.8,0.1-1.6,0-2.4c-0.1-0.3-0.2-0.8-0.4-1.3c-0.3-0.7-0.5-1.4-0.6-2.2c-0.3-0.6-0.7-1.1-1.1-1.6
	c-0.3-0.4-0.7-0.8-0.9-1.1c-0.2-0.3-0.5-0.5-0.8-0.7c-0.4-0.2-0.7-0.4-0.8-0.9c-0.1-0.3-1.4-0.5-2.3-0.5c-0.6,0-2.5-1.2-3.6-1.9
	c-1.5-0.7-3-1.3-4.6-1.7l0.2-0.6c1.6,0.5,3.2,1.1,4.7,1.8c1,0.7,2.1,1.3,3.3,1.8c0,0,2.8,0,2.9,1c0,0.2,0.2,0.3,0.5,0.5
	c0.4,0.2,0.7,0.5,1,0.8c0.2,0.2,0.5,0.6,0.8,1c0.8,1,1.3,1.6,1.3,2c0.1,0.7,0.3,1.4,0.6,2c0.2,0.5,0.3,1,0.4,1.3
	c0.1,0.9,0.1,1.7,0,2.6c0,0.5,0,1.1,0,1.6c0,0.3,0.1,0.8,0.1,1.3c0.1,1.2,0.3,3.3,0.4,3.6c0.1,0.4,0.2,0.8,0.2,1.2
	c0,0.6,0.2,1.2,0.4,1.8c0.6,1.4,1,2.8,1.2,4.3c0,0.6-0.1,1.5-0.2,2.3c-0.1,0.8-0.2,1.6-0.2,2.4c0.1,0.4,0.2,0.7,0.3,1.1
	c0.2,0.4,0.3,0.7,0.1,1c-0.1,0.1-0.2,0.2-0.4,0.2c-0.2,0-0.3,0-0.5,0C69.2,69.4,68.9,69.4,68.7,69.4z"/>
<path class="st0" d="M37.2,19.7c0-0.5-0.1-0.9-0.5-1.3C36.2,18,35,18.5,35,18.7s0.5,0.5,0.8,0.6c0.3,0,0.7,0,1,0L37.2,19.7z"/>
<path class="st0" d="M42.4,19.7c0,0,0.2-1.2,0.7-1.3s1.2,0.2,1.2,0.8S42.4,19.7,42.4,19.7z"/>
<path class="st0" d="M40.2,22.9C40.1,22.9,40.1,22.9,40.2,22.9L40.2,22.9c-0.2,0-0.3-0.1-1.5-2c-0.1-0.1-0.1-0.2,0-0.3
	c0.2-0.2,0.2-0.2,0.1-0.4l0,0c-0.2,0-0.4,0-0.6,0.1c-0.1,0-0.1,0-0.2,0c-0.1,0-0.1-0.1-0.1-0.2c0-0.4,0.1-0.7,0.3-1
	c0.5-0.5,1.2-0.8,1.9-0.8c0.8,0,1.6,0.3,2.2,0.9c0.3,0.4,0.3,1,0,1.4c0,0.1-0.1,0.1-0.2,0.1c-0.1,0-0.1-0.1-0.2-0.2
	c0-0.1-0.1-0.2-0.2-0.3c-0.1-0.1-0.3-0.1-0.4,0c-0.1,0-0.1,0.1-0.1,0.1s0.3,0.3,0.6,0.5c0.1,0,0.1,0.1,0.1,0.1c0,0.1,0,0.1,0,0.2
	C40.6,22.7,40.3,22.9,40.2,22.9z M39,20.8c0.5,0.7,0.9,1.4,1.1,1.6c0.2-0.2,0.7-0.8,1.2-1.3c-0.3-0.2-0.6-0.5-0.6-0.8
	c0-0.1,0.1-0.3,0.4-0.4c0.2-0.1,0.5-0.1,0.8,0c0.1,0,0.1,0.1,0.2,0.1c0-0.2,0-0.3-0.1-0.5c-0.5-0.5-1.2-0.8-1.9-0.8
	c-0.6,0-1.2,0.2-1.6,0.6c-0.1,0.1-0.2,0.2-0.2,0.4c0.2-0.1,0.4-0.1,0.6,0c0.1,0,0.2,0.1,0.2,0.2l0,0C39.2,20.4,39.3,20.5,39,20.8z"
	/>
<path class="st0" d="M43.9,23.2h-0.6c0-0.6-0.1-0.8-0.2-0.9c-0.2-0.2-0.3-0.5-0.3-0.8c-0.1-0.6-0.3-1.2-0.7-1.6l0.5-0.4
	c0.5,0.6,0.7,1.3,0.8,2c0,0.2,0,0.3,0.1,0.4C43.9,22.3,44,22.8,43.9,23.2z"/>
<path class="st0" d="M37.1,26.4c-0.1,0-0.2,0-0.2-0.1c-0.2-0.3-0.4-0.7-0.3-1.1c0-0.2,0-0.2-0.2-0.3c-0.3-0.2-0.5-0.5-0.6-0.8
	c-0.2-0.5-0.2-1,0.1-1.4c0.1-0.1,0.2-0.3,0.2-0.5c0.1-0.4,0.4-0.9,0.7-1.2c0.2-0.2,0.3-0.4,0.4-0.6c0.2-0.4,0.4-0.7,0.7-1
	c0.1-0.1,0.3-0.1,0.4,0.1c0,0,0,0,0,0c0.1,0.1,0.1,0.3-0.1,0.4l0,0c-0.2,0.2-0.4,0.4-0.5,0.7c-0.1,0.3-0.3,0.5-0.5,0.8
	c-0.2,0.3-0.4,0.6-0.5,0.9c-0.1,0.2-0.1,0.5-0.3,0.7c-0.2,0.2-0.3,0.6-0.1,0.9c0.1,0.2,0.2,0.4,0.4,0.5c0.3,0.2,0.5,0.5,0.4,0.8
	c0,0.1,0,0.2,0,0.3c0.5-0.6,1.2-1.1,2-1.3c0.2,0,0.4-0.1,0.6-0.2c0-0.1,0.1-0.3,0.3-0.3c0.2,0,0.3,0.1,0.3,0.2c0,0,0,0,0,0
	c0,0,0,0,0,0.1c0.8,0.2,1.5,0.5,2.2,1c0.1-0.2,0.1-0.4,0.1-0.6c0-0.2,0.1-0.3,0.2-0.4c0.1-0.1,0.2-0.2,0.2-0.3
	c0-0.3,0.3-0.6,0.6-0.8c0.1-0.1,0.2-0.2,0.3-0.3c0.4-0.4,0.8-0.9,1.1-1.4c0.1-0.3,0.1-0.6-0.1-0.9c-0.1-0.3-0.2-0.7-0.2-1
	c0-0.4-0.4-0.8-0.7-1.2s-0.5-0.5-0.5-0.8c-0.3-0.4-0.8-0.6-1.2-0.6c-0.3,0-1.4,0-1.6-0.6c-0.3,0-0.5,0-0.8,0c-0.2,0-0.4,0-0.7,0
	c-0.2,0-0.4-0.1-0.6-0.2h-0.1l0,0c-0.2,0.7-1,0.5-1.5,0.4c-0.2-0.1-0.4-0.1-0.7-0.1c-0.5,0-1,0.7-1.4,1.2c-0.4,0.6-0.7,1.3-0.8,2
	c0,0.4-0.2,0.7-0.5,0.9c-0.1,0.1-0.3,0.3-0.3,0.3c0,0.5,0.3,1,0.7,1.2c0.3,0.2,0.5,0.5,0.7,0.8c0.1,0.2,0.2,0.3,0.4,0.5
	c0.1,0.1,0.2,0.3,0.1,0.4c-0.1,0.1-0.3,0.2-0.4,0.1c-0.2-0.2-0.4-0.4-0.5-0.6c-0.2-0.3-0.4-0.5-0.6-0.7c-0.6-0.4-0.9-1.1-0.9-1.8
	c0.1-0.3,0.2-0.5,0.5-0.7c0.2-0.1,0.3-0.3,0.3-0.5c0.1-0.8,0.4-1.6,0.9-2.3c0.5-0.7,1.1-1.5,1.9-1.5c0.3,0,0.6,0.1,0.8,0.2
	c0.5,0.1,0.7,0.2,0.8,0.1c0-0.2,0.2-0.4,0.4-0.5c0.2-0.1,0.4,0,0.6,0.1c0.1,0.1,0.2,0.1,0.3,0.1c0.2,0,0.4,0,0.6,0
	c0.7-0.1,1.1-0.1,1.3,0.1c0.1,0.1,0.1,0.2,0.2,0.3c0.3,0.1,0.7,0.2,1,0.2c0.7,0,1.9,0.6,1.9,1.3c0.1,0.1,0.2,0.3,0.3,0.4
	c0.5,0.4,0.7,1,0.8,1.6c0,0.3,0,0.5,0.1,0.8c0.2,0.4,0.2,0.9,0.1,1.3c-0.3,0.6-0.7,1.2-1.2,1.6l-0.2,0.2c0,0.1-0.1,0.2-0.2,0.2
	c-0.1,0-0.3,0.1-0.3,0.3c0,0.3-0.1,0.5-0.3,0.7l-0.1,0.1c0,0.4-0.2,1-0.5,1.2c-0.2,0.1-0.4,0-0.5-0.1c-0.6-0.4-1.2-0.7-1.9-0.9
	c0,0-0.1,0-0.1,0c-0.3,0.2-0.6,0.3-0.9,0.3c-0.7,0.1-1.6,1.1-1.9,1.4C37.2,26.4,37.2,26.5,37.1,26.4L37.1,26.4z"/>
<path class="st0" d="M40.8,29.6L40.8,29.6c-1,0-1.9-0.1-2.8-0.3H38c-0.4-0.2-1.5-0.6-1.6-1.5c-0.1-0.6,0.1-1.3,0.5-1.8
	c0.1-0.1,0.3-0.2,0.4-0.1c0.1,0.1,0.2,0.3,0.1,0.4c0,0,0,0,0,0c-0.2,0.4-0.3,0.9-0.3,1.3c0.1,0.5,1,0.9,1.3,1h0.1
	c0.8,0.1,1.6,0.2,2.5,0.2c0.6,0,1.1-0.3,1.6-0.6c0.3-0.3,0.5-0.7,0.6-1.1c0-0.1-0.1-0.2-0.1-0.3c-0.1-0.5-0.3-1-0.8-1.4
	c-0.1-0.1-0.1-0.3,0-0.4s0.3-0.1,0.4,0l0,0c0.5,0.4,0.9,1.1,1,1.7c0,0.1,0,0.1,0,0.2c0.2,0.5-0.7,1.7-0.8,1.8
	C42.2,29.3,41.5,29.6,40.8,29.6z"/>
<path class="st0" d="M31.6,18.7l-0.2-0.6c0,0,0-0.1,0-0.2c0-0.5,0.3-0.9,0.7-1.1c0.8-0.4,2,0.2,2.2,0.3L34,17.6
	c-0.3-0.1-1.2-0.5-1.6-0.3C32.2,17.5,32,17.7,32,18C32,18.3,31.9,18.6,31.6,18.7z"/>
<path class="st0" d="M46.7,18.9L46.7,18.9c-0.2,0-0.3-0.2-0.3-0.4c0-0.4-0.1-0.7-0.3-1c-0.3-0.2-0.3-0.5-0.3-0.9c0-0.1,0-0.2,0-0.4
	c0-0.1-0.2-0.1-0.6-0.1c-0.4,0-0.9-0.1-1.3-0.2c-0.2,0-0.3-0.2-0.2-0.4c0,0,0,0,0,0c0-0.2,0.2-0.3,0.4-0.2c0.4,0.1,0.7,0.1,1.1,0.1
	c0.9-0.1,1.2,0.3,1.2,0.6c0,0.2,0,0.3,0,0.5c0,0.1,0,0.3,0,0.4c0.5,0.4,0.7,1,0.6,1.6C47,18.8,46.9,18.9,46.7,18.9z"/>
<path class="st0" d="M36.4,22.5c-0.1,0-0.1,0-0.2,0c-0.1-0.1-0.1-0.2-0.1-0.3c0.1-0.1,0.2-0.1,0.3-0.1c0,0,0,0,0,0
	c0.2,0,0.8-0.4,1.4-1c0.1-0.1,0.2-0.1,0.3,0c0,0,0,0,0,0c0.1,0.1,0.1,0.2,0,0.3C37.7,21.8,36.9,22.5,36.4,22.5z"/>
<path class="st0" d="M35.9,23.8L35.9,23.8c-0.1,0-0.2-0.1-0.2-0.2c0,0,0,0,0,0c0-0.1,0.1-0.2,0.2-0.2c0,0,0,0,0,0l0,0
	c0.9-0.4,1.8-0.9,2.5-1.6c0.1-0.1,0.2-0.1,0.3,0c0.1,0.1,0.1,0.2,0,0.3C38.3,22.3,36.5,23.8,35.9,23.8z"/>
<path class="st0" d="M36.7,25.1c0,0-0.1,0-0.1,0c-0.1-0.1-0.1-0.2-0.1-0.3c0.2-0.3,0.4-0.5,0.6-0.7c-0.4,0.2-0.8,0.3-1,0.4
	c-0.1,0-0.2,0-0.3-0.1c0-0.1,0-0.2,0.1-0.3c0,0,0,0,0,0c0.8-0.3,1.5-0.7,2.2-1.1l0.2-0.3c0.1-0.1,0.2-0.1,0.2-0.1
	c0.1,0,0.1,0.1,0.1,0.2c0,0.2-0.1,0.3-0.3,0.4c-0.7,1-0.9,1.1-1,1.1c-0.2,0.2-0.4,0.5-0.6,0.8C36.9,25.1,36.8,25.2,36.7,25.1z"/>
<path class="st0" d="M43.3,23.9c-0.1,0-0.1,0-0.2-0.1c-0.2-0.3-0.4-0.7-0.6-1c-0.1-0.2-0.3-0.4-0.5-0.6c-0.1-0.1-0.1-0.2,0-0.3
	c0.1-0.1,0.2-0.1,0.3,0c0,0,0,0,0,0c0.2,0.2,0.4,0.5,0.6,0.7c0.2,0.3,0.3,0.6,0.5,0.9c0.1,0.1,0,0.2-0.1,0.3c0,0,0,0,0,0
	C43.4,23.9,43.4,23.9,43.3,23.9z"/>
<path class="st0" d="M42.9,24.6c-0.1,0-0.1,0-0.2-0.1c-0.2-0.3-0.4-0.6-0.7-0.9c-0.2,0-0.5-0.5-0.8-0.8c-0.1-0.1,0-0.2,0.1-0.3
	c0.1-0.1,0.2,0,0.3,0.1l0,0c0.2,0.2,0.3,0.5,0.5,0.7c0.2,0,0.5,0.4,0.9,1c0.1,0.1,0,0.2-0.1,0.3c0,0,0,0,0,0
	C43,24.6,43,24.6,42.9,24.6z"/>
<path class="st0" d="M40.1,24.3L40.1,24.3c-0.1,0-0.2-0.1-0.2-0.2c0,0,0,0,0,0l0.1-3.9c0-0.1,0.1-0.2,0.2-0.2c0.1,0,0.2,0.1,0.2,0.2
	l-0.1,3.9C40.3,24.2,40.2,24.3,40.1,24.3C40.1,24.3,40.1,24.3,40.1,24.3z"/>
<path class="st0" d="M32.7,32.8c0.3-0.4,0.6-0.9,1-1.2c0.8-0.8,2.1-1.7,2-3c0-0.1,0-0.3,0.2-0.3l-5.5-4.4c0,1.8,0.1,3.6,0.2,5.4
	c0,0.8,0.1,1.6,0.2,2.3c0.1,0.3,0.3,0.7,0.4,1c0.1,0.1,0.2,0.2,0.3,0.4C32,33.3,32.3,33.3,32.7,32.8z"/>
<path class="st0" d="M32.1,33.4c-0.3,0-0.6-0.2-0.8-0.4c-0.1-0.1-0.2-0.3-0.3-0.4c-0.1-0.3-0.3-0.6-0.4-1c-0.1-0.6-0.2-1.2-0.2-1.9
	c0-0.2,0-0.3,0-0.5c-0.1-1.9-0.2-3.7-0.2-5.4c0-0.1,0-0.1,0.1-0.2c0.1,0,0.1,0,0.2,0L36,28c0.1,0,0.1,0.1,0.1,0.2
	c0,0.1-0.1,0.1-0.1,0.2c0,0,0,0.1,0,0.1c0.1,1.1-0.8,2-1.6,2.7l-0.4,0.4c-0.2,0.3-0.5,0.5-0.7,0.9c-0.1,0.1-0.2,0.2-0.3,0.4l0,0
	c-0.2,0.2-0.4,0.4-0.7,0.5L32.1,33.4z M30.5,24.2c0,1.6,0.1,3.2,0.2,4.9c0,0.2,0,0.3,0,0.5c0,0.6,0.1,1.2,0.2,1.8
	c0.1,0.3,0.2,0.7,0.4,0.9c0.1,0.1,0.2,0.2,0.2,0.3c0.1,0.1,0.3,0.2,0.5,0.3c0.1,0,0.2-0.1,0.4-0.3l0,0l0.3-0.4
	c0.2-0.3,0.5-0.6,0.7-0.9L34,31c0.7-0.7,1.6-1.4,1.5-2.4c0-0.1,0-0.2,0.1-0.3L30.5,24.2z"/>
<path class="st0" d="M38,20.1c0,0,0.5-0.6,1-0.5s0.9,1,0.5,1.1c-0.2,0.1-0.5,0.1-0.7,0.1C38.8,20.9,38,20.5,38,20.1z"/>
<path class="st0" d="M38.8,21L38.8,21c-0.1,0-0.9-0.4-0.9-0.9l0,0l0,0c0,0,0.6-0.7,1-0.5c0.4,0.2,0.6,0.6,0.7,1
	c0,0.1-0.1,0.2-0.2,0.2C39.2,21,39,21,38.8,21z M38.7,20.9c0.2,0,0.5,0,0.7-0.1c0.1,0,0.1-0.1,0.1-0.1c-0.1-0.4-0.3-0.7-0.6-0.9
	c-0.3-0.2-0.8,0.3-0.9,0.4C38,20.5,38.6,20.8,38.7,20.9L38.7,20.9z"/>
<path class="st0" d="M41.7,21.1c0,0-0.4,0.1-0.8-0.4s0.1-0.8,0.5-0.8c0.3,0.1,0.5,0.2,0.7,0.5c0,0.2-0.4,0.2-0.4,0.4
	S41.7,21.1,41.7,21.1z"/>
<path class="st0" d="M41.6,21.2c-0.3,0-0.6-0.2-0.7-0.5c-0.2-0.3-0.2-0.5-0.1-0.6c0.2-0.2,0.4-0.3,0.6-0.2c0.3,0.1,0.6,0.3,0.7,0.5
	c0,0.1-0.1,0.2-0.2,0.2s-0.2,0.1-0.2,0.2s0,0.2,0.1,0.3c0,0,0,0,0,0l0,0C41.7,21.1,41.6,21.2,41.6,21.2z M41.2,19.9
	c-0.2,0-0.3,0.1-0.4,0.2c-0.1,0.1,0,0.3,0.1,0.5c0.3,0.4,0.5,0.4,0.7,0.4l0,0c0-0.1,0-0.2,0-0.3c0-0.2,0.2-0.2,0.3-0.3
	s0.1-0.1,0.1-0.1c-0.1-0.2-0.4-0.4-0.6-0.5L41.2,19.9z"/>
<path class="st0" d="M34.7,18.9c-0.1,0-0.1,0-0.2-0.1c-0.1-0.1,0-0.2,0.1-0.3c0,0,0,0,0,0l2-1c0.1,0,0.2,0,0.3,0.1
	c0.1,0.1,0.1,0.2,0,0.3l-1,1c-0.1,0.1-0.2,0.1-0.3,0c0,0,0,0,0,0c-0.1-0.1-0.1-0.2,0-0.3l0,0l-0.7,0.4L34.7,18.9z"/>
<path class="st0" d="M44.2,19.4L44.2,19.4c-0.1,0-0.2-0.1-0.2-0.2c0,0,0,0,0,0c0.1-0.9-1.4-1.2-1.4-1.2c-0.1,0-0.2-0.1-0.2-0.2
	c0-0.1,0.1-0.2,0.2-0.2c0.1,0,2,0.4,1.8,1.7C44.4,19.3,44.3,19.4,44.2,19.4C44.2,19.4,44.2,19.4,44.2,19.4z"/>
<path class="st0" d="M36.7,70.6h-1.9c-0.4,0-0.8-0.3-1-0.6c-0.1-0.3,0-0.7,0.2-1c0.7-1,2.2-2.4,3.2-1.7c0.3,0.1,0.6,0,0.8-0.2
	c0.5-0.5,0.6-1.2,0.3-1.7c-0.7-2-1.3-4-1.6-6c-0.1-0.1-1.9-4.3-1.9-6c0-0.9-0.2-1.8-0.6-2.7l0.5-0.3c0.5,0.9,0.7,2,0.7,3
	c0,1.6,1.8,5.8,1.9,5.8c0.4,2,0.9,4,1.6,5.9c0.4,0.8,0.3,1.8-0.4,2.5c-0.4,0.4-1,0.5-1.5,0.2c-0.5-0.3-1.7,0.5-2.4,1.6
	c-0.1,0.1-0.2,0.3-0.1,0.4c0.1,0.2,0.3,0.2,0.5,0.3h2.9l2.8-0.3l0.1,0.6l-2.8,0.3L36.7,70.6z"/>
<path class="st0" d="M41.7,68.5c0-0.3-0.1-1.2,0.4-1.5c0,0-0.1-0.3-0.1-0.5c-0.2-0.5-0.1-1,0.1-1.4c0.2-0.6,0.2-1.2,0-1.8
	c-0.3-1.2-0.4-2.5-0.2-3.8c0.2-1.8,0.2-3.5,0-5.3l0.6-0.1c0.2,1.8,0.2,3.7,0,5.5c-0.2,1.2-0.1,2.3,0.2,3.5c0.1,0.3,0.4,1.7-0.1,2.3
	c-0.1,0.2,0,0.6,0,0.9c0.1,0.5,0.2,0.9-0.2,1.2c-0.1,0.3-0.2,0.6-0.1,0.9L41.7,68.5z"/>
<path class="st0" d="M54.8,69.2c-0.3,0-0.7-0.1-1-0.2c-0.3-0.1-1-0.3-1.1-0.2c-0.5,0.4-2.5,0.1-3.1,0.1l-0.5-0.1l0.3-0.4
	c0.3-0.4,0.6-0.8,1-1.1c0.4-0.5,1.1-0.7,1.7-0.7c0.3,0,0.6,0,0.9-0.2c0.7-0.7,1.2-1.5,1.7-2.3c0.1-0.3,0.3-0.5,0.5-0.8
	c0.2-0.3,0.2-2.9-0.5-3.6c-0.8-0.8-2.2-4.7-2.4-5.1l0.6-0.2c0.4,1.2,1.6,4.3,2.2,4.9c0.9,0.9,0.9,4,0.5,4.4
	c-0.1,0.2-0.3,0.4-0.4,0.7c-0.4,1-1.1,1.8-1.9,2.6c-0.3,0.2-0.7,0.3-1.1,0.3c-0.5,0-1,0.2-1.3,0.5l-0.6,0.7c0.7,0.1,1.4,0.1,2.1,0
	c0.4-0.3,1-0.1,1.7,0.1c0.3,0.1,0.6,0.2,0.9,0.2c1-0.8,1.8-1.8,2.6-2.8c0.8-1,1.9-2.8,1.8-3.4c-0.1-0.3-0.2-1-0.4-1.6
	c-0.3-1-0.6-2.1-0.7-3.2c0-0.1,0-0.2,0-0.5c0.1-1.9,0.2-3.1,0.6-3.5c0.2-0.3,0.3-0.6,0.4-0.9c0.4-1,0.9-2.3,1.7-2.2
	c0.9,0,2.5,2.6,3,3.4l-0.5,0.3c-0.9-1.5-2.1-3.1-2.5-3.1s-0.8,1.3-1.1,1.8c-0.1,0.4-0.2,0.7-0.4,1.1c-0.3,1-0.4,2.1-0.4,3.1
	c0,0.2,0,0.4,0,0.5c0,0.2,0.4,1.9,0.7,3c0.2,0.7,0.3,1.3,0.4,1.7c0.2,1.1-1.5,3.5-1.9,3.9c-0.7,0.9-2.4,2.8-2.9,3L54.8,69.2z"/>
<path class="st0" d="M33.8,50.2c0-1.2-0.1-2.4-0.2-3.6c-0.1-1,0-1.9,0.2-2.8l0.6,0.1c-0.2,0.8-0.3,1.7-0.2,2.6
	c0.2,1.2,0.2,2.5,0.2,3.7L33.8,50.2z"/>
<path class="st0" d="M45.9,78.5L45.9,78.5l-20.9-4c-0.1,0-0.2-0.1-0.2-0.2c0-0.1,0-0.2,0.1-0.3c0.1-0.1,2.9-2.7,5.3-3
	c0.6-0.1,1.2-0.2,1.7-0.5c0.9-0.4,1.9-0.5,2.9-0.5c0.2,0,0.3,0.1,0.3,0.3c0,0.2-0.1,0.3-0.3,0.3c0,0,0,0,0,0
	c-0.9-0.1-1.8,0.1-2.7,0.4c-0.6,0.2-1.2,0.4-1.9,0.5C28.6,72,27,72.8,25.7,74l20.2,3.9l30.8-8.2c-1.3-0.5-3.6-1.3-5.1-1.7
	c-0.2,0-0.3-0.2-0.2-0.4c0,0,0,0,0,0c0-0.2,0.2-0.3,0.4-0.2c2.1,0.6,6,2,6,2c0.1,0,0.2,0.2,0.2,0.3c0,0.1-0.1,0.2-0.2,0.3L46,78.5
	L45.9,78.5z"/>
<path class="st0" d="M66.6,67.1c0,0-0.1,0-0.1,0c-1.1-0.4-2.2-0.7-3.4-0.9c-1.1-0.1-5.3,0.1-5.3,0.1c-0.2,0-0.3-0.2-0.2-0.4
	c0-0.1,0.1-0.2,0.2-0.2c0.2,0,4.2-0.2,5.4-0.1c1.2,0.2,2.4,0.6,3.5,1c0.2,0.1,0.2,0.2,0.2,0.4c0,0,0,0,0,0
	C66.8,67.1,66.7,67.1,66.6,67.1z"/>
<path class="st0" d="M47.9,68c-0.2,0-0.3-0.1-0.3-0.3c0-0.2,0.1-0.3,0.3-0.3c0,0,0,0,0,0l2.8-0.4c0.2,0,0.3,0.1,0.3,0.3
	c0,0.2-0.1,0.3-0.3,0.3L47.9,68L47.9,68z"/>
<polyline class="st0" points="45.4,84.4 77.8,74.8 77.8,69.7 45.9,78.2 45.4,84.4 25,79.6 25,74.2 45.9,78.2 "/>
<path class="st0" d="M45.4,84.8L45.4,84.8L25,79.9c-0.1,0-0.2-0.2-0.2-0.3v-5.5c0-0.2,0.1-0.3,0.3-0.3c0,0,0,0,0.1,0l20.8,4
	l31.8-8.4c0.2,0,0.3,0,0.4,0.2c0,0,0,0.1,0,0.1v5.1c0,0.1-0.1,0.3-0.2,0.3L45.4,84.8L45.4,84.8L45.4,84.8z M25.4,79.4l19.8,4.7
	l0.4-5.7l-20.2-3.9V79.4z M46.2,78.4L45.8,84l31.7-9.4v-4.4L46.2,78.4z"/>
</svg>
