<?xml version="1.0" encoding="utf-8"?>
<!-- Generator: Adobe Illustrator 25.2.1, SVG Export Plug-In . SVG Version: 6.00 Build 0)  -->
<svg version="1.1"
	 id="Layer_1" xmlns:cc="http://creativecommons.org/ns#" xmlns:dc="http://purl.org/dc/elements/1.1/" xmlns:inkscape="http://www.inkscape.org/namespaces/inkscape" xmlns:rdf="http://www.w3.org/1999/02/22-rdf-syntax-ns#" xmlns:sodipodi="http://sodipodi.sourceforge.net/DTD/sodipodi-0.dtd" xmlns:svg="http://www.w3.org/2000/svg"
	 xmlns="http://www.w3.org/2000/svg" xmlns:xlink="http://www.w3.org/1999/xlink" x="0px" y="0px" viewBox="0 0 100 100"
	 style="enable-background:new 0 0 100 100;" xml:space="preserve">
<style type="text/css">
	.st0{fill:#FFFFFF;}
</style>
<g transform="translate(0,-284.29998)">
	<path class="st0" d="M4.2,324.1v27.1h24.1v-27.1H4.2z M29.8,324.1v46.3h19.5v-46.3H29.8z M44.8,344.4c0.4,0,0.7,0.3,0.7,0.7v4.4
		c0,0.4-0.4,0.7-0.8,0.7c-0.4,0-0.7-0.3-0.7-0.7v-4.4C44.1,344.7,44.4,344.3,44.8,344.4z"/>
	<path class="st0" d="M71.7,308.8v13.8h24.1v-1.5L71.7,308.8z"/>
	<path class="st0" d="M28.3,308.8L4.2,321.1v1.5h24.1V308.8z"/>
	<path class="st0" d="M29.8,308.1l19.5-9.9v24.4H29.8V308.1z"/>
	<path class="st0" d="M50.7,298.2v24.4h19.5v-14.5L50.7,298.2z"/>
	<path class="st0" d="M50.7,324.1v46.3h19.5v-46.3H50.7z M55.2,344.4c0.4,0,0.7,0.3,0.7,0.7v4.4c0,0.4-0.4,0.7-0.8,0.7
		c-0.4,0-0.7-0.3-0.7-0.7v-4.4C54.5,344.7,54.8,344.4,55.2,344.4z"/>
	<path class="st0" d="M4.2,352.7v17.7h24.1v-17.7H4.2z"/>
	<path class="st0" d="M71.7,352.7h24.1v17.7H71.7V352.7z"/>
	<path class="st0" d="M95.8,324.1H71.7v27.1h24.1L95.8,324.1z"/>
</g>
</svg>
