<?xml version="1.0" encoding="utf-8"?>
<!-- Generator: Adobe Illustrator 25.2.1, SVG Export Plug-In . SVG Version: 6.00 Build 0)  -->
<svg version="1.1" id="Layer_1" xmlns="http://www.w3.org/2000/svg" xmlns:xlink="http://www.w3.org/1999/xlink" x="0px" y="0px"
	 viewBox="0 0 450 46.4" style="enable-background:new 0 0 450 46.4;" xml:space="preserve">
<style type="text/css">
	.st0{fill:#2F2B26;}
	.st1{fill:#2F2C27;}
	.st2{fill:#41B4E4;}
</style>
<path class="st0" d="M217.1,23.5c0-3.7,0-7.4,0-11c0-1.2,0.4-1.6,1.6-1.6c5.8,0,11.7,0,17.5,0c4.9,0,9,3,10.5,7.7
	c0.3,0.9,0.5,1.9,0.5,2.9c0.1,1.6,0.1,3.3,0,4.9c-0.3,3.5-2,6.2-5,8.2c-1.8,1.2-3.9,1.7-6,1.7c-5.9,0-11.7,0-17.6,0
	c-1.2,0-1.5-0.4-1.5-1.6C217.1,30.9,217.1,27.2,217.1,23.5z M229.9,16L229.9,16c-2.4,0-4.8,0-7.2,0c-0.4,0-0.5,0.1-0.5,0.5
	c0,4.7,0,9.4,0,14c0,0.5,0.1,0.6,0.6,0.6c4.5,0,9.1,0,13.6,0c2.4,0,4.8-1.8,5.4-4.1c0.5-1.8,0.2-3.7,0.2-5.5c0-0.5-0.1-1.1-0.3-1.6
	c-0.7-2.3-3-3.9-5-3.9C234.5,16,232.2,16,229.9,16z"/>
<path class="st1" d="M265,36.3c-3.6,0-7.3,0-10.9,0c-1.2,0-1.6-0.4-1.6-1.6c0-0.7,0-1.4,0-2.1c0-1,0.5-1.5,1.5-1.5
	c2.6,0,5.3,0,7.9,0c0.4,0,0.5-0.1,0.5-0.5c0-4.7,0-9.4,0-14.1c0-0.4-0.2-0.5-0.6-0.5c-2.7,0-5.4,0-8,0c-0.8,0-1.3-0.6-1.3-1.3
	c0-0.9,0-1.7,0-2.6c0-0.7,0.5-1.2,1.2-1.2c0.2,0,0.4,0,0.6,0c7.2,0,14.4,0,21.6,0c0.2,0,0.5,0,0.7,0.1c0.5,0.1,0.9,0.4,0.9,0.9
	c0.1,1.1,0.1,2.1,0,3.2c0,0.6-0.5,1-1.2,1c-2.7,0-5.4,0-8.2,0c-0.5,0-0.6,0.1-0.6,0.6c0,4.7,0,9.4,0,14c0,0.5,0.2,0.6,0.6,0.6
	c2.6,0,5.3,0,7.9,0c1,0,1.4,0.6,1.4,1.4c0,0.8,0,1.6,0,2.4c0,1-0.5,1.4-1.5,1.4C272.4,36.3,268.7,36.3,265,36.3z"/>
<path class="st0" d="M335.6,23.3c0.5-0.6,1-1.2,1.5-1.8c2.6-3.2,5.2-6.3,7.8-9.5c0.2-0.2,0.4-0.5,0.6-0.7c0.3-0.3,0.7-0.5,1.1-0.4
	c1,0,1.9,0,2.9,0c0.5,0,1,0.1,1.3,0.6c0.2,0.5,0,1-0.3,1.4c-4,4.9-8.1,9.9-12.1,14.8c-0.2,0.2-0.3,0.5-0.3,0.8c0,2.1,0,4.2,0,6.3
	c0,1.1-0.4,1.5-1.4,1.5c-0.8,0-1.5,0-2.3,0c-0.9,0-1.4-0.5-1.4-1.4c0-1.9,0-3.7,0-5.6c0-0.9-0.2-1.5-0.8-2.2
	c-3.8-4.7-7.7-9.4-11.5-14.1c-0.2-0.2-0.4-0.5-0.5-0.8c-0.2-0.7,0.3-1.3,1.1-1.3c1.1,0,2.2-0.1,3.3,0c0.4,0,0.9,0.4,1.2,0.8
	c2.2,2.6,4.4,5.3,6.6,7.9c0.9,1.1,1.9,2.3,2.8,3.4C335.4,23.1,335.5,23.1,335.6,23.3z"/>
<path class="st2" d="M300.1,35.9c0.1-0.2,0.3-0.4,0.4-0.6c4.8-4.8,9.6-9.7,14.4-14.5c0.2-0.3,0.6-0.5,0.9-0.6
	c0.6-0.2,1.1,0.2,1.1,0.8c0,1.6,0,3.3,0,4.9c0,0.3-0.2,0.7-0.5,1c-2.9,3-5.9,5.9-8.8,8.9c-1.7,1.7-3.3,3.3-4.9,5
	c-0.5,0.5-1,0.7-1.6,0.7c-0.7,0-1.5,0-2.2,0c-0.6,0-1-0.2-1.4-0.6c-4.6-4.6-9.3-9.3-13.9-14c-0.4-0.4-0.6-0.9-0.6-1.4
	c0-1.4,0-2.7,0-4.1c0-0.5,0.1-1,0.7-1.2c0.5-0.2,1,0,1.3,0.4c4.9,4.9,9.8,9.8,14.6,14.7c0.1,0.1,0.2,0.3,0.4,0.5
	C300,35.9,300.1,35.9,300.1,35.9z"/>
<path class="st2" d="M300.1,18.8c0.1-0.2,0.2-0.4,0.4-0.5c4.8-4.9,9.6-9.7,14.4-14.5c0.2-0.2,0.4-0.4,0.7-0.6c0.7-0.4,1.4,0,1.4,0.9
	c0,1.5,0,3,0,4.5c0,0.5-0.2,0.9-0.5,1.3c-4.7,4.6-9.3,9.3-14,14c-0.4,0.4-0.8,0.5-1.4,0.5c-0.7,0-1.5,0-2.2,0
	c-0.6,0-1.2-0.2-1.6-0.6c-4.6-4.6-9.2-9.2-13.8-13.9c-0.3-0.3-0.6-0.9-0.6-1.3c-0.1-1.4-0.1-2.8,0-4.3c0-0.3,0.2-0.7,0.4-1
	c0.3-0.4,0.9-0.3,1.4,0.2c0.7,0.6,1.3,1.3,1.9,1.9c4.3,4.4,8.7,8.8,13,13.2C299.8,18.5,299.9,18.6,300.1,18.8z"/>
<g>
	<path class="st0" d="M11,12.3h7.6c4.7,0,8.4,1.6,8.4,6.7c0,5.3-4,6.8-8.5,6.8h-3.9v8.3H11V12.3z M18.7,22.6c3.2,0,4.7-1,4.7-3.5
		c0-2.4-1.5-3.4-4.7-3.4h-4v6.9H18.7z"/>
	<path class="st0" d="M32.7,12.3h3.7v18.4h10v3.4H32.7V12.3z"/>
	<path class="st0" d="M57.9,12.2h3.6l7.7,21.9h-3.8l-1.8-5.2h-8.3l-1.8,5.2h-3.4L57.9,12.2z M62.7,25.6l-3-8.8h-0.1l-3,8.8
		C56.6,25.6,62.7,25.6,62.7,25.6z"/>
	<path class="st0" d="M74.7,12.3h3.7l10.3,15.5h0.1V12.3h3.4v21.8h-3.4L78.2,18.2h-0.1v15.9h-3.4V12.3z"/>
	<path class="st0" d="M113.2,24.7l-7.4-12.4h3.9l5.4,9.3l5.4-9.3h3.8l-7.4,12.4v9.4h-3.7C113.2,34.1,113.2,24.7,113.2,24.7z"/>
	<path class="st0" d="M126.8,23.2c0-7.3,4.3-11.3,9.9-11.3c5.5,0,9.8,4,9.8,11.3s-4.3,11.3-9.8,11.3
		C131.1,34.5,126.8,30.5,126.8,23.2z M142.7,23.2c0-5.1-2.4-7.9-6.1-7.9c-3.7,0-6.2,2.8-6.2,7.9s2.4,8,6.2,8
		C140.3,31.2,142.7,28.3,142.7,23.2z"/>
	<path class="st0" d="M152.1,26.1V12.3h3.7v13.5c0,3.3,1.4,5.3,4.8,5.3c3.3,0,4.8-1.9,4.8-5.3V12.3h3.6v13.8c0,4.9-2.8,8.3-8.4,8.3
		C154.5,34.4,152.1,31.1,152.1,26.1z"/>
	<path class="st0" d="M175.8,12.3h7.8c5.2,0,8.2,2.1,8.2,6.5c0,3.5-1.8,5.4-4.8,6.2l5.1,9.1h-3.9l-4.9-8.6h-3.8v8.6h-3.6V12.3H175.8
		z M183.5,22.3c3.1,0,4.7-0.8,4.7-3.4c0-2.5-1.6-3.3-4.7-3.3h-4v6.6L183.5,22.3L183.5,22.3z"/>
</g>
<g>
	<path class="st0" d="M376.2,15.7h-6.7v-3.4h17.1v3.4h-6.7v18.4h-3.7L376.2,15.7L376.2,15.7z"/>
	<path class="st0" d="M392.1,12.3h7.8c5.2,0,8.2,2.1,8.2,6.5c0,3.5-1.8,5.4-4.8,6.2l5.1,9.1h-3.9l-4.9-8.6h-3.8v8.6h-3.6V12.3H392.1
		z M399.7,22.3c3.1,0,4.7-0.8,4.7-3.4c0-2.5-1.6-3.3-4.7-3.3h-4v6.6L399.7,22.3L399.7,22.3z"/>
	<path class="st0" d="M414.9,12.3h3.7v21.8h-3.7V12.3z"/>
	<path class="st0" d="M426,12.3h7.6c4.7,0,8.4,1.6,8.4,6.7c0,5.3-4,6.8-8.5,6.8h-3.9v8.3H426V12.3z M433.7,22.6c3.2,0,4.7-1,4.7-3.5
		c0-2.4-1.5-3.4-4.7-3.4h-4v6.9H433.7z"/>
</g>
</svg>
