<?xml version="1.0" encoding="utf-8"?>
<!-- Generator: Adobe Illustrator 25.2.1, SVG Export Plug-In . SVG Version: 6.00 Build 0)  -->
<svg version="1.1" id="Layer_1" xmlns="http://www.w3.org/2000/svg" xmlns:xlink="http://www.w3.org/1999/xlink" x="0px" y="0px"
	 viewBox="0 0 1080 314" style="enable-background:new 0 0 1080 314;" xml:space="preserve">
<style type="text/css">
	.st0{fill:#FFFFFF;}
	.st1{fill:#41B4E4;}
	.st2{fill:#FDFDFD;}
</style>
<path class="st0" d="M20.3,165.7c0-28.5,0-57,0-85.5c0-9.5,3.1-12.7,12.5-12.7c45.2,0,90.5,0,135.7,0c38,0,70,23.2,81.5,59.4
	c2.3,7.3,3.5,15.1,3.9,22.8c0.6,12.7,0.9,25.6-0.2,38.2c-2.4,27.2-15.8,48.1-38.4,63.2c-14.2,9.4-29.9,13.4-46.8,13.3
	c-45.4,0-90.7,0-136.1,0c-9.1,0-12-2.9-12-12.2C20.3,223.4,20.3,194.6,20.3,165.7z M119.9,107.8c0-0.1,0-0.1,0-0.2
	c-18.6,0-37.2,0.1-55.9-0.1c-3,0-4,0.6-4,3.8c0.1,36.3,0.1,72.5,0,108.8c0,3.9,1.1,4.8,4.9,4.8c35.1-0.1,70.2-0.1,105.3-0.1
	c18.8,0,37.1-13.8,41.9-32c3.7-14.1,1.8-28.6,1.7-42.9c0-4.1-1-8.2-2.1-12.1c-5.2-17.7-23.6-30.1-38.6-30
	C155.3,107.9,137.6,107.8,119.9,107.8z"/>
<path class="st0" d="M391.5,264.6c-28.2,0-56.5,0-84.7,0c-9.2,0-12.3-3.1-12.4-12.4c0-5.4-0.1-10.8,0-16.1
	c0.1-7.6,3.8-11.3,11.3-11.3c20.5,0,41-0.1,61.5,0.1c3,0,4.2-0.8,4.1-4c-0.1-36.5-0.1-73,0-109.5c0-3.4-1.2-4.2-4.4-4.1
	c-20.7,0.1-41.5-0.1-62.2,0.2c-6.5,0.1-10.2-4.6-10.3-9.8c-0.1-6.7-0.2-13.5,0-20.2c0.2-5.5,3.7-9,9.2-9.6c1.5-0.2,3-0.1,4.5-0.1
	c55.7,0,111.5,0,167.2,0c1.9,0,3.7,0.1,5.6,0.4c3.8,0.6,7,3.2,7.2,7c0.4,8.2,0.5,16.5,0.1,24.7c-0.2,4.8-4.1,7.6-9,7.6
	c-21.1,0-42.2,0.1-63.4-0.1c-3.5,0-4.4,0.9-4.4,4.4c0.1,36.3,0.1,72.5,0,108.8c0,3.7,1.2,4.5,4.7,4.5c20.5-0.2,41,0.1,61.5-0.2
	c7.6-0.1,11,4.5,11.1,10.7c0.1,6.1,0.1,12.3,0,18.4c-0.2,7.5-3.8,10.9-11.3,10.9C448.7,264.6,420.1,264.6,391.5,264.6z"/>
<path class="st1" d="M663.7,262.7c1.1-1.5,2-3.2,3.3-4.5c37.1-37.5,74.2-74.9,111.4-112.3c1.9-2,4.5-3.7,7.1-4.6
	c4.5-1.5,8.8,1.7,8.8,6.4c0.1,12.6,0.2,25.3-0.3,37.9c-0.1,2.6-1.9,5.7-3.9,7.7c-22.7,23-45.7,45.9-68.5,68.8
	c-12.8,12.8-25.6,25.6-38.3,38.6c-3.6,3.6-7.5,5.5-12.7,5.3c-5.7-0.2-11.5-0.1-17.2,0c-4.4,0-8.1-1.4-11.1-4.5
	c-35.9-36-71.8-72-107.7-108.1c-2.9-2.9-4.3-6.6-4.3-10.8c0-10.5,0-21,0-31.5c0-4.1,0.9-7.9,5.1-9.6c4.1-1.6,7.4,0.2,10.4,3.2
	c37.8,38.1,75.6,76.1,113.3,114.1c1.1,1.1,1.8,2.4,2.8,3.6C662.5,262.5,663.1,262.6,663.7,262.7z"/>
<path class="st1" d="M663.5,130.2c1.1-1.6,1.9-3.1,3.1-4.2C703.8,88.4,741,50.9,778.3,13.4c1.7-1.7,3.4-3.4,5.5-4.5
	c5.6-3,10.7,0.3,10.7,6.6c0,11.5-0.1,23,0,34.5c0,4-1.4,7.2-4.2,10C754.1,96,718,132.1,682,168.1c-2.9,2.9-6.4,4.1-10.5,4.2
	c-5.7,0-11.5-0.1-17.2,0c-4.9,0.1-9-1.6-12.5-5C606.1,131.6,570.4,95.9,534.9,60c-2.5-2.5-4.3-6.7-4.4-10.3c-0.6-11-0.4-22-0.1-33
	c0.1-2.6,1.4-5.7,3.1-7.7c2.6-3,7.3-2.3,11,1.3c5.1,4.9,10.1,10.1,15.1,15.1c33.6,34,67.1,67.9,100.7,101.9
	C661,128,661.7,128.6,663.5,130.2z"/>
<path class="st0" d="M938.6,163.8c4-4.9,7.9-9.5,11.8-14.2c20.2-24.5,40.3-49,60.4-73.5c1.5-1.8,3.1-3.6,4.7-5.3
	c2.4-2.5,5.3-3.5,8.8-3.4c7.4,0.1,14.7-0.1,22.1,0.1c3.9,0.1,7.9,0.4,9.8,4.8c1.8,4.2,0.2,7.6-2.5,11
	c-31.2,38.2-62.4,76.4-93.5,114.6c-1.4,1.7-2.2,4.2-2.2,6.4c-0.2,16.2-0.1,32.5-0.1,48.7c0,8.2-3.1,11.3-11.2,11.3
	c-5.9,0-11.7,0-17.6,0c-7,0-10.7-3.6-10.7-11c-0.1-14.5-0.3-29,0.1-43.5c0.2-6.7-1.7-11.7-5.9-16.9c-29.8-36.3-59.3-72.8-88.9-109.2
	c-1.5-1.8-3-3.8-3.6-6c-1.4-5.4,2.4-10,8.9-10.2c8.6-0.3,17.3-0.6,25.8,0.2c3.2,0.3,6.8,3.2,9,5.9c17.1,20.4,33.9,41,50.8,61.5
	c7.3,8.9,14.6,17.7,22,26.6C937,162.4,937.7,162.9,938.6,163.8z"/>
<path class="st2" d="M119.9,107.8c17.7,0,35.5,0.1,53.2,0c15-0.1,33.3,12.3,38.6,30c1.2,3.9,2.1,8.1,2.1,12.1
	c0.2,14.3,2,28.8-1.7,42.9c-4.8,18.2-23.1,32-41.9,32c-35.1,0-70.2-0.1-105.3,0.1c-3.7,0-4.9-0.9-4.9-4.8c0.2-36.3,0.1-72.5,0-108.8
	c0-3.3,1-3.9,4-3.8c18.6,0.1,37.2,0.1,55.9,0.1C119.9,107.7,119.9,107.8,119.9,107.8z"/>
</svg>
