<?xml version="1.0" encoding="utf-8"?>
<!-- Generator: Adobe Illustrator 25.2.1, SVG Export Plug-In . SVG Version: 6.00 Build 0)  -->
<svg version="1.1" id="Layer_1" xmlns="http://www.w3.org/2000/svg" xmlns:xlink="http://www.w3.org/1999/xlink" x="0px" y="0px"
	 viewBox="0 0 100 100" style="enable-background:new 0 0 100 100;" xml:space="preserve">
<style type="text/css">
	.st0{fill:#FFFFFF;}
</style>
<g>
	<path class="st0" d="M58.5,85.9c2.1-6.3,16.9-24.3,26.4-27.5C89.1,69,94.4,88,91.2,91.2C88,94.4,63.7,88,58.5,85.9z"/>
	<path class="st0" d="M85.9,58.5c2.1-1.1,5.3-3.2,9.5,1.1c2.1,2.1,4.2,29.6-2.1,30.6C93.3,84.9,92.3,69,85.9,58.5z"/>
	<path class="st0" d="M73.6,36.2c-0.1,0-0.2,0.1-0.3,0.1c-0.6,0.3-1.2,0.7-1.7,1.1c-0.2,0.2-0.5,0.4-0.6,0.7
		c-0.4,0.1-0.8,0.2-1.4,0.4c-0.3-0.5-0.4-1.1-0.4-1.7c0.3-0.4,0.6-0.7,1-1.1c0.7-0.6,1.4-1,2.1-1.4c-0.9-1.2-1.9-2.4-2.9-3.6
		c-0.3,0.1-0.5,0.2-0.8,0.3c-0.6,0.3-1.2,0.6-1.7,1c-0.2,0.2-0.5,0.4-0.6,0.6c-0.4,0-0.8,0.1-1.4,0.4c-0.3-0.5-0.4-1.1-0.3-1.6
		c0.3-0.4,0.6-0.7,1-1c0.7-0.6,1.4-1,2.2-1.3c0,0,0.1,0,0.1-0.1c-1-1.2-2.2-2.4-3.3-3.7c-0.5,0.4-1,0.9-1.5,1.4l-0.8,0.8
		c-0.5,0-1,0.1-1.6-0.1c0.1-0.6,0.1-1,0.2-1.5c0.3-0.2,0.5-0.5,0.8-0.7c0.5-0.5,1-1,1.5-1.4c-1.3-1.3-2.6-2.6-3.9-3.9c0,0,0,0,0,0
		c-0.6,0.3-1,0.7-1.4,1.1c-0.2,0.2-0.3,0.5-0.4,0.7c-0.4,0.1-0.8,0.3-1.3,0.6c-0.4-0.4-0.5-1-0.6-1.5c0.2-0.4,0.4-0.8,0.7-1.2
		c0.4-0.5,0.9-1,1.5-1.3c-1.3-1.2-2.6-2.4-4-3.6c-0.5,0.2-0.9,0.4-1.3,0.7c-0.2,0.2-0.4,0.4-0.6,0.7c-0.4,0.1-0.8,0.3-1.3,0.7
		c-0.4-0.5-0.5-1.1-0.5-1.7c0.3-0.5,0.6-0.9,1-1.2c0.3-0.2,0.6-0.4,0.9-0.6c-1.1-0.9-2.1-1.7-3.2-2.5c-0.5,0.3-1,0.6-1.4,0.9
		c-0.3,0.2-0.6,0.5-0.8,0.8c-0.5,0.1-0.9,0.2-1.5,0.4c-0.2-0.6-0.2-1.2-0.1-1.8c0.3-0.4,0.7-0.7,1.1-1c0.3-0.2,0.6-0.4,0.9-0.6
		c-0.8-0.6-1.6-1.2-2.4-1.7c-0.5,0.2-1,0.4-1.4,0.7c-0.3,0.2-0.5,0.4-0.7,0.6c-0.4,0-0.8,0.1-1.4,0.3c-0.3-0.5-0.3-1.1-0.2-1.7
		C41.2,7.3,41.6,7,42,6.7c0.1-0.1,0.3-0.2,0.4-0.3c-2.9-1.8-5.7-3.2-8.3-4C20.3,9.3,14.5,13.1,2.5,33.1c2.1,7.4,7.4,29.6,43.3,46.5
		c2.1-9.5,15.8-26.4,32.7-33.8C78.5,43.9,76.7,40.4,73.6,36.2z"/>
	<path class="st0" d="M89.1,94.4C7.8,80.6,1.4,32,1.4,32s-3.2,25.4,25.4,48.6C56.3,103.9,95.2,95.4,89.1,94.4z"/>
	<path class="st0" d="M1.9,24.6C3.5,14.6,4.3,10.9,8,7.4c4.9-4.9,10.6-5.1,20.1-5.6C14.4,5.1,5.4,16.8,1.9,24.6z"/>
	<path class="st0" d="M36.3,2.5c2.4,1.2,4.6,2.4,6.8,3.7c0.4-0.2,0.9-0.4,1.3-0.5c0.8-0.3,1.6-0.4,2.5-0.5C47.3,5,47.7,5,48.1,5
		c0.4,0.3,0.9,0.6,1.2,1l-1.1,1.1c-0.4,0-0.7,0.1-1.1,0.1c-0.6,0.1-1.2,0.2-1.7,0.4C46.2,8,47,8.5,47.8,9c0.2-0.1,0.5-0.3,0.7-0.4
		c0.9-0.4,1.8-0.7,2.8-0.8c0.5-0.1,1-0.1,1.5,0c0.5,0.4,0.9,0.8,1.2,1.3c-0.6,0.2-1,0.5-1.4,0.8c-0.3,0-0.7,0-1.1,0
		c-0.6,0.1-1.1,0.2-1.7,0.4c1.2,0.8,2.3,1.6,3.4,2.4c0.1,0,0.3-0.1,0.4-0.1c0.9-0.3,1.8-0.4,2.7-0.5c0.4,0,0.9-0.1,1.3-0.1
		c0.4,0.3,0.9,0.6,1.3,1c-0.4,0.4-0.8,0.7-1.2,1.1c-0.4,0-0.8,0-1.2,0.1c-0.4,0-0.8,0.1-1.1,0.1c1.4,1.1,2.7,2.1,3.9,3.2
		c0.4-0.1,0.8-0.3,1.2-0.4c0.4-0.1,0.8-0.2,1.2-0.2c0.4,0.3,0.9,0.5,1.2,1l-1,1.1c-0.3,0-0.5,0.1-0.8,0.1c1.3,1.2,2.4,2.3,3.5,3.4
		c0.2-0.1,0.5-0.3,0.8-0.3c0.4-0.2,0.9-0.3,1.3-0.3c0.5,0.3,0.9,0.6,1.2,1c-0.4,0.4-0.7,0.7-1,1.1c-0.3,0-0.5,0.1-0.8,0.2
		c1.3,1.4,2.5,2.8,3.5,4.1c0.1,0,0.1,0,0.2-0.1c0.4-0.1,0.8-0.2,1.2-0.2c0.5,0.3,0.9,0.5,1.3,0.9l-1,1.2c-0.1,0-0.2,0-0.3,0.1
		c0.9,1.2,1.8,2.4,2.5,3.5c0.3-0.1,0.7-0.2,1-0.3c0.4-0.1,0.9-0.2,1.3-0.2c0.5,0.3,0.9,0.6,1.3,1c-0.4,0.4-0.8,0.7-1.1,1.1
		c-0.3,0-0.7,0.1-1,0.2c-0.1,0-0.2,0.1-0.3,0.1c3.2,5.2,4.4,8.9,4.7,9.5c4-1.1,7.9-1.6,11.2,0.9C74.8,7.8,40,1.6,36.3,2.5z"/>
</g>
</svg>
