<?xml version="1.0" encoding="utf-8"?>
<!-- Generator: Adobe Illustrator 25.2.1, SVG Export Plug-In . SVG Version: 6.00 Build 0)  -->
<svg version="1.1" id="Layer_1" xmlns="http://www.w3.org/2000/svg" xmlns:xlink="http://www.w3.org/1999/xlink" x="0px" y="0px"
	 viewBox="0 0 100 100" style="enable-background:new 0 0 100 100;" xml:space="preserve">
<style type="text/css">
	.st0{fill:#FFFFFF;}
</style>
<path class="st0" d="M90.6,42.2c0-2.1-1.4-3.9-3.4-4.5c-0.8-6.8-3.5-13.3-7.7-18.6c1-1.8,0.7-4.1-0.8-5.6c-1.5-1.4-3.8-1.7-5.6-0.7
	C67.8,8.5,61.3,5.8,54.5,5c-0.7-2.5-3.2-3.9-5.7-3.3c-1.6,0.4-2.8,1.7-3.3,3.3c-6.8,0.8-13.3,3.5-18.7,7.7c-1.8-1-4.1-0.7-5.6,0.7
	c-1.5,1.5-1.8,3.8-0.8,5.6c-4.2,5.4-6.9,11.8-7.7,18.6c-2.5,0.7-3.9,3.2-3.3,5.7c0.4,1.6,1.7,2.8,3.3,3.3c0.8,6.8,3.5,13.3,7.7,18.6
	c-1.3,2.2-0.5,5.1,1.7,6.4c1.4,0.8,3.2,0.8,4.7,0c2.7,2.1,5.6,3.8,8.7,5.2l-4,12.2h-3.5c-2.6,0-4.7,2.1-4.7,4.7v3.1
	c0,0.9,0.7,1.6,1.6,1.6h50c0.9,0,1.6-0.7,1.6-1.6v-3.1c0-2.6-2.1-4.7-4.7-4.7h-3.6l-3.9-12.2c3.1-1.3,6.1-3,8.8-5.2
	c2.2,1.3,5.1,0.5,6.4-1.7c0.8-1.4,0.8-3.2,0-4.7c4.2-5.4,6.9-11.8,7.7-18.6C89.2,46.1,90.6,44.3,90.6,42.2z M77.1,63.3
	c-1.2-0.4-2.5-0.4-3.7,0.1l-7-7c3.1-3.5,5-8,5.3-12.7h9.7c0.4,1.2,1.4,2.2,2.5,2.7C83.3,52.6,80.9,58.4,77.1,63.3z M54.3,76.3
	c-0.5-1.2-1.5-2.1-2.7-2.5v-9.9c1.7-0.1,3.4-0.4,5-0.9l3.9,12C58.5,75.6,56.4,76,54.3,76.3L54.3,76.3z M45.7,76.3
	c-2.1-0.3-4.2-0.7-6.2-1.3l3.9-12.1c1.6,0.5,3.3,0.8,5,1v9.9C47.2,74.2,46.2,75.1,45.7,76.3L45.7,76.3z M26.6,63.4
	c-1.2-0.5-2.5-0.6-3.7-0.1c-3.8-4.9-6.2-10.7-7-16.8c1.2-0.5,2.1-1.5,2.5-2.7h9.9c0.3,4.7,2.2,9.1,5.3,12.6L26.6,63.4z M24.6,21.5
	c0.7,0,1.4-0.2,2-0.5l7,7c-3.1,3.6-4.9,8-5.2,12.7h-9.9c-0.4-1.2-1.3-2.2-2.5-2.7c0.8-6.1,3.2-11.9,6.9-16.8
	C23.4,21.3,24,21.5,24.6,21.5z M48.4,10.6v9.7c-4.7,0.4-9.1,2.2-12.7,5.3l-6.9-6.9c0.6-1.2,0.6-2.5,0.1-3.7
	c4.9-3.8,10.6-6.2,16.8-6.9C46.2,9.3,47.2,10.2,48.4,10.6z M54.3,8.1c6.1,0.8,11.9,3.2,16.8,6.9c-0.5,1.2-0.4,2.6,0.1,3.7l-6.9,6.9
	c-3.6-3.1-8.1-4.9-12.8-5.3v-9.7C52.8,10.2,53.8,9.3,54.3,8.1L54.3,8.1z M77.1,21.1c3.8,4.9,6.2,10.6,6.9,16.8
	c-1.2,0.5-2.1,1.5-2.5,2.7h-9.7c-0.3-4.7-2.2-9.2-5.3-12.8l6.9-6.9C74.6,21.6,75.9,21.6,77.1,21.1L77.1,21.1z M59.2,40.6
	c-0.2-1.4-0.8-2.7-1.6-3.9l6.7-6.7c2.5,3,4,6.7,4.3,10.6H59.2z M50,48.4c-0.6,0-1.2-0.1-1.8-0.3l1.3-4c0.1-0.3,0.5-0.4,0.8-0.3
	c0.1,0.1,0.3,0.2,0.3,0.3l1.3,4C51.2,48.3,50.6,48.4,50,48.4z M40.8,40.6h-9.3c0.3-3.8,1.8-7.5,4.3-10.5l6.6,6.6
	C41.5,37.9,41,39.2,40.8,40.6L40.8,40.6z M54.6,46.4l-1-3.2c-0.6-1.9-2.7-3-4.7-2.4c-1.1,0.4-2,1.3-2.4,2.4l-1,3.2
	c-2.4-2.5-2.2-6.5,0.3-8.8c2.5-2.4,6.5-2.2,8.8,0.3C56.8,40.3,56.8,44,54.6,46.4z M55.4,34.6c-1.1-0.8-2.5-1.4-3.9-1.6v-9.4
	c3.9,0.3,7.6,1.8,10.6,4.3L55.4,34.6z M48.4,33c-1.4,0.2-2.7,0.8-3.9,1.6L38,27.9c2.9-2.5,6.6-4.1,10.5-4.4V33z M31.5,43.8h9.3
	c0.2,1.4,0.8,2.7,1.6,3.9l-6.5,6.5C33.4,51.2,31.8,47.6,31.5,43.8z M44.2,50.2l-2.7,8.5c-1.2-0.6-2.4-1.4-3.4-2.3L44.2,50.2z
	 M47.2,51.1c0.4,0.1,0.8,0.2,1.2,0.3v9.3c-1.4-0.1-2.7-0.4-4.1-0.8L47.2,51.1z M50,76.6c0.9,0,1.6,0.7,1.6,1.6s-0.7,1.6-1.6,1.6
	s-1.6-0.7-1.6-1.6S49.1,76.6,50,76.6z M51.6,60.7v-9.3c0.4-0.1,0.8-0.2,1.2-0.3l2.8,8.8C54.3,60.3,52.9,60.6,51.6,60.7L51.6,60.7z
	 M55.8,50.2l6.2,6.2c-1.1,0.9-2.2,1.7-3.5,2.3L55.8,50.2z M57.6,47.6c0.8-1.1,1.4-2.5,1.6-3.9h9.4c-0.3,3.9-1.9,7.5-4.4,10.5
	L57.6,47.6z M85.9,43.8c-0.9,0-1.6-0.7-1.6-1.6c0-0.9,0.7-1.6,1.6-1.6c0.4,0,0.8,0.2,1.1,0.5c0.3,0.3,0.5,0.7,0.5,1.1
	C87.5,43.1,86.8,43.8,85.9,43.8z M74.3,15.7c0.6-0.6,1.6-0.7,2.2-0.1c0.6,0.6,0.7,1.6,0.1,2.2c0,0,0,0-0.1,0.1
	c-0.6,0.6-1.6,0.6-2.2,0C73.7,17.3,73.7,16.3,74.3,15.7L74.3,15.7z M50,4.7c0.9,0,1.6,0.7,1.6,1.6S50.9,7.8,50,7.8s-1.6-0.7-1.6-1.6
	S49.1,4.7,50,4.7z M23.5,15.7c0.6-0.6,1.6-0.6,2.2,0l0,0c0.6,0.6,0.6,1.6,0,2.2c-0.6,0.6-1.6,0.6-2.2,0
	C22.9,17.3,22.9,16.3,23.5,15.7L23.5,15.7z M14.1,40.6c0.9,0,1.6,0.7,1.6,1.6s-0.7,1.6-1.6,1.6s-1.6-0.7-1.6-1.6
	C12.5,41.3,13.2,40.6,14.1,40.6C14,40.6,14.1,40.6,14.1,40.6z M23.5,68.7c-0.6-0.6-0.6-1.6,0-2.2l0,0c0.6-0.6,1.6-0.7,2.2-0.1
	c0.6,0.6,0.7,1.6,0.1,2.2c0,0,0,0-0.1,0.1C25.1,69.3,24.1,69.3,23.5,68.7L23.5,68.7z M28.9,69.3c0.5-1.2,0.4-2.6-0.1-3.7l7-7
	c1.4,1.2,3,2.3,4.7,3.1l-3.9,12.2C33.8,72.7,31.3,71.2,28.9,69.3L28.9,69.3z M73.4,93.8v1.6H26.6v-1.6c0-0.9,0.7-1.6,1.6-1.6h43.8
	C72.7,92.2,73.4,92.9,73.4,93.8z M65,89.1H35l3.6-11.2c2.3,0.7,4.6,1.2,7,1.5c0.7,2.5,3.3,3.9,5.7,3.2c1.6-0.4,2.8-1.7,3.2-3.2
	c2.4-0.3,4.7-0.8,7-1.5L65,89.1z M59.5,61.7c1.7-0.8,3.3-1.9,4.7-3.1l7,7c-0.6,1.2-0.6,2.5-0.1,3.7c-2.3,1.8-4.9,3.3-7.6,4.5
	L59.5,61.7z M76.5,68.7c-0.6,0.6-1.6,0.6-2.2,0c-0.6-0.6-0.6-1.6,0-2.2c0.6-0.6,1.6-0.6,2.2,0l0,0C77.1,67.1,77.1,68.1,76.5,68.7z"
	/>
</svg>
