<?xml version="1.0" encoding="utf-8"?>
<!-- Generator: Adobe Illustrator 25.2.1, SVG Export Plug-In . SVG Version: 6.00 Build 0)  -->
<svg version="1.1" id="Layer_1" xmlns="http://www.w3.org/2000/svg" xmlns:xlink="http://www.w3.org/1999/xlink" x="0px" y="0px"
	 viewBox="0 0 100 100" style="enable-background:new 0 0 100 100;" xml:space="preserve">
<style type="text/css">
	.st0{fill:#FFFFFF;}
</style>
<path class="st0" d="M30.5,35.5h-0.2c-0.1,0-0.1,0-0.2,0c-2.1-1.5-5-1.5-7.1,0c-0.1,0.1-0.2,0.1-0.3,0c-0.1-0.1-0.2-0.2-0.2-0.3
	v-2.1c0-0.1,0-0.2,0.1-0.2c2.3-1.6,5.4-1.6,7.7-0.1l0,0c0.2,0,0.3,0.1,0.3,0.3v2.1c0,0.1,0,0.2-0.1,0.2
	C30.6,35.5,30.6,35.5,30.5,35.5z M26.7,33.8c1.2,0,2.5,0.4,3.5,1v-1.3c-2.1-1.5-4.9-1.5-7-0.1v1.3C24.3,34.1,25.4,33.8,26.7,33.8z"
	/>
<path class="st0" d="M30.5,33.5h-0.1c-0.1,0-0.1,0-0.2-0.1c-2.1-1.5-5-1.5-7.1,0c-0.1,0.1-0.2,0.1-0.3,0c-0.1-0.1-0.2-0.2-0.2-0.3
	v-2c0-0.1,0-0.2,0.1-0.2c2.3-1.6,5.4-1.6,7.7-0.1l0,0c0.2,0,0.3,0.1,0.3,0.3v2.1c0,0.1,0,0.2-0.1,0.2C30.6,33.4,30.5,33.5,30.5,33.5
	z M26.7,31.7c1.2,0,2.4,0.4,3.5,1v-1.3c-2.1-1.4-4.8-1.5-6.9-0.1v1.3C24.3,32,25.5,31.7,26.7,31.7z"/>
<path class="st0" d="M30.5,31.4h-0.1c-0.1,0-0.1,0-0.2,0c-2.1-1.5-5-1.5-7.1,0c-0.1,0.1-0.2,0.1-0.3,0c-0.1-0.1-0.2-0.2-0.2-0.3V29
	c0-0.1,0-0.2,0.1-0.3c2.3-1.6,5.4-1.6,7.7-0.1c0.2,0,0.3,0.1,0.3,0.3v2.1c0,0.1,0,0.2-0.1,0.2C30.6,31.3,30.5,31.4,30.5,31.4z
	 M26.7,29.6c1.2,0,2.4,0.4,3.5,1v-1.4c-2.1-1.4-4.8-1.4-6.9-0.1v1.3C24.3,29.9,25.5,29.6,26.7,29.6z"/>
<path class="st0" d="M30.5,37.6h-0.2c-0.1,0-0.1,0-0.2,0c-2.1-1.5-5-1.5-7.1,0c-0.1,0.1-0.2,0.1-0.3,0c-0.1-0.1-0.2-0.2-0.2-0.3
	v-2.1c0-0.1,0-0.2,0.1-0.2c2.3-1.6,5.4-1.6,7.7-0.1h0.1c0.2,0,0.3,0.1,0.3,0.3l0,0v2.1c0,0.1,0,0.2-0.1,0.2
	C30.7,37.6,30.6,37.6,30.5,37.6z M26.7,35.8c1.3,0,2.5,0.3,3.5,1v-1.3l0,0c-2.1-1.5-4.9-1.5-7-0.1v1.3
	C24.3,36.2,25.5,35.9,26.7,35.8z"/>
<path class="st0" d="M30.6,39.7h-0.2c-0.1,0-0.1,0-0.2,0c-2.1-1.5-5-1.5-7.1,0c-0.1,0.1-0.2,0.1-0.3,0c-0.1-0.1-0.2-0.2-0.2-0.3
	v-2.1c0-0.1,0-0.2,0.1-0.2c2.3-1.6,5.4-1.6,7.7,0h0.1c0.2,0,0.3,0.1,0.3,0.3l0,0v2.1c0,0.1,0,0.2-0.1,0.2
	C30.7,39.7,30.6,39.7,30.6,39.7z M26.7,37.9c1.3,0,2.5,0.3,3.6,1v-1.3l0,0c-2.1-1.5-4.9-1.5-7-0.1v1.3
	C24.3,38.2,25.5,37.9,26.7,37.9z"/>
<path class="st0" d="M30.6,41.8h-0.2c-0.1,0-0.1,0-0.2,0c-2.1-1.5-5-1.5-7.1,0c-0.1,0.1-0.2,0.1-0.3,0c-0.1-0.1-0.2-0.2-0.2-0.3
	v-2.1c0-0.1,0-0.2,0.1-0.3c2.3-1.6,5.4-1.6,7.7-0.1h0.1c0.2,0,0.3,0.1,0.3,0.3v2.1C30.9,41.6,30.7,41.8,30.6,41.8L30.6,41.8
	L30.6,41.8z M26.7,40c1.3,0,2.5,0.3,3.6,1v-1.3h-0.1c-2.1-1.5-4.9-1.5-7-0.1v1.3C24.3,40.3,25.4,40,26.7,40z"/>
<path class="st0" d="M30.6,43.8h-0.3c-0.1,0-0.1,0-0.2,0c-2.1-1.5-5-1.5-7.1,0c-0.1,0.1-0.2,0.1-0.3,0c-0.1-0.1-0.2-0.2-0.2-0.3
	v-2.1c0-0.1,0-0.2,0.1-0.2c2.3-1.6,5.4-1.6,7.7-0.1h0.1c0.2,0,0.3,0.1,0.3,0.3c0,0,0,0,0,0v2.1c0,0.1,0,0.2-0.1,0.2
	C30.8,43.8,30.7,43.8,30.6,43.8z M26.7,42c1.3,0,2.5,0.4,3.6,1.1v-1.4c0,0-0.1,0-0.1,0c-2.1-1.5-4.9-1.5-7-0.1V43
	C24.2,42.4,25.4,42.1,26.7,42z"/>
<path class="st0" d="M30.6,45.9h-0.3c-0.1,0-0.1,0-0.2,0c-2.1-1.5-5-1.5-7.1,0c-0.1,0.1-0.2,0.1-0.3,0c-0.1-0.1-0.2-0.2-0.2-0.3
	v-2.1c0-0.1,0-0.2,0.1-0.2c2.3-1.6,5.4-1.6,7.7-0.1h0.2c0.2,0,0.3,0.1,0.3,0.3c0,0,0,0,0,0v2.1c0,0.1,0,0.2-0.1,0.2
	C30.8,45.9,30.7,45.9,30.6,45.9z M26.6,44.1c1.3,0,2.6,0.4,3.7,1.1v-1.4c0,0-0.1,0-0.1,0c-2.1-1.5-4.9-1.5-7-0.1V45
	C24.2,44.4,25.4,44.1,26.6,44.1L26.6,44.1z"/>
<path class="st0" d="M30.4,25.2L30.4,25.2c-0.1,0-0.1,0-0.2-0.1c-2.1-1.5-5-1.5-7.1,0c-0.1,0.1-0.2,0.1-0.3,0
	c-0.1-0.1-0.2-0.2-0.2-0.3v-2.1c0-0.1,0-0.2,0.1-0.2c2.4-1.6,5.5-1.6,7.8,0c0.1,0.1,0.1,0.1,0.1,0.2v2.1c0,0.1,0,0.2-0.1,0.2
	C30.5,25.2,30.5,25.2,30.4,25.2z M26.7,23.4c1.2,0,2.4,0.3,3.4,0.9V23c-2.1-1.4-4.8-1.4-6.8,0v1.4C24.3,23.8,25.5,23.4,26.7,23.4z"
	/>
<path class="st0" d="M38.4,25.2h-0.2c-0.1,0-0.1,0-0.2-0.1c-2.1-1.5-5-1.5-7.1,0c-0.1,0-0.1,0.1-0.2,0.1h-0.5
	c-0.2,0-0.3-0.1-0.3-0.3c0,0,0,0,0,0v-2.1c0-0.1,0-0.2,0.1-0.2c0.1-0.1,0.1-0.1,0.2-0.1h0.4c2.3-1.5,5.3-1.5,7.7,0l0,0
	c0.2,0,0.3,0.1,0.3,0.3v2.1c0,0.1,0,0.2-0.1,0.2C38.6,25.2,38.5,25.2,38.4,25.2z M30.7,24.6L30.7,24.6c2.2-1.5,5.1-1.5,7.4-0.2v-1.3
	c-2.1-1.5-5-1.5-7.1,0c-0.1,0-0.1,0.1-0.2,0.1h-0.2L30.7,24.6z"/>
<path class="st0" d="M38.8,25.2h-0.3c-0.2,0-0.3-0.1-0.3-0.3v-2.1c0-0.1,0-0.2,0.1-0.2c0.1-0.1,0.1-0.1,0.2-0.1h0.2
	c2.4-1.5,5.4-1.5,7.7,0.1c0.1,0.1,0.2,0.2,0.2,0.3v2.1c0,0.1-0.1,0.2-0.2,0.3c-0.1,0.1-0.2,0.1-0.3,0c-2.1-1.5-5-1.5-7.1,0
	C38.9,25.2,38.8,25.2,38.8,25.2z M38.8,23.1v1.4c2.2-1.4,4.9-1.4,7.2-0.2V23c-2.1-1.4-4.9-1.4-7,0.1C38.9,23.1,38.9,23.1,38.8,23.1
	L38.8,23.1z"/>
<path class="st0" d="M38.8,27.3h-0.3c-0.2,0-0.3-0.1-0.3-0.3l0,0v-2.1c0-0.1,0-0.2,0.1-0.2c0.1-0.1,0.1-0.1,0.2-0.1h0.2
	c2.3-1.5,5.4-1.5,7.7,0c0.1,0.1,0.1,0.2,0.2,0.3v2.1c0,0.1-0.1,0.2-0.2,0.3c-0.1,0.1-0.2,0.1-0.3,0c-2.1-1.5-5-1.5-7.1,0
	C38.9,27.3,38.8,27.3,38.8,27.3z M38.8,25.2v1.4c2.2-1.4,4.9-1.5,7.1-0.2V25c-2.1-1.4-4.9-1.4-7,0.1C38.9,25.1,38.8,25.1,38.8,25.2
	L38.8,25.2z"/>
<path class="st0" d="M38.8,29.3h-0.3c-0.2,0-0.3-0.1-0.3-0.3v-2c0-0.1,0-0.2,0.1-0.2c0.1-0.1,0.1-0.1,0.2-0.1h0.2
	c2.4-1.5,5.4-1.5,7.7,0c0.1,0.1,0.1,0.2,0.2,0.3v2c0,0.1-0.1,0.2-0.2,0.3c-0.1,0.1-0.2,0.1-0.3,0c-2.1-1.5-5-1.5-7.1,0
	C38.9,29.3,38.8,29.3,38.8,29.3z M38.8,27.3v1.4c2.2-1.4,4.9-1.4,7.1-0.2v-1.3c-2.1-1.4-4.8-1.3-6.9,0.1
	C38.9,27.2,38.9,27.3,38.8,27.3z"/>
<path class="st0" d="M38.8,31.4h-0.3c-0.2,0-0.3-0.1-0.3-0.3c0,0,0,0,0,0V29c0-0.1,0-0.2,0.1-0.2c0.1-0.1,0.1-0.1,0.2-0.1h0.2
	c2.4-1.5,5.4-1.5,7.7,0c0.1,0.1,0.1,0.2,0.2,0.3v2.1c0,0.1-0.1,0.2-0.2,0.3c-0.1,0.1-0.2,0.1-0.3,0c-2.1-1.5-5-1.5-7.1,0
	C38.9,31.4,38.8,31.4,38.8,31.4z M38.8,29.3v1.4c2.2-1.3,4.9-1.4,7.1-0.2v-1.3c-2.1-1.4-4.9-1.4-7,0.1
	C38.9,29.3,38.8,29.3,38.8,29.3L38.8,29.3z"/>
<path class="st0" d="M38.5,31.4h-0.2c-0.1,0-0.1,0-0.2,0c-2.1-1.5-5-1.5-7.1,0c-0.1,0-0.1,0.1-0.2,0.1h-0.4c-0.2,0-0.3-0.1-0.3-0.3
	c0,0,0,0,0,0v-2.1c0-0.1,0-0.2,0.1-0.2c0.1-0.1,0.1-0.1,0.2-0.1h0.3c2.3-1.5,5.3-1.5,7.7,0h0.1c0.2,0,0.3,0.1,0.3,0.3l0,0v2.1
	c0,0.1,0,0.2-0.1,0.2C38.7,31.4,38.6,31.4,38.5,31.4z M30.8,29.3v1.4c2.2-1.4,5.1-1.5,7.4-0.1v-1.3l0,0c-2.1-1.5-5-1.5-7.1,0
	c-0.1,0-0.1,0.1-0.2,0.1L30.8,29.3z"/>
<path class="st0" d="M30.4,29.3L30.4,29.3c-0.1,0-0.2,0-0.2,0c-2.1-1.5-5-1.5-7.1,0c-0.1,0.1-0.2,0.1-0.3,0
	c-0.1-0.1-0.2-0.2-0.2-0.3v-4.2c0-0.1,0-0.2,0.1-0.2c2.4-1.6,5.4-1.6,7.8,0c0.1,0,0.2,0.2,0.2,0.3V29c0,0.1,0,0.2-0.1,0.2
	C30.6,29.3,30.5,29.3,30.4,29.3z M26.7,27.5c1.2,0,2.4,0.3,3.5,1l0-3.4c-2.1-1.4-4.8-1.4-6.9,0v3.4C24.3,27.9,25.5,27.6,26.7,27.5z"
	/>
<path class="st0" d="M38.8,33.5h-0.3c-0.2,0-0.3-0.1-0.3-0.3c0,0,0,0,0,0v-2.1c0-0.1,0-0.2,0.1-0.2c0.1-0.1,0.1-0.1,0.2-0.1h0.2
	c2.4-1.5,5.4-1.5,7.7,0c0.1,0.1,0.1,0.2,0.2,0.3v2.1c0,0.1-0.1,0.2-0.2,0.3c-0.1,0.1-0.2,0.1-0.3,0c-2.1-1.5-5-1.5-7.1,0
	C38.9,33.5,38.8,33.5,38.8,33.5z M38.8,31.4v1.4c2.2-1.3,4.9-1.4,7.1-0.2v-1.3c-2.1-1.4-4.9-1.4-7,0.1
	C38.9,31.4,38.8,31.4,38.8,31.4L38.8,31.4z"/>
<path class="st0" d="M38.8,37.6h-0.2c-0.2,0-0.3-0.1-0.3-0.3c0,0,0,0,0,0v-2.1c0-0.1,0-0.2,0.1-0.2c0.1-0.1,0.1-0.1,0.2-0.1h0.2
	c2.3-1.5,5.4-1.5,7.7,0c0.1,0.1,0.1,0.2,0.2,0.3v2.1c0,0.1-0.1,0.2-0.2,0.3c-0.1,0.1-0.2,0.1-0.3,0c-2.1-1.5-5-1.5-7.1,0
	C38.9,37.6,38.8,37.6,38.8,37.6z M38.8,35.5v1.3c2.2-1.3,4.9-1.4,7.1-0.1v-1.3C43.8,34,41,34,39,35.5C38.9,35.5,38.9,35.5,38.8,35.5
	z"/>
<path class="st0" d="M38.8,39.7h-0.2c-0.2,0-0.3-0.1-0.3-0.3c0,0,0,0,0,0v-2.1c0-0.2,0.1-0.3,0.3-0.3c0,0,0,0,0,0h0.1
	c2.3-1.5,5.4-1.5,7.7,0c0.1,0.1,0.1,0.2,0.2,0.3v2.1c0,0.1-0.1,0.2-0.2,0.3c-0.1,0.1-0.2,0.1-0.3,0c-2.1-1.5-5-1.5-7.1,0
	C38.9,39.7,38.8,39.7,38.8,39.7z M38.9,37.6v1.3c2.1-1.3,4.8-1.3,7-0.1v-1.3C43.7,36.1,41,36.1,38.9,37.6L38.9,37.6z"/>
<path class="st0" d="M38.8,41.8h-0.2c-0.2,0-0.3-0.1-0.3-0.3c0,0,0,0,0,0v-2.1c0-0.1,0-0.2,0.1-0.2c0.1-0.1,0.1-0.1,0.2-0.1h0.1
	c2.3-1.5,5.4-1.5,7.7,0c0.1,0.1,0.1,0.2,0.2,0.3v2.1c0,0.1-0.1,0.2-0.2,0.3c-0.1,0.1-0.2,0.1-0.3,0c-2.1-1.5-5-1.5-7.1,0
	C38.9,41.7,38.8,41.8,38.8,41.8z M38.9,39.7V41c2.1-1.3,4.8-1.3,7-0.1v-1.3C43.8,38.2,41,38.2,38.9,39.7L38.9,39.7z"/>
<path class="st0" d="M38.8,43.8h-0.2c-0.2,0-0.3-0.1-0.3-0.3c0,0,0,0,0,0v-2.1c0-0.1,0-0.2,0.1-0.2c0.1-0.1,0.1-0.1,0.2-0.1h0.1
	c2.4-1.5,5.4-1.5,7.7,0.1c0.1,0.1,0.2,0.2,0.2,0.3v2.1c0,0.2-0.1,0.3-0.3,0.3c-0.1,0-0.1,0-0.2,0c-2.1-1.5-5-1.5-7.1,0
	C38.9,43.8,38.8,43.8,38.8,43.8z M38.9,41.7v1.3c2.1-1.3,4.8-1.3,7-0.1v-1.3c-2.1-1.4-4.8-1.3-6.9,0.1L38.9,41.7z"/>
<path class="st0" d="M38.8,45.9h-0.2c-0.2,0-0.3-0.1-0.3-0.3c0,0,0,0,0,0v-2.1c0-0.2,0.1-0.3,0.3-0.3c0,0,0,0,0,0h0.1
	c2.3-1.6,5.4-1.6,7.7,0c0.1,0.1,0.1,0.2,0.2,0.3v2.1c0,0.1-0.1,0.2-0.2,0.3c-0.1,0.1-0.2,0.1-0.3,0c-2.1-1.5-5-1.5-7.1,0
	C38.9,45.9,38.8,45.9,38.8,45.9z M38.9,43.8v1.3c2.1-1.3,4.8-1.3,7-0.1v-1.3C43.8,42.3,41,42.3,38.9,43.8L38.9,43.8z"/>
<path class="st0" d="M38.6,45.9h-0.3c-0.1,0-0.1,0-0.2,0c-2.1-1.5-5-1.5-7.1,0C31,46,30.9,46,30.8,46h-0.2c-0.2,0-0.3-0.1-0.3-0.3
	l0,0v-2.1c0-0.1,0-0.2,0.1-0.2c0.1-0.1,0.1-0.1,0.2-0.1h0.1c2.3-1.5,5.3-1.5,7.6,0h0.2c0.2,0,0.3,0.1,0.3,0.3c0,0,0,0,0,0v2.1
	c0,0.1,0,0.2-0.1,0.2C38.8,45.9,38.7,45.9,38.6,45.9z M34.6,44.1c1.3,0,2.6,0.4,3.7,1.1v-1.4c-0.1,0-0.1,0-0.2,0
	c-2.1-1.5-5-1.5-7.1,0h-0.1v1.3C32.1,44.5,33.3,44.1,34.6,44.1z"/>
<path class="st0" d="M38.8,48h-0.2c-0.2,0-0.3-0.1-0.3-0.3c0,0,0,0,0,0v-2.1c0-0.2,0.1-0.3,0.3-0.3c0,0,0,0,0,0h0.1
	c2.3-1.5,5.4-1.5,7.7,0c0.1,0.1,0.1,0.2,0.2,0.3v2.1c0,0.1-0.1,0.2-0.2,0.3c-0.1,0.1-0.2,0.1-0.3,0c-2.1-1.5-5-1.5-7.1,0
	C38.9,47.9,38.8,48,38.8,48z M38.9,45.9v1.3c2.1-1.3,4.8-1.3,7-0.1v-1.4C43.8,44.4,41.1,44.4,38.9,45.9L38.9,45.9z"/>
<path class="st0" d="M38.8,50h-0.1c-0.2,0-0.3-0.1-0.3-0.3c0,0,0,0,0,0v-2.1c0-0.2,0.1-0.3,0.3-0.3c0,0,0,0,0,0h0
	c2.3-1.5,5.4-1.5,7.7,0c0.1,0.1,0.1,0.2,0.2,0.3v2.1c0,0.1-0.1,0.2-0.2,0.3c-0.1,0.1-0.2,0.1-0.3,0c-2.1-1.5-5-1.4-7.1,0
	C38.9,50,38.9,50.1,38.8,50z M38.9,47.9v1.3c2.2-1.3,4.8-1.3,7-0.1v-1.3C43.8,46.4,41.1,46.5,38.9,47.9L38.9,47.9z"/>
<path class="st0" d="M38.7,52.1h-0.4c-0.1,0-0.1,0-0.2,0c-2.1-1.5-5-1.5-7.1,0c-0.1,0-0.1,0.1-0.2,0.1h-0.1c-0.2,0-0.3-0.1-0.3-0.3
	v-2.1c0-0.1,0-0.2,0.1-0.2c0.1-0.1,0.1-0.1,0.2-0.1l0,0c2.3-1.5,5.3-1.5,7.7,0h0.2c0.2,0,0.3,0.1,0.3,0.3c0,0,0,0,0,0v2.1
	C38.9,52,38.8,52.2,38.7,52.1C38.6,52.2,38.6,52.2,38.7,52.1L38.7,52.1z M34.7,50.3c1.3,0,2.6,0.4,3.7,1.1V50c-0.1,0-0.1,0-0.2,0
	c-2.1-1.5-5-1.6-7.2,0l0,0v1.3C32.1,50.7,33.3,50.3,34.7,50.3L34.7,50.3z"/>
<path class="st0" d="M30.7,52.1h-0.4c-0.1,0-0.1,0-0.2,0c-2.1-1.5-5-1.5-7.1,0c-0.1,0.1-0.2,0.1-0.3,0c-0.1-0.1-0.2-0.2-0.2-0.3
	v-2.1c0-0.1,0-0.2,0.1-0.2c2.3-1.6,5.4-1.6,7.7-0.1h0.2c0.2,0,0.3,0.1,0.3,0.3c0,0,0,0,0,0v2.1c0,0.1,0,0.2-0.1,0.2
	C30.9,52.1,30.8,52.1,30.7,52.1z M26.7,50.3c1.3,0,2.6,0.4,3.7,1.1v-1.4c-0.1,0-0.1,0-0.2,0c-2.1-1.5-4.9-1.5-7-0.1v1.3
	C24.3,50.7,25.5,50.4,26.7,50.3z"/>
<path class="st0" d="M30.7,50h-0.3c-0.1,0-0.1,0-0.2,0c-2.1-1.5-5-1.5-7.1,0c-0.1,0.1-0.2,0.1-0.3,0c-0.1-0.1-0.2-0.2-0.2-0.3v-2.1
	c0-0.1,0-0.2,0.1-0.3c2.3-1.6,5.4-1.6,7.7-0.1h0.2c0.2,0,0.3,0.1,0.3,0.3l0,0v2.1C31,49.9,30.9,50,30.7,50
	C30.7,50.1,30.7,50.1,30.7,50L30.7,50z M26.7,48.3c1.3,0,2.6,0.4,3.7,1.1V48c-0.1,0-0.1,0-0.2,0c-2.1-1.5-4.9-1.5-7-0.1v1.3
	C24.3,48.6,25.5,48.3,26.7,48.3L26.7,48.3z"/>
<path class="st0" d="M30.7,48h-0.3c-0.1,0-0.1,0-0.2,0c-2.1-1.5-5-1.5-7.1,0c-0.1,0.1-0.2,0.1-0.3,0c-0.1-0.1-0.2-0.2-0.2-0.3v-2.1
	c0-0.1,0-0.2,0.1-0.2c2.3-1.6,5.4-1.6,7.7-0.1h0.2c0.2,0,0.3,0.1,0.3,0.3v2.1c0,0.1,0,0.2-0.1,0.2C30.8,48,30.7,48,30.7,48z
	 M26.7,46.2c1.3,0,2.6,0.4,3.7,1.1v-1.4c0,0-0.1,0-0.1,0c-2.1-1.5-4.9-1.5-7-0.1v1.3C24.3,46.5,25.5,46.2,26.7,46.2L26.7,46.2z"/>
<path class="st0" d="M38.8,52.1h-0.1c-0.2,0-0.3-0.1-0.3-0.3v-2.1c0-0.1,0-0.2,0.1-0.2c0.1-0.1,0.1-0.1,0.2-0.1l0,0
	c2.3-1.5,5.4-1.5,7.7,0c0.1,0.1,0.1,0.2,0.2,0.3v2.1c0,0.1-0.1,0.2-0.2,0.3c-0.1,0.1-0.2,0.1-0.3,0c-2.1-1.5-5-1.5-7.1,0
	C38.9,52.1,38.8,52.1,38.8,52.1z M39,50v1.3c2.1-1.2,4.8-1.3,7-0.1v-1.3C43.8,48.5,41.1,48.6,39,50z"/>
<path class="st0" d="M38.8,35.5h-0.2c-0.2,0-0.3-0.1-0.3-0.3v-2.1c0-0.1,0-0.2,0.1-0.2c0.1-0.1,0.1-0.1,0.2-0.1h0.2
	c2.4-1.5,5.4-1.5,7.7,0.1c0.1,0.1,0.1,0.2,0.2,0.3v2.1c0,0.1-0.1,0.2-0.2,0.3c-0.1,0.1-0.2,0.1-0.3,0c-2.1-1.5-5-1.5-7.1,0
	C38.9,35.5,38.8,35.6,38.8,35.5z M38.8,33.5v1.3c2.2-1.3,4.9-1.4,7.1-0.1v-1.3c-2.1-1.4-4.9-1.4-7,0.1
	C38.9,33.4,38.8,33.5,38.8,33.5L38.8,33.5z"/>
<path class="st0" d="M30.4,27.3L30.4,27.3l-0.2,0c-2.1-1.5-5-1.5-7.1,0l-0.4-0.5c2.4-1.6,5.5-1.6,7.8,0l-0.1,0.2L30.4,27.3z"/>
<path class="st0" d="M39,50.1h-0.8L38.1,50c-2.1-1.4-4.9-1.4-7,0L31,50.1h-0.6v-2.8h0.4c2.3-1.5,5.3-1.5,7.7,0H39V50.1z M34.6,48.2
	c1.3,0,2.6,0.4,3.7,1.1V48h-0.1h-0.1c-2.1-1.4-4.9-1.4-7,0l0,0v1.2C32.2,48.6,33.4,48.3,34.6,48.2z"/>
<rect x="30.4" y="51.8" transform="matrix(0.9999 -1.274056e-02 1.274056e-02 0.9999 -0.7125 0.3966)" class="st0" width="0.7" height="8.6"/>
<path class="st0" d="M38.8,29.4h-0.7l-0.1-0.1c-2.1-1.4-4.9-1.4-7,0L31,29.4h-0.9v-2.8h0.7c2.3-1.5,5.3-1.5,7.7,0h0.4L38.8,29.4z
	 M30.8,27.3v1.3c2.2-1.4,5.1-1.5,7.3-0.1v-1.2c-2.1-1.4-4.9-1.4-7,0L31,27.3L30.8,27.3z"/>
<path class="st0" d="M38.8,27.3h-0.6l-0.1-0.1c-2.1-1.4-4.9-1.4-7,0L31,27.3h-0.9v-2.8h0.7c2.3-1.5,5.3-1.5,7.7,0h0.4L38.8,27.3z
	 M30.7,25.2v1.3c2.2-1.4,5.1-1.5,7.3-0.2v-1.2c-2.1-1.4-4.9-1.4-7,0L31,25.2L30.7,25.2z"/>
<path class="st0" d="M38.8,35.5h-0.6h-0.1c-2.1-1.5-5-1.5-7.1,0h-0.1h-0.7v-2.6h0.5c2.3-1.5,5.3-1.5,7.6,0h0.4L38.8,35.5z
	 M30.8,33.4v1.5c2.3-1.5,5.2-1.5,7.4,0v-1.4h-0.1c-2.1-1.5-5-1.5-7.1,0H31H30.8z"/>
<path class="st0" d="M38.8,37.6h-0.6l-0.1,0c-2.1-1.5-5-1.5-7.1,0l-0.1,0.1h-0.7V35h0.5c2.3-1.5,5.3-1.5,7.6,0h0.4L38.8,37.6z
	 M30.8,35.5V37c2.3-1.4,5.2-1.4,7.4,0v-1.5l0,0h-0.1c-2.1-1.5-5-1.5-7.1,0H31L30.8,35.5z"/>
<path class="st0" d="M38.8,39.7h-0.6h-0.1c-2.1-1.5-5-1.5-7.1,0l-0.1,0.1h-0.6v-2.6h0.5c2.3-1.5,5.3-1.5,7.6,0h0.5L38.8,39.7z
	 M30.8,37.6V39c2.3-1.4,5.2-1.4,7.4,0v-1.4l0,0l-0.1,0c-2.1-1.5-5-1.5-7.1,0L31,37.6L30.8,37.6z"/>
<path class="st0" d="M38.8,41.7h-0.6h-0.1c-2.1-1.5-5-1.5-7.1,0l-0.1,0.1h-0.6v-2.6h0.5c2.3-1.5,5.3-1.5,7.6,0h0.5L38.8,41.7z
	 M34.6,40c1.3,0,2.6,0.4,3.7,1.1v-1.4h-0.1h-0.1c-2.1-1.5-5-1.5-7.1,0l-0.1,0.1h-0.1v1.4C32,40.4,33.3,40,34.6,40z"/>
<path class="st0" d="M38.9,43.8h-0.7h-0.1c-2.1-1.5-5-1.5-7.1,0h-0.1h-0.6v-2.6h0.4c2.3-1.5,5.3-1.5,7.6,0h0.5L38.9,43.8z
	 M34.6,42.1c1.3,0,2.6,0.4,3.7,1.1v-1.5h-0.1h-0.1c-2.1-1.5-5-1.5-7.1,0l-0.1,0.1v1.4C32,42.5,33.3,42.1,34.6,42.1z"/>
<path class="st0" d="M38.9,48h-0.7l-0.1,0c-2.1-1.5-5-1.5-7.1,0L30.9,48h-0.5v-2.6h0.4c2.3-1.5,5.3-1.5,7.6,0h0.5L38.9,48z
	 M34.6,46.3c1.3,0,2.6,0.4,3.7,1.1v-1.5h-0.1l-0.1,0c-2.1-1.5-5-1.5-7.1,0h-0.1v1.4C32,46.6,33.3,46.2,34.6,46.3L34.6,46.3z"/>
<rect x="38.5" y="51.7" transform="matrix(0.9999 -9.999500e-03 9.999500e-03 0.9999 -0.5583 0.3908)" class="st0" width="0.6" height="8.6"/>
<path class="st0" d="M38.8,33.4h-0.6h-0.1c-2.1-1.5-5-1.5-7.1,0h-0.1h-0.7v-2.6h0.6c2.3-1.5,5.3-1.5,7.6,0h0.4L38.8,33.4z
	 M30.8,31.4v1.5c2.3-1.5,5.2-1.5,7.5-0.1v-1.4l-0.1,0c-2.1-1.5-5-1.5-7.1,0L31,31.4L30.8,31.4z"/>
<path class="st0" d="M25,53h3.2c0.3,0,0.5,0.2,0.5,0.5v1c0,0.3-0.2,0.5-0.5,0.5H25c-0.3,0-0.5-0.2-0.5-0.5v-1
	C24.5,53.2,24.7,53,25,53z"/>
<path class="st0" d="M33,53h3.2c0.3,0,0.5,0.2,0.5,0.5v1c0,0.3-0.2,0.5-0.5,0.5H33c-0.3,0-0.5-0.2-0.5-0.5v-1
	C32.5,53.2,32.7,53,33,53z"/>
<path class="st0" d="M40.9,53h3.2c0.3,0,0.5,0.2,0.5,0.5v1c0,0.3-0.2,0.5-0.5,0.5h-3.2c-0.3,0-0.5-0.2-0.5-0.5v-1
	C40.4,53.2,40.7,53,40.9,53z"/>
<path class="st0" d="M25,55.7h3.2c0.3,0,0.5,0.2,0.5,0.5v1c0,0.3-0.2,0.5-0.5,0.5H25c-0.3,0-0.5-0.2-0.5-0.5v-1
	C24.5,55.9,24.7,55.7,25,55.7z"/>
<path class="st0" d="M33,55.7h3.2c0.3,0,0.5,0.2,0.5,0.5v1c0,0.3-0.2,0.5-0.5,0.5H33c-0.3,0-0.5-0.2-0.5-0.5v-1
	C32.5,55.9,32.7,55.7,33,55.7z"/>
<path class="st0" d="M40.9,55.7h3.2c0.3,0,0.5,0.2,0.5,0.5v1c0,0.3-0.2,0.5-0.5,0.5h-3.2c-0.3,0-0.5-0.2-0.5-0.5v-1
	C40.4,55.9,40.7,55.7,40.9,55.7z"/>
<path class="st0" d="M39.2,22.2L37.7,18h-6.3l-1.5,4.3l-0.4-0.1l1.6-4.5c0-0.1,0.1-0.2,0.2-0.2h6.6c0.1,0,0.2,0.1,0.2,0.2l1.6,4.4
	L39.2,22.2z"/>
<rect x="22.6" y="51.8" class="st0" width="0.7" height="7.8"/>
<rect x="45.9" y="51.8" class="st0" width="0.7" height="7.8"/>
<path class="st0" d="M21,63.1v-2.9l0.1-0.1c2.7-1.6,6-1.6,8.7,0h0.8v2.7h-1h-0.1c-2.5-1.5-5.6-1.5-8.1,0L21,63.1z M29.9,62.1H30
	v-1.4h-0.3h-0.1c-2.5-1.5-5.5-1.5-8-0.1v1.3C24.2,60.6,27.3,60.7,29.9,62.1L29.9,62.1z"/>
<path class="st0" d="M21,67.2v-2.9l0.1-0.1c2.7-1.6,6-1.6,8.7-0.1h0.8V67h-1h-0.1c-2.5-1.5-5.6-1.5-8.1,0L21,67.2z M29.9,66.2H30
	v-1.4h-0.3h-0.1c-2.5-1.4-5.5-1.5-8-0.1v1.3C24.2,64.8,27.3,64.8,29.9,66.2L29.9,66.2z"/>
<path class="st0" d="M21,65.2v-2.9l0.1-0.1c2.7-1.6,6-1.6,8.7-0.1h0.8v2.7h-1h-0.1c-2.5-1.5-5.6-1.5-8.1,0L21,65.2z M29.9,64.2H30
	v-1.4h-0.3h-0.1c-2.5-1.5-5.5-1.5-8-0.1V64C24.2,62.7,27.3,62.8,29.9,64.2L29.9,64.2z"/>
<path class="st0" d="M21,69.3v-2.9l0.1-0.1c2.7-1.6,6-1.6,8.7-0.1h0.8V69h-1h-0.1c-2.5-1.5-5.6-1.5-8.1,0L21,69.3z M29.9,68.3H30V67
	h-0.3h-0.1c-2.5-1.5-5.5-1.5-8-0.1v1.3C24.2,66.9,27.3,66.9,29.9,68.3L29.9,68.3z"/>
<path class="st0" d="M21,71.4v-2.9l0.1-0.1c2.7-1.6,6-1.6,8.7,0h0.8v2.7h-1h-0.1c-2.5-1.5-5.6-1.5-8.1,0L21,71.4z M29.9,70.4H30V69
	h-0.3h-0.1c-2.5-1.5-5.5-1.5-8-0.1v1.3C24.2,68.9,27.3,69,29.9,70.4L29.9,70.4z"/>
<path class="st0" d="M30,71.4v-2.9l0.1-0.1c2.7-1.6,6-1.6,8.7,0h0.4c2.7-1.6,6-1.6,8.7,0l0.2,0.1v2.8l-0.5-0.3
	c-2.5-1.5-5.6-1.5-8.1,0h-0.1h-0.7h-0.1c-2.5-1.5-5.6-1.5-8.1,0L30,71.4z M38.9,70.4h0.4c1.1-0.6,2.4-1,3.8-1.1
	c1.5-0.1,3.1,0.2,4.5,0.9v-1.3C45,67.5,42,67.5,39.5,69L39.5,69h-0.8l-0.1,0c-2.5-1.5-5.5-1.5-8-0.1v1.3
	C33.2,68.9,36.3,69,38.9,70.4L38.9,70.4z"/>
<path class="st0" d="M30,63.1v-2.9l0.1-0.1c0.2-0.1,0.4-0.2,0.5-0.3c2.6-1.3,5.7-1.2,8.2,0.2h0.2v2.7h-0.4h-0.1
	c-2.5-1.5-5.6-1.5-8.1,0L30,63.1z M34.6,61c1.3,0,2.7,0.3,3.9,0.9v-1.3c-2.3-1.3-5.1-1.4-7.5-0.2l-0.3,0.2v1.3
	C31.9,61.3,33.2,61,34.6,61z"/>
<path class="st0" d="M48.1,63.1l-0.5-0.3c-2.5-1.5-5.6-1.5-8.1,0h-0.1h-1v-2.7h0.8c2.7-1.5,6-1.5,8.7,0l0.2,0.1L48.1,63.1z
	 M39.1,62.2h0.1c2.5-1.4,5.6-1.5,8.2-0.2v-1.3c-2.5-1.4-5.5-1.4-7.9,0.1h-0.1h-0.3V62.2z"/>
<path class="st0" d="M48.1,65.1l-0.5-0.3c-2.5-1.5-5.6-1.5-8.1,0h-0.1h-1v-2.7h0.8c2.7-1.6,6.1-1.5,8.8,0l0.2,0.1L48.1,65.1z
	 M39.1,64.2h0.1c2.5-1.4,5.6-1.5,8.2-0.2v-1.3c-2.5-1.4-5.5-1.4-7.9,0.1h-0.1h-0.3L39.1,64.2z"/>
<path class="st0" d="M48.1,67.2l-0.5-0.3c-2.5-1.5-5.6-1.5-8.1,0L39.4,67h-1v-2.8h0.8c2.7-1.5,6-1.5,8.7,0l0.2,0.1L48.1,67.2z
	 M39.1,66.3h0.1c2.5-1.4,5.6-1.5,8.2-0.2v-1.3c-2.5-1.4-5.5-1.4-7.9,0.1h-0.1h-0.3V66.3z"/>
<path class="st0" d="M48.1,69.3L47.6,69c-2.5-1.5-5.6-1.5-8.1,0L39.4,69h-1v-2.8h0.8c2.7-1.5,6-1.5,8.7,0l0.2,0.1L48.1,69.3z
	 M39.1,68.4h0.1c2.5-1.4,5.6-1.5,8.2-0.2v-1.3c-2.5-1.4-5.5-1.4-7.9,0.1L39.4,67h-0.3V68.4z"/>
<path class="st0" d="M26.1,76c-0.1,0-0.2,0-0.2-0.1c-0.1-0.1-0.1-0.2-0.1-0.3v-6h0.7v5.7L42.7,75v-5.4h0.7v5.8
	c0,0.2-0.2,0.3-0.3,0.3L26.1,76L26.1,76z"/>
<path class="st0" d="M28,71.6h2.2c0.2,0,0.3,0.1,0.3,0.3v0.6c0,0.2-0.1,0.3-0.3,0.3H28c-0.2,0-0.3-0.1-0.3-0.3v-0.6
	C27.7,71.7,27.9,71.6,28,71.6z"/>
<path class="st0" d="M33.5,71.6h2.2c0.2,0,0.3,0.1,0.3,0.3v0.6c0,0.2-0.1,0.3-0.3,0.3h-2.2c-0.2,0-0.3-0.1-0.3-0.3v-0.6
	C33.1,71.7,33.3,71.6,33.5,71.6z"/>
<path class="st0" d="M38.9,71.6h2.2c0.2,0,0.3,0.1,0.3,0.3v0.6c0,0.2-0.1,0.3-0.3,0.3h-2.2c-0.2,0-0.3-0.1-0.3-0.3v-0.6
	C38.5,71.7,38.7,71.6,38.9,71.6z"/>
<path class="st0" d="M28.2,73.1h2c0.2,0,0.4,0.2,0.4,0.4V75c0,0.2-0.2,0.4-0.4,0.4h-2c-0.2,0-0.4-0.2-0.4-0.4v-1.4
	C27.7,73.3,27.9,73.1,28.2,73.1z"/>
<path class="st0" d="M33.6,73.1h2c0.2,0,0.4,0.2,0.4,0.4V75c0,0.2-0.2,0.4-0.4,0.4h-2c-0.2,0-0.4-0.2-0.4-0.4v-1.4
	C33.1,73.3,33.3,73.1,33.6,73.1z"/>
<path class="st0" d="M39,73.1h2c0.2,0,0.4,0.2,0.4,0.4V75c0,0.2-0.2,0.4-0.4,0.4h-2c-0.2,0-0.4-0.2-0.4-0.4v-1.4
	C38.5,73.3,38.7,73.1,39,73.1z"/>
<path class="st0" d="M38.8,69c-0.1,0-0.1,0-0.2,0c-2.5-1.5-5.6-1.5-8.1,0c-0.1,0.1-0.2,0.1-0.3,0c-0.1-0.1-0.2-0.2-0.2-0.3v-2.1
	c0-0.1,0.1-0.2,0.1-0.3c2.7-1.6,6.1-1.6,8.8,0c0.1,0.1,0.2,0.2,0.2,0.3v2.1C39.1,68.9,39,69,38.8,69z M34.6,67.2
	c1.3,0,2.7,0.3,3.9,0.9v-1.4c-2.4-1.4-5.4-1.4-7.8,0v1.4C31.9,67.6,33.2,67.2,34.6,67.2z"/>
<rect x="38.5" y="68.7" class="st0" width="0.6" height="1.9"/>
<path class="st0" d="M38.8,67c-0.1,0-0.1,0-0.2,0c-2.5-1.5-5.6-1.5-8.1,0c-0.1,0.1-0.2,0.1-0.3,0c-0.1-0.1-0.2-0.2-0.2-0.3v-2.2
	c0-0.1,0-0.2,0.1-0.3c2.7-1.6,6.1-1.6,8.8,0c0.1,0,0.2,0.2,0.2,0.3v2.1C39.1,66.8,39,67,38.8,67C38.8,67,38.8,67,38.8,67z
	 M34.6,65.2c1.3,0,2.7,0.3,3.9,0.9v-1.4c-2.4-1.4-5.4-1.4-7.8,0v1.3C31.9,65.5,33.2,65.2,34.6,65.2z"/>
<path class="st0" d="M38.8,64.9c-0.1,0-0.1,0-0.2,0c-2.5-1.5-5.6-1.5-8.1,0c-0.1,0.1-0.2,0.1-0.3,0c-0.1-0.1-0.2-0.2-0.2-0.3v-2.1
	c0-0.1,0.1-0.2,0.1-0.3c2.7-1.6,6.1-1.6,8.8,0c0.1,0.1,0.2,0.2,0.2,0.3v2.1C39.1,64.7,39,64.9,38.8,64.9z M34.6,63.1
	c1.3,0,2.7,0.3,3.9,0.9v-1.4c-2.4-1.3-5.4-1.3-7.8,0V64C31.9,63.4,33.2,63.1,34.6,63.1z"/>
<rect x="38.5" y="60.3" class="st0" width="0.6" height="0.1"/>
<path class="st0" d="M60.7,35.3h-0.2c-0.1,0-0.1,0-0.2,0c-2.1-1.5-5-1.5-7.1,0c-0.1,0.1-0.2,0.1-0.3,0c-0.1-0.1-0.2-0.2-0.2-0.3v-2
	c0-0.1,0-0.2,0.1-0.2c2.3-1.6,5.4-1.6,7.7-0.1l0,0c0.2,0,0.3,0.1,0.4,0.3c0,0,0,0,0,0.1v2c0,0.1,0,0.2-0.1,0.2
	C60.9,35.3,60.8,35.3,60.7,35.3z M56.9,33.6c1.2,0,2.5,0.4,3.5,1v-1.3c-2.1-1.5-4.9-1.5-7-0.1v1.3C54.4,33.9,55.6,33.6,56.9,33.6z"
	/>
<path class="st0" d="M60.7,33.3h-0.1c-0.1,0-0.1,0-0.2,0c-2.1-1.5-5-1.5-7.1,0c-0.1,0.1-0.3,0.1-0.4-0.1c0-0.1-0.1-0.1-0.1-0.2v-2.1
	c0-0.1,0-0.2,0.1-0.2c2.3-1.6,5.4-1.6,7.7-0.1l0,0c0.2,0,0.3,0.1,0.3,0.3l0,2.1c0,0.1,0,0.2-0.1,0.2C60.8,33.3,60.8,33.3,60.7,33.3z
	 M56.9,31.5c1.2,0,2.4,0.4,3.5,1v-1.4c-2.1-1.4-4.8-1.4-6.9-0.1v1.3C54.5,31.8,55.7,31.5,56.9,31.5z"/>
<path class="st0" d="M60.7,31.2L60.7,31.2c-0.2,0-0.2,0-0.3,0c-2.1-1.5-5-1.5-7.1,0c-0.1,0.1-0.2,0.1-0.3,0
	c-0.1-0.1-0.2-0.2-0.2-0.3v-2.1c0-0.1,0-0.2,0.1-0.2c2.3-1.6,5.4-1.6,7.7-0.1c0.2,0,0.3,0.1,0.3,0.3c0,0,0,0,0,0v2.1
	c0,0.1,0,0.2-0.1,0.2C60.8,31.2,60.7,31.2,60.7,31.2z M56.9,29.4c1.2,0,2.4,0.4,3.5,1v-1.4c-2.1-1.4-4.8-1.4-6.9-0.1v1.4
	C54.5,29.8,55.7,29.4,56.9,29.4z"/>
<path class="st0" d="M60.7,37.4h-0.2c-0.1,0-0.1,0-0.2,0c-2.1-1.5-5-1.5-7.1,0c-0.1,0.1-0.2,0.1-0.3,0c-0.1-0.1-0.2-0.2-0.2-0.3V35
	c0-0.1,0-0.2,0.1-0.3c2.3-1.6,5.4-1.6,7.7-0.1h0.1c0.2,0,0.3,0.2,0.3,0.3v2.1c0,0.1,0,0.2-0.1,0.2C60.9,37.4,60.8,37.4,60.7,37.4z
	 M56.9,35.6c1.3,0,2.5,0.4,3.5,1v-1.3l0,0c-2.1-1.5-4.9-1.5-7-0.1v1.3C54.5,36,55.7,35.6,56.9,35.6z"/>
<path class="st0" d="M60.8,39.5h-0.2c-0.1,0-0.1,0-0.2-0.1c-2.1-1.5-5-1.5-7.1,0c-0.1,0.1-0.2,0.1-0.3,0c-0.1-0.1-0.2-0.2-0.2-0.3
	v-2c0-0.1,0-0.2,0.1-0.2c2.3-1.6,5.4-1.6,7.7-0.1h0.1c0.2,0,0.3,0.1,0.3,0.3v2.1c0,0.1,0,0.2-0.1,0.2C60.9,39.5,60.8,39.5,60.8,39.5
	z M56.9,37.7c1.3,0,2.5,0.3,3.6,1v-1.3h0c-2.1-1.5-4.9-1.5-7-0.1v1.3C54.5,38,55.6,37.7,56.9,37.7z"/>
<path class="st0" d="M60.8,41.6h-0.2c-0.1,0-0.1,0-0.2,0c-2.1-1.5-5-1.5-7.1,0c-0.1,0.1-0.2,0.1-0.3,0c-0.1-0.1-0.2-0.2-0.2-0.3
	v-2.1c0-0.1,0-0.2,0.1-0.2c2.3-1.6,5.4-1.6,7.7-0.1h0.1c0.2,0,0.3,0.1,0.3,0.3c0,0,0,0,0,0v2.1c0,0.1,0,0.2-0.1,0.2
	C60.9,41.5,60.9,41.6,60.8,41.6z M56.9,39.8c1.3,0,2.5,0.3,3.6,1v-1.3h-0.1c-2.1-1.5-4.9-1.5-7-0.1v1.3
	C54.4,40.1,55.6,39.8,56.9,39.8z"/>
<path class="st0" d="M60.8,43.6h-0.3c-0.1,0-0.1,0-0.2,0c-2.1-1.5-5-1.5-7.1,0c-0.1,0.1-0.2,0.1-0.3,0c-0.1-0.1-0.2-0.2-0.2-0.3
	v-2.1c0-0.1,0-0.2,0.1-0.2c2.3-1.6,5.4-1.6,7.7-0.1h0.1c0.2,0,0.3,0.1,0.3,0.3c0,0,0,0,0,0v2.1c0,0.1,0,0.2-0.1,0.2
	C61,43.6,60.9,43.6,60.8,43.6z M56.8,41.9c1.3,0,2.5,0.4,3.6,1.1v-1.4h-0.1c-2.1-1.5-4.9-1.5-7-0.1v1.3
	C54.4,42.2,55.6,41.9,56.8,41.9L56.8,41.9z"/>
<path class="st0" d="M60.8,45.7h-0.3c-0.1,0-0.1,0-0.2,0c-2.1-1.5-5-1.5-7.1,0c-0.1,0.1-0.2,0.1-0.3,0c-0.1-0.1-0.2-0.2-0.2-0.3v-2
	c0-0.1,0-0.2,0.1-0.3c2.3-1.6,5.4-1.6,7.7-0.1h0.2c0.2,0,0.3,0.1,0.3,0.3v2.1c0,0.1,0,0.2-0.1,0.2C61,45.7,60.9,45.7,60.8,45.7z
	 M56.8,43.9c1.3,0,2.6,0.4,3.7,1.1v-1.4h-0.1c-2.1-1.5-4.9-1.5-7-0.1v1.3C54.4,44.3,55.6,43.9,56.8,43.9L56.8,43.9z"/>
<path class="st0" d="M60.6,25L60.6,25c-0.1,0-0.1,0-0.2,0c-2.1-1.5-5-1.5-7.1,0c-0.1,0-0.2,0-0.3,0c-0.1-0.1-0.2-0.2-0.2-0.3v-2.1
	c0-0.1,0-0.2,0.1-0.2c2.4-1.6,5.5-1.6,7.8,0c0.1,0.1,0.1,0.2,0.1,0.3v2.1C60.9,24.9,60.8,25,60.6,25C60.6,25,60.6,25,60.6,25
	L60.6,25z M56.9,23.2c1.2,0,2.4,0.3,3.4,0.9v-1.4c-2.1-1.4-4.7-1.4-6.8,0v1.3C54.5,23.5,55.7,23.2,56.9,23.2L56.9,23.2z"/>
<path class="st0" d="M68.6,25h-0.2c-0.1,0-0.1,0-0.2,0c-2.1-1.5-5-1.5-7.1,0c-0.1,0-0.1,0-0.2,0h-0.5c-0.2,0-0.3-0.1-0.3-0.3l0,0
	v-2.1c0-0.2,0.1-0.3,0.3-0.3c0,0,0,0,0,0h0.4c2.3-1.5,5.3-1.5,7.6,0h0.1c0.2,0,0.3,0.1,0.3,0.3v2.1C68.9,24.9,68.8,25,68.6,25
	C68.6,25,68.6,25,68.6,25L68.6,25z M60.9,24.4L60.9,24.4c2.2-1.5,5.1-1.5,7.4-0.2v-1.4c-2.1-1.5-5-1.5-7.1,0c-0.1,0-0.1,0.1-0.2,0.1
	h-0.2L60.9,24.4z"/>
<path class="st0" d="M69,25h-0.3c-0.2,0-0.3-0.1-0.3-0.3v-2.1c0-0.2,0.1-0.3,0.3-0.3c0,0,0,0,0,0h0.2c2.4-1.5,5.4-1.5,7.7,0
	c0.1,0.1,0.1,0.2,0.1,0.3v2.1c0,0.1-0.1,0.2-0.2,0.3c-0.1,0.1-0.2,0.1-0.3,0c-2.1-1.5-5-1.5-7.1,0C69.1,25,69.1,25,69,25z M69,22.9
	v1.4c2.2-1.4,4.9-1.5,7.2-0.2v-1.3c-2.1-1.4-4.9-1.4-6.9,0.1C69.1,22.9,69.1,22.9,69,22.9L69,22.9z"/>
<path class="st0" d="M69,27.1h-0.3c-0.2,0-0.3-0.1-0.3-0.3v-2.1c0-0.1,0-0.2,0.1-0.2c0.1-0.1,0.1-0.1,0.2-0.1h0.2
	c2.4-1.5,5.4-1.5,7.7,0c0.1,0.1,0.1,0.2,0.1,0.3v2.1c0,0.2-0.1,0.3-0.3,0.3c-0.1,0-0.1,0-0.2-0.1c-2.1-1.5-5-1.5-7.1,0
	C69.1,27,69.1,27.1,69,27.1z M69,25v1.4c2.2-1.4,4.9-1.4,7.1-0.2v-1.3c-2.1-1.4-4.9-1.4-6.9,0.1C69.1,25,69.1,25,69,25z"/>
<path class="st0" d="M69,29.1h-0.3c-0.2,0-0.3-0.1-0.3-0.3v-2.1c0-0.1,0-0.2,0.1-0.2c0.1-0.1,0.1-0.1,0.2-0.1h0.2
	c2.4-1.5,5.4-1.5,7.7,0c0.1,0.1,0.1,0.2,0.1,0.3v2.1c0,0.1-0.1,0.2-0.2,0.3c-0.1,0.1-0.2,0.1-0.3,0c-2.1-1.5-5-1.5-7.1,0
	C69.1,29.1,69.1,29.2,69,29.1z M69,27.1v1.4c2.2-1.4,4.9-1.4,7.1-0.2v-1.3c-2.1-1.4-4.9-1.4-6.9,0.1C69.1,27,69.1,27.1,69,27.1z"/>
<path class="st0" d="M69,31.2h-0.3c-0.2,0-0.3-0.1-0.3-0.3c0,0,0,0,0,0v-2.1c0-0.1,0-0.2,0.1-0.2c0.1-0.1,0.1-0.1,0.2-0.1h0.2
	c2.4-1.5,5.4-1.5,7.7,0.1c0.1,0.1,0.1,0.2,0.1,0.3v2.1c0,0.1-0.1,0.2-0.2,0.3c-0.1,0.1-0.2,0.1-0.3,0c-2.1-1.5-5-1.5-7.1,0
	C69.1,31.2,69.1,31.2,69,31.2z M69,29.1v1.4c2.2-1.3,4.9-1.4,7.1-0.2V29c-2.1-1.4-4.9-1.4-6.9,0.1C69.1,29.1,69.1,29.1,69,29.1z"/>
<path class="st0" d="M68.7,31.2h-0.2c-0.1,0-0.1,0-0.2,0c-2.1-1.5-5-1.5-7.1,0c-0.1,0-0.1,0.1-0.2,0.1h-0.4c-0.2,0-0.3-0.1-0.3-0.3
	l0,0v-2.1c0-0.1,0-0.2,0.1-0.2c0.1-0.1,0.1-0.1,0.2-0.1H61c2.3-1.5,5.3-1.5,7.6,0h0.1c0.2,0,0.3,0.1,0.3,0.3c0,0,0,0,0,0v2.1
	c0,0.1,0,0.2-0.1,0.2C68.9,31.2,68.8,31.2,68.7,31.2z M60.9,29.1v1.4c2.2-1.4,5.1-1.5,7.4-0.1v-1.3l0,0c-2.1-1.5-5-1.5-7.1,0
	c-0.1,0-0.1,0.1-0.2,0.1L60.9,29.1z"/>
<path class="st0" d="M60.6,29.1L60.6,29.1c-0.1,0-0.2,0-0.2-0.1c-2.1-1.5-5-1.5-7.1,0c-0.1,0.1-0.2,0.1-0.3,0
	c-0.1-0.1-0.2-0.2-0.2-0.3v-4.1c0-0.1,0-0.2,0.1-0.3c2.4-1.6,5.4-1.6,7.8,0c0.1,0,0.2,0.2,0.2,0.3v4.1c0,0.1,0,0.2-0.1,0.2
	C60.7,29.1,60.7,29.1,60.6,29.1z M56.9,27.3c1.2,0,2.4,0.3,3.4,1v-3.4c-2.1-1.4-4.8-1.4-6.8,0v3.4C54.5,27.7,55.7,27.4,56.9,27.3z"
	/>
<path class="st0" d="M69,33.3h-0.3c-0.2,0-0.3-0.1-0.3-0.3v-2.1c0-0.1,0-0.2,0.1-0.2c0.1-0.1,0.1-0.1,0.2-0.1h0.2
	c2.4-1.5,5.4-1.5,7.7,0c0.1,0.1,0.1,0.2,0.1,0.3V33c0,0.2-0.1,0.3-0.3,0.3c-0.1,0-0.1,0-0.2-0.1c-2.1-1.5-5-1.5-7.1,0
	C69.1,33.3,69.1,33.3,69,33.3z M69,31.2v1.3c2.2-1.3,4.9-1.4,7.1-0.2v-1.3c-2.1-1.4-4.9-1.4-6.9,0.1C69.1,31.2,69.1,31.2,69,31.2z"
	/>
<path class="st0" d="M69,37.4h-0.2c-0.2,0-0.3-0.1-0.3-0.3V35c0-0.1,0-0.2,0.1-0.2c0.1-0.1,0.1-0.1,0.2-0.1h0.2
	c2.4-1.5,5.4-1.5,7.7,0c0.1,0.1,0.1,0.2,0.1,0.3v2.1c0,0.1-0.1,0.2-0.2,0.3c-0.1,0.1-0.2,0.1-0.3,0c-2.1-1.5-5-1.5-7.1,0
	C69.1,37.4,69.1,37.4,69,37.4z M69,35.3v1.3c2.2-1.3,4.9-1.4,7.1-0.1v-1.3c-2.1-1.4-4.9-1.4-6.9,0.1C69.1,35.3,69,35.3,69,35.3z"/>
<path class="st0" d="M69,39.5h-0.2c-0.2,0-0.3-0.1-0.3-0.3v-2.1c0-0.1,0-0.2,0.1-0.2c0.1-0.1,0.1-0.1,0.2-0.1h0.1
	c2.4-1.5,5.4-1.5,7.7,0c0.1,0.1,0.1,0.2,0.1,0.3v2.1c0,0.1-0.1,0.2-0.2,0.3c-0.1,0.1-0.2,0.1-0.3,0c-2.1-1.5-5-1.5-7.1,0
	C69.1,39.5,69.1,39.5,69,39.5z M69.1,37.4v1.3c2.1-1.3,4.8-1.3,7-0.1v-1.3C74,35.9,71.2,35.9,69.1,37.4
	C69.1,37.4,69.1,37.4,69.1,37.4L69.1,37.4z"/>
<path class="st0" d="M69,41.6h-0.2c-0.2,0-0.3-0.1-0.3-0.3c0,0,0,0,0,0v-2.1c0-0.1,0-0.2,0.1-0.2c0.1-0.1,0.1-0.1,0.2-0.1h0.1
	c2.4-1.5,5.4-1.5,7.7,0c0.1,0.1,0.1,0.2,0.1,0.3v2.1c0,0.1-0.1,0.2-0.2,0.3c-0.1,0.1-0.2,0.1-0.3,0c-2.1-1.5-5-1.5-7.1,0
	C69.1,41.6,69.1,41.6,69,41.6z M69.1,39.5v1.3c2.1-1.3,4.8-1.3,7-0.1v-1.3C74,38,71.2,38,69.1,39.5L69.1,39.5z"/>
<path class="st0" d="M69,43.6h-0.2c-0.2,0-0.3-0.1-0.3-0.3v-2.1c0-0.1,0-0.2,0.1-0.2c0.1-0.1,0.1-0.1,0.2-0.1h0.1
	c2.4-1.5,5.4-1.5,7.7,0c0.1,0.1,0.1,0.2,0.1,0.3v2.1c0,0.1-0.1,0.2-0.2,0.3c-0.1,0.1-0.2,0.1-0.3,0c-2.1-1.5-5-1.5-7.1,0
	C69.1,43.6,69.1,43.7,69,43.6z M69.1,41.5v1.3c2.1-1.3,4.8-1.3,7-0.1v-1.3C74,40,71.3,40.1,69.1,41.5C69.1,41.5,69.1,41.5,69.1,41.5
	L69.1,41.5z"/>
<path class="st0" d="M69,45.7h-0.2c-0.2,0-0.3-0.1-0.3-0.3c0,0,0,0,0,0v-2.1c0-0.1,0-0.2,0.1-0.2c0.1-0.1,0.1-0.1,0.2-0.1h0.1
	c2.4-1.5,5.4-1.5,7.7,0c0.1,0.1,0.1,0.2,0.1,0.3v2.1c0,0.1-0.1,0.2-0.2,0.3c-0.1,0.1-0.2,0.1-0.3,0c-2.1-1.5-5-1.5-7.1,0
	C69.1,45.7,69.1,45.7,69,45.7z M69.1,43.6v1.3c2.1-1.3,4.8-1.3,7-0.1v-1.3C74,42.1,71.3,42.1,69.1,43.6L69.1,43.6z"/>
<path class="st0" d="M68.8,45.7h-0.3c-0.1,0-0.1,0-0.2,0c-2.1-1.5-5-1.5-7.1,0c-0.1,0-0.1,0.1-0.2,0.1h-0.2c-0.2,0-0.3-0.1-0.3-0.3
	c0,0,0,0,0,0v-2.1c0-0.1,0-0.2,0.1-0.2c0.1-0.1,0.1-0.1,0.2-0.1H61c2.3-1.5,5.3-1.5,7.6,0h0.2c0.2,0,0.3,0.1,0.3,0.3v2.1
	C69.1,45.6,69,45.7,68.8,45.7L68.8,45.7z M64.8,43.9c1.3,0,2.6,0.4,3.7,1.1v-1.4c-0.1,0-0.1,0-0.2,0c-2.1-1.5-5-1.5-7.1,0h-0.1V45
	C62.2,44.3,63.5,43.9,64.8,43.9L64.8,43.9z"/>
<path class="st0" d="M69,47.8h-0.2c-0.2,0-0.3-0.1-0.3-0.3c0,0,0,0,0,0v-2.1c0-0.1,0-0.2,0.1-0.2c0.1-0.1,0.1-0.1,0.2-0.1h0.1
	c2.4-1.5,5.4-1.5,7.7,0c0.1,0.1,0.1,0.2,0.1,0.3v2.1c0,0.1-0.1,0.2-0.2,0.3c-0.1,0.1-0.2,0.1-0.3,0c-2.1-1.5-5-1.5-7.1,0
	C69.1,47.8,69.1,47.8,69,47.8z M69.2,45.7V47c2.2-1.3,4.8-1.3,7-0.1v-1.3C74,44.2,71.3,44.2,69.2,45.7L69.2,45.7z"/>
<path class="st0" d="M69,49.9h-0.1c-0.2,0-0.3-0.1-0.3-0.3v-2.1c0-0.1,0-0.2,0.1-0.2c0.1-0.1,0.1-0.1,0.2-0.1l0,0
	c2.4-1.5,5.4-1.5,7.7,0.1c0.1,0.1,0.1,0.2,0.1,0.3v2.1c0,0.1-0.1,0.2-0.2,0.3c-0.1,0.1-0.2,0.1-0.3,0c-2.1-1.5-5-1.5-7.1,0
	C69.1,49.8,69.1,49.9,69,49.9z M69.2,47.7v1.3c2.2-1.3,4.8-1.3,7-0.1v-1.3C74.1,46.3,71.3,46.3,69.2,47.7L69.2,47.7z"/>
<path class="st0" d="M68.8,51.9h-0.4c-0.1,0-0.1,0-0.2,0c-2.1-1.5-5-1.5-7.1,0C61.2,52,61.1,52,61,52h-0.1c-0.2,0-0.3-0.1-0.3-0.3
	c0,0,0,0,0,0v-2.1c0-0.1,0-0.2,0.1-0.2c0.1-0.1,0.1-0.1,0.2-0.1l0,0c2.3-1.5,5.3-1.5,7.6,0h0.3c0.2,0,0.3,0.1,0.3,0.3v2.1
	c0,0.1,0,0.2-0.1,0.2C69,51.9,68.9,51.9,68.8,51.9z M64.8,50.2c1.3,0,2.6,0.4,3.7,1.1v-1.4c-0.1,0-0.1,0-0.2-0.1
	c-2.1-1.5-5-1.5-7.1,0l0,0v1.3C62.3,50.5,63.6,50.2,64.8,50.2z"/>
<path class="st0" d="M60.9,51.9h-0.4c-0.1,0-0.1,0-0.2,0c-2.1-1.5-5-1.5-7.1,0c-0.1,0.1-0.2,0.1-0.3,0c-0.1-0.1-0.2-0.2-0.2-0.3
	v-2.1c0-0.1,0-0.2,0.1-0.2c2.3-1.6,5.4-1.6,7.7-0.1h0.2c0.2,0,0.3,0.1,0.3,0.3v2.1c0,0.1,0,0.2-0.1,0.2C61.1,51.9,61,51.9,60.9,51.9
	z M56.9,50.2c1.3,0,2.6,0.4,3.7,1.1l0-1.4c-0.1,0-0.1,0-0.2-0.1c-2.1-1.5-4.9-1.5-7-0.1V51C54.4,50.5,55.6,50.2,56.9,50.2z"/>
<path class="st0" d="M60.9,49.9h-0.3c-0.1,0-0.1,0-0.2-0.1c-2.1-1.5-5-1.5-7.1,0c-0.1,0.1-0.2,0.1-0.3,0c-0.1-0.1-0.2-0.2-0.2-0.3
	v-2c0-0.1,0-0.2,0.1-0.2c2.3-1.6,5.4-1.6,7.7-0.1h0.2c0.2,0,0.3,0.1,0.3,0.3v2.1C61.2,49.7,61,49.9,60.9,49.9L60.9,49.9z M56.9,48.1
	c1.3,0,2.6,0.4,3.7,1.1v-1.4c-0.1,0-0.1,0-0.2-0.1c-2.1-1.5-4.9-1.5-7-0.1V49C54.5,48.4,55.7,48.1,56.9,48.1L56.9,48.1z"/>
<path class="st0" d="M60.9,47.8h-0.3c-0.1,0-0.1,0-0.2-0.1c-2.1-1.5-5-1.5-7.1,0c-0.1,0.1-0.2,0.1-0.3,0c-0.1-0.1-0.2-0.2-0.2-0.3
	v-2c0-0.1,0-0.2,0.1-0.2c2.3-1.6,5.4-1.6,7.7-0.1h0.2c0.2,0,0.3,0.1,0.3,0.3c0,0,0,0,0,0v2.1c0,0.1,0,0.2-0.1,0.2
	C61,47.7,60.9,47.8,60.9,47.8z M56.9,46c1.3,0,2.6,0.4,3.7,1.1v-1.4c-0.1,0-0.1,0-0.2,0c-2.1-1.5-4.9-1.5-7-0.1v1.3
	C54.4,46.3,55.6,46,56.9,46z"/>
<path class="st0" d="M69,51.9h-0.1c-0.2,0-0.3-0.1-0.3-0.3c0,0,0,0,0,0v-2.1c0-0.1,0-0.2,0.1-0.2c0.1-0.1,0.1-0.1,0.2-0.1l0,0
	c2.4-1.5,5.4-1.5,7.7,0c0.1,0.1,0.1,0.2,0.1,0.3v2.1c0,0.2-0.1,0.3-0.3,0.3c-0.1,0-0.1,0-0.2-0.1c-2.1-1.5-5-1.5-7.1,0
	C69.1,51.9,69.1,51.9,69,51.9z M69.2,49.8v1.3c2.1-1.3,4.8-1.3,6.9-0.1v-1.3C74,48.3,71.3,48.4,69.2,49.8L69.2,49.8z"/>
<path class="st0" d="M69,35.3h-0.2c-0.2,0-0.3-0.1-0.3-0.3c0,0,0-0.1,0-0.1v-2.1c0-0.1,0-0.2,0.1-0.2c0.1-0.1,0.1-0.1,0.2-0.1h0.2
	c2.4-1.5,5.4-1.5,7.7,0c0.1,0.1,0.1,0.2,0.1,0.3V35c0,0.1-0.1,0.2-0.2,0.3c-0.1,0.1-0.2,0.1-0.3,0c-2.1-1.5-5-1.5-7.1,0
	C69.1,35.3,69.1,35.3,69,35.3z M69,33.3v1.3c2.2-1.3,4.9-1.4,7.1-0.1v-1.3c-2.1-1.4-4.9-1.4-6.9,0.1C69.1,33.2,69,33.3,69,33.3z"/>
<path class="st0" d="M60.6,27.1L60.6,27.1h-0.2c-2.1-1.5-5-1.5-7.1,0l-0.4-0.5c2.4-1.6,5.5-1.6,7.8,0l-0.2,0.2L60.6,27.1z"/>
<path class="st0" d="M69.2,49.9h-0.8l-0.1-0.1c-2.1-1.5-4.9-1.5-7,0l-0.1,0.1h-0.6v-2.8H61c2.3-1.5,5.3-1.5,7.7,0h0.6L69.2,49.9z
	 M64.8,48c1.3,0,2.6,0.4,3.7,1.1v-1.2h-0.1l-0.1-0.1c-2.1-1.5-4.9-1.5-7,0l0,0V49C62.3,48.4,63.6,48,64.8,48z"/>
<rect x="60.6" y="51.6" transform="matrix(0.9999 -1.274056e-02 1.274056e-02 0.9999 -0.7076 0.7813)" class="st0" width="0.7" height="8.6"/>
<path class="st0" d="M69,29.2h-0.7l-0.1-0.1c-2.1-1.5-4.9-1.5-7,0l-0.1,0.1h-0.9v-2.8h0.7c2.3-1.5,5.3-1.5,7.7,0H69V29.2z M61,27.1
	v1.3c2.2-1.4,5-1.5,7.3-0.1V27c-2.1-1.5-4.9-1.5-7,0l-0.1,0.1L61,27.1z"/>
<path class="st0" d="M69,27.1h-0.6l-0.1-0.1c-2.1-1.5-4.9-1.5-7,0l-0.1,0.1h-0.9v-2.8h0.7c2.3-1.5,5.3-1.5,7.7,0H69V27.1z M60.9,25
	v1.3c2.2-1.4,5.1-1.5,7.3-0.1V25c-2.1-1.4-4.9-1.4-7,0l-0.1,0.1L60.9,25z"/>
<path class="st0" d="M69,35.3h-0.6h-0.1c-2.1-1.5-5-1.5-7.1,0l-0.1,0.1h-0.7v-2.6H61c2.3-1.5,5.3-1.5,7.6,0H69V35.3z M61,33.2v1.5
	c2.3-1.4,5.2-1.4,7.4,0v-1.4h-0.1c-2.1-1.5-5-1.5-7.1,0l-0.1,0.1L61,33.2z"/>
<path class="st0" d="M69,37.4h-0.6h-0.1c-2.1-1.5-5-1.5-7.1,0l-0.1,0.1h-0.7v-2.6H61c2.3-1.5,5.3-1.5,7.6,0H69V37.4z M61,35.3v1.5
	c2.3-1.4,5.2-1.4,7.4,0v-1.4l0,0h-0.1c-2.1-1.5-5-1.5-7.1,0l-0.1,0.1L61,35.3z"/>
<path class="st0" d="M69,39.5h-0.6h-0.1c-2.1-1.5-5-1.5-7.1,0l-0.1,0h-0.6v-2.6H61c2.3-1.5,5.3-1.5,7.6,0H69V39.5z M61,37.4v1.4
	c2.3-1.4,5.2-1.4,7.4,0v-1.4l0,0h-0.1c-2.1-1.5-5-1.5-7.1,0l-0.1,0.1L61,37.4z"/>
<path class="st0" d="M69.1,41.5h-0.7h-0.1c-2.1-1.5-5-1.5-7.1,0l-0.1,0.1h-0.6V39H61c2.3-1.5,5.3-1.5,7.6,0H69L69.1,41.5z
	 M64.8,39.8c1.3,0,2.6,0.4,3.7,1.1v-1.5h-0.1h-0.1c-2.1-1.5-5-1.5-7.1,0l-0.1,0H61v1.4C62.1,40.2,63.4,39.8,64.8,39.8z"/>
<path class="st0" d="M69.1,43.6h-0.7h-0.1c-2.1-1.5-5-1.5-7.1,0l-0.1,0.1h-0.6V41H61c2.3-1.5,5.3-1.5,7.6,0H69L69.1,43.6z
	 M64.8,41.9c1.3,0,2.6,0.4,3.7,1.1v-1.5h-0.1h-0.1c-2.1-1.5-5-1.5-7.1,0l-0.1,0.1V43C62.2,42.3,63.5,41.9,64.8,41.9z"/>
<path class="st0" d="M69.1,47.8h-0.7h-0.1c-2.1-1.5-5-1.5-7.1,0h-0.1h-0.5v-2.6H61c2.3-1.5,5.3-1.5,7.6,0h0.5L69.1,47.8z M64.8,46
	c1.3,0,2.6,0.4,3.7,1.1v-1.5h-0.1h-0.1c-2.1-1.5-5-1.5-7.1,0l-0.1,0.1v1.4C62.2,46.4,63.5,46,64.8,46z"/>
<polygon class="st0" points="68.6,60.2 68.6,51.6 69.1,51.6 69.2,60.2 "/>
<path class="st0" d="M69,33.2h-0.6h-0.1c-2.1-1.5-5-1.5-7.1,0l-0.1,0.1h-0.7v-2.6H61c2.3-1.5,5.3-1.5,7.6,0H69V33.2z M61,31.2v1.5
	c2.3-1.5,5.2-1.5,7.4-0.1v-1.4h-0.1c-2.1-1.5-5-1.5-7.1,0l-0.1,0L61,31.2z"/>
<path class="st0" d="M55.2,52.8h3.2c0.3,0,0.5,0.2,0.5,0.5v1c0,0.3-0.2,0.5-0.5,0.5h-3.2c-0.3,0-0.5-0.2-0.5-0.5v-1
	C54.7,53,54.9,52.8,55.2,52.8z"/>
<path class="st0" d="M63.2,52.8h3.2c0.3,0,0.5,0.2,0.5,0.5v1c0,0.3-0.2,0.5-0.5,0.5h-3.2c-0.3,0-0.5-0.2-0.5-0.5v-1
	C62.7,53,62.9,52.8,63.2,52.8z"/>
<path class="st0" d="M71.1,52.8h3.2c0.3,0,0.5,0.2,0.5,0.5v1c0,0.3-0.2,0.5-0.5,0.5h-3.2c-0.3,0-0.5-0.2-0.5-0.5v-1
	C70.6,53,70.9,52.8,71.1,52.8z"/>
<path class="st0" d="M55.2,55.5h3.2c0.3,0,0.5,0.2,0.5,0.5v1c0,0.3-0.2,0.5-0.5,0.5h-3.2c-0.3,0-0.5-0.2-0.5-0.5v-1
	C54.7,55.7,54.9,55.5,55.2,55.5z"/>
<path class="st0" d="M63.2,55.5h3.2c0.3,0,0.5,0.2,0.5,0.5v1c0,0.3-0.2,0.5-0.5,0.5h-3.2c-0.3,0-0.5-0.2-0.5-0.5v-1
	C62.7,55.7,62.9,55.5,63.2,55.5z"/>
<path class="st0" d="M71.1,55.5h3.2c0.3,0,0.5,0.2,0.5,0.5v1c0,0.3-0.2,0.5-0.5,0.5h-3.2c-0.3,0-0.5-0.2-0.5-0.5v-1
	C70.6,55.7,70.9,55.5,71.1,55.5z"/>
<path class="st0" d="M69.4,22l-1.5-4.3h-6.3L60.1,22l-0.4-0.2l1.6-4.4c0-0.1,0.1-0.1,0.2-0.1h6.6c0.1,0,0.2,0.1,0.2,0.1l1.6,4.4
	L69.4,22z"/>
<rect x="52.8" y="51.6" class="st0" width="0.7" height="7.8"/>
<rect x="76.1" y="51.6" class="st0" width="0.7" height="7.8"/>
<path class="st0" d="M51.2,62.9V60l0.2-0.1c2.7-1.6,6-1.6,8.7-0.1h0.8v2.8h-1l-0.1,0c-2.5-1.5-5.6-1.5-8.1,0L51.2,62.9z M60.1,62
	h0.1v-1.4h-0.3l-0.1,0c-2.5-1.5-5.5-1.5-8-0.1v1.3C54.4,60.5,57.5,60.5,60.1,62z"/>
<path class="st0" d="M51.2,67.1v-2.9l0.2-0.1c2.7-1.6,6-1.6,8.7,0h0.8v2.7h-1h-0.1c-2.5-1.5-5.6-1.5-8.1,0L51.2,67.1z M60.1,66.1
	h0.1v-1.4h-0.3h-0.1c-2.5-1.5-5.5-1.5-8-0.1v1.3C54.4,64.6,57.5,64.7,60.1,66.1L60.1,66.1z"/>
<path class="st0" d="M51.2,65v-2.9l0.2-0.1c2.7-1.6,6-1.6,8.7,0h0.8v2.7h-1h-0.1c-2.5-1.5-5.6-1.5-8.1,0L51.2,65z M60.1,64h0.1v-1.4
	h-0.3l-0.1,0c-2.5-1.5-5.5-1.5-8-0.1v1.3C54.4,62.5,57.5,62.5,60.1,64z"/>
<path class="st0" d="M51.2,69.1v-2.9l0.2-0.1c2.7-1.6,6-1.6,8.7-0.1h0.8v2.7h-1h-0.1c-2.5-1.5-5.6-1.5-8.1,0L51.2,69.1z M60.1,68.1
	h0.1v-1.4h-0.3h-0.1c-2.5-1.5-5.5-1.5-8-0.1v1.3C54.4,66.6,57.5,66.7,60.1,68.1L60.1,68.1z"/>
<path class="st0" d="M51.2,71.2v-2.9l0.2-0.1c2.7-1.6,6-1.6,8.7-0.1h0.8v2.8h-1h-0.1c-2.5-1.5-5.6-1.5-8.1,0L51.2,71.2z M60.1,70.2
	h0.1v-1.4h-0.3h-0.1c-2.5-1.5-5.5-1.5-8-0.1V70C54.4,68.7,57.5,68.8,60.1,70.2L60.1,70.2z"/>
<path class="st0" d="M60.2,71.2v-2.9l0.2-0.1c2.7-1.6,6-1.6,8.7-0.1h0.4c2.7-1.6,6-1.6,8.7,0l0.2,0.1v2.8l-0.5-0.3
	c-2.5-1.5-5.6-1.5-8.1,0l-0.1,0.1h-0.7h-0.1c-2.5-1.5-5.6-1.5-8.1,0L60.2,71.2z M69.1,70.2h0.4c1.1-0.7,2.4-1,3.7-1.1
	c1.6-0.1,3.1,0.2,4.5,0.9v-1.3c-2.5-1.4-5.5-1.4-7.9,0.1h-0.1h-0.7h-0.1c-2.5-1.5-5.5-1.5-8-0.1V70C63.4,68.7,66.5,68.8,69.1,70.2
	L69.1,70.2z"/>
<path class="st0" d="M60.2,62.9V60l0.2-0.1c0.2-0.1,0.3-0.2,0.5-0.3c2.6-1.3,5.7-1.2,8.2,0.2h0.2v2.8h-0.4l-0.1,0
	c-2.5-1.5-5.6-1.5-8.1,0L60.2,62.9z M64.8,60.8c1.3,0,2.7,0.3,3.9,0.9v-1.3c-2.3-1.3-5.1-1.4-7.5-0.2l-0.3,0.2v1.3
	C62.1,61.1,63.4,60.8,64.8,60.8z"/>
<path class="st0" d="M78.3,62.9l-0.5-0.3c-2.5-1.5-5.6-1.5-8.1,0l-0.1,0.1h-1v-2.8h0.8c2.7-1.6,6-1.6,8.7,0l0.2,0.1L78.3,62.9z
	 M69.3,62h0.1c2.5-1.4,5.6-1.5,8.2-0.2v-1.3c-2.5-1.4-5.5-1.4-7.9,0.1l-0.1,0.1h-0.3V62z"/>
<path class="st0" d="M78.3,64.9l-0.5-0.3c-2.5-1.5-5.6-1.5-8.1,0l-0.1,0.1h-1V62h0.8c2.7-1.6,6-1.6,8.7,0l0.2,0.1L78.3,64.9z
	 M69.3,64h0.1c2.5-1.4,5.6-1.5,8.2-0.2v-1.3c-2.5-1.4-5.5-1.4-7.9,0.1l-0.1,0.1h-0.3V64z"/>
<path class="st0" d="M78.3,67l-0.5-0.3c-2.5-1.5-5.6-1.5-8.1,0h-0.1h-1V64h0.8c2.7-1.6,6-1.6,8.7,0l0.2,0.1L78.3,67z M69.3,66.1h0.1
	c2.5-1.4,5.6-1.5,8.2-0.2v-1.3c-2.5-1.4-5.5-1.4-7.9,0.1l-0.1,0.1h-0.3V66.1z"/>
<path class="st0" d="M78.3,69.1l-0.5-0.3c-2.5-1.5-5.6-1.5-8.1,0h-0.1h-1v-2.7h0.8c2.7-1.5,6-1.5,8.7,0l0.2,0.1L78.3,69.1z
	 M69.3,68.2h0.1c2.5-1.4,5.6-1.5,8.2-0.2v-1.4c-2.5-1.4-5.5-1.4-7.9,0.1h-0.1h-0.3V68.2z"/>
<path class="st0" d="M56.3,75.8c-0.2,0-0.3-0.1-0.3-0.3c0,0,0,0,0,0v-6h0.7v5.7l16.2-0.2v-5.5h0.7v5.8c0,0.2-0.2,0.3-0.3,0.3
	C73.2,75.6,56.3,75.8,56.3,75.8z"/>
<path class="st0" d="M58.2,71.4h2.2c0.2,0,0.3,0.1,0.3,0.3v0.6c0,0.2-0.1,0.3-0.3,0.3h-2.2c-0.2,0-0.3-0.1-0.3-0.3v-0.6
	C57.9,71.5,58.1,71.4,58.2,71.4z"/>
<path class="st0" d="M63.7,71.4h2.2c0.2,0,0.3,0.1,0.3,0.3v0.6c0,0.2-0.1,0.3-0.3,0.3h-2.2c-0.2,0-0.3-0.1-0.3-0.3v-0.6
	C63.3,71.5,63.5,71.4,63.7,71.4z"/>
<path class="st0" d="M69.1,71.4h2.2c0.2,0,0.3,0.1,0.3,0.3v0.6c0,0.2-0.1,0.3-0.3,0.3h-2.2c-0.2,0-0.3-0.1-0.3-0.3v-0.6
	C68.7,71.5,68.9,71.4,69.1,71.4z"/>
<path class="st0" d="M58.4,72.9h2c0.2,0,0.4,0.2,0.4,0.4v1.4c0,0.2-0.2,0.4-0.4,0.4h-2c-0.2,0-0.4-0.2-0.4-0.4v-1.4
	C57.9,73.1,58.1,72.9,58.4,72.9z"/>
<path class="st0" d="M63.8,72.9h2c0.2,0,0.4,0.2,0.4,0.4v1.4c0,0.2-0.2,0.4-0.4,0.4h-2c-0.2,0-0.4-0.2-0.4-0.4v-1.4
	C63.3,73.1,63.5,72.9,63.8,72.9z"/>
<path class="st0" d="M69.2,72.9h2c0.2,0,0.4,0.2,0.4,0.4v1.4c0,0.2-0.2,0.4-0.4,0.4h-2c-0.2,0-0.4-0.2-0.4-0.4v-1.4
	C68.7,73.1,68.9,72.9,69.2,72.9z"/>
<path class="st0" d="M69,68.8c-0.1,0-0.1,0-0.2,0c-2.5-1.5-5.6-1.5-8.1,0c-0.1,0.1-0.2,0.1-0.3,0c-0.1-0.1-0.2-0.2-0.2-0.3v-2.1
	c0-0.1,0.1-0.2,0.1-0.3c2.7-1.6,6.1-1.6,8.8,0c0.1,0.1,0.2,0.2,0.2,0.3v2.1C69.3,68.7,69.2,68.8,69,68.8z M64.8,67
	c1.3,0,2.7,0.3,3.9,0.9v-1.3c-2.4-1.4-5.4-1.4-7.8,0V68C62.1,67.4,63.4,67,64.8,67z"/>
<rect x="68.7" y="68.5" class="st0" width="0.6" height="1.9"/>
<path class="st0" d="M69,66.8c-0.1,0-0.1,0-0.2,0c-2.5-1.5-5.6-1.5-8.1,0c-0.1,0.1-0.2,0.1-0.3,0c-0.1-0.1-0.2-0.2-0.2-0.3v-2.1
	c0-0.1,0.1-0.2,0.1-0.3c2.7-1.6,6.1-1.6,8.8,0c0.1,0.1,0.2,0.2,0.2,0.3v2.1C69.3,66.6,69.2,66.8,69,66.8z M64.8,65
	c1.3,0,2.7,0.3,3.9,0.9v-1.4c-2.4-1.4-5.4-1.4-7.8,0v1.3C62.1,65.3,63.4,65,64.8,65z"/>
<path class="st0" d="M69,64.7c-0.1,0-0.1,0-0.2,0c-2.5-1.5-5.6-1.5-8.1,0c-0.1,0.1-0.2,0.1-0.3,0c-0.1-0.1-0.2-0.2-0.2-0.3v-2.1
	c0-0.1,0.1-0.2,0.1-0.3c2.7-1.6,6.1-1.6,8.8,0c0.1,0.1,0.2,0.2,0.2,0.3v2.1C69.3,64.5,69.2,64.7,69,64.7z M64.8,62.9
	c1.3,0,2.7,0.3,3.9,0.9v-1.4c-2.4-1.4-5.4-1.4-7.8,0v1.4C62.1,63.2,63.4,62.9,64.8,62.9z"/>
<rect x="68.7" y="60.1" class="st0" width="0.6" height="0.1"/>
<path class="st0" d="M79,83.6H22.6v-8.3H79V83.6z M23.2,83h55.1v-7H23.2V83z"/>
<path class="st0" d="M24.9,83.3c1.1-2.5,4.5-4.4,8.5-4.4s7.4,1.8,8.5,4.4"/>
<path class="st0" d="M25.2,83.4l-0.6-0.3c1.2-2.7,4.8-4.6,8.8-4.6s7.6,1.8,8.8,4.6l-0.6,0.3c-1.1-2.4-4.5-4.2-8.2-4.2
	S26.3,81,25.2,83.4z"/>
<path class="st0" d="M60.2,83.3c1.1-2.5,4.5-4.4,8.5-4.4s7.4,1.8,8.5,4.4"/>
<path class="st0" d="M60.5,83.4l-0.6-0.3c1.2-2.7,4.8-4.6,8.8-4.6s7.6,1.8,8.8,4.6l-0.6,0.3c-1.1-2.4-4.5-4.2-8.2-4.2
	S61.6,81,60.5,83.4z"/>
<path class="st0" d="M45.4,83.3c0.6-3,3.5-4.9,6.5-4.3c2.2,0.4,3.8,2.1,4.3,4.3"/>
<path class="st0" d="M45.7,83.4l-0.5-0.1c0.7-3.1,3.7-5.1,6.8-4.4c2.2,0.5,3.9,2.2,4.4,4.4l-0.5,0.2c-0.6-2.8-3.4-4.6-6.2-4.1
	C47.7,79.8,46.1,81.3,45.7,83.4L45.7,83.4z"/>
<path class="st0" d="M43.1,72.5c-0.2,0-0.4-0.1-0.4-0.3c0-0.2,0.1-0.3,0.3-0.3h0.1c3.5,0,4.5-1.1,4.5-1.1c0.1-0.1,0.3-0.1,0.4,0
	c0.1,0.1,0.1,0.3,0.1,0.4c0,0,0,0,0,0C48,71.2,47,72.5,43.1,72.5z"/>
<path class="st0" d="M26,72.3c-3.9,0-4.9-1.3-4.9-1.3c-0.1-0.1-0.1-0.3,0.1-0.4c0.1-0.1,0.3-0.1,0.4,0.1c0,0,0,0,0,0
	c0,0,1,1.1,4.5,1.1h0.1c0.2,0,0.3,0.1,0.3,0.3C26.4,72.2,26.2,72.3,26,72.3z"/>
<path class="st0" d="M73.3,72.2c-0.2,0-0.4-0.1-0.4-0.3s0.1-0.3,0.3-0.3h0.1c3.5,0,4.4-1.1,4.5-1.1c0.1-0.1,0.3-0.1,0.4,0
	c0.1,0.1,0.1,0.3,0,0.4C78.2,70.9,77.2,72.2,73.3,72.2z"/>
<path class="st0" d="M56.2,72c-3.8,0-4.9-1.3-4.9-1.4c-0.1-0.1-0.1-0.3,0-0.4c0.1-0.1,0.3-0.1,0.4,0c0,0,1,1.1,4.5,1.1h0.1
	c0.2,0,0.3,0.1,0.3,0.3l0,0C56.6,71.8,56.4,71.9,56.2,72C56.3,71.9,56.3,71.9,56.2,72L56.2,72z"/>
</svg>
