<?xml version="1.0" encoding="utf-8"?>
<!-- Generator: Adobe Illustrator 25.2.1, SVG Export Plug-In . SVG Version: 6.00 Build 0)  -->
<svg version="1.1" id="Layer_1" xmlns="http://www.w3.org/2000/svg" xmlns:xlink="http://www.w3.org/1999/xlink" x="0px" y="0px"
	 viewBox="0 0 100 100" style="enable-background:new 0 0 100 100;" xml:space="preserve">
<style type="text/css">
	.st0{fill:#FFFFFF;}
</style>
<path class="st0" d="M94.5,56.1v10.6h-0.7c-3.7,1.1-21.3,2-42.5,2c-23.7,0-43-1.1-43.2-2.4H6.7V55h4.6v3.4c43,3.3,70.7,0.9,78.6,0.1
	v-2.4H94.5z"/>
<path class="st0" d="M51.3,69.2c-11.5,0-22.3-0.2-30.4-0.7c-9.9-0.5-12.4-1.2-13-1.7H6.2V54.5h5.7v3.5c42,3.1,69.3,1,77.5,0.1v-2.5
	H95v11.6h-1.2C89.8,68.3,72,69.2,51.3,69.2z M8.6,66c1.7,1,19,2.1,42.7,2.1c20.8,0,38.6-0.8,42.3-1.9h0.2h0.2v-9.5h-3.5V59l-0.5,0.1
	c-7.5,0.8-35.4,3.2-78.7-0.1h-0.5v-3.4H7.2v10.1h1.3L8.6,66z"/>
<path class="st0" d="M83.1,47.8v9.6h-4.6v-1.2c-9.2,0.9-18.4,1.3-27.6,1.2c-11.1,0-20.9-0.4-26.6-1.1c-0.9-0.1-1.7-0.2-2.4-0.3h-0.2
	v1h-4.6v-8.8h4.6V54h0.2v-3.6c0,0,16.8,1.1,28.2,0.8s24.9-0.8,28.4-1v-2.4H83.1z"/>
<path class="st0" d="M83.1,57.6h-4.6c-0.1,0-0.2-0.1-0.2-0.2l0,0v-1c-9.1,0.9-18.2,1.3-27.4,1.2c-10.7,0-20.7-0.4-26.7-1.1
	c-0.9-0.1-1.7-0.2-2.4-0.3V57c0,0.1-0.1,0.2-0.2,0.2l0,0h-4.6c-0.1,0-0.2-0.1-0.2-0.2v-8.8c0-0.1,0.1-0.2,0.2-0.2h4.6
	c0.1,0,0.2,0.1,0.2,0.2l0,0v2c0.2,0,16.9,1.1,28.2,0.8c11.7-0.3,26-0.9,28.2-1v-2.2c0-0.1,0.1-0.2,0.2-0.2l0,0h4.6
	c0.1,0,0.2,0.1,0.2,0.2l0,0v9.6C83.2,57.5,83.2,57.6,83.1,57.6z M78.6,57.2h4.3V48h-4.3v2.2c0,0.1-0.1,0.2-0.2,0.2c0,0,0,0,0,0
	c-1.6,0.1-16.4,0.7-28.4,1c-10.7,0.2-26.1-0.7-28-0.8V54c0,0.1-0.1,0.2-0.1,0.2h-0.2c0,0-0.1,0-0.1,0c0,0-0.1-0.1-0.1-0.1v-5.6h-4.3
	v8.4h4.3V56c0-0.1,0.1-0.2,0.2-0.2c0,0,0,0,0,0h0.2c0.7,0.1,1.5,0.2,2.4,0.3c6,0.7,15.9,1.1,26.6,1.1c9.2,0.1,18.4-0.3,27.5-1.2
	c0,0,0.1,0,0.1,0c0,0,0.1,0.1,0.1,0.1V57.2z"/>
<path class="st0" d="M24.2,56.4h-2.4V56C22.5,56.2,23.3,56.3,24.2,56.4z"/>
<path class="st0" d="M21.9,56.6c0,0-0.1,0-0.1,0c0,0-0.1-0.1-0.1-0.1V56c0-0.1,0-0.1,0.1-0.1c0,0,0.1,0,0.1,0
	c0.7,0.1,1.5,0.2,2.4,0.3c0.1,0,0.2,0.1,0.2,0.2c0,0.1-0.1,0.2-0.2,0.2L21.9,56.6L21.9,56.6z"/>
<path class="st0" d="M21.9,50.7v-0.5c0.2,0,20.7-1.4,28.8-1.5s28.5,1.2,28.7,1.2v0.5c-0.2,0-20.7-1.3-28.7-1.2S22.1,50.7,21.9,50.7z
	"/>
<path class="st0" d="M45.3,45c1.6,0.2,3.2,0.2,4.8,0.2c1.5,0,3.1-0.1,4.6-0.3c0.7-0.1,1.4-0.2,2.2-0.4c3.4-0.9,2.7-2.5,2.1-2.9
	c-0.6-0.1-1.2-0.2-1.8-0.2c-1.1,0.5-2.2,0.8-3.3,0.9c-1.4,0.1-2.7,0.1-4.1,0.1c-0.9,0-4.9-0.3-5.9-1c-0.7,0-1.3,0.1-2,0.2
	C41,42.1,40,44.5,45.3,45z"/>
<path class="st0" d="M49.5,45.6c-1.2,0-2.6-0.1-4.2-0.2l0,0c-3.3-0.3-4.3-1.4-4.5-2.2c-0.2-0.7,0.1-1.4,0.7-1.9
	c0.2-0.1,0.4-0.2,2.2-0.3h0.1l0.1,0.1c0.8,0.6,4.6,0.9,5.7,0.9h0.2c1.3,0.1,2.5,0,3.8-0.1c1.1-0.1,2.2-0.5,3.2-0.9H57h0.1
	c1.6,0.1,1.9,0.2,2,0.3c0.5,0.3,0.7,0.9,0.7,1.5c-0.1,0.6-0.7,1.5-2.8,2.1c-0.7,0.2-1.5,0.3-2.2,0.4c-1.5,0.2-3.1,0.3-4.6,0.3
	L49.5,45.6z M45.3,44.6c1.6,0.2,3.2,0.2,4.7,0.2c1.5,0,3.1-0.1,4.6-0.3c0.7-0.1,1.4-0.2,2.1-0.4c1.3-0.3,2.2-0.9,2.3-1.5
	c0-0.3-0.1-0.6-0.3-0.7c-0.5-0.1-1-0.1-1.5-0.1c-1.1,0.5-2.2,0.8-3.4,0.9c-1.3,0.1-2.6,0.1-3.9,0.1h-0.2c-0.6,0-4.7-0.3-6-1
	c-0.6,0-1.2,0-1.7,0.2c-0.3,0.2-0.4,0.6-0.3,1C41.7,43.4,42.2,44.3,45.3,44.6L45.3,44.6z"/>
<path class="st0" d="M58.1,45.1c-0.5,0.2-1.1,0.3-1.6,0.4c-2,0.4-4,0.6-6,0.7c-0.8,0-6,0-7.6-0.6l-0.4-0.2c0.3,1.7,0.4,3.4,0.3,5.1
	l7.6,0.2l7.2-0.3C57.7,50.3,57.3,46.6,58.1,45.1z"/>
<path class="st0" d="M50.5,50.7l-7.6-0.2c0,0-0.1,0-0.1,0c0,0,0-0.1,0-0.1c0.1-1.7,0-3.4-0.3-5c0,0,0-0.1,0-0.1c0,0,0.1,0,0.1,0
	l0.2,0.1l0.2,0.1c1.5,0.6,6.3,0.6,7.5,0.6c2-0.1,4-0.3,5.9-0.7l0.6-0.1c0.3-0.1,0.7-0.1,1-0.2c0,0,0.1,0,0.2,0c0,0,0,0.1,0,0.2
	c-0.8,1.4-0.4,5.1-0.4,5.1c0,0,0,0.1,0,0.1c0,0-0.1,0-0.1,0L50.5,50.7z M43,50.3l7.4,0.2l7.1-0.3c-0.2-1.6-0.1-3.3,0.3-4.9
	c-0.3,0.1-0.5,0.1-0.7,0.2l-0.6,0.1c-2,0.4-4,0.6-6,0.7c-0.1,0-6,0-7.7-0.6l-0.2-0.1C43,47.1,43.1,48.7,43,50.3z"/>
<path class="st0" d="M51.2,41.5c-0.2,0-0.4-0.1-0.5-0.2c-0.2-0.1-0.3-0.1-0.4,0c-0.5,0.3-1.5-0.1-1.7-0.2h-0.1V41
	c-0.1-3-0.5-12.7,0.3-13.3c0.4-0.5,0.7-1.2,0.8-1.8c0.1-0.4,0.2-0.8,0.4-1.2c0.1-0.1,0.2-0.2,0.3-0.2c0.4,0,0.7,0.7,1.2,2.4
	c0.1,0.3,0.2,0.5,0.2,0.7s0.2,0.4,0.3,4.9h-0.4c0-1.6-0.1-3.2-0.3-4.8c-0.1-0.1-0.1-0.4-0.2-0.7c-0.2-0.7-0.5-1.4-0.8-2.1
	c-0.1,0.3-0.2,0.7-0.3,1c-0.1,0.8-0.4,1.5-0.9,2.1c-0.4,0.5-0.3,7-0.1,12.8c0.4,0.2,0.8,0.2,1.2,0.1c0.2-0.2,0.5-0.2,0.8,0
	c0.1,0.1,0.3,0.1,0.4,0.1c0.2,0,0.5-0.1,0.7-0.3l0.3,0.3c-0.2,0.2-0.5,0.3-0.8,0.4L51.2,41.5z"/>
<path class="st0" d="M47.8,41.3c-0.2,0-0.3,0-0.5-0.1c-0.1-0.1-0.3-0.1-0.5,0c-0.5,0.1-1.1,0.1-1.6-0.1h-0.1V41
	c-0.2-2.9-0.4-9.6,0.3-10c0.4-0.2,0.6-0.8,0.8-1.4c0.1-0.3,0.2-0.6,0.4-0.9c0.1-0.1,0.2-0.1,0.3-0.1c0.3,0,0.6,0.6,1.2,1.8
	c0.1,0.2,0.2,0.4,0.2,0.5c0.3,0.5,0.6,8.5,0.6,10.1v0h-0.1c-0.2,0.1-0.5,0.2-0.8,0.3L47.8,41.3z M47,40.8c0.1,0,0.3,0,0.4,0.1
	c0.1,0.1,0.3,0.1,0.5,0.1c0.2,0,0.4-0.1,0.6-0.2c-0.1-3.6-0.4-9.4-0.6-9.8c-0.1-0.1-0.1-0.3-0.2-0.5c-0.2-0.4-0.7-1.6-0.9-1.6
	c-0.1,0.3-0.2,0.5-0.3,0.8c-0.1,0.6-0.4,1.2-0.9,1.6c-0.4,0.4-0.3,5.1-0.1,9.6c0.4,0.1,0.8,0.2,1.2,0.1C46.8,40.8,46.9,40.8,47,40.8
	z"/>
<path class="st0" d="M54.1,41.3c-0.2,0-0.3,0-0.5-0.1c-0.2-0.1-0.3-0.1-0.5,0c-0.5,0.1-1.1,0.1-1.6-0.1h-0.1V41
	c-0.2-2.5-0.4-8.2,0.3-8.5c0.4-0.3,0.6-0.7,0.8-1.2c0.1-0.3,0.2-0.5,0.4-0.8c0.1-0.1,0.2-0.1,0.3-0.1c0.3,0,0.7,0.7,1.1,1.5
	c0.1,0.1,0.1,0.3,0.2,0.4c0.3,0.5,0.6,7.2,0.6,8.6v0h-0.1c-0.2,0.1-0.5,0.2-0.8,0.2L54.1,41.3z M53.3,40.8c0.1,0,0.3,0,0.4,0.1
	c0.2,0.1,0.3,0.1,0.5,0.1c0.2,0,0.4-0.1,0.6-0.2c-0.1-3.1-0.4-8-0.6-8.3c-0.1-0.2-0.2-0.3-0.2-0.5c-0.2-0.3-0.7-1.4-0.9-1.4
	c-0.1,0.2-0.2,0.4-0.3,0.7c-0.1,0.5-0.5,1-0.9,1.3c-0.4,0.3-0.3,4.3-0.1,8.1c0.4,0.1,0.8,0.1,1.3,0.1C53.1,40.8,53.2,40.8,53.3,40.8
	z"/>
<path class="st0" d="M53.5,33c0,0,0,2,0.1,2.8s0.2,4.2,0.2,4.2"/>
<path class="st0" d="M53.8,40c-0.1,0-0.1-0.1-0.1-0.1c0,0,0,0,0,0s-0.1-3.3-0.2-4.2s-0.1-2.8-0.1-2.8c0-0.1,0.1-0.1,0.1-0.1
	c0,0,0,0,0,0c0.1,0,0.1,0.1,0.1,0.1c0,0,0,0,0,0s0,2,0.1,2.8s0.2,4.1,0.2,4.2C54,39.9,53.9,40,53.8,40C53.8,40,53.8,40,53.8,40
	L53.8,40z"/>
<path class="st0" d="M52.5,36.4c0,0.5,0,1,0.1,1.5c0.1,0.7,0.2,1.5,0.2,2.2"/>
<path class="st0" d="M52.8,40.2C52.8,40.2,52.7,40.2,52.8,40.2C52.7,40.1,52.7,40.1,52.8,40.2c-0.1-0.8-0.2-1.6-0.3-2.3
	c-0.1-0.5-0.1-1-0.1-1.5c0-0.1,0-0.1,0.1-0.1c0.1,0,0.1,0,0.1,0.1c0,0.5,0,1,0.1,1.5C52.8,38.6,52.9,39.4,52.8,40.2
	C52.9,40.2,52.9,40.2,52.8,40.2C52.8,40.2,52.8,40.2,52.8,40.2z"/>
<path class="st0" d="M46.8,30.2c0,0,0,1.9,0.1,2.8s0.2,4.2,0.2,4.2"/>
<path class="st0" d="M47.2,37.3c-0.1,0-0.1,0-0.1-0.1c0,0,0,0,0,0c0,0,0-3.3-0.2-4.2s-0.1-2.8-0.1-2.8c0-0.1,0.1-0.1,0.1-0.1
	s0.1,0.1,0.1,0.1c0,0,0,0,0,0c0,0,0,2,0.1,2.8s0.2,4.1,0.2,4.2C47.3,37.3,47.2,37.3,47.2,37.3C47.2,37.3,47.2,37.3,47.2,37.3
	L47.2,37.3z"/>
<path class="st0" d="M49.6,30.2c0,0,0,2.5,0.1,3.7s0.2,5.5,0.2,5.5"/>
<path class="st0" d="M49.9,39.5c-0.1,0-0.2-0.1-0.2-0.1v0c0,0-0.1-4.4-0.2-5.5s-0.1-3.6-0.1-3.7c0-0.1,0.1-0.2,0.1-0.2c0,0,0,0,0,0
	c0.1,0,0.2,0.1,0.2,0.1c0,0,0,0,0,0s0,2.6,0.1,3.7s0.2,5.3,0.2,5.5C50.1,39.4,50,39.5,49.9,39.5z"/>
<path class="st0" d="M46,33.3c0,0,0,2,0.1,2.8s0.2,4.2,0.2,4.2"/>
<path class="st0" d="M46.3,40.5c-0.1,0-0.1-0.1-0.1-0.1c0,0,0,0,0,0s-0.1-3.3-0.2-4.2s-0.1-2.8-0.1-2.8c0-0.1,0.1-0.1,0.1-0.1
	c0.1,0,0.1,0.1,0.1,0.1c0,0,0,0,0,0c0,0.9,0,1.9,0.1,2.8c0.1,0.9,0.2,4.1,0.2,4.2C46.4,40.5,46.3,40.5,46.3,40.5
	C46.3,40.5,46.3,40.5,46.3,40.5z"/>
<path class="st0" d="M10.2,56.5c0,0,29.4-1.4,41-1.5s40.9,2.2,40.9,2.2"/>
<path class="st0" d="M92.2,57.5c-0.3,0-29.4-2.2-40.9-2.2s-40.7,1.4-41,1.5v-0.5c0.3,0,29.5-1.4,41-1.5h0.7c11.9,0,40,2.2,40.3,2.2
	L92.2,57.5z"/>
<path class="st0" d="M78.2,50.5l-0.4-0.6c-0.1-0.1-6.1-9.5-10.6-13.2c-3.6-3-8.3-3.2-9.8-2.4c-0.2,0.1-0.4,0.3-0.4,0.5
	c0.1,1.5-2.1,2.6-2.2,2.7l-0.3,0.1l-0.3-3.8l0,0c-0.1-0.5,0.1-1,0.4-1.3c0.6-0.8,1.8-1.1,3.6-1.1c16.4,1,19.8,16.6,19.9,16.8
	C78.2,48,78.2,50.5,78.2,50.5z M59.8,33.5c2.8,0,5.6,1.1,7.8,2.9c3.9,3.2,8.9,10.6,10.3,12.8V48c-0.1-0.6-3.7-15.5-19.5-16.4
	c-1.6,0-2.8,0.3-3.3,1c-0.2,0.3-0.3,0.6-0.3,1l0.2,3.3c0.6-0.3,1.8-1.2,1.7-2.1c0-0.2,0.1-0.6,0.6-0.8
	C58.1,33.6,58.9,33.4,59.8,33.5z"/>
<path class="st0" d="M75.2,43.1c-0.1,0-0.1,0-0.2-0.1c0,0,0,0,0-0.1c-0.5-0.9-1.1-1.7-1.8-2.3c-0.4-0.5-0.8-0.9-1.2-1.4
	c-0.5-0.8-3.5-3.7-3.5-3.8c-0.1-0.1-0.1-0.1,0-0.2c0.1-0.1,0.1-0.1,0.2,0l0,0c1.2,1.2,2.4,2.5,3.5,3.8c0.4,0.5,0.7,1,1.2,1.4
	c1.1,1.3,1.8,2.1,1.8,2.5C75.3,43.1,75.2,43.1,75.2,43.1z"/>
<path class="st0" d="M56.2,33.5C56.2,33.5,56.1,33.5,56.2,33.5c-0.1-0.1-0.1-0.1-0.1-0.2c0-0.1,1.2-1.4,2.3-1
	c1.1,0.3,2.3,0.4,3.5,0.4c0.1,0,0.1,0.1,0.1,0.1c0,0.1-0.1,0.1-0.1,0.1c-1.2,0-2.4-0.2-3.5-0.5c-0.9-0.3-2,0.9-2,0.9
	C56.3,33.5,56.2,33.5,56.2,33.5z"/>
<path class="st0" d="M54.8,35.8L54.8,35.8c-0.1,0-0.1-0.1-0.1-0.1c0-0.1,0.1-0.1,0.1-0.1c0.3,0,0.7-0.7,0.8-1.1
	c0-0.1,0.1-0.1,0.1-0.1c0,0,0,0,0,0c0.1,0,0.1,0.1,0.1,0.2C55.9,34.6,55.4,35.8,54.8,35.8z"/>
<path class="st0" d="M76.8,46.6c-0.1,0-0.1,0-0.1-0.1c0,0-0.6-1.5-1.3-1.9s-1.8-2.5-1.8-2.6c0-0.1,0-0.1,0.1-0.2c0,0,0,0,0,0
	c0.1,0,0.1,0,0.2,0.1c0.3,0.6,1.1,2.2,1.7,2.5c0.8,0.4,1.4,2,1.5,2C77,46.5,77,46.6,76.8,46.6C76.9,46.6,76.9,46.6,76.8,46.6
	L76.8,46.6z"/>
<path class="st0" d="M65.1,33.7c0,0,1.2,1.3,1.5,1.3c1,0.5,2,1.3,2.7,2.2"/>
<path class="st0" d="M69.4,37.3c-0.1,0-0.1,0-0.1-0.1c-0.7-0.8-1.6-1.5-2.6-2.1l0,0c-0.3,0-1.3-1-1.7-1.4c-0.1,0-0.1-0.1,0-0.2
	c0,0,0,0,0,0c0.1,0,0.1,0,0.2,0c0.4,0.5,0.9,1,1.5,1.3l0,0c1.1,0.5,2.1,1.3,2.8,2.2C69.5,37.2,69.5,37.3,69.4,37.3
	C69.4,37.3,69.4,37.3,69.4,37.3L69.4,37.3z"/>
<path class="st0" d="M21.6,51v-2.5c0-0.2,3.5-15.8,19.9-16.8l0,0c1.8,0,3,0.4,3.6,1.1c0.3,0.4,0.4,0.9,0.4,1.4L45.2,38l-0.3-0.1
	c-0.1,0-2.3-1.2-2.2-2.7c0-0.2-0.2-0.4-0.4-0.5c-1.5-0.8-6.1-0.6-9.8,2.4C28.1,40.9,22.1,50.3,22,50.4L21.6,51z M22,48.6v1.1
	c1.4-2.1,6.4-9.5,10.3-12.8s8.6-3.3,10.2-2.4c0.5,0.3,0.6,0.6,0.6,0.8c-0.1,1,1.2,1.8,1.7,2.1l0.2-3.2c0.1-0.4,0-0.8-0.3-1.1
	c-0.5-0.6-1.6-1-3.3-1C25.7,33,22.2,47.9,22,48.6z"/>
<path class="st0" d="M24.7,43.7c-0.1,0-0.1,0-0.1-0.1c0,0,0,0,0,0c0-0.4,0.7-1.3,1.8-2.5c0.4-0.4,0.8-0.9,1.2-1.4
	c0.5-0.8,3.4-3.7,3.5-3.8c0.1-0.1,0.1-0.1,0.2,0c0.1,0.1,0.1,0.1,0,0.2l0,0c-1.2,1.2-2.4,2.4-3.5,3.8c-0.4,0.5-0.8,1-1.2,1.4
	c-0.7,0.7-1.3,1.5-1.8,2.3C24.8,43.6,24.8,43.7,24.7,43.7C24.7,43.7,24.7,43.7,24.7,43.7z"/>
<path class="st0" d="M43.7,34C43.6,34,43.6,34,43.7,34c-0.1,0-1.2-1.3-2.1-1c-1.2,0.3-2.3,0.4-3.5,0.5l0,0c-0.1,0-0.1-0.1-0.1-0.1
	c0,0,0,0,0,0c0-0.1,0-0.1,0.1-0.1c0,0,0,0,0,0c1.2,0,2.3-0.2,3.5-0.4c1.1-0.4,2.3,0.9,2.3,1c0,0.1,0,0.1,0,0.2
	C43.8,34,43.7,34,43.7,34C43.7,34,43.7,34,43.7,34z"/>
<path class="st0" d="M45,36.3c-0.6,0-1-1.2-1.1-1.3c0-0.1,0-0.1,0.1-0.2c0,0,0,0,0,0c0.1,0,0.1,0,0.2,0.1c0,0,0,0,0,0
	c0.1,0.4,0.5,1.1,0.8,1.1l0,0c0.1,0,0.1,0.1,0.1,0.1C45.1,36.2,45.1,36.3,45,36.3L45,36.3z"/>
<path class="st0" d="M23,47.1L23,47.1c-0.1,0-0.1-0.1-0.1-0.2c0-0.1,0.6-1.6,1.5-2c0.6-0.3,1.4-1.9,1.7-2.5c0-0.1,0.1-0.1,0.2-0.1
	c0.1,0,0.1,0.1,0.1,0.2c0,0.1-1,2.2-1.8,2.6S23.1,47,23.1,47C23.1,47.1,23.1,47.1,23,47.1z"/>
<path class="st0" d="M30.5,37.8L30.5,37.8c-0.1,0-0.1-0.1-0.1-0.2c0.8-0.9,1.7-1.7,2.8-2.2l0,0c0.6-0.4,1-0.8,1.5-1.3
	c0.1,0,0.1,0,0.2,0c0.1,0,0.1,0.1,0,0.2c0,0,0,0,0,0c-0.4,0.4-1.3,1.4-1.7,1.4l0,0c-1,0.5-1.9,1.3-2.6,2.1
	C30.6,37.8,30.5,37.8,30.5,37.8z"/>
<path class="st0" d="M57.8,41.5c-1-0.4-2-0.6-3-0.8l0.1-0.4c1.1,0.2,2.1,0.4,3.1,0.8L57.8,41.5z"/>
<path class="st0" d="M43,41.5l-0.2-0.4c0.7-0.3,1.5-0.5,2.3-0.6l0.1,0.4C44.4,41,43.7,41.2,43,41.5z"/>
</svg>
