<?xml version="1.0" encoding="utf-8"?>
<!-- Generator: Adobe Illustrator 25.2.1, SVG Export Plug-In . SVG Version: 6.00 Build 0)  -->
<svg version="1.1" id="Layer_1" xmlns="http://www.w3.org/2000/svg" xmlns:xlink="http://www.w3.org/1999/xlink" x="0px" y="0px"
	 viewBox="0 0 100 100" style="enable-background:new 0 0 100 100;" xml:space="preserve">
<style type="text/css">
	.st0{fill:#FFFFFF;}
</style>
<path class="st0" d="M50.5,99.6c-26,0-47.1-21.9-47.1-48.8C3.4,23.9,24.5,2,50.5,2s47.1,21.9,47.1,48.8S76.5,99.6,50.5,99.6z
	 M50.5,5.5C26.4,5.5,6.9,25.8,6.9,50.8s19.6,45.3,43.6,45.3s43.6-20.3,43.6-45.3S74.5,5.5,50.5,5.5z"/>
<path class="st0" d="M80.9,86.6C80.6,86.5,73,83,62.6,74.4c-9.5-7.9-23.2-21.9-34.4-43.7c-7.9-15.8-4.8-19.8-3.7-20.7l2.1,2.8
	c0.1-0.1,0.2-0.2,0.2-0.2s-2.2,3.1,4.5,16.5c20.9,40.6,50.7,54.1,51,54.3L80.9,86.6z"/>
<path class="st0" d="M26.4,81.3c-13.6,0-17.5-7.4-17.7-7.8l3.1-1.6l-1.6,0.8l1.6-0.8c0.2,0.3,4.3,7.8,20.6,5.4
	C48.9,74.8,70,54.8,76.8,35.4c5.8-16.9,0.1-20.7,0-20.7l1.6-3.1c0.9,0.5,8.6,5,1.7,25c-3.3,9.6-10.2,19.9-19,28.4
	c-9.2,8.9-19.2,14.5-28,15.9C30.6,81.1,28.4,81.3,26.4,81.3z"/>
<path class="st0" d="M70.5,65.1c-3.5,0-6.9-0.7-9.2-2.9c-4.6-4.6-5.5-17.5-6.2-32.6c-0.1-2.4-0.2-4.7-0.4-6.6
	C54,12.8,47.2,5.1,47.2,5l2.6-2.3c0.3,0.4,7.7,8.8,8.5,19.9c0.1,1.9,0.2,4.3,0.4,6.7c0.5,10.5,1.2,26.3,5.2,30.3
	c3.8,3.8,14.9,1,18.9-0.4c2.8-1.4,10-5.5,11.5-9.2l3.2,1.4c-2.4,5.5-12.2,10.4-13.3,11L84,62.5C82.9,62.9,76.6,65.1,70.5,65.1z"/>
<path class="st0" d="M48.8,98.7l-3.1-1.6c0-0.1,4.4-8.7,5.8-16.1c1.3-6.8-6.3-11.2-12.8-13.8c-1.3-0.5-2.5-0.9-3.6-1.4
	c-5.9-2.2-11-4.1-19.9-10C3.8,48.3,5.9,35.2,6,34.6l3.4,0.6l-1.7-0.3l1.7,0.3c0,0.5-1.7,11.5,7.6,17.7c8.6,5.7,13.3,7.5,19.2,9.7
	c1.2,0.4,2.4,0.9,3.6,1.4c14.1,5.5,15.9,12.6,15,17.7C53.4,89.5,49,98.3,48.8,98.7z"/>
</svg>
