<?xml version="1.0" encoding="utf-8"?>
<!-- Generator: Adobe Illustrator 25.2.1, SVG Export Plug-In . SVG Version: 6.00 Build 0)  -->
<svg version="1.1" id="Layer_1" xmlns="http://www.w3.org/2000/svg" xmlns:xlink="http://www.w3.org/1999/xlink" x="0px" y="0px"
	 viewBox="0 0 100 100" style="enable-background:new 0 0 100 100;" xml:space="preserve">
<style type="text/css">
	.st0{fill:#FFFFFF;}
</style>
<g>
	<circle class="st0" cx="92" cy="43.9" r="3"/>
	<path class="st0" d="M84,50.2l-16.2-9c0,0,1.1-1.9-1.7-2.4l-1.9-1.3c0,0-1.5-1-2.1-2c0,0-0.9-1.8-3.3-1.6c0,0-6.1-4.1-7.2-6.2
		c0,0-4.2-4.7-7.5-6.1c0,0-0.9-1.3-1.7-1.8l0.6-0.6l-0.2-0.9c0,0,1.9,0,2.7-1.1c0.8-1.2-2-2.6-2-2.6s0.7-1.9-0.2-3.6
		c-0.9-1.7-3.2-3.1-5.1-3.4c-1.9-0.3-4.9-0.3-6.3,2.6c-1.3,2.9-1.3,3.9-1.3,3.9s-2.2,0.4-4.4,3c-2.2,2.6-2.6,6.6-2.6,6.6
		s0.1,0.7-0.7,2.2c-0.7,1.4-0.3,2.8-0.3,2.8s-0.3,1.2-1,2.4c-0.7,1.2,0.2,5,0.2,5s0.2,3.3,1.4,4.9c0,0-1,3.1-0.8,6.2
		c0.3,3.1-0.1,5.9,3,8.7c2.4,2.2,2.4,6,2.4,6s0.2,4.6,1.3,6.9c0,0-6.4,2.5-8.1,4.2c-1.7,1.7-10.4,4.4-12.9,3.7
		c-2.6-0.7-3.7,0.5-3.4,1.9c0.3,1.4,1.1,2.9,1.1,6.3c0,3.4,2.3,6.8,2.3,6.8s1.8,2,3-0.3c0.4-0.9-0.9-3.7,0.7-5.7c0,0,0.9,0.1,2-1.7
		c0,0,2.1,0.2,4.5-1c2.4-1.2,17.2-8.2,17.2-8.2s2.2-0.9,2.2-3.2l1-5.9c0,0,2.2,2.7,2.9,3c0,0,2.2,4.6,3.5,5.7
		c1.3,1.1,5.2,8.1,5.2,8.1s0.4,2.1,1.4,2.1c0,0-1,0.4,0,1.6c0,0-1.2,2.1-0.6,3.6c0,0-0.4,1.4,0.2,1.9c0.8,0.8,3.9,0.2,5.3,0.5
		c0,0,8,0.8,9.8,0c0.9-0.4,1.6-1.6-0.1-2.7c0,0-4.2-0.2-5.8-3c-0.1-0.1,0.3-0.9,0.2-1.1c-1.8-3.1-6-9.6-7.1-12.4
		c-0.8-1.9-4-6.4-4.4-7.8c-0.4-1.4-6.8-12.7-7.8-15.1c0,0-0.7-4.4-3.1-6.9c0,0,1.5-1.3,1.5-2.3c0,0,3.8,2.8,6.6,3
		c2.8,0.2,9-0.1,10.9-0.8c6.1,1.4,7.6,0.5,7.6,0.5s0.7,0.3,1.7-0.9c0,0,12.9,8.8,15,10c2,1.2,9.2,5.7,9.9,6.2
		c0.7,0.5,3.2-0.7,1.8-2.6L84,50.2z M57.8,40c-3.7-0.1-9.7-0.6-10.7-2.7c-1.7-3.3-3.3-4.6-3.3-4.6c0.8-1.3-0.3-3.5-0.3-3.5
		c1.7,1.3,5,2.8,5,2.8s7.3,2.2,8.6,4.7c1.3,2.5,4,3.3,4,3.3S59.5,39.2,57.8,40z"/>
</g>
</svg>
