<?xml version="1.0" encoding="utf-8"?>
<!-- Generator: Adobe Illustrator 25.2.1, SVG Export Plug-In . SVG Version: 6.00 Build 0)  -->
<svg version="1.1" id="Layer_1" xmlns="http://www.w3.org/2000/svg" xmlns:xlink="http://www.w3.org/1999/xlink" x="0px" y="0px"
	 viewBox="0 0 100 100" style="enable-background:new 0 0 100 100;" xml:space="preserve">
<style type="text/css">
	.st0{fill:#FFFFFF;}
</style>
<g>
	<g>
		<g>
			<path class="st0" d="M60,84.4c-2.7-0.7-6.2-1-10-1s-7.3,0.4-10,1c-3.4,0.9-5.1,2.1-5.1,3.8v6.8c0,1.7,1.7,3,5.1,3.8
				c2.7,0.7,6.2,1,10,1s7.3-0.4,10-1c3.4-0.9,5.1-2.1,5.1-3.8v-6.8C65.1,86.6,63.5,85.3,60,84.4z M50,86.3c6.7,0,10.9,1.2,12,2
				c-1.1,0.8-5.3,2-12,2s-10.9-1.2-12-2C39.1,87.5,43.3,86.3,50,86.3z"/>
			<path class="st0" d="M91.7,62.9H68c-1.8,0-3.5-0.9-4.5-2.4l-7.6-11.3L83.2,6.8c0.9-1.4,0.9-3.1,0.2-4.5c-1.2-2.1-3.9-2.9-6-1.7
				c-0.5,0.3-1,0.7-1.4,1.2c0,0,0,0.1-0.1,0.1l-8.4,12.5l0,0l-4.6,6.8c-0.5,0.7-0.3,1.6,0.4,2s1.6,0.3,2-0.4c0,0,0,0,0-0.1l4.2-6.2
				h3.9L53,48.4v0L48,56.1h-5l17.8-26.4c0.5-0.7,0.3-1.6-0.4-2c-0.7-0.5-1.6-0.3-2,0.4c0,0,0,0,0,0.1L50,40.4L24.1,1.8
				c0,0,0-0.1-0.1-0.1c-1.5-1.9-4.3-2.3-6.2-0.8c-1.8,1.4-2.3,4-1,5.9l27.3,42.4l-5,7.5l0,0l-2.6,3.8c-1,1.5-2.7,2.4-4.5,2.4H8.3
				c-4.6,0-8.3,3.7-8.3,8.3s3.7,8.3,8.3,8.3h14.6c8.5,0,16.4-4.3,20.9-11.4l6.2-9.7l4.3,6.7c0.4,0.7,1.3,0.9,2,0.4
				c0.7-0.4,0.9-1.3,0.4-2l0,0L53.9,59H59l2.1,3.2c1.5,2.3,4.1,3.7,6.9,3.7h1.7v9.5c-3-1.1-5.8-2.8-8.1-5.1c-0.6-0.6-1.5-0.6-2.1,0
				c-0.6,0.6-0.6,1.5,0,2.1l0,0c4.7,4.7,11,7.3,17.6,7.3h14.6c4.6,0,8.3-3.7,8.3-8.3S96.3,62.9,91.7,62.9z M19.2,3.7
				c0.4-0.7,1.3-1,2-0.6c0.2,0.1,0.3,0.2,0.4,0.4l6.9,10.2h-3.8l-5.4-8.5C19,4.8,19,4.2,19.2,3.7z M16.6,76.6V65.8h10.7v10.3
				c-1.5,0.3-3,0.5-4.5,0.5H16.6z"/>
		</g>
	</g>
</g>
</svg>
