<?xml version="1.0" encoding="utf-8"?>
<!-- Generator: Adobe Illustrator 25.2.1, SVG Export Plug-In . SVG Version: 6.00 Build 0)  -->
<svg version="1.1" id="Layer_1" xmlns="http://www.w3.org/2000/svg" xmlns:xlink="http://www.w3.org/1999/xlink" x="0px" y="0px"
	 viewBox="0 0 100 100" style="enable-background:new 0 0 100 100;" xml:space="preserve">
<style type="text/css">
	.st0{fill:#FFFFFF;}
</style>
<path class="st0" d="M11,90h17c0.6,0,1-0.4,1-1V51.2c2.7-1.8,22-13.7,41.9,0V89c0,0.6,0.4,1,1,1h17c0.6,0,1-0.4,1-1V27.8
	c0-2.2-1.8-4-4-4h-0.3c1.6-1.4,2.6-3.5,2.6-5.9c0-4.3-3.5-7.9-7.9-7.9c-4.3,0-7.9,3.5-7.9,7.9c0,2.3,1,4.4,2.6,5.9H75
	c-1.4,0-2.6,0.7-3.4,1.8c-19.9-11.2-39-2.2-43.2,0.1c-0.7-1.1-2-1.9-3.4-1.9h-0.3c1.6-1.4,2.6-3.5,2.6-5.9c0-4.3-3.5-7.9-7.9-7.9
	c-4.3,0-7.9,3.5-7.9,7.9c0,2.3,1,4.4,2.6,5.9h-0.3c-2.2,0-4,1.8-4,4V89C10,89.6,10.5,90,11,90z M27,51.7v10.8H12V51.7H27z M12,64.5
	h6.5v3.4c0,0.6,0.4,1,1,1s1-0.4,1-1v-3.4H27v10.8H12V64.5z M27,49.7h-6.5v-3.3c0-0.6-0.4-1-1-1s-1,0.4-1,1v3.3H12V38.9h15V49.7z
	 M20.5,88v-3.4c0-0.6-0.4-1-1-1s-1,0.4-1,1V88H12V77.2h15V88H20.5z M88,51.7v10.8H73V51.7H88z M73,64.5h6.5v3.4c0,0.6,0.4,1,1,1
	s1-0.4,1-1v-3.4H88v10.8H73V64.5z M88,49.7h-6.5v-3.3c0-0.6-0.4-1-1-1s-1,0.4-1,1v3.3H73V38.9h15V49.7z M81.5,88v-3.4
	c0-0.6-0.4-1-1-1s-1,0.4-1,1V88H73V77.2h15V88H81.5z M74.6,17.9c0-3.2,2.6-5.9,5.9-5.9c3.2,0,5.9,2.6,5.9,5.9s-2.6,5.9-5.9,5.9
	C77.2,23.7,74.6,21.1,74.6,17.9z M75,25.7h4.5V29c0,0.6,0.4,1,1,1s1-0.4,1-1v-3.2h4.5c1.1,0,2,0.9,2,2v9.2H73v-9.2
	C73,26.6,73.9,25.7,75,25.7z M71,27.5c0,0.1,0,0.2,0,0.2v21.1c-18.7-12.1-36.7-3.2-41.9,0V27.8c0-0.1,0-0.1,0-0.2
	C31.9,26,51.1,16.1,71,27.5z M13.7,17.9c0-3.2,2.6-5.9,5.9-5.9c3.2,0,5.9,2.6,5.9,5.9s-2.6,5.9-5.9,5.9
	C16.3,23.7,13.7,21.1,13.7,17.9z M14.1,25.7h4.5V29c0,0.6,0.4,1,1,1s1-0.4,1-1v-3.2H25c1.1,0,2,0.9,2,2v9.2H12v-9.2
	C12,26.6,12.9,25.7,14.1,25.7z"/>
<path class="st0" d="M49.7,38.9c2.5,0,4.5-2.3,4.5-5.2s-2-5.2-4.5-5.2s-4.5,2.3-4.5,5.2S47.2,38.9,49.7,38.9z M49.7,30.6
	c1.4,0,2.5,1.4,2.5,3.2s-1.1,3.2-2.5,3.2s-2.5-1.4-2.5-3.2S48.3,30.6,49.7,30.6z"/>
<path class="st0" d="M61.5,38.9c2.5,0,4.5-2.3,4.5-5.2s-2-5.2-4.5-5.2S57,30.9,57,33.8S59,38.9,61.5,38.9z M61.5,30.6
	c1.4,0,2.5,1.4,2.5,3.2s-1.1,3.2-2.5,3.2S59,35.5,59,33.8S60.1,30.6,61.5,30.6z"/>
<path class="st0" d="M35.9,30.7h4l-4.8,6.5c-0.2,0.3-0.3,0.7-0.1,1c0.2,0.3,0.5,0.6,0.9,0.6h6c0.6,0,1-0.4,1-1s-0.4-1-1-1h-4
	l4.8-6.5c0.2-0.3,0.3-0.7,0.1-1c-0.2-0.3-0.5-0.6-0.9-0.6h-6c-0.6,0-1,0.4-1,1S35.3,30.7,35.9,30.7z"/>
</svg>
