<?xml version="1.0" encoding="utf-8"?>
<!-- Generator: Adobe Illustrator 25.2.1, SVG Export Plug-In . SVG Version: 6.00 Build 0)  -->
<svg version="1.1" id="Layer_1" xmlns="http://www.w3.org/2000/svg" xmlns:xlink="http://www.w3.org/1999/xlink" x="0px" y="0px"
	 viewBox="0 0 100 100" style="enable-background:new 0 0 100 100;" xml:space="preserve">
<style type="text/css">
	.st0{fill:#FFFFFF;}
</style>
<g>
	<g>
		<path class="st0" d="M62,70.8c-0.2,0-0.5-0.1-0.7-0.2c-0.4-0.3-0.9-0.7-1.4-1.1c-3.1-2.7-8.7-7.6-19.5-3.7
			c-0.6,0.2-1.2-0.1-1.5-0.7c-0.2-0.6,0.1-1.2,0.7-1.5c12-4.4,18.6,1.4,21.7,4.2c0.5,0.4,0.9,0.8,1.2,1c0.5,0.4,0.6,1.1,0.3,1.6
			C62.7,70.7,62.4,70.8,62,70.8z"/>
	</g>
	<g>
		<path class="st0" d="M74.7,74.2c-7.4,0-11.9-2.7-13.8-3.8l-0.4-0.2c-4.2-2.4-7.8-2.8-10.5-2.8c-2.7,0-6.2,0.3-10.5,2.8l-0.4,0.2
			c-1.9,1.1-6.5,3.8-13.8,3.8l-0.4,0C13.7,74.1,6.1,66.4,6.1,55.1C6.1,39.7,27,25.8,50,25.8s43.9,14,43.9,29.3
			c0,11.3-7.6,19-18.9,19.2L74.7,74.2z M50,65.1c2.7,0,6.9,0.3,11.6,3.1l0.4,0.2C64,69.6,68,72,74.7,72l0.3,0
			c9.9-0.1,16.6-6.9,16.6-16.9c0-13.9-20.2-27-41.6-27c-21.4,0-41.6,13.1-41.6,27C8.4,65.1,15,71.8,25,72l0.3,0
			C32,72,36,69.6,38,68.4l0.4-0.2C43.1,65.4,47.3,65.1,50,65.1z"/>
	</g>
	<g>
		<path class="st0" d="M19.2,43.9c-0.2,0-0.5-0.1-0.7-0.2c-0.5-0.4-0.6-1.1-0.2-1.6c4.5-5.6,16.1-11.7,26.1-11.7
			c0.6,0,1.1,0.5,1.1,1.1s-0.5,1.1-1.1,1.1c-9.2,0-20.2,5.7-24.3,10.8C19.8,43.8,19.5,43.9,19.2,43.9z"/>
	</g>
	<g>
		<path class="st0" d="M98.9,74.2H1.1c-0.6,0-1.1-0.5-1.1-1.1C0,72.5,0.5,72,1.1,72h97.7c0.6,0,1.1,0.5,1.1,1.1
			C100,73.7,99.5,74.2,98.9,74.2z"/>
	</g>
</g>
</svg>
