<?xml version="1.0" encoding="utf-8"?>
<!-- Generator: Adobe Illustrator 25.2.1, SVG Export Plug-In . SVG Version: 6.00 Build 0)  -->
<svg version="1.1" id="Layer_1" xmlns="http://www.w3.org/2000/svg" xmlns:xlink="http://www.w3.org/1999/xlink" x="0px" y="0px"
	 viewBox="0 0 100 100" style="enable-background:new 0 0 100 100;" xml:space="preserve">
<style type="text/css">
	.st0{fill:#FFFFFF;}
	.st1{fill:none;}
</style>
<path class="st0" d="M26.9,52.8c0.3,0,0.4-0.3,0.4-0.5c0-0.2-0.2-0.4-0.4-0.4H14.2c-0.3,0-0.4,0.3-0.4,0.5c0,0.2,0.2,0.4,0.4,0.4
	H26.9z"/>
<path class="st0" d="M14.2,52.8c0.3,0,0.5-0.2,0.5-0.5V17.4c0-0.3-0.2-0.5-0.5-0.5c-0.3,0-0.5,0.2-0.5,0.5c0,0,0,0,0,0v35
	C13.7,52.7,13.9,52.9,14.2,52.8z"/>
<rect x="50.1" y="35.7" class="st0" width="26.4" height="1.3"/>
<path class="st0" d="M50.1,50.2c0.2,0,0.4-0.1,0.4-0.3c0-0.2,0.1-0.4,0.1-0.7V25.8c-0.1-1.9-1.6-3.3-3.5-3.2H32.6
	c-1.9-0.1-3.4,1.4-3.5,3.2v23.4c0,0.1,0,0.3,0,0.4c0,0.2,0.2,0.4,0.5,0.4c0,0,0,0,0,0c0.2,0,0.4-0.3,0.4-0.5c0-0.1,0-0.2,0-0.3V25.8
	c0.1-1.4,1.2-2.4,2.6-2.3h14.5c1.4-0.1,2.5,1,2.6,2.3v23.4c0,0.2,0,0.3,0,0.5C49.6,49.9,49.8,50.2,50.1,50.2
	C50,50.2,50,50.2,50.1,50.2L50.1,50.2z"/>
<rect x="14.4" y="35.7" class="st0" width="15.2" height="1.3"/>
<path class="st0" d="M39.9,50.1c0.2,0,0.3-0.1,0.3-0.3V23c0-0.2-0.1-0.3-0.3-0.3c-0.2,0-0.3,0.1-0.3,0.3v26.8
	C39.5,50,39.7,50.1,39.9,50.1C39.9,50.1,39.9,50.1,39.9,50.1z"/>
<path class="st0" d="M25.3,33.1c0.9,0,1.8-0.7,1.8-1.6v-8.5c0-0.9-0.9-1.7-1.8-1.6h-11c-0.1,0-0.3,0.1-0.3,0.3l0,0
	c0,0.1,0.1,0.3,0.3,0.3l0,0h11c0.7,0,1.2,0.5,1.3,1.1v8.5c0,0.7-0.6,1.2-1.3,1.1h-11c-0.1,0-0.3,0.1-0.3,0.3c0,0.1,0.1,0.3,0.3,0.3
	H25.3z"/>
<path class="st0" d="M87.6,55.1c0,0,0.1,0,0.1-0.1l1.5-2.5c0,0,0-0.1,0-0.1c0,0-0.1-0.1-0.1-0.1H13.8c-0.1,0-0.1,0-0.1,0.1
	c0,0,0,0,0,0v2.5c0,0.1,0.1,0.1,0.1,0.1c0,0,0,0,0,0H87.6z M13.9,54.8v-2.2h75l-1.3,2.2L13.9,54.8z"/>
<rect x="13.8" y="54.9" class="st0" width="73" height="0.8"/>
<path class="st0" d="M86.9,55.8v-1H13.6v1H86.9z M13.9,55.6v-0.5h72.7v0.5H13.9z"/>
<path class="st0" d="M88.3,53.8c0.1,0,0.1-0.1,0.1-0.1c0-0.1-0.1-0.1-0.1-0.1c0,0,0,0,0,0H13.8c-0.1,0-0.1,0.1-0.1,0.1
	s0.1,0.1,0.1,0.1c0,0,0,0,0,0H88.3z"/>
<rect x="63.5" y="55.6" class="st0" width="3.2" height="33.5"/>
<path class="st0" d="M66.8,89.2V55.5h-3.4v33.7H66.8z M63.6,88.9V55.7h2.9v33.2H63.6z"/>
<path class="st0" d="M61.8,87.1c0.1,0,0.1-0.1,0.1-0.1V55.2c0-0.1-0.1-0.1-0.1-0.1c0,0,0,0,0,0c-0.1,0-0.1,0.1-0.1,0.1c0,0,0,0,0,0
	V87C61.7,87.1,61.7,87.1,61.8,87.1C61.8,87.1,61.8,87.1,61.8,87.1z"/>
<rect x="21.1" y="55.8" class="st0" width="3.2" height="33.5"/>
<path class="st0" d="M24.4,89.4V55.7H21v33.7H24.4z M21.2,89.1V55.9h2.9v33.2H21.2z"/>
<path class="st0" d="M19.4,87.3c0.1,0,0.1-0.1,0.1-0.1l0,0V55.4c0-0.1-0.1-0.1-0.1-0.1c-0.1,0-0.1,0.1-0.1,0.1v31.8
	C19.3,87.3,19.3,87.3,19.4,87.3z"/>
<rect x="52.9" y="55.3" class="st0" width="3.7" height="26"/>
<path class="st0" d="M56.7,81.4V55.2h-4v26.2H56.7z M53,81.2V55.4h3.5v25.7H53z"/>
<path class="st0" d="M51.3,77.2c0.1,0,0.1-0.1,0.1-0.1c0,0,0,0,0,0V55.6c0-0.1-0.1-0.1-0.1-0.1c-0.1,0-0.1,0-0.1,0.1c0,0,0,0,0,0V77
	C51.2,77.1,51.2,77.1,51.3,77.2C51.3,77.2,51.3,77.2,51.3,77.2z"/>
<path class="st0" d="M89.1,52.6c0,0,0.1,0,0.1-0.1c0,0,0-0.1,0-0.2c0,0,0,0,0,0l-2.9-1.5h-3.2C83,50.8,83,50.9,83,51
	c0,0.1,0.1,0.1,0.1,0.1c0,0,0,0,0,0h3.1C86.2,51.1,89.1,52.6,89.1,52.6z"/>
<path class="st0" d="M61.9,33.6c0.5,0,0.9-0.4,0.9-0.9c0,0,0,0,0,0V23c0-0.5-0.4-0.9-0.9-0.9h-7.5c-0.5,0-0.9,0.4-0.9,0.9v9.8
	c0,0.5,0.4,0.9,0.9,0.9c0,0,0,0,0,0L61.9,33.6z M54.4,22.6h7.5c0.2,0,0.4,0.2,0.4,0.4c0,0,0,0,0,0v9.8c0,0.2-0.2,0.4-0.4,0.4l0,0
	h-7.5c-0.2,0-0.4-0.2-0.4-0.4l0,0V23C54,22.8,54.2,22.6,54.4,22.6C54.4,22.6,54.4,22.6,54.4,22.6z"/>
<path class="st0" d="M14.3,25.1H26v5.7c-0.1,0.7-0.8,1.3-1.5,1.2H14.2v-9.7h10.3c0.8-0.1,1.4,0.4,1.5,1.2c0,0,0,0,0,0v0.7H14.3V25.1
	z"/>
<path class="st0" d="M24.5,32.2c0.9,0.1,1.6-0.6,1.7-1.4v-5.9H14.5v-0.4h11.6v-0.9c-0.1-0.9-0.8-1.5-1.7-1.4H13.9v10.1H24.5z
	 M14.4,31.8v-6.4h11.3v5.5c-0.1,0.6-0.6,1-1.2,1H14.4z M14.4,24v-1.4h10.1c0.6-0.1,1.2,0.4,1.2,1V24L14.4,24z"/>
<path class="st0" d="M76.4,52.8L76.4,52.8l2.1-0.1h0.1l5-1.7c0.2-0.1,0.3-0.2,0.3-0.4L84,14.2c0-0.3-0.2-0.5-0.5-0.5
	c-0.1,0-0.1,0-0.2,0l-5.1,2.1l-2,1.2c-0.1,0.1-0.2,0.2-0.2,0.4l-0.1,35C76,52.6,76.2,52.9,76.4,52.8L76.4,52.8z M77,17.7l1.8-1
	l4.4-1.8L83,50.2l-4.6,1.5l-1.5,0.1L77,17.7z"/>
<path class="st0" d="M36.6,25.5c0.6,0,1.1,0.5,1.1,1.1v9.1c0,0.6-0.5,1.1-1.1,1.1h-3.8c-0.6,0-1.1-0.5-1.1-1.1v-9.1
	c0-0.6,0.5-1.1,1.1-1.1L36.6,25.5z M37.6,27.2v-0.6h-5.7v0.6H37.6z"/>
<path class="st0" d="M36.6,37c0.7,0,1.3-0.6,1.3-1.3v-9.1c0-0.7-0.6-1.3-1.3-1.3h-3.8c-0.7,0-1.3,0.6-1.3,1.3v9.1
	c0,0.7,0.6,1.3,1.3,1.3H36.6z M31.8,27.3h5.7v8.4c0,0.6-0.4,1-1,1h-3.8c-0.6,0-1-0.4-1-1L31.8,27.3z M32,27v-0.2h5.4V27H32z
	 M31.8,26.5c0.1-0.5,0.5-0.8,0.9-0.8h3.8c0.5,0,0.9,0.3,1,0.8H31.8z"/>
<path class="st0" d="M76.9,52.8v-3.6H13.7v3.6H76.9z M14.6,51.9v-1.8H76v1.8H14.6z"/>
<path class="st0" d="M29.6,38.2c0.2,0,0.4-0.2,0.4-0.3c0-0.2-0.2-0.3-0.4-0.3H14.4c-0.2,0-0.3,0.2-0.4,0.3c0,0.2,0.2,0.3,0.4,0.3
	H29.6z"/>
<path class="st0" d="M29.6,39.4c0.2,0,0.4-0.2,0.4-0.3c0-0.2-0.2-0.3-0.4-0.3H14.4c-0.2,0-0.3,0.2-0.4,0.3c0,0.2,0.2,0.3,0.4,0.3
	H29.6z"/>
<path class="st0" d="M29.6,40.6c0.2,0,0.4-0.2,0.4-0.4c0-0.2-0.2-0.3-0.4-0.3H14.4c-0.2,0-0.4,0.2-0.4,0.3c0,0.2,0.2,0.4,0.4,0.4
	H29.6z"/>
<path class="st0" d="M29.6,41.8c0.2,0,0.3-0.2,0.4-0.3c0-0.2-0.2-0.3-0.4-0.3H14.4c-0.2,0-0.3,0.2-0.4,0.3c0,0.2,0.2,0.3,0.4,0.3
	H29.6z"/>
<path class="st0" d="M29.6,43c0.2,0,0.3-0.2,0.4-0.3c0-0.2-0.2-0.3-0.4-0.3H14.4c-0.2,0-0.3,0.2-0.4,0.3c0,0.2,0.2,0.3,0.4,0.3H29.6
	z"/>
<path class="st0" d="M29.6,44.2c0.2,0,0.4-0.1,0.4-0.3c0-0.2-0.1-0.4-0.3-0.4c0,0-0.1,0-0.1,0H14.4c-0.2,0-0.4,0.1-0.4,0.3
	c0,0.2,0.1,0.4,0.3,0.4c0,0,0.1,0,0.1,0H29.6z"/>
<path class="st0" d="M29.6,45.4c0.2,0,0.4-0.1,0.4-0.3c0-0.2-0.1-0.4-0.3-0.4c0,0-0.1,0-0.1,0H14.4c-0.2,0-0.4,0.1-0.4,0.3
	c0,0.2,0.1,0.4,0.3,0.4c0,0,0.1,0,0.1,0H29.6z"/>
<path class="st0" d="M29.6,46.6c0.2,0,0.4-0.2,0.4-0.3c0-0.2-0.2-0.3-0.4-0.3H14.4c-0.2,0-0.3,0.2-0.4,0.3c0,0.2,0.2,0.3,0.4,0.3
	H29.6z"/>
<path class="st0" d="M29.6,47.8c0.2,0,0.4-0.2,0.4-0.3c0-0.2-0.2-0.3-0.4-0.3H14.4c-0.2,0-0.3,0.2-0.4,0.3c0,0.2,0.2,0.3,0.4,0.3
	H29.6z"/>
<path class="st0" d="M29.6,49c0.2,0,0.4-0.2,0.4-0.3c0-0.2-0.2-0.4-0.4-0.4H14.4c-0.2,0-0.4,0.2-0.4,0.4c0,0.2,0.2,0.3,0.4,0.3H29.6
	z"/>
<path class="st0" d="M67,38.2c0.2,0,0.3-0.2,0.3-0.4c0-0.1-0.1-0.3-0.3-0.3H50.1c-0.2,0-0.4,0.1-0.4,0.3c0,0.2,0.1,0.4,0.3,0.4
	c0,0,0.1,0,0.1,0H67z"/>
<path class="st0" d="M67,39.4c0.2,0,0.3-0.2,0.3-0.4c0-0.1-0.1-0.3-0.3-0.3H50.1c-0.2,0-0.4,0.1-0.4,0.3c0,0.2,0.1,0.4,0.3,0.4
	c0,0,0.1,0,0.1,0H67z"/>
<path class="st0" d="M67,40.6c0.2,0,0.3-0.2,0.3-0.3s-0.2-0.3-0.3-0.3H50.1c-0.2,0-0.3,0.2-0.3,0.3s0.2,0.3,0.3,0.3H67z"/>
<path class="st0" d="M67,41.8c0.2,0,0.3-0.2,0.3-0.3c0-0.2-0.1-0.3-0.3-0.3H50.1c-0.2,0-0.3,0.2-0.3,0.3l0,0c0,0.2,0.2,0.3,0.3,0.3
	H67z"/>
<path class="st0" d="M67,43c0.2,0,0.3-0.2,0.3-0.4c0-0.1-0.1-0.3-0.3-0.3H50.1c-0.2,0-0.4,0.1-0.4,0.3c0,0.2,0.1,0.4,0.3,0.4
	c0,0,0.1,0,0.1,0H67z"/>
<path class="st0" d="M67,44.2c0.2,0,0.3-0.2,0.3-0.4c0-0.1-0.1-0.3-0.3-0.3H50.1c-0.2,0-0.4,0.1-0.4,0.3c0,0.2,0.1,0.4,0.3,0.4
	c0,0,0.1,0,0.1,0H67z"/>
<path class="st0" d="M67,45.4c0.2,0,0.3-0.2,0.3-0.4c0-0.1-0.1-0.3-0.3-0.3H50.1c-0.2,0-0.4,0.1-0.4,0.3c0,0.2,0.1,0.4,0.3,0.4
	c0,0,0.1,0,0.1,0H67z"/>
<path class="st0" d="M67,46.6c0.2,0,0.3-0.2,0.3-0.4c0-0.1-0.1-0.3-0.3-0.3H50.1c-0.2,0-0.4,0.1-0.4,0.3c0,0.2,0.1,0.4,0.3,0.4
	c0,0,0.1,0,0.1,0H67z"/>
<path class="st0" d="M67,47.8c0.2,0,0.3-0.2,0.3-0.3c0-0.2-0.1-0.3-0.3-0.3H50.1c-0.2,0-0.3,0.2-0.3,0.3c0,0.2,0.2,0.3,0.3,0.3l0,0
	H67z"/>
<path class="st0" d="M67,49c0.2,0,0.3-0.2,0.3-0.3s-0.2-0.3-0.3-0.3H50.1c-0.2,0-0.3,0.2-0.3,0.3s0.2,0.3,0.3,0.3H67z"/>
<path class="st0" d="M72.2,43.8c0,0.2,0,0.5,0.1,0.7c0.1,0.1,0.2,0.2,0.3,0.2c0.1,0,0.3-0.1,0.3-0.2c0-0.2,0.1-0.3,0.1-0.5h-0.2
	c0,0.1,0,0.3,0,0.4c0,0.1-0.1,0.1-0.1,0.1s-0.1,0-0.1-0.1c0-0.2,0-0.4,0-0.6c0-0.2,0-0.4,0-0.6c0-0.1,0.1-0.1,0.1-0.1
	c0.1,0,0.1,0,0.1,0.1c0,0.2,0,0.4,0,0.5H73c0-0.2,0-0.4-0.1-0.6c-0.1-0.1-0.2-0.2-0.3-0.2c-0.1,0-0.3,0.1-0.3,0.2
	C72.2,43.4,72.2,43.6,72.2,43.8z"/>
<path class="st0" d="M73.2,44.2c0,0.1,0,0.3,0.1,0.4c0.1,0.1,0.2,0.1,0.3,0.1c0.1,0,0.1,0,0.2,0v-0.2h-0.1c0,0-0.1,0-0.1,0
	c0-0.1,0-0.2,0-0.2v-1.1h0.2V43h-0.2v-0.3h-0.2L73.2,43h-0.1v0.2h0.1V44.2z"/>
<path class="st0" d="M73.8,44.2c0,0.1,0,0.2,0,0.3c0,0.1,0.2,0.2,0.3,0.2c0.1,0,0.2-0.1,0.3-0.2l0,0v0.2h0.1v-1c0-0.2,0-0.4-0.1-0.6
	c-0.2-0.2-0.4-0.2-0.6-0.1c0,0-0.1,0-0.1,0.1c-0.1,0.2-0.1,0.3-0.1,0.5H74c0-0.1,0-0.3,0-0.4c0-0.1,0.1-0.1,0.1-0.1
	c0.1,0,0.1,0,0.1,0.1c0,0.2,0,0.3,0,0.5v0.1l0,0c-0.1-0.1-0.3-0.2-0.4-0.1c0,0-0.1,0.1-0.1,0.1C73.7,44,73.7,44.1,73.8,44.2z
	 M74.2,44.5c-0.1,0-0.1,0-0.1-0.1c0-0.1,0-0.3,0-0.4c0-0.1,0.1-0.1,0.2-0.1c0,0,0.1,0,0.1,0.1c0,0.1,0,0.1,0,0.2c0,0.1,0,0.1,0,0.2
	C74.3,44.5,74.2,44.5,74.2,44.5z"/>
<path class="st0" d="M74.8,44.6c0,0,0,0.1,0,0.1c0,0,0.1,0,0.1,0c0,0,0.1,0,0.1,0c0,0,0,0,0-0.1s0-0.1,0-0.1c0,0-0.1,0-0.1,0
	c0,0-0.1,0-0.1,0C74.8,44.5,74.8,44.5,74.8,44.6z"/>
<path class="st0" d="M66.9,36.3h9.5v13.3h-9.5V36.3z M67.7,42.3v1.3h2.6v-1.2L67.7,42.3z M70.5,47.6v-2.3c0-0.1-0.1-0.2-0.2-0.2H68
	c-0.1,0-0.2,0.1-0.2,0.2v2.3c0,0.1,0.1,0.2,0.2,0.2h2.3C70.4,47.8,70.5,47.7,70.5,47.6C70.5,47.6,70.5,47.6,70.5,47.6L70.5,47.6z
	 M73.4,46.4c1.4,0,2.6-1.1,2.6-2.6s-1.1-2.6-2.6-2.6s-2.6,1.1-2.6,2.6c0,0,0,0,0,0C70.8,45.3,72,46.4,73.4,46.4
	C73.4,46.5,73.4,46.5,73.4,46.4L73.4,46.4z"/>
<path class="st0" d="M46.8,25.5c0.6,0,1.1,0.5,1.1,1.1v9.1c0,0.6-0.5,1.1-1.1,1.1H43c-0.6,0-1.1-0.5-1.1-1.1v-9.1
	c0-0.6,0.5-1.1,1.1-1.1H46.8z M47.8,27.2v-0.6H42v0.6H47.8z"/>
<path class="st0" d="M46.8,37c0.7,0,1.3-0.6,1.3-1.3v-9.1c0-0.7-0.6-1.3-1.3-1.3l0,0H43c-0.7,0-1.3,0.6-1.3,1.3l0,0v9.1
	c0,0.7,0.6,1.3,1.3,1.3H46.8z M42,27.4h5.7v8.4c0,0.6-0.4,1-1,1H43c-0.6,0-1-0.4-1-1V27.4z M42.2,27v-0.2h5.4V27H42.2z M42,26.5
	c0.1-0.5,0.5-0.8,1-0.8h3.8c0.5,0,0.9,0.3,1,0.8H42z"/>
<path class="st0" d="M61.2,23c0.3,0,0.5,0.2,0.5,0.5v0.7h-7.2v-0.7c0-0.3,0.2-0.5,0.5-0.5H61.2z"/>
<path class="st0" d="M62,24.5v-0.9c0-0.4-0.3-0.8-0.8-0.8h-6.2c-0.4,0-0.8,0.3-0.8,0.8v0.9H62z M54.8,24v-0.5c0-0.2,0.1-0.3,0.3-0.3
	c0,0,0,0,0,0h6.1c0.2,0,0.3,0.1,0.3,0.3c0,0,0,0,0,0V24H54.8z"/>
<path class="st0" d="M54.5,32.1v-7h7.2v7c0,0.3-0.2,0.5-0.5,0.5h-6.1C54.8,32.7,54.5,32.4,54.5,32.1L54.5,32.1z"/>
<path class="st0" d="M61.2,32.9c0.4,0,0.8-0.3,0.8-0.8v-7.2h-7.7v7.2c0,0.4,0.3,0.8,0.8,0.8L61.2,32.9z M54.8,25.3h6.7v6.8
	c0,0.2-0.1,0.3-0.3,0.3h-6.1c-0.2,0-0.3-0.1-0.3-0.3V25.3z"/>
<path class="st0" d="M72.2,33.6c0.5,0,0.9-0.4,0.9-0.9V23c0-0.5-0.4-0.9-0.9-0.9h-7.5c-0.5,0-0.9,0.4-0.9,0.9v9.8
	c0,0.5,0.4,0.9,0.9,0.9L72.2,33.6z M64.7,22.6h7.5c0.2,0,0.4,0.2,0.4,0.4c0,0,0,0,0,0v9.8c0,0.2-0.2,0.4-0.4,0.4l0,0h-7.5
	c-0.2,0-0.4-0.2-0.4-0.4l0,0V23C64.3,22.8,64.4,22.6,64.7,22.6C64.6,22.6,64.7,22.6,64.7,22.6z"/>
<path class="st0" d="M64.8,32.1v-7H72v7c0,0.3-0.2,0.5-0.5,0.5c0,0,0,0,0,0h-6.2C65,32.6,64.8,32.4,64.8,32.1
	C64.8,32.1,64.8,32.1,64.8,32.1z"/>
<path class="st0" d="M71.5,32.9c0.4,0,0.8-0.3,0.8-0.8v-7.2h-7.7v7.2c0,0.4,0.3,0.8,0.8,0.8H71.5z M65,25.3h6.7v6.8
	c0,0.2-0.1,0.3-0.3,0.3c0,0,0,0,0,0h-6.1c-0.2,0-0.3-0.1-0.3-0.3c0,0,0,0,0,0L65,25.3z"/>
<path class="st0" d="M71.5,23c0.3,0,0.5,0.2,0.5,0.5v0.7h-7.2v-0.7c0-0.3,0.2-0.5,0.5-0.5L71.5,23z"/>
<path class="st0" d="M72.2,24.4v-0.9c0-0.4-0.3-0.8-0.8-0.8l0,0h-6.1c-0.4,0-0.8,0.3-0.8,0.8v0v0.9H72.2z M65,24v-0.5
	c0-0.2,0.1-0.3,0.3-0.3l0,0h6.1c0.2,0,0.3,0.1,0.3,0.3v0V24H65z"/>
<path class="st0" d="M81.7,21v10c0,0.5-0.3,1-0.8,1.1l-1.7,0.5c-0.3,0.1-0.7-0.1-0.8-0.4c0-0.1,0-0.2,0-0.3v-10c0-0.5,0.4-1,0.8-1.1
	l1.7-0.5c0.3-0.1,0.7,0.1,0.8,0.4C81.7,20.8,81.7,20.9,81.7,21z M81.6,21.9v-0.6l-3.2,0.9v0.6L81.6,21.9z"/>
<path class="st0" d="M78.9,32.8c0.1,0,0.2,0,0.2,0l1.7-0.5c0.6-0.2,0.9-0.7,0.9-1.3V21c0-0.3-0.1-0.5-0.3-0.7
	c-0.2-0.1-0.4-0.2-0.7-0.1l-1.7,0.5c-0.5,0.2-0.9,0.7-0.9,1.2v10c0,0.3,0.1,0.5,0.3,0.7C78.6,32.7,78.8,32.7,78.9,32.8z M78.4,22.9
	l3.2-0.9v9c0,0.5-0.3,0.9-0.8,1l-1.7,0.5c-0.2,0-0.3,0-0.5-0.1c-0.1-0.1-0.2-0.3-0.2-0.5L78.4,22.9z M78.5,22.3l3-0.8v0.3l-3,0.8
	V22.3z M81.1,20.4c0.1,0,0.2,0,0.3,0.1c0.1,0.1,0.2,0.3,0.2,0.5v0.2l-3.2,0.9v-0.1c0-0.5,0.3-0.9,0.8-1l1.7-0.5
	C81,20.5,81,20.4,81.1,20.4z"/>
<path class="st0" d="M76.4,52.8c0.3,0,0.5-0.2,0.5-0.5v-35c0-0.1,0-0.2-0.1-0.3C76.7,17,76.6,17,76.4,17H14.6c0-0.3,0.1-0.6,0.2-0.8
	c0.5-0.7,1.6-1.2,3.2-1.5c4-0.6,52.1-0.1,63.2,0l-2.9,1.1c-0.2,0.1-0.3,0.4-0.2,0.6c0.1,0.2,0.4,0.4,0.6,0.3c0,0,0,0,0,0l5-2
	c0.2-0.1,0.3-0.3,0.3-0.5c0-0.2-0.2-0.4-0.4-0.4c-2.5,0-61.1-0.7-65.7,0c-1.9,0.3-3.2,0.9-3.9,1.9c-0.4,0.6-0.5,1.2-0.3,1.9
	c0.1,0.2,0.2,0.3,0.4,0.3H76v34H26.9c-0.3,0-0.4,0.3-0.4,0.5c0,0.2,0.2,0.4,0.4,0.4L76.4,52.8z"/>
<line class="st1" x1="83.5" y1="47.2" x2="76.4" y2="49.7"/>
<path class="st0" d="M76.4,50.1c0,0,0.1,0,0.2,0l7-2.5c0.2-0.1,0.4-0.3,0.3-0.6c-0.1-0.2-0.3-0.4-0.6-0.3l-7,2.5
	c-0.2,0.1-0.4,0.3-0.3,0.6c0,0,0,0,0,0C76.1,50,76.3,50.1,76.4,50.1z"/>
<path class="st0" d="M78.6,19.8c0.1,0,0.3,0,0.4-0.1c0.3-0.1,0.5-0.3,0.6-0.6c0.1-0.3,0.1-0.6,0-0.8l0,0c-0.1-0.3-0.3-0.5-0.6-0.6
	c-0.3-0.1-0.6-0.1-0.8,0c-0.6,0.2-0.8,0.8-0.6,1.4c0.1,0.3,0.3,0.5,0.6,0.6C78.3,19.8,78.5,19.8,78.6,19.8z M78.6,17.7
	c0.1,0,0.3,0,0.4,0.1c0.3,0.1,0.4,0.3,0.5,0.6l0,0c0.1,0.2,0.1,0.5,0,0.8c-0.1,0.3-0.3,0.5-0.6,0.5c-0.3,0.1-0.5,0.1-0.8,0
	c-0.5-0.2-0.8-0.7-0.6-1.3c0.1-0.3,0.3-0.5,0.6-0.6C78.4,17.7,78.5,17.7,78.6,17.7L78.6,17.7z"/>
<circle class="st0" cx="78.6" cy="18.7" r="0.7"/>
<path class="st0" d="M78.6,19.5c0.1,0,0.2,0,0.3,0c0.4-0.2,0.6-0.6,0.4-1c0,0,0,0,0,0l0,0c-0.1-0.2-0.2-0.3-0.4-0.4
	c-0.2-0.1-0.4-0.1-0.6,0c-0.4,0.1-0.6,0.6-0.4,1c0,0,0,0,0,0C78,19.3,78.3,19.5,78.6,19.5z M78.6,18c0.1,0,0.2,0,0.3,0.1
	c0.2,0.1,0.3,0.2,0.3,0.4l0,0c0.1,0.2,0.1,0.3,0,0.5c-0.1,0.2-0.2,0.3-0.3,0.3c-0.3,0.1-0.7,0-0.8-0.4c-0.1-0.3,0-0.7,0.3-0.8
	c0,0,0,0,0,0C78.5,18,78.6,18,78.6,18L78.6,18z"/>
<path class="st0" d="M81.2,18.7c0.1,0,0.3,0,0.4-0.1c0.6-0.2,0.8-0.8,0.6-1.4l0,0c-0.2-0.6-0.9-0.8-1.4-0.6
	c-0.3,0.1-0.5,0.3-0.6,0.6c-0.1,0.3-0.1,0.6,0,0.8c0.1,0.3,0.3,0.5,0.6,0.6C81,18.7,81.1,18.7,81.2,18.7z M81.2,16.6
	c0.4,0,0.8,0.2,1,0.7l0,0c0.2,0.5,0,1.1-0.5,1.3c0,0,0,0,0,0c-0.3,0.1-0.5,0.1-0.8,0c-0.3-0.1-0.4-0.3-0.5-0.6
	c-0.1-0.2-0.1-0.5,0-0.8c0.1-0.3,0.3-0.5,0.6-0.5C81,16.6,81.1,16.6,81.2,16.6z"/>
<circle class="st0" cx="81.2" cy="17.6" r="0.7"/>
<path class="st0" d="M81.2,18.4c0.1,0,0.2,0,0.3,0c0.4-0.2,0.6-0.6,0.4-1l0,0c-0.2-0.4-0.6-0.6-1-0.4c-0.2,0.1-0.3,0.2-0.4,0.4
	c-0.1,0.2-0.1,0.4,0,0.6c0.1,0.2,0.2,0.4,0.4,0.4C81,18.4,81.1,18.4,81.2,18.4z M81.2,17c0.3,0,0.5,0.2,0.6,0.4l0,0
	c0.1,0.3,0,0.7-0.4,0.8c-0.2,0.1-0.3,0.1-0.5,0c-0.2-0.1-0.3-0.2-0.3-0.4c-0.1-0.2-0.1-0.3,0-0.5c0.1-0.2,0.2-0.3,0.4-0.4
	C81.1,17,81.1,17,81.2,17L81.2,17z"/>
<path class="st0" d="M75.9,17.5l2.7-1.2l5-2c0,0-61-0.7-65.6,0s-3.8,3.2-3.8,3.2L75.9,17.5L75.9,17.5z"/>
<path class="st0" d="M75.9,18c0.1,0,0.1,0,0.2,0l2.7-1.2l5-2c0.2-0.1,0.3-0.3,0.3-0.5c0-0.2-0.2-0.4-0.4-0.4c-2.5,0-61.1-0.7-65.7,0
	c-1.9,0.3-3.2,0.9-3.9,1.9c-0.4,0.6-0.5,1.2-0.3,1.9c0.1,0.2,0.2,0.3,0.4,0.3L75.9,18z M14.6,17c0-0.3,0.1-0.6,0.2-0.8
	c0.5-0.7,1.6-1.2,3.2-1.5c4-0.6,52.1-0.1,63.2,0l-2.9,1.2L75.8,17H14.6z"/>
</svg>
